<svg width="146" height="43" viewBox="0 0 146 43" fill="none" xmlns="http://www.w3.org/2000/svg">
<g id="apollo" clip-path="url(#clip0_1_145)">
<g id="Group" opacity="0.3">
<path id="Vector" d="M22.3888 12.7727H18.0475L11.8644 28.8676H15.8111L16.8635 26.1197H22.7835L21.5995 23.11H17.7844L20.2839 16.1749L24.7568 28.8676H28.7034L22.3888 12.7727ZM87.7714 28.7367V12.7727H91.1918V25.858H98.0326V28.8676H87.7714V28.7367ZM107.768 28.7367V12.7727H111.188V25.858H118.029V28.8676H107.768V28.7367ZM68.696 15.6514C71.5902 15.6514 73.8266 18.0068 73.8266 20.7547C73.8266 23.5026 71.4586 25.858 68.696 25.858C65.8018 25.858 63.5653 23.5026 63.5653 20.7547C63.5653 18.0068 65.8018 15.6514 68.696 15.6514ZM68.696 12.511C64.0916 12.511 60.408 16.1749 60.408 20.7547C60.408 25.3345 64.0916 28.9984 68.696 28.9984C73.3004 28.9984 76.9839 25.3345 76.9839 20.7547C76.9839 16.1749 73.3004 12.511 68.696 12.511ZM133.947 15.6514C136.841 15.6514 139.078 18.0068 139.078 20.7547C139.078 23.5026 136.71 25.858 133.947 25.858C131.184 25.858 128.816 23.5026 128.816 20.7547C128.816 18.0068 131.053 15.6514 133.947 15.6514ZM133.947 12.511C129.343 12.511 125.659 16.1749 125.659 20.7547C125.659 25.3345 129.343 28.9984 133.947 28.9984C138.551 28.9984 142.235 25.3345 142.235 20.7547C142.235 16.1749 138.551 12.511 133.947 12.511ZM46.2002 12.7727H38.7015V28.8676H42.122V23.3718H46.2002C49.0944 23.3718 51.3308 21.0164 51.3308 18.1376C51.4623 15.128 49.0944 12.7727 46.2002 12.7727ZM46.2002 20.1004H42.122V15.9132H46.2002C47.2526 15.9132 48.1735 16.96 48.1735 18.0068C48.1735 19.0536 47.3841 20.1004 46.2002 20.1004Z" fill="#4A2C2A"/>
<path id="Vector_2" d="M35.8073 33.7091C35.5442 33.7091 35.2811 33.84 35.018 34.1017C35.018 34.1017 34.2287 35.0176 33.834 35.4102C32.1238 37.1113 30.0189 38.5507 27.7825 39.4666C25.4145 40.5134 22.915 40.906 20.2839 40.906C17.6528 40.906 15.1533 40.3826 12.7853 39.4666C10.5489 38.5507 8.444 37.1113 6.73379 35.4102C4.89203 33.5783 3.44493 31.4846 2.52405 29.2601C1.47162 26.9048 0.9454 24.4186 0.9454 21.8015C0.9454 19.1845 1.47162 16.6983 2.3925 14.3429C3.44493 12.1184 4.89203 10.0248 6.60224 8.32371C8.31245 6.62263 10.4173 5.18325 12.6537 4.26728C15.0217 3.22046 17.5213 2.8279 20.1523 2.8279C22.7834 2.8279 25.283 3.35131 27.6509 4.26728C29.3612 4.92154 30.8083 5.83751 32.2554 7.01518C32.1238 7.27689 32.1238 7.53859 32.1238 7.66945C32.1238 8.84712 33.0447 9.89394 34.3602 9.89394C35.5442 9.89394 36.5966 8.97797 36.5966 7.66945C36.5966 6.36092 35.6758 5.44495 34.3602 5.44495C34.0971 5.44495 33.834 5.44495 33.5709 5.5758C29.8874 2.69705 25.283 0.865112 20.1523 0.865112C8.57556 0.865112 -0.896362 10.1556 -0.896362 21.8015C-0.896362 33.4474 8.444 42.7379 20.1523 42.7379C26.5985 42.7379 32.3869 39.8592 36.3335 35.1485C36.4651 35.0176 36.5966 34.7559 36.5966 34.4942C36.5966 34.1017 36.202 33.7091 35.8073 33.7091Z" fill="#4A2C2A"/>
</g>
</g>
<defs>
<clipPath id="clip0_1_145">
<rect width="145.506" height="41.8728" fill="white" transform="translate(0.357971 0.865112)"/>
</clipPath>
</defs>
</svg>
