<svg width="25" height="25" viewBox="0 0 25 25" fill="none" xmlns="http://www.w3.org/2000/svg">
<g id="eva:arrow-ios-forward-fill">
<path id="Vector" d="M7.99993 19.4999C7.76628 19.5004 7.53984 19.419 7.35993 19.2699C7.25867 19.186 7.17497 19.0829 7.11362 18.9665C7.05226 18.8502 7.01447 18.7229 7.00239 18.5919C6.99032 18.4609 7.0042 18.3289 7.04324 18.2033C7.08229 18.0777 7.14573 17.961 7.22993 17.8599L11.7099 12.4999L7.38993 7.12994C7.30686 7.02765 7.24483 6.90996 7.2074 6.78362C7.16997 6.65728 7.15787 6.52479 7.17181 6.39376C7.18575 6.26273 7.22545 6.13575 7.28862 6.02011C7.3518 5.90447 7.4372 5.80246 7.53993 5.71994C7.64339 5.6289 7.76456 5.56024 7.89582 5.51825C8.02709 5.47626 8.16561 5.46185 8.3027 5.47594C8.4398 5.49002 8.5725 5.53229 8.69248 5.6001C8.81246 5.6679 8.91714 5.75977 8.99993 5.86994L13.8299 11.8699C13.977 12.0489 14.0574 12.2733 14.0574 12.5049C14.0574 12.7366 13.977 12.961 13.8299 13.1399L8.82993 19.1399C8.72961 19.261 8.60218 19.3566 8.45797 19.4192C8.31376 19.4817 8.15683 19.5094 7.99993 19.4999Z" fill="white"/>
</g>
</svg>
