<svg width="30" height="33" viewBox="0 0 30 33" fill="none" xmlns="http://www.w3.org/2000/svg">
<path id="Vector" d="M20.993 31.1286C20.993 31.4461 20.8669 31.7506 20.6424 31.9751C20.4179 32.1996 20.1134 32.3257 19.7959 32.3257H10.2187C9.90116 32.3257 9.59666 32.1996 9.37215 31.9751C9.14764 31.7506 9.02151 31.4461 9.02151 31.1286C9.02151 30.8111 9.14764 30.5066 9.37215 30.2821C9.59666 30.0576 9.90116 29.9314 10.2187 29.9314H19.7959C20.1134 29.9314 20.4179 30.0576 20.6424 30.2821C20.8669 30.5066 20.993 30.8111 20.993 31.1286ZM29.8803 6.63492C28.5349 4.00516 26.5145 1.78031 24.0263 0.188268C23.8933 0.103344 23.7449 0.0455328 23.5896 0.0181594C23.4342 -0.00921394 23.2749 -0.00560994 23.121 0.028764C22.967 0.063138 22.8214 0.127604 22.6924 0.218456C22.5634 0.309309 22.4537 0.424756 22.3695 0.558161C22.2853 0.691567 22.2283 0.840299 22.2017 0.995809C22.1752 1.15132 22.1797 1.31054 22.2149 1.46432C22.2501 1.6181 22.3153 1.7634 22.4069 1.89188C22.4984 2.02035 22.6145 2.12947 22.7483 2.21295C24.8831 3.57096 26.6127 5.47891 27.7554 7.73629C27.9064 8.00915 28.1579 8.21231 28.4564 8.30255C28.7549 8.39279 29.0769 8.36299 29.3537 8.21949C29.6306 8.07598 29.8406 7.8301 29.9389 7.53417C30.0373 7.23823 30.0162 6.9156 29.8803 6.63492ZM1.19665 8.38276C1.41597 8.38266 1.63105 8.32232 1.81842 8.20832C2.00578 8.09432 2.15823 7.93104 2.25912 7.73629C3.4018 5.47891 5.13141 3.57096 7.26619 2.21295C7.40005 2.12947 7.51609 2.02035 7.60764 1.89188C7.69919 1.7634 7.76445 1.6181 7.79965 1.46432C7.83486 1.31054 7.83932 1.15132 7.81279 0.995809C7.78626 0.840299 7.72925 0.691567 7.64505 0.558161C7.56085 0.424756 7.45111 0.309309 7.32214 0.218456C7.19317 0.127604 7.04751 0.063138 6.89354 0.028764C6.73958 -0.00560994 6.58034 -0.00921394 6.42497 0.0181594C6.26961 0.0455328 6.12119 0.103344 5.98824 0.188268C3.5 1.78031 1.47966 4.00516 0.134178 6.63492C0.0396599 6.81736 -0.00630889 7.02106 0.000695994 7.22642C0.00770088 7.43177 0.0674435 7.63187 0.174174 7.80745C0.280905 7.98303 0.431032 8.12818 0.610106 8.22894C0.78918 8.3297 0.991174 8.38267 1.19665 8.38276ZM26.9788 14.3685C26.9788 11.1935 25.7175 8.14847 23.4724 5.90338C21.2273 3.65829 18.1823 2.39701 15.0073 2.39701C11.8322 2.39701 8.78723 3.65829 6.54214 5.90338C4.29705 8.14847 3.03577 11.1935 3.03577 14.3685C3.03577 18.3011 2.32047 21.6098 0.96919 23.9367C0.7571 24.3004 0.644664 24.7136 0.643219 25.1346C0.641773 25.5556 0.75137 25.9696 0.960957 26.3347C1.17054 26.6999 1.47271 27.0033 1.83698 27.2144C2.20125 27.4255 2.61475 27.5368 3.03577 27.5371H26.9788C27.3995 27.5363 27.8126 27.4246 28.1765 27.2133C28.5403 27.002 28.8421 26.6985 29.0513 26.3335C29.2606 25.9684 29.3699 25.5546 29.3683 25.1339C29.3667 24.7131 29.2543 24.3002 29.0423 23.9367C27.694 21.6083 26.9788 18.2996 26.9788 14.3685Z" fill="#CC9966"/>
</svg>
