<svg width="32" height="32" viewBox="0 0 32 32" fill="none" xmlns="http://www.w3.org/2000/svg">
<g id="vuesax/twotone/call">
<g id="call">
<g id="call_2">
<path id="Vector" d="M28.4797 24.096C28.4797 24.5627 28.376 25.0423 28.1556 25.509C27.9352 25.9756 27.6501 26.4164 27.2741 26.8312C26.6389 27.5312 25.9389 28.0367 25.1482 28.3608C24.3704 28.6849 23.5278 28.8534 22.6204 28.8534C21.2982 28.8534 19.8852 28.5423 18.3945 27.9071C16.9038 27.2719 15.413 26.4164 13.9352 25.3405C12.4445 24.2516 11.0315 23.046 9.68339 21.7108C8.34821 20.3627 7.14265 18.9497 6.06673 17.4719C5.00376 15.9942 4.14821 14.5164 3.52598 13.0516C2.90376 11.5738 2.59265 10.1608 2.59265 8.81267C2.59265 7.93119 2.74821 7.0886 3.05932 6.31082C3.37043 5.52008 3.86302 4.79416 4.55006 4.14601C5.37969 3.32934 6.2871 2.92749 7.24636 2.92749C7.60932 2.92749 7.97228 3.00527 8.29636 3.16082C8.63339 3.31638 8.93154 3.54971 9.16487 3.88675L12.1723 8.12564C12.4056 8.44971 12.5741 8.74786 12.6908 9.03305C12.8075 9.30527 12.8723 9.57749 12.8723 9.82379C12.8723 10.1349 12.7815 10.446 12.6001 10.7442C12.4315 11.0423 12.1852 11.3534 11.8741 11.6645L10.8889 12.6886C10.7464 12.8312 10.6815 12.9997 10.6815 13.2071C10.6815 13.3108 10.6945 13.4016 10.7204 13.5053C10.7593 13.609 10.7982 13.6867 10.8241 13.7645C11.0575 14.1923 11.4593 14.7497 12.0297 15.4238C12.613 16.0979 13.2352 16.7849 13.9093 17.4719C14.6093 18.159 15.2834 18.7942 15.9704 19.3775C16.6445 19.9479 17.2019 20.3367 17.6427 20.5701C17.7075 20.596 17.7852 20.6349 17.876 20.6738C17.9797 20.7127 18.0834 20.7256 18.2001 20.7256C18.4204 20.7256 18.5889 20.6479 18.7315 20.5053L19.7167 19.533C20.0408 19.209 20.3519 18.9627 20.6501 18.8071C20.9482 18.6256 21.2464 18.5349 21.5704 18.5349C21.8167 18.5349 22.076 18.5867 22.3612 18.7034C22.6464 18.8201 22.9445 18.9886 23.2686 19.209L27.5593 22.2553C27.8964 22.4886 28.1297 22.7608 28.2723 23.0849C28.4019 23.409 28.4797 23.733 28.4797 24.096Z" stroke="white" stroke-width="1.66667" stroke-miterlimit="10"/>
</g>
</g>
</g>
</svg>
