<svg width="137" height="36" viewBox="0 0 137 36" fill="none" xmlns="http://www.w3.org/2000/svg">
<g id="covenant" clip-path="url(#clip0_1_118)">
<path id="Vector" opacity="0.3" d="M122.609 25.8031V16.1571C122.609 11.8821 119.854 9.68982 116.769 9.68982C114.675 9.68982 113.132 10.4571 112.25 11.5533V10.1283H107.512V25.8031H112.25V17.2532C112.25 15.0609 113.463 13.9648 115.226 13.9648C116.769 13.9648 117.981 14.8417 117.981 16.8147V25.8031H122.609Z" fill="#4A2C2A"/>
<path id="Vector_2" opacity="0.3" d="M133.52 23.5012C131.867 23.5012 131.867 22.0762 131.867 22.0762V16.4859H135.173V11.9917H131.867V7.60718L127.128 9.03216V11.9917H124.593V16.4859H127.128V22.1859C127.128 26.5704 128.891 28.4339 135.062 27.7762L133.52 23.5012Z" fill="#4A2C2A"/>
<path id="Vector_3" opacity="0.3" d="M84.5898 25.8031V16.1571C84.5898 11.8821 81.8347 9.68982 78.749 9.68982C76.6552 9.68982 75.1124 10.4571 74.2308 11.5533V10.1283H69.4921V25.8031H74.2308V17.2532C74.2308 15.0609 75.443 13.9648 77.2062 13.9648C78.749 13.9648 79.9613 14.8417 79.9613 16.8147V25.8031H84.5898Z" fill="#4A2C2A"/>
<path id="Vector_4" opacity="0.3" d="M103.985 25.6935V10.0187H99.2466V11.5533C98.2548 10.3475 96.7119 9.68982 94.5079 9.68982C90.4304 9.68982 87.0142 13.3071 87.0142 18.0205C87.0142 22.7339 90.4304 26.3512 94.5079 26.3512C96.6017 26.3512 98.1446 25.5839 99.2466 24.4877V26.0223L103.985 25.6935ZM95.4997 21.6378C93.2957 21.6378 91.7529 20.2128 91.7529 17.8013C91.7529 15.4994 93.2957 13.9648 95.4997 13.9648C97.7038 13.9648 99.2466 15.3898 99.2466 17.8013C99.2466 20.2128 97.7038 21.6378 95.4997 21.6378Z" fill="#4A2C2A"/>
<path id="Vector_5" opacity="0.3" d="M44.2559 25.6935L50.0966 9.90906H44.8069L41.5008 19.8839L38.305 9.90906H33.0153L38.856 25.6935H44.2559Z" fill="#4A2C2A"/>
<path id="Vector_6" opacity="0.3" d="M21.9951 21.5282L19.3503 19.9936L17.1462 23.9397C17.1462 23.9397 20.5625 27.2281 24.4196 26.7897C28.2767 26.3512 30.0399 24.9262 30.0399 24.9262C30.0399 24.9262 35.8806 20.7609 33.1256 14.4033C30.3705 8.04565 23.2074 8.92257 23.2074 8.92257C23.2074 8.92257 19.1299 9.58025 17.6973 11.1149C17.6973 11.1149 16.7054 11.8821 15.8238 13.3071C14.9422 14.7321 11.7463 20.6513 11.7463 20.6513C11.7463 20.6513 10.3137 22.5147 7.11786 21.9667C3.922 21.4186 4.1424 17.3629 4.1424 17.3629C4.1424 17.3629 3.922 14.5129 7.11786 13.9648C10.3137 13.4167 11.6361 15.061 11.6361 15.061L14.1708 10.6764C14.1708 10.6764 9.4321 7.27836 4.0322 9.68987C-1.3677 12.1014 -1.47791 17.5821 -1.47791 17.5821C-1.47791 17.5821 -1.0371 22.4051 1.38735 24.1589C3.8118 25.9128 4.80361 27.0089 10.3137 26.6801C15.8238 26.3512 17.8075 19.9936 17.8075 19.9936L20.0115 15.8283C20.0115 15.8283 21.9951 12.3206 26.6236 14.4033C26.6236 14.4033 29.7093 17.034 27.6154 19.9936C25.5216 22.9532 21.9951 21.5282 21.9951 21.5282Z" fill="#4A2C2A"/>
<path id="Vector_7" opacity="0.3" d="M66.7371 17.8013C66.7371 13.0878 63.3209 9.47058 58.6924 9.47058C53.7333 9.47058 50.317 13.0878 50.317 17.8013C50.317 22.5147 53.6231 26.1319 59.023 26.1319C61.9984 26.1319 64.3127 25.0358 65.8555 22.8435L62.1086 20.6512C61.4474 21.3089 60.3454 21.857 59.023 21.857C57.2597 21.857 55.8271 21.3089 55.2761 19.6647H66.5167C66.7371 19.1166 66.7371 18.4589 66.7371 17.8013ZM55.2761 16.157C55.7169 14.5128 56.9291 13.6359 58.6924 13.6359C60.125 13.6359 61.5576 14.2936 61.9984 16.157C62.1086 16.157 55.2761 16.157 55.2761 16.157Z" fill="#4A2C2A"/>
</g>
<defs>
<clipPath id="clip0_1_118">
<rect width="136.808" height="35.0765" fill="white" transform="translate(0.194824 0.263062)"/>
</clipPath>
</defs>
</svg>
