<svg width="31" height="29" viewBox="0 0 31 29" fill="none" xmlns="http://www.w3.org/2000/svg">
<path id="Vector" d="M22.473 28.8889H28.3368C28.9262 28.8889 29.4914 28.6547 29.9082 28.238C30.3249 27.8213 30.5591 27.256 30.5591 26.6667V21.4375C30.5581 21.2553 30.5124 21.0761 30.4259 20.9157C30.3393 20.7554 30.2147 20.6187 30.063 20.5179C29.9112 20.417 29.737 20.355 29.5556 20.3374C29.3742 20.3197 29.1913 20.347 29.023 20.4167C28.6292 20.5793 28.2073 20.6628 27.7813 20.6625C25.9438 20.6625 24.448 19.1208 24.448 17.2278C24.448 15.3347 25.9438 13.793 27.7813 13.793C28.2073 13.7927 28.6292 13.8762 29.023 14.0389C29.1922 14.1089 29.3761 14.1361 29.5584 14.1179C29.7406 14.0997 29.9155 14.0367 30.0676 13.9346C30.2196 13.8324 30.344 13.6943 30.4298 13.5325C30.5155 13.3706 30.5599 13.1901 30.5591 13.0069V7.77777C30.5591 7.1884 30.3249 6.62317 29.9082 6.20643C29.4914 5.78968 28.9262 5.55555 28.3368 5.55555H23.3063C23.327 5.37109 23.3372 5.18561 23.3369 5C23.3369 3.67392 22.8101 2.40215 21.8724 1.46447C20.9347 0.526784 19.6629 0 18.3369 0C17.0108 0 15.739 0.526784 14.8013 1.46447C13.8636 2.40215 13.3369 3.67392 13.3369 5C13.3365 5.18561 13.3467 5.37109 13.3674 5.55555H8.33686C7.74749 5.55555 7.18226 5.78968 6.76551 6.20643C6.34876 6.62317 6.11464 7.1884 6.11464 7.77777V12.2528C5.93018 12.2321 5.74469 12.2219 5.55908 12.2222C4.233 12.2222 2.96123 12.749 2.02355 13.6867C1.08587 14.6244 0.559082 15.8961 0.559082 17.2222C0.559082 18.5483 1.08587 19.8201 2.02355 20.7577C2.96123 21.6954 4.233 22.2222 5.55908 22.2222C5.74469 22.2225 5.93018 22.2123 6.11464 22.1917V26.6667C6.11464 27.256 6.34876 27.8213 6.76551 28.238C7.18226 28.6547 7.74749 28.8889 8.33686 28.8889H14.2007" fill="#CC9966"/>
</svg>
