<svg width="358" height="325" viewBox="0 0 358 325" fill="none" xmlns="http://www.w3.org/2000/svg">
<g filter="url(#filter0_d_1_578)">
<rect x="42.5" y="28.5" width="287" height="253.844" rx="9.25169" fill="white" stroke="#E2E2E2"/>
<path d="M72.5555 169.725H275.391" stroke="white" stroke-width="0.650113" stroke-dasharray="1.95 3.9"/>
<path d="M72.5554 143.72H275.391" stroke="white" stroke-width="0.650113" stroke-dasharray="1.95 3.9"/>
<path d="M72.5555 195.729H275.391" stroke="white" stroke-width="0.650113" stroke-dasharray="1.95 3.9"/>
<path d="M72.5555 221.734H275.391" stroke="white" stroke-width="0.650113"/>
<path opacity="0.5" d="M82.5474 231.596C82.5474 230.776 82.6809 230.137 82.9479 229.679C83.2148 229.217 83.6821 228.986 84.3495 228.986C85.0122 228.986 85.477 229.217 85.744 229.679C86.011 230.137 86.1445 230.776 86.1445 231.596C86.1445 232.43 86.011 233.079 85.744 233.541C85.477 234.004 85.0122 234.235 84.3495 234.235C83.6821 234.235 83.2148 234.004 82.9479 233.541C82.6809 233.079 82.5474 232.43 82.5474 231.596ZM85.5009 231.596C85.5009 231.181 85.4723 230.831 85.415 230.545C85.3626 230.254 85.2506 230.02 85.0789 229.844C84.9121 229.667 84.6689 229.579 84.3495 229.579C84.0253 229.579 83.7774 229.667 83.6058 229.844C83.4389 230.02 83.3269 230.254 83.2697 230.545C83.2172 230.831 83.191 231.181 83.191 231.596C83.191 232.025 83.2172 232.385 83.2697 232.676C83.3269 232.967 83.4389 233.2 83.6058 233.377C83.7774 233.553 84.0253 233.641 84.3495 233.641C84.6689 233.641 84.9121 233.553 85.0789 233.377C85.2506 233.2 85.3626 232.967 85.415 232.676C85.4723 232.385 85.5009 232.025 85.5009 231.596ZM87.1913 229.658V229.064H88.5357V234.235H87.8778V229.658H87.1913Z" fill="#7B7B7B"/>
<path opacity="0.5" d="M116.592 231.596C116.592 230.776 116.726 230.137 116.992 229.679C117.259 229.217 117.727 228.986 118.394 228.986C119.057 228.986 119.522 229.217 119.789 229.679C120.056 230.137 120.189 230.776 120.189 231.596C120.189 232.43 120.056 233.079 119.789 233.541C119.522 234.004 119.057 234.235 118.394 234.235C117.727 234.235 117.259 234.004 116.992 233.541C116.726 233.079 116.592 232.43 116.592 231.596ZM119.545 231.596C119.545 231.181 119.517 230.831 119.46 230.545C119.407 230.254 119.295 230.02 119.124 229.844C118.957 229.667 118.714 229.579 118.394 229.579C118.07 229.579 117.822 229.667 117.65 229.844C117.484 230.02 117.372 230.254 117.314 230.545C117.262 230.831 117.236 231.181 117.236 231.596C117.236 232.025 117.262 232.385 117.314 232.676C117.372 232.967 117.484 233.2 117.65 233.377C117.822 233.553 118.07 233.641 118.394 233.641C118.714 233.641 118.957 233.553 119.124 233.377C119.295 233.2 119.407 232.967 119.46 232.676C119.517 232.385 119.545 232.025 119.545 231.596ZM121.329 233.713C121.934 233.226 122.409 232.828 122.752 232.518C123.095 232.204 123.384 231.877 123.617 231.539C123.856 231.195 123.975 230.859 123.975 230.53C123.975 230.221 123.899 229.977 123.746 229.801C123.598 229.62 123.357 229.529 123.024 229.529C122.7 229.529 122.447 229.632 122.266 229.837C122.089 230.037 121.994 230.306 121.98 230.645H121.35C121.369 230.111 121.532 229.698 121.837 229.408C122.142 229.117 122.535 228.971 123.017 228.971C123.508 228.971 123.896 229.107 124.182 229.379C124.473 229.651 124.618 230.025 124.618 230.502C124.618 230.898 124.499 231.284 124.261 231.66C124.027 232.032 123.76 232.361 123.46 232.647C123.16 232.928 122.776 233.257 122.309 233.634H124.769V234.178H121.329V233.713Z" fill="#7B7B7B"/>
<path opacity="0.5" d="M152.799 231.596C152.799 230.776 152.933 230.137 153.2 229.679C153.467 229.217 153.934 228.986 154.601 228.986C155.264 228.986 155.729 229.217 155.996 229.679C156.263 230.137 156.396 230.776 156.396 231.596C156.396 232.43 156.263 233.079 155.996 233.541C155.729 234.004 155.264 234.235 154.601 234.235C153.934 234.235 153.467 234.004 153.2 233.541C152.933 233.079 152.799 232.43 152.799 231.596ZM155.753 231.596C155.753 231.181 155.724 230.831 155.667 230.545C155.615 230.254 155.503 230.02 155.331 229.844C155.164 229.667 154.921 229.579 154.601 229.579C154.277 229.579 154.029 229.667 153.858 229.844C153.691 230.02 153.579 230.254 153.522 230.545C153.469 230.831 153.443 231.181 153.443 231.596C153.443 232.025 153.469 232.385 153.522 232.676C153.579 232.967 153.691 233.2 153.858 233.377C154.029 233.553 154.277 233.641 154.601 233.641C154.921 233.641 155.164 233.553 155.331 233.377C155.503 233.2 155.615 232.967 155.667 232.676C155.724 232.385 155.753 232.025 155.753 231.596ZM157.601 230.366C157.634 229.927 157.803 229.584 158.108 229.336C158.413 229.088 158.809 228.964 159.295 228.964C159.62 228.964 159.899 229.024 160.132 229.143C160.371 229.257 160.549 229.415 160.668 229.615C160.792 229.815 160.854 230.042 160.854 230.294C160.854 230.59 160.769 230.845 160.597 231.06C160.43 231.274 160.211 231.412 159.939 231.474V231.51C160.249 231.586 160.494 231.737 160.676 231.961C160.857 232.185 160.947 232.478 160.947 232.84C160.947 233.112 160.885 233.358 160.761 233.577C160.637 233.791 160.452 233.961 160.204 234.085C159.956 234.209 159.658 234.271 159.31 234.271C158.804 234.271 158.39 234.139 158.065 233.877C157.741 233.61 157.56 233.234 157.522 232.747H158.151C158.185 233.033 158.301 233.267 158.502 233.448C158.702 233.629 158.969 233.72 159.303 233.72C159.636 233.72 159.889 233.634 160.061 233.462C160.237 233.286 160.325 233.06 160.325 232.783C160.325 232.425 160.206 232.168 159.968 232.011C159.729 231.853 159.369 231.775 158.888 231.775H158.723V231.231H158.895C159.334 231.226 159.665 231.155 159.889 231.017C160.113 230.874 160.225 230.654 160.225 230.359C160.225 230.106 160.142 229.903 159.975 229.751C159.813 229.598 159.579 229.522 159.274 229.522C158.978 229.522 158.74 229.598 158.559 229.751C158.378 229.903 158.27 230.108 158.237 230.366H157.601Z" fill="#7B7B7B"/>
<path opacity="0.5" d="M188.412 231.596C188.412 230.776 188.546 230.137 188.813 229.679C189.08 229.217 189.547 228.986 190.215 228.986C190.877 228.986 191.342 229.217 191.609 229.679C191.876 230.137 192.01 230.776 192.01 231.596C192.01 232.43 191.876 233.079 191.609 233.541C191.342 234.004 190.877 234.235 190.215 234.235C189.547 234.235 189.08 234.004 188.813 233.541C188.546 233.079 188.412 232.43 188.412 231.596ZM191.366 231.596C191.366 231.181 191.337 230.831 191.28 230.545C191.228 230.254 191.116 230.02 190.944 229.844C190.777 229.667 190.534 229.579 190.215 229.579C189.89 229.579 189.642 229.667 189.471 229.844C189.304 230.02 189.192 230.254 189.135 230.545C189.082 230.831 189.056 231.181 189.056 231.596C189.056 232.025 189.082 232.385 189.135 232.676C189.192 232.967 189.304 233.2 189.471 233.377C189.642 233.553 189.89 233.641 190.215 233.641C190.534 233.641 190.777 233.553 190.944 233.377C191.116 233.2 191.228 232.967 191.28 232.676C191.337 232.385 191.366 232.025 191.366 231.596ZM193.071 233.083V232.59L195.581 229.114H196.36V232.518H197.075V233.083H196.36V234.235H195.717V233.083H193.071ZM195.745 229.794L193.822 232.518H195.745V229.794Z" fill="#7B7B7B"/>
<path opacity="0.5" d="M224.172 231.596C224.172 230.776 224.306 230.137 224.573 229.679C224.84 229.217 225.307 228.986 225.974 228.986C226.637 228.986 227.102 229.217 227.369 229.679C227.636 230.137 227.769 230.776 227.769 231.596C227.769 232.43 227.636 233.079 227.369 233.541C227.102 234.004 226.637 234.235 225.974 234.235C225.307 234.235 224.84 234.004 224.573 233.541C224.306 233.079 224.172 232.43 224.172 231.596ZM227.126 231.596C227.126 231.181 227.097 230.831 227.04 230.545C226.987 230.254 226.875 230.02 226.704 229.844C226.537 229.667 226.294 229.579 225.974 229.579C225.65 229.579 225.402 229.667 225.23 229.844C225.064 230.02 224.952 230.254 224.894 230.545C224.842 230.831 224.816 231.181 224.816 231.596C224.816 232.025 224.842 232.385 224.894 232.676C224.952 232.967 225.064 233.2 225.23 233.377C225.402 233.553 225.65 233.641 225.974 233.641C226.294 233.641 226.537 233.553 226.704 233.377C226.875 233.2 226.987 232.967 227.04 232.676C227.097 232.385 227.126 232.025 227.126 231.596ZM232.284 229.629H229.774V231.26C229.884 231.107 230.046 230.983 230.261 230.888C230.475 230.788 230.706 230.738 230.954 230.738C231.35 230.738 231.672 230.821 231.92 230.988C232.168 231.15 232.344 231.362 232.449 231.625C232.558 231.882 232.613 232.156 232.613 232.447C232.613 232.79 232.549 233.098 232.42 233.369C232.291 233.641 232.094 233.856 231.827 234.013C231.564 234.17 231.238 234.249 230.847 234.249C230.346 234.249 229.941 234.12 229.631 233.863C229.321 233.605 229.133 233.262 229.066 232.833H229.703C229.765 233.105 229.896 233.317 230.096 233.47C230.296 233.622 230.549 233.698 230.854 233.698C231.231 233.698 231.514 233.586 231.705 233.362C231.896 233.133 231.991 232.833 231.991 232.461C231.991 232.089 231.896 231.803 231.705 231.603C231.514 231.398 231.233 231.296 230.861 231.296C230.609 231.296 230.387 231.358 230.196 231.482C230.01 231.601 229.874 231.765 229.789 231.975H229.174V229.057H232.284V229.629Z" fill="#7B7B7B"/>
<path opacity="0.5" d="M259.904 231.596C259.904 230.776 260.037 230.137 260.304 229.679C260.571 229.217 261.039 228.986 261.706 228.986C262.369 228.986 262.833 229.217 263.1 229.679C263.367 230.137 263.501 230.776 263.501 231.596C263.501 232.43 263.367 233.079 263.1 233.541C262.833 234.004 262.369 234.235 261.706 234.235C261.039 234.235 260.571 234.004 260.304 233.541C260.037 233.079 259.904 232.43 259.904 231.596ZM262.857 231.596C262.857 231.181 262.829 230.831 262.772 230.545C262.719 230.254 262.607 230.02 262.435 229.844C262.269 229.667 262.025 229.579 261.706 229.579C261.382 229.579 261.134 229.667 260.962 229.844C260.795 230.02 260.683 230.254 260.626 230.545C260.574 230.831 260.547 231.181 260.547 231.596C260.547 232.025 260.574 232.385 260.626 232.676C260.683 232.967 260.795 233.2 260.962 233.377C261.134 233.553 261.382 233.641 261.706 233.641C262.025 233.641 262.269 233.553 262.435 233.377C262.607 233.2 262.719 232.967 262.772 232.676C262.829 232.385 262.857 232.025 262.857 231.596ZM267.601 230.294C267.496 229.765 267.17 229.501 266.622 229.501C266.197 229.501 265.88 229.665 265.671 229.994C265.461 230.318 265.358 230.855 265.363 231.603C265.473 231.355 265.654 231.162 265.907 231.024C266.164 230.881 266.45 230.809 266.765 230.809C267.256 230.809 267.647 230.962 267.937 231.267C268.233 231.572 268.381 231.994 268.381 232.533C268.381 232.857 268.316 233.148 268.188 233.405C268.064 233.663 267.873 233.868 267.616 234.02C267.363 234.173 267.055 234.249 266.693 234.249C266.202 234.249 265.818 234.139 265.542 233.92C265.265 233.701 265.072 233.398 264.963 233.012C264.853 232.626 264.798 232.149 264.798 231.582C264.798 229.832 265.408 228.957 266.629 228.957C267.096 228.957 267.463 229.083 267.73 229.336C267.997 229.589 268.154 229.908 268.202 230.294H267.601ZM266.629 231.36C266.424 231.36 266.231 231.403 266.05 231.489C265.868 231.57 265.721 231.696 265.606 231.868C265.497 232.035 265.442 232.24 265.442 232.483C265.442 232.845 265.547 233.141 265.756 233.369C265.966 233.594 266.266 233.706 266.657 233.706C266.991 233.706 267.256 233.603 267.451 233.398C267.651 233.188 267.752 232.907 267.752 232.554C267.752 232.182 267.656 231.892 267.465 231.682C267.275 231.467 266.996 231.36 266.629 231.36Z" fill="#7B7B7B"/>
<g filter="url(#filter1_d_1_578)">
<path d="M237.034 52.7043C237.034 50.909 238.489 49.4537 240.285 49.4537H304.646C306.441 49.4537 307.896 50.909 307.896 52.7043V67.0067C307.896 68.802 306.441 70.2573 304.646 70.2573H240.285C238.489 70.2573 237.034 68.802 237.034 67.0068V52.7043Z" fill="#FBFCFE"/>
<path d="M237.197 52.7043C237.197 50.9988 238.579 49.6162 240.285 49.6162H304.646C306.351 49.6162 307.734 50.9988 307.734 52.7043V67.0067C307.734 68.7122 306.351 70.0948 304.646 70.0948H240.285C238.579 70.0948 237.197 68.7122 237.197 67.0068V52.7043Z" stroke="#DDE4F0" stroke-width="0.325056"/>
</g>
<path d="M252.693 56.9324L250.657 62.3544H249.628L247.584 56.9324H248.535L250.142 61.4416L251.757 56.9324H252.693ZM254.215 57.4863C254.054 57.4863 253.918 57.4317 253.809 57.3225C253.7 57.2133 253.645 57.0781 253.645 56.9168C253.645 56.7556 253.7 56.6204 253.809 56.5112C253.918 56.4019 254.054 56.3473 254.215 56.3473C254.371 56.3473 254.503 56.4019 254.613 56.5112C254.722 56.6204 254.776 56.7556 254.776 56.9168C254.776 57.0781 254.722 57.2133 254.613 57.3225C254.503 57.4317 254.371 57.4863 254.215 57.4863ZM254.652 58.0558V62.3544H253.762V58.0558H254.652ZM260.084 60.0998C260.084 60.261 260.074 60.4066 260.053 60.5367H256.768C256.794 60.8799 256.922 61.1556 257.151 61.3636C257.38 61.5716 257.66 61.6757 257.993 61.6757C258.472 61.6757 258.81 61.4754 259.007 61.0749H259.967C259.837 61.4702 259.6 61.7953 259.257 62.0501C258.919 62.2998 258.498 62.4246 257.993 62.4246C257.582 62.4246 257.213 62.3336 256.885 62.1515C256.563 61.9643 256.308 61.7043 256.121 61.3714C255.939 61.0333 255.848 60.6433 255.848 60.2012C255.848 59.7591 255.936 59.3717 256.113 59.0388C256.295 58.7007 256.547 58.4407 256.87 58.2587C257.198 58.0766 257.572 57.9856 257.993 57.9856C258.399 57.9856 258.76 58.074 259.078 58.2509C259.395 58.4277 259.642 58.6773 259.819 58.9998C259.996 59.317 260.084 59.6837 260.084 60.0998ZM259.156 59.8189C259.15 59.4913 259.033 59.2286 258.805 59.031C258.576 58.8334 258.292 58.7345 257.954 58.7345C257.647 58.7345 257.385 58.8334 257.166 59.031C256.948 59.2234 256.818 59.4861 256.776 59.8189H259.156ZM267.057 58.0558L265.723 62.3544H264.787L263.921 59.1792L263.055 62.3544H262.119L260.777 58.0558H261.682L262.579 61.5118L263.492 58.0558H264.42L265.294 61.4962L266.184 58.0558H267.057ZM273.215 62.3544L271.967 60.1856H271.288V62.3544H270.399V56.9324L272.271 56.9324C272.687 56.9324 273.038 57.0052 273.324 57.1509C273.615 57.2965 273.831 57.4915 273.972 57.736C274.117 57.9804 274.19 58.2535 274.19 58.5551C274.19 58.9088 274.086 59.2312 273.878 59.5225C273.675 59.8085 273.36 60.0036 272.934 60.1076L274.276 62.3544H273.215ZM271.288 59.4757H272.271C272.604 59.4757 272.853 59.3925 273.02 59.226C273.191 59.0596 273.277 58.836 273.277 58.5551C273.277 58.2743 273.194 58.0558 273.028 57.8998C272.861 57.7386 272.609 57.658 272.271 57.658H271.288V59.4757ZM279.592 60.0998C279.592 60.261 279.582 60.4066 279.561 60.5367H276.277C276.303 60.8799 276.43 61.1556 276.659 61.3636C276.888 61.5716 277.169 61.6757 277.502 61.6757C277.98 61.6757 278.318 61.4754 278.516 61.0749H279.475C279.345 61.4702 279.109 61.7953 278.766 62.0501C278.427 62.2998 278.006 62.4246 277.502 62.4246C277.091 62.4246 276.722 62.3336 276.394 62.1515C276.071 61.9643 275.817 61.7043 275.629 61.3714C275.447 61.0333 275.356 60.6433 275.356 60.2012C275.356 59.7591 275.445 59.3717 275.622 59.0388C275.804 58.7007 276.056 58.4407 276.378 58.2587C276.706 58.0766 277.08 57.9856 277.502 57.9856C277.907 57.9856 278.269 58.074 278.586 58.2509C278.903 58.4277 279.15 58.6773 279.327 58.9998C279.504 59.317 279.592 59.6837 279.592 60.0998ZM278.664 59.8189C278.659 59.4913 278.542 59.2286 278.313 59.031C278.084 58.8334 277.801 58.7345 277.463 58.7345C277.156 58.7345 276.893 58.8334 276.675 59.031C276.456 59.2234 276.326 59.4861 276.285 59.8189H278.664ZM281.682 58.6877C281.833 58.4901 282.038 58.3237 282.298 58.1884C282.558 58.0532 282.852 57.9856 283.18 57.9856C283.554 57.9856 283.895 58.0792 284.202 58.2665C284.514 58.4485 284.758 58.7059 284.935 59.0388C285.112 59.3717 285.201 59.7539 285.201 60.1856C285.201 60.6173 285.112 61.0047 284.935 61.348C284.758 61.6861 284.514 61.9513 284.202 62.1437C283.895 62.331 283.554 62.4246 283.18 62.4246C282.852 62.4246 282.561 62.3596 282.306 62.2295C282.051 62.0943 281.843 61.9279 281.682 61.7303V64.3983H280.793V58.0558H281.682V58.6877ZM284.296 60.1856C284.296 59.8891 284.233 59.6343 284.108 59.4211C283.989 59.2026 283.827 59.0388 283.625 58.9296C283.427 58.8152 283.214 58.7579 282.985 58.7579C282.761 58.7579 282.548 58.8152 282.345 58.9296C282.148 59.044 281.986 59.2104 281.862 59.4289C281.742 59.6473 281.682 59.9047 281.682 60.2012C281.682 60.4976 281.742 60.7577 281.862 60.9813C281.986 61.1998 282.148 61.3662 282.345 61.4806C282.548 61.595 282.761 61.6522 282.985 61.6522C283.214 61.6522 283.427 61.595 283.625 61.4806C283.827 61.361 283.989 61.1894 284.108 60.9657C284.233 60.7421 284.296 60.482 284.296 60.1856ZM288.27 62.4246C287.864 62.4246 287.497 62.3336 287.17 62.1515C286.842 61.9643 286.584 61.7043 286.397 61.3714C286.21 61.0333 286.116 60.6433 286.116 60.2012C286.116 59.7643 286.213 59.3769 286.405 59.0388C286.597 58.7007 286.86 58.4407 287.193 58.2587C287.526 58.0766 287.898 57.9856 288.309 57.9856C288.719 57.9856 289.091 58.0766 289.424 58.2587C289.757 58.4407 290.02 58.7007 290.212 59.0388C290.405 59.3769 290.501 59.7643 290.501 60.2012C290.501 60.6381 290.402 61.0255 290.204 61.3636C290.007 61.7017 289.736 61.9643 289.393 62.1515C289.055 62.3336 288.68 62.4246 288.27 62.4246ZM288.27 61.6522C288.498 61.6522 288.712 61.5976 288.909 61.4884C289.112 61.3792 289.276 61.2154 289.401 60.9969C289.526 60.7785 289.588 60.5133 289.588 60.2012C289.588 59.8891 289.528 59.6265 289.409 59.4133C289.289 59.1948 289.13 59.031 288.933 58.9218C288.735 58.8126 288.522 58.7579 288.293 58.7579C288.064 58.7579 287.851 58.8126 287.653 58.9218C287.461 59.031 287.307 59.1948 287.193 59.4133C287.079 59.6265 287.021 59.8891 287.021 60.2012C287.021 60.6641 287.138 61.0229 287.372 61.2778C287.612 61.5274 287.911 61.6522 288.27 61.6522ZM292.594 58.6799C292.724 58.4615 292.896 58.2925 293.109 58.1728C293.328 58.048 293.585 57.9856 293.882 57.9856V58.9062H293.655C293.307 58.9062 293.042 58.9946 292.86 59.1714C292.683 59.3482 292.594 59.6551 292.594 60.092V62.3544H291.705V58.0558H292.594V58.6799ZM296.062 58.7813V61.1608C296.062 61.322 296.098 61.439 296.171 61.5118C296.249 61.5794 296.379 61.6132 296.561 61.6132H297.107V62.3544H296.405C296.005 62.3544 295.698 62.2608 295.484 62.0735C295.271 61.8863 295.165 61.582 295.165 61.1608V58.7813H294.657V58.0558H295.165V56.987H296.062V58.0558H297.107V58.7813H296.062Z" fill="#CC9966"/>
<path d="M76.1323 59.5174C75.5438 59.5174 75.0068 59.3809 74.5214 59.1078C74.0359 58.8287 73.6506 58.4434 73.3655 57.9519C73.0863 57.4544 72.9468 56.8962 72.9468 56.2773C72.9468 55.6583 73.0863 55.1031 73.3655 54.6117C73.6506 54.1141 74.0359 53.7288 74.5214 53.4558C75.0068 53.1766 75.5438 53.0371 76.1323 53.0371C76.727 53.0371 77.267 53.1766 77.7524 53.4558C78.2378 53.7288 78.6201 54.1111 78.8992 54.6026C79.1783 55.094 79.3179 55.6523 79.3179 56.2773C79.3179 56.9022 79.1783 57.4605 78.8992 57.9519C78.6201 58.4434 78.2378 58.8287 77.7524 59.1078C77.267 59.3809 76.727 59.5174 76.1323 59.5174ZM76.1323 58.7984C76.5753 58.7984 76.9727 58.6952 77.3246 58.4889C77.6826 58.2826 77.9618 57.9884 78.162 57.6061C78.3683 57.2238 78.4714 56.7809 78.4714 56.2773C78.4714 55.7676 78.3683 55.3246 78.162 54.9484C77.9618 54.5662 77.6857 54.2719 77.3337 54.0656C76.9818 53.8593 76.5814 53.7561 76.1323 53.7561C75.6833 53.7561 75.2829 53.8593 74.9309 54.0656C74.579 54.2719 74.2999 54.5662 74.0936 54.9484C73.8934 55.3246 73.7932 55.7676 73.7932 56.2773C73.7932 56.7809 73.8934 57.2238 74.0936 57.6061C74.2999 57.9884 74.579 58.2826 74.9309 58.4889C75.2889 58.6952 75.6894 58.7984 76.1323 58.7984ZM81.5646 55.2761C81.7102 54.9909 81.9165 54.7694 82.1835 54.6117C82.4565 54.4539 82.7872 54.375 83.1756 54.375V55.2306H82.9571C82.0288 55.2306 81.5646 55.7342 81.5646 56.7414V59.4537H80.7363V54.466H81.5646V55.2761ZM84.1473 56.9417C84.1473 56.432 84.2504 55.986 84.4567 55.6037C84.663 55.2154 84.9452 54.9151 85.3032 54.7027C85.6672 54.4903 86.0738 54.3841 86.5228 54.3841C86.9111 54.3841 87.2721 54.4751 87.6059 54.6572C87.9396 54.8331 88.1944 55.0667 88.3704 55.358V52.7185H89.2077V59.4537H88.3704V58.5162C88.2066 58.8136 87.9639 59.0593 87.6423 59.2535C87.3207 59.4416 86.9445 59.5356 86.5137 59.5356C86.0707 59.5356 85.6672 59.4264 85.3032 59.208C84.9452 58.9895 84.663 58.6831 84.4567 58.2887C84.2504 57.8943 84.1473 57.4453 84.1473 56.9417ZM88.3704 56.9508C88.3704 56.5746 88.2946 56.2469 88.1429 55.9678C87.9912 55.6887 87.7849 55.4763 87.524 55.3307C87.2691 55.179 86.987 55.1031 86.6775 55.1031C86.3681 55.1031 86.0859 55.176 85.8311 55.3216C85.5762 55.4672 85.3729 55.6796 85.2213 55.9587C85.0696 56.2378 84.9937 56.5655 84.9937 56.9417C84.9937 57.3239 85.0696 57.6577 85.2213 57.9428C85.3729 58.222 85.5762 58.4374 85.8311 58.5891C86.0859 58.7347 86.3681 58.8075 86.6775 58.8075C86.987 58.8075 87.2691 58.7347 87.524 58.5891C87.7849 58.4374 87.9912 58.222 88.1429 57.9428C88.2946 57.6577 88.3704 57.327 88.3704 56.9508ZM95.4832 56.7687C95.4832 56.9265 95.4741 57.0934 95.4559 57.2693H91.4694C91.4998 57.7608 91.6666 58.1461 91.97 58.4252C92.2795 58.6983 92.6527 58.8348 93.0895 58.8348C93.4475 58.8348 93.7448 58.7529 93.9815 58.5891C94.2242 58.4192 94.3941 58.1947 94.4912 57.9155H95.3831C95.2496 58.3949 94.9827 58.7863 94.5822 59.0896C94.1817 59.387 93.6842 59.5356 93.0895 59.5356C92.6162 59.5356 92.1915 59.4294 91.8153 59.2171C91.4452 59.0047 91.1539 58.7043 90.9416 58.316C90.7292 57.9216 90.623 57.4665 90.623 56.9508C90.623 56.435 90.7262 55.983 90.9325 55.5946C91.1388 55.2063 91.427 54.909 91.7971 54.7027C92.1733 54.4903 92.6041 54.3841 93.0895 54.3841C93.5628 54.3841 93.9815 54.4873 94.3455 54.6936C94.7096 54.8999 94.9887 55.1851 95.1829 55.5491C95.3831 55.9071 95.4832 56.3137 95.4832 56.7687ZM94.6277 56.5958C94.6277 56.2803 94.5579 56.0103 94.4184 55.7858C94.2788 55.5552 94.0877 55.3823 93.845 55.267C93.6083 55.1456 93.3444 55.0849 93.0531 55.0849C92.6344 55.0849 92.2765 55.2184 91.9791 55.4854C91.6879 55.7524 91.521 56.1225 91.4785 56.5958H94.6277ZM97.7298 55.2761C97.8754 54.9909 98.0817 54.7694 98.3487 54.6117C98.6218 54.4539 98.9524 54.375 99.3408 54.375V55.2306H99.1223C98.194 55.2306 97.7298 55.7342 97.7298 56.7414V59.4537H96.9016V54.466H97.7298V55.2761Z" fill="#0F0F0F"/>
<path d="M73.3096 75.8189C73.3616 75.0127 73.6693 74.3843 74.2327 73.9335C74.8048 73.4828 75.5329 73.2574 76.4171 73.2574C77.0239 73.2574 77.5483 73.3658 77.9904 73.5825C78.4324 73.7992 78.7662 74.0939 78.9915 74.4666C79.2169 74.8393 79.3296 75.2598 79.3296 75.7278C79.3296 76.2653 79.1866 76.7247 78.9005 77.1061C78.6145 77.4875 78.2721 77.7432 77.8733 77.8732V77.9252C78.3848 78.0812 78.7835 78.3673 79.0696 78.7834C79.3556 79.1908 79.4986 79.7152 79.4986 80.3566C79.4986 80.8681 79.3816 81.3231 79.1476 81.7219C78.9135 82.1206 78.5668 82.437 78.1074 82.671C77.648 82.8964 77.0975 83.0091 76.4561 83.0091C75.5199 83.0091 74.7485 82.7707 74.1417 82.294C73.5436 81.8086 73.2229 81.1151 73.1795 80.2136H74.6098C74.6444 80.673 74.8221 81.0501 75.1429 81.3448C75.4636 81.6309 75.897 81.7739 76.4431 81.7739C76.9719 81.7739 77.3793 81.6309 77.6653 81.3448C77.9514 81.0501 78.0944 80.673 78.0944 80.2136C78.0944 79.6068 77.8993 79.1778 77.5093 78.9264C77.1279 78.6663 76.5384 78.5363 75.741 78.5363H75.4029V77.3141H75.754C76.4561 77.3054 76.9892 77.1884 77.3533 76.9631C77.726 76.7377 77.9124 76.3823 77.9124 75.8969C77.9124 75.4808 77.778 75.1514 77.5093 74.9087C77.2406 74.6573 76.8592 74.5316 76.3651 74.5316C75.8797 74.5316 75.5026 74.6573 75.2339 74.9087C74.9652 75.1514 74.8048 75.4548 74.7528 75.8189H73.3096ZM82.1738 83.0481C81.9051 83.0481 81.6798 82.9571 81.4977 82.7751C81.3157 82.593 81.2247 82.3677 81.2247 82.0989C81.2247 81.8302 81.3157 81.6049 81.4977 81.4228C81.6798 81.2408 81.9051 81.1498 82.1738 81.1498C82.4339 81.1498 82.6549 81.2408 82.837 81.4228C83.019 81.6049 83.11 81.8302 83.11 82.0989C83.11 82.3677 83.019 82.593 82.837 82.7751C82.6549 82.9571 82.4339 83.0481 82.1738 83.0481ZM90.8491 74.6226L87.2345 82.9571H85.7392L89.3928 74.7787H84.582V73.5175H90.8491V74.6226ZM94.0421 78.0032C93.1406 77.5525 92.6898 76.8417 92.6898 75.8709C92.6898 75.4028 92.8068 74.9737 93.0409 74.5836C93.2749 74.1936 93.626 73.8859 94.0941 73.6605C94.5621 73.4264 95.1342 73.3094 95.8104 73.3094C96.4778 73.3094 97.0456 73.4264 97.5137 73.6605C97.9904 73.8859 98.3458 74.1936 98.5798 74.5836C98.8139 74.9737 98.9309 75.4028 98.9309 75.8709C98.9309 76.3563 98.8052 76.7854 98.5538 77.1581C98.3111 77.5221 97.9861 77.8039 97.5787 78.0032C98.0728 78.1853 98.4628 78.4843 98.7489 78.9004C99.0349 79.3078 99.1779 79.7889 99.1779 80.3436C99.1779 80.9071 99.0349 81.4055 98.7489 81.8389C98.4628 82.2723 98.0641 82.606 97.5527 82.8401C97.0412 83.0741 96.4605 83.1911 95.8104 83.1911C95.1603 83.1911 94.5795 83.0741 94.0681 82.8401C93.5653 82.606 93.1709 82.2723 92.8849 81.8389C92.5988 81.4055 92.4558 80.9071 92.4558 80.3436C92.4558 79.7802 92.5988 79.2948 92.8849 78.8874C93.1709 78.48 93.5566 78.1853 94.0421 78.0032ZM97.5137 76.0529C97.5137 75.5675 97.362 75.1947 97.0586 74.9347C96.7552 74.6747 96.3391 74.5446 95.8104 74.5446C95.2903 74.5446 94.8785 74.6747 94.5751 74.9347C94.2718 75.1947 94.1201 75.5718 94.1201 76.0659C94.1201 76.4993 94.2761 76.8547 94.5882 77.1321C94.9089 77.4008 95.3163 77.5352 95.8104 77.5352C96.3044 77.5352 96.7119 77.3965 97.0326 77.1191C97.3533 76.8417 97.5137 76.4863 97.5137 76.0529ZM95.8104 78.6533C95.2383 78.6533 94.7702 78.7964 94.4061 79.0824C94.0507 79.3598 93.873 79.7629 93.873 80.2916C93.873 80.7857 94.0464 81.1888 94.3931 81.5008C94.7398 81.8042 95.2123 81.9559 95.8104 81.9559C96.3998 81.9559 96.8635 81.7999 97.2016 81.4878C97.5483 81.1758 97.7217 80.777 97.7217 80.2916C97.7217 79.7715 97.544 79.3685 97.1886 79.0824C96.8419 78.7964 96.3825 78.6533 95.8104 78.6533ZM102.906 80.3826C102.992 80.8161 103.179 81.1454 103.465 81.3708C103.751 81.5962 104.137 81.7089 104.622 81.7089C105.237 81.7089 105.688 81.4662 105.974 80.9807C106.26 80.4953 106.403 79.6675 106.403 78.4973C106.195 78.792 105.9 79.0217 105.519 79.1864C105.146 79.3425 104.739 79.4205 104.297 79.4205C103.733 79.4205 103.222 79.3078 102.763 79.0824C102.303 78.8484 101.939 78.506 101.67 78.0552C101.41 77.5958 101.28 77.0411 101.28 76.391C101.28 75.4375 101.558 74.679 102.112 74.1156C102.676 73.5435 103.447 73.2574 104.427 73.2574C105.606 73.2574 106.442 73.6518 106.936 74.4406C107.439 75.2207 107.69 76.4213 107.69 78.0422C107.69 79.1604 107.595 80.0749 107.404 80.7857C107.222 81.4965 106.902 82.0339 106.442 82.398C105.983 82.7621 105.346 82.9441 104.531 82.9441C103.603 82.9441 102.888 82.7014 102.386 82.216C101.883 81.7305 101.601 81.1194 101.54 80.3826H102.906ZM104.557 78.1723C105.077 78.1723 105.484 78.0119 105.779 77.6912C106.083 77.3618 106.234 76.9284 106.234 76.391C106.234 75.7928 106.074 75.3291 105.753 74.9997C105.441 74.6617 105.012 74.4926 104.466 74.4926C103.92 74.4926 103.486 74.666 103.166 75.0127C102.854 75.3508 102.698 75.7972 102.698 76.3519C102.698 76.8807 102.849 77.3184 103.153 77.6652C103.465 78.0032 103.933 78.1723 104.557 78.1723Z" fill="#0F0F0F"/>
<path d="M83.324 99.5536V98.6955L85.875 95.0444H87.1467V98.6018H87.8332V99.5536H87.1467V100.661H86.0545V99.5536H83.324ZM86.1247 96.2146L84.5254 98.6018H86.1247V96.2146ZM89.4621 100.716C89.2645 100.716 89.1006 100.656 88.9706 100.537C88.8458 100.412 88.7834 100.258 88.7834 100.076C88.7834 99.8943 88.8458 99.7434 88.9706 99.6238C89.1006 99.499 89.2645 99.4366 89.4621 99.4366C89.6545 99.4366 89.8132 99.499 89.938 99.6238C90.0628 99.7434 90.1252 99.8943 90.1252 100.076C90.1252 100.258 90.0628 100.412 89.938 100.537C89.8132 100.656 89.6545 100.716 89.4621 100.716ZM92.469 99.0621C92.5106 99.291 92.6042 99.4678 92.7498 99.5926C92.9007 99.7122 93.1009 99.772 93.3505 99.772C93.673 99.772 93.907 99.6394 94.0527 99.3742C94.1983 99.1037 94.2711 98.6512 94.2711 98.0167C94.1515 98.1832 93.9825 98.3132 93.764 98.4068C93.5508 98.5004 93.3193 98.5472 93.0697 98.5472C92.7368 98.5472 92.4352 98.4796 92.1647 98.3444C91.8995 98.204 91.6889 97.9985 91.5328 97.7281C91.3768 97.4524 91.2988 97.1196 91.2988 96.7295C91.2988 96.1522 91.4704 95.6945 91.8137 95.3565C92.1569 95.0132 92.625 94.8416 93.2179 94.8416C93.9565 94.8416 94.4765 95.0782 94.7782 95.5515C95.085 96.0248 95.2385 96.7373 95.2385 97.6891C95.2385 98.3652 95.1787 98.9191 95.059 99.3508C94.9446 99.7824 94.7444 100.11 94.4583 100.334C94.1775 100.557 93.7926 100.669 93.3037 100.669C92.9189 100.669 92.5912 100.596 92.3208 100.451C92.0503 100.3 91.8423 100.105 91.6967 99.8657C91.5562 99.6212 91.4756 99.3534 91.4548 99.0621H92.469ZM93.2959 97.6579C93.5664 97.6579 93.7796 97.5747 93.9357 97.4082C94.0917 97.2418 94.1697 97.0182 94.1697 96.7373C94.1697 96.4305 94.0865 96.1938 93.92 96.0274C93.7588 95.8558 93.5378 95.7699 93.2569 95.7699C92.9761 95.7699 92.7524 95.8584 92.586 96.0352C92.4248 96.2068 92.3442 96.4357 92.3442 96.7217C92.3442 96.9974 92.4222 97.2236 92.5782 97.4004C92.7394 97.5721 92.9787 97.6579 93.2959 97.6579ZM96.2889 96.3706C96.2889 95.9754 96.4033 95.6659 96.6321 95.4423C96.8662 95.2186 97.1652 95.1068 97.5293 95.1068C97.8934 95.1068 98.1898 95.2186 98.4186 95.4423C98.6527 95.6659 98.7697 95.9754 98.7697 96.3706C98.7697 96.7711 98.6527 97.0832 98.4186 97.3068C98.1898 97.5304 97.8934 97.6423 97.5293 97.6423C97.1652 97.6423 96.8662 97.5304 96.6321 97.3068C96.4033 97.0832 96.2889 96.7711 96.2889 96.3706ZM101.297 95.2004L98.2314 100.661H97.1704L100.229 95.2004H101.297ZM97.5215 95.7621C97.2354 95.7621 97.0924 95.965 97.0924 96.3706C97.0924 96.7815 97.2354 96.987 97.5215 96.987C97.6619 96.987 97.7711 96.9375 97.8491 96.8387C97.9272 96.7347 97.9662 96.5787 97.9662 96.3706C97.9662 95.965 97.8179 95.7621 97.5215 95.7621ZM99.7137 99.4834C99.7137 99.0829 99.8281 98.7735 100.057 98.555C100.291 98.3314 100.59 98.2196 100.954 98.2196C101.318 98.2196 101.612 98.3314 101.836 98.555C102.064 98.7735 102.179 99.0829 102.179 99.4834C102.179 99.8839 102.064 100.196 101.836 100.42C101.612 100.643 101.318 100.755 100.954 100.755C100.585 100.755 100.286 100.643 100.057 100.42C99.8281 100.196 99.7137 99.8839 99.7137 99.4834ZM100.946 98.8749C100.65 98.8749 100.502 99.0777 100.502 99.4834C100.502 99.8943 100.65 100.1 100.946 100.1C101.238 100.1 101.383 99.8943 101.383 99.4834C101.383 99.0777 101.238 98.8749 100.946 98.8749Z" fill="#F2383A"/>
<path d="M107.39 100.006L108.717 96.3862H109.473L107.796 100.661H106.969L105.292 96.3862H106.056L107.39 100.006ZM112.011 100.732C111.683 100.732 111.389 100.677 111.129 100.568C110.869 100.453 110.664 100.297 110.513 100.1C110.362 99.8969 110.279 99.6654 110.263 99.4054H110.996C111.017 99.6186 111.116 99.7928 111.293 99.9281C111.475 100.063 111.712 100.131 112.003 100.131C112.273 100.131 112.486 100.071 112.642 99.9515C112.798 99.8318 112.877 99.681 112.877 99.499C112.877 99.3118 112.793 99.1739 112.627 99.0855C112.46 98.9919 112.203 98.9009 111.855 98.8125C111.537 98.7293 111.277 98.646 111.074 98.5628C110.877 98.4744 110.705 98.347 110.56 98.1806C110.419 98.0089 110.349 97.7853 110.349 97.5096C110.349 97.2912 110.414 97.091 110.544 96.9089C110.674 96.7269 110.859 96.5839 111.098 96.4799C111.337 96.3706 111.61 96.316 111.917 96.316C112.39 96.316 112.772 96.4357 113.064 96.6749C113.355 96.9141 113.511 97.2418 113.532 97.6579H112.822C112.806 97.4342 112.715 97.2548 112.549 97.1196C112.388 96.9844 112.169 96.9167 111.894 96.9167C111.639 96.9167 111.436 96.9714 111.285 97.0806C111.134 97.1898 111.059 97.3328 111.059 97.5096C111.059 97.6501 111.103 97.7671 111.191 97.8607C111.285 97.9491 111.399 98.0219 111.535 98.0791C111.675 98.1312 111.868 98.191 112.112 98.2586C112.419 98.3418 112.668 98.425 112.861 98.5082C113.053 98.5862 113.217 98.7059 113.352 98.8671C113.493 99.0283 113.566 99.2389 113.571 99.499C113.571 99.733 113.506 99.9437 113.376 100.131C113.246 100.318 113.061 100.466 112.822 100.576C112.588 100.68 112.317 100.732 112.011 100.732ZM118.013 94.8884V100.661H117.303V94.8884H118.013ZM119.283 98.5082C119.283 98.0713 119.371 97.6891 119.548 97.3614C119.725 97.0286 119.967 96.7711 120.273 96.5891C120.585 96.4071 120.931 96.316 121.311 96.316C121.685 96.316 122.011 96.3967 122.286 96.5579C122.562 96.7191 122.767 96.9219 122.902 97.1664V96.3862H123.62V100.661H122.902V99.8657C122.762 100.115 122.551 100.323 122.271 100.49C121.995 100.651 121.672 100.732 121.303 100.732C120.924 100.732 120.58 100.638 120.273 100.451C119.967 100.264 119.725 100.001 119.548 99.6628C119.371 99.3248 119.283 98.9399 119.283 98.5082ZM122.902 98.516C122.902 98.1936 122.837 97.9127 122.707 97.6735C122.577 97.4342 122.401 97.2522 122.177 97.1274C121.959 96.9974 121.717 96.9323 121.451 96.9323C121.186 96.9323 120.944 96.9948 120.726 97.1196C120.507 97.2444 120.333 97.4264 120.203 97.6657C120.073 97.9049 120.008 98.1858 120.008 98.5082C120.008 98.8359 120.073 99.1219 120.203 99.3664C120.333 99.6056 120.507 99.7902 120.726 99.9203C120.944 100.045 121.186 100.107 121.451 100.107C121.717 100.107 121.959 100.045 122.177 99.9203C122.401 99.7902 122.577 99.6056 122.707 99.3664C122.837 99.1219 122.902 98.8385 122.902 98.516ZM126.658 100.732C126.331 100.732 126.037 100.677 125.777 100.568C125.517 100.453 125.311 100.297 125.161 100.1C125.01 99.8969 124.927 99.6654 124.911 99.4054H125.644C125.665 99.6186 125.764 99.7928 125.941 99.9281C126.123 100.063 126.359 100.131 126.651 100.131C126.921 100.131 127.134 100.071 127.29 99.9515C127.446 99.8318 127.524 99.681 127.524 99.499C127.524 99.3118 127.441 99.1739 127.275 99.0855C127.108 98.9919 126.851 98.9009 126.502 98.8125C126.185 98.7293 125.925 98.646 125.722 98.5628C125.525 98.4744 125.353 98.347 125.207 98.1806C125.067 98.0089 124.997 97.7853 124.997 97.5096C124.997 97.2912 125.062 97.091 125.192 96.9089C125.322 96.7269 125.506 96.5839 125.746 96.4799C125.985 96.3706 126.258 96.316 126.565 96.316C127.038 96.316 127.42 96.4357 127.712 96.6749C128.003 96.9141 128.159 97.2418 128.18 97.6579H127.47C127.454 97.4342 127.363 97.2548 127.197 97.1196C127.035 96.9844 126.817 96.9167 126.541 96.9167C126.287 96.9167 126.084 96.9714 125.933 97.0806C125.782 97.1898 125.707 97.3328 125.707 97.5096C125.707 97.6501 125.751 97.7671 125.839 97.8607C125.933 97.9491 126.047 98.0219 126.183 98.0791C126.323 98.1312 126.515 98.191 126.76 98.2586C127.067 98.3418 127.316 98.425 127.509 98.5082C127.701 98.5862 127.865 98.7059 128 98.8671C128.141 99.0283 128.213 99.2389 128.219 99.499C128.219 99.733 128.154 99.9437 128.024 100.131C127.894 100.318 127.709 100.466 127.47 100.576C127.236 100.68 126.965 100.732 126.658 100.732ZM130.412 96.9714V99.4912C130.412 99.6992 130.456 99.8475 130.544 99.9359C130.633 100.019 130.786 100.061 131.005 100.061H131.527V100.661H130.888C130.492 100.661 130.196 100.57 129.998 100.388C129.801 100.206 129.702 99.9073 129.702 99.4912V96.9714H129.148V96.3862H129.702V95.3097H130.412V96.3862H131.527V96.9714H130.412ZM140.813 96.3862L139.479 100.661H138.745L137.715 97.2678L136.686 100.661H135.952L134.61 96.3862H135.336L136.319 99.9749L137.38 96.3862H138.105L139.143 99.9827L140.11 96.3862H140.813ZM145.743 98.36C145.743 98.4952 145.735 98.6382 145.719 98.7891H142.302C142.328 99.2103 142.471 99.5406 142.732 99.7798C142.997 100.014 143.317 100.131 143.691 100.131C143.998 100.131 144.253 100.061 144.456 99.9203C144.664 99.7746 144.809 99.5822 144.893 99.343H145.657C145.543 99.7538 145.314 100.089 144.971 100.349C144.627 100.604 144.201 100.732 143.691 100.732C143.285 100.732 142.921 100.641 142.599 100.459C142.282 100.277 142.032 100.019 141.85 99.6862C141.668 99.3482 141.577 98.9581 141.577 98.516C141.577 98.0739 141.665 97.6865 141.842 97.3536C142.019 97.0208 142.266 96.7659 142.583 96.5891C142.906 96.4071 143.275 96.316 143.691 96.316C144.097 96.316 144.456 96.4045 144.768 96.5813C145.08 96.7581 145.319 97.0026 145.485 97.3146C145.657 97.6215 145.743 97.9699 145.743 98.36ZM145.01 98.2118C145.01 97.9413 144.95 97.7099 144.83 97.5174C144.71 97.3198 144.547 97.1716 144.339 97.0728C144.136 96.9688 143.91 96.9167 143.66 96.9167C143.301 96.9167 142.994 97.0312 142.739 97.26C142.49 97.4888 142.347 97.8061 142.31 98.2118H145.01ZM150.906 98.36C150.906 98.4952 150.898 98.6382 150.882 98.7891H147.465C147.491 99.2103 147.634 99.5406 147.894 99.7798C148.16 100.014 148.479 100.131 148.854 100.131C149.161 100.131 149.416 100.061 149.618 99.9203C149.826 99.7746 149.972 99.5822 150.055 99.343H150.82C150.705 99.7538 150.477 100.089 150.133 100.349C149.79 100.604 149.364 100.732 148.854 100.732C148.448 100.732 148.084 100.641 147.762 100.459C147.444 100.277 147.195 100.019 147.013 99.6862C146.831 99.3482 146.74 98.9581 146.74 98.516C146.74 98.0739 146.828 97.6865 147.005 97.3536C147.182 97.0208 147.429 96.7659 147.746 96.5891C148.069 96.4071 148.438 96.316 148.854 96.316C149.26 96.316 149.618 96.4045 149.931 96.5813C150.243 96.7581 150.482 97.0026 150.648 97.3146C150.82 97.6215 150.906 97.9699 150.906 98.36ZM150.172 98.2118C150.172 97.9413 150.113 97.7099 149.993 97.5174C149.873 97.3198 149.709 97.1716 149.501 97.0728C149.299 96.9688 149.072 96.9167 148.823 96.9167C148.464 96.9167 148.157 97.0312 147.902 97.26C147.653 97.4888 147.509 97.8061 147.473 98.2118H150.172ZM154.555 100.661L152.878 98.7735V100.661H152.168V94.8884H152.878V98.282L154.524 96.3862H155.515L153.502 98.516L155.522 100.661H154.555Z" fill="#7B7B7B"/>
<path d="M74.8351 93.6614V99.5359" stroke="#F2383A" stroke-width="0.975169" stroke-linecap="round" stroke-linejoin="round"/>
<path d="M77.1811 97.8498L74.8683 100.163L72.5554 97.8498" stroke="#F2383A" stroke-width="0.975169" stroke-linecap="round" stroke-linejoin="round"/>
<path opacity="0.5" d="M75.074 127.125C74.6852 127.125 74.3359 127.057 74.026 126.922C73.7217 126.781 73.4823 126.589 73.3076 126.347C73.1329 126.099 73.0428 125.815 73.0372 125.493H73.8569C73.8851 125.77 73.9978 126.003 74.195 126.195C74.3978 126.381 74.6908 126.474 75.074 126.474C75.4402 126.474 75.7275 126.384 75.936 126.203C76.1501 126.017 76.2572 125.781 76.2572 125.493C76.2572 125.268 76.1952 125.085 76.0712 124.944C75.9473 124.803 75.7923 124.696 75.6064 124.623C75.4205 124.55 75.1697 124.471 74.8542 124.386C74.4655 124.285 74.1527 124.183 73.9161 124.082C73.6851 123.981 73.4851 123.823 73.3161 123.609C73.1527 123.389 73.071 123.096 73.071 122.73C73.071 122.409 73.1527 122.124 73.3161 121.876C73.4794 121.628 73.7076 121.437 74.0006 121.302C74.2992 121.166 74.6401 121.099 75.0232 121.099C75.5754 121.099 76.0262 121.237 76.3755 121.513C76.7304 121.789 76.9305 122.155 76.9755 122.612H76.1304C76.1022 122.386 75.9839 122.189 75.7754 122.02C75.567 121.845 75.2909 121.758 74.9472 121.758C74.626 121.758 74.364 121.842 74.1612 122.011C73.9584 122.175 73.8569 122.406 73.8569 122.704C73.8569 122.919 73.9161 123.093 74.0344 123.228C74.1584 123.364 74.3077 123.468 74.4824 123.541C74.6627 123.609 74.9134 123.688 75.2345 123.778C75.6233 123.885 75.936 123.992 76.1726 124.099C76.4093 124.2 76.6121 124.361 76.7812 124.581C76.9502 124.795 77.0347 125.088 77.0347 125.46C77.0347 125.747 76.9586 126.017 76.8065 126.271C76.6544 126.525 76.429 126.73 76.1304 126.888C75.8318 127.046 75.4796 127.125 75.074 127.125ZM78.2042 124.733C78.2042 124.26 78.3 123.845 78.4915 123.49C78.6831 123.13 78.9451 122.851 79.2775 122.654C79.6156 122.457 79.9903 122.358 80.4016 122.358C80.8072 122.358 81.1594 122.445 81.458 122.62C81.7566 122.795 81.9792 123.014 82.1257 123.279V122.434H82.9032V127.065H82.1257V126.203C81.9735 126.474 81.7453 126.699 81.4411 126.88C81.1425 127.054 80.7931 127.142 80.3931 127.142C79.9818 127.142 79.6099 127.04 79.2775 126.837C78.9451 126.634 78.6831 126.35 78.4915 125.984C78.3 125.617 78.2042 125.2 78.2042 124.733ZM82.1257 124.741C82.1257 124.392 82.0552 124.088 81.9144 123.829C81.7735 123.569 81.5819 123.372 81.3397 123.237C81.103 123.096 80.841 123.026 80.5537 123.026C80.2663 123.026 80.0043 123.093 79.7677 123.228C79.5311 123.364 79.3423 123.561 79.2014 123.82C79.0606 124.079 78.9902 124.384 78.9902 124.733C78.9902 125.088 79.0606 125.398 79.2014 125.663C79.3423 125.922 79.5311 126.122 79.7677 126.263C80.0043 126.398 80.2663 126.465 80.5537 126.465C80.841 126.465 81.103 126.398 81.3397 126.263C81.5819 126.122 81.7735 125.922 81.9144 125.663C82.0552 125.398 82.1257 125.091 82.1257 124.741ZM85.297 120.811V127.065H84.5279V120.811H85.297ZM91.1586 124.572C91.1586 124.719 91.1501 124.874 91.1332 125.037H87.4315C87.4596 125.493 87.6146 125.851 87.8963 126.11C88.1837 126.364 88.5302 126.491 88.9358 126.491C89.2683 126.491 89.5443 126.415 89.7641 126.263C89.9894 126.105 90.1472 125.896 90.2374 125.637H91.0656C90.9416 126.082 90.6937 126.446 90.3219 126.727C89.95 127.003 89.488 127.142 88.9358 127.142C88.4964 127.142 88.102 127.043 87.7526 126.846C87.4089 126.649 87.1385 126.37 86.9413 126.009C86.7441 125.643 86.6455 125.22 86.6455 124.741C86.6455 124.262 86.7413 123.843 86.9328 123.482C87.1244 123.121 87.392 122.845 87.7357 122.654C88.0851 122.457 88.4851 122.358 88.9358 122.358C89.3753 122.358 89.7641 122.454 90.1021 122.645C90.4402 122.837 90.6994 123.102 90.8797 123.44C91.0656 123.772 91.1586 124.15 91.1586 124.572ZM90.3641 124.412C90.3641 124.119 90.2993 123.868 90.1697 123.66C90.0402 123.445 89.8627 123.285 89.6373 123.178C89.4176 123.065 89.1725 123.009 88.902 123.009C88.5133 123.009 88.1808 123.133 87.9048 123.381C87.6343 123.629 87.4794 123.972 87.4399 124.412H90.3641ZM94.1384 127.142C93.7834 127.142 93.4651 127.082 93.1834 126.964C92.9016 126.84 92.6791 126.671 92.5157 126.457C92.3523 126.237 92.2622 125.986 92.2452 125.705H93.0397C93.0622 125.936 93.1693 126.125 93.3608 126.271C93.558 126.417 93.8144 126.491 94.1299 126.491C94.4229 126.491 94.6539 126.426 94.8229 126.296C94.992 126.167 95.0765 126.003 95.0765 125.806C95.0765 125.603 94.9863 125.454 94.806 125.358C94.6257 125.257 94.3468 125.158 93.9693 125.062C93.6257 124.972 93.3439 124.882 93.1242 124.792C92.9101 124.696 92.7242 124.558 92.5664 124.378C92.4143 124.192 92.3382 123.95 92.3382 123.651C92.3382 123.414 92.4086 123.197 92.5495 123C92.6904 122.803 92.8904 122.648 93.1496 122.535C93.4087 122.417 93.7045 122.358 94.037 122.358C94.5497 122.358 94.9638 122.488 95.2793 122.747C95.5948 123.006 95.7639 123.361 95.7864 123.812H95.0173C95.0004 123.569 94.9018 123.375 94.7215 123.228C94.5469 123.082 94.3102 123.009 94.0116 123.009C93.7355 123.009 93.5158 123.068 93.3524 123.186C93.189 123.305 93.1073 123.459 93.1073 123.651C93.1073 123.803 93.1552 123.93 93.251 124.031C93.3524 124.127 93.4763 124.206 93.6228 124.268C93.775 124.324 93.9834 124.389 94.2482 124.462C94.5807 124.553 94.8511 124.643 95.0596 124.733C95.2681 124.817 95.4455 124.947 95.592 125.122C95.7442 125.296 95.823 125.524 95.8287 125.806C95.8287 126.06 95.7582 126.288 95.6174 126.491C95.4765 126.694 95.2765 126.854 95.0173 126.972C94.7638 127.085 94.4708 127.142 94.1384 127.142ZM101.702 123.068H100.73V127.065H99.9613V123.068H99.3613V122.434H99.9613V122.104C99.9613 121.586 100.094 121.209 100.359 120.972C100.629 120.73 101.06 120.609 101.652 120.609V121.251C101.314 121.251 101.074 121.318 100.933 121.454C100.798 121.583 100.73 121.8 100.73 122.104V122.434H101.702V123.068ZM103.693 123.186C103.828 122.921 104.02 122.716 104.268 122.569C104.521 122.423 104.828 122.35 105.189 122.35V123.144H104.986C104.124 123.144 103.693 123.612 103.693 124.547V127.065H102.924V122.434H103.693V123.186ZM108.422 127.142C107.988 127.142 107.594 127.043 107.239 126.846C106.889 126.649 106.613 126.37 106.41 126.009C106.213 125.643 106.115 125.22 106.115 124.741C106.115 124.268 106.216 123.851 106.419 123.49C106.627 123.124 106.909 122.845 107.264 122.654C107.619 122.457 108.016 122.358 108.456 122.358C108.895 122.358 109.292 122.457 109.647 122.654C110.002 122.845 110.281 123.121 110.484 123.482C110.692 123.843 110.797 124.262 110.797 124.741C110.797 125.22 110.69 125.643 110.476 126.009C110.267 126.37 109.983 126.649 109.622 126.846C109.261 127.043 108.861 127.142 108.422 127.142ZM108.422 126.465C108.698 126.465 108.957 126.401 109.199 126.271C109.442 126.141 109.636 125.947 109.783 125.688C109.935 125.429 110.011 125.113 110.011 124.741C110.011 124.369 109.937 124.054 109.791 123.795C109.644 123.536 109.453 123.344 109.216 123.22C108.98 123.09 108.723 123.026 108.447 123.026C108.165 123.026 107.906 123.09 107.67 123.22C107.439 123.344 107.253 123.536 107.112 123.795C106.971 124.054 106.901 124.369 106.901 124.741C106.901 125.119 106.968 125.437 107.103 125.696C107.244 125.955 107.43 126.15 107.661 126.279C107.892 126.403 108.146 126.465 108.422 126.465ZM117.702 122.35C118.063 122.35 118.384 122.426 118.666 122.578C118.948 122.724 119.17 122.947 119.334 123.245C119.497 123.544 119.579 123.907 119.579 124.336V127.065H118.818V124.445C118.818 123.983 118.703 123.631 118.472 123.389C118.246 123.141 117.939 123.017 117.55 123.017C117.15 123.017 116.832 123.147 116.595 123.406C116.359 123.66 116.24 124.029 116.24 124.513V127.065H115.48V124.445C115.48 123.983 115.364 123.631 115.133 123.389C114.908 123.141 114.601 123.017 114.212 123.017C113.812 123.017 113.494 123.147 113.257 123.406C113.02 123.66 112.902 124.029 112.902 124.513V127.065H112.133V122.434H112.902V123.102C113.054 122.859 113.257 122.673 113.511 122.544C113.77 122.414 114.054 122.35 114.364 122.35C114.753 122.35 115.097 122.437 115.395 122.612C115.694 122.786 115.916 123.043 116.063 123.381C116.192 123.054 116.407 122.8 116.705 122.62C117.004 122.44 117.336 122.35 117.702 122.35ZM123.414 121.657V120.955H125.003V127.065H124.225V121.657H123.414ZM129.987 123.643V124.293H126.615V123.643H129.987ZM135.035 122.409C134.911 121.783 134.525 121.471 133.877 121.471C133.376 121.471 133.001 121.665 132.753 122.054C132.505 122.437 132.384 123.071 132.39 123.955C132.519 123.662 132.733 123.434 133.032 123.271C133.336 123.102 133.674 123.017 134.046 123.017C134.626 123.017 135.088 123.197 135.432 123.558C135.781 123.919 135.956 124.417 135.956 125.054C135.956 125.437 135.88 125.781 135.728 126.085C135.581 126.389 135.356 126.632 135.052 126.812C134.753 126.992 134.39 127.082 133.962 127.082C133.381 127.082 132.928 126.953 132.601 126.694C132.274 126.434 132.046 126.077 131.916 125.62C131.787 125.164 131.722 124.6 131.722 123.93C131.722 121.862 132.443 120.828 133.885 120.828C134.438 120.828 134.871 120.978 135.187 121.276C135.503 121.575 135.688 121.952 135.745 122.409H135.035ZM133.885 123.668C133.643 123.668 133.415 123.719 133.201 123.82C132.987 123.916 132.812 124.065 132.677 124.268C132.547 124.465 132.483 124.707 132.483 124.995C132.483 125.423 132.606 125.772 132.854 126.043C133.102 126.308 133.457 126.44 133.919 126.44C134.314 126.44 134.626 126.319 134.857 126.077C135.094 125.829 135.212 125.496 135.212 125.079C135.212 124.64 135.1 124.296 134.874 124.048C134.649 123.795 134.319 123.668 133.885 123.668ZM143.506 125.755H140.936L140.463 127.065H139.652L141.782 121.209H142.669L144.79 127.065H143.979L143.506 125.755ZM143.286 125.13L142.221 122.155L141.156 125.13H143.286ZM146.813 123.288C146.965 123.023 147.19 122.803 147.489 122.628C147.793 122.448 148.145 122.358 148.545 122.358C148.957 122.358 149.328 122.457 149.661 122.654C149.999 122.851 150.264 123.13 150.455 123.49C150.647 123.845 150.743 124.26 150.743 124.733C150.743 125.2 150.647 125.617 150.455 125.984C150.264 126.35 149.999 126.634 149.661 126.837C149.328 127.04 148.957 127.142 148.545 127.142C148.151 127.142 147.801 127.054 147.497 126.88C147.199 126.699 146.97 126.477 146.813 126.212V129.263H146.044V122.434H146.813V123.288ZM149.957 124.733C149.957 124.384 149.886 124.079 149.745 123.82C149.604 123.561 149.413 123.364 149.171 123.228C148.934 123.093 148.672 123.026 148.385 123.026C148.103 123.026 147.841 123.096 147.599 123.237C147.362 123.372 147.17 123.572 147.024 123.837C146.883 124.096 146.813 124.398 146.813 124.741C146.813 125.091 146.883 125.398 147.024 125.663C147.17 125.922 147.362 126.122 147.599 126.263C147.841 126.398 148.103 126.465 148.385 126.465C148.672 126.465 148.934 126.398 149.171 126.263C149.413 126.122 149.604 125.922 149.745 125.663C149.886 125.398 149.957 125.088 149.957 124.733ZM152.849 123.186C152.984 122.921 153.176 122.716 153.424 122.569C153.677 122.423 153.984 122.35 154.345 122.35V123.144H154.142C153.28 123.144 152.849 123.612 152.849 124.547V127.065H152.08V122.434H152.849V123.186ZM155.955 121.682C155.809 121.682 155.685 121.631 155.583 121.53C155.482 121.428 155.431 121.304 155.431 121.158C155.431 121.011 155.482 120.887 155.583 120.786C155.685 120.685 155.809 120.634 155.955 120.634C156.096 120.634 156.214 120.685 156.31 120.786C156.411 120.887 156.462 121.011 156.462 121.158C156.462 121.304 156.411 121.428 156.31 121.53C156.214 121.631 156.096 121.682 155.955 121.682ZM156.327 122.434V127.065H155.558V122.434H156.327ZM158.732 120.811V127.065H157.963V120.811H158.732ZM161.162 126.001L160.216 128.274H159.7L160.317 126.001H161.162ZM164.727 126.448C165.442 125.874 166.003 125.403 166.408 125.037C166.814 124.665 167.155 124.279 167.431 123.879C167.713 123.474 167.854 123.076 167.854 122.688C167.854 122.321 167.764 122.034 167.583 121.826C167.409 121.611 167.124 121.504 166.73 121.504C166.347 121.504 166.048 121.626 165.834 121.868C165.625 122.104 165.513 122.423 165.496 122.823H164.752C164.775 122.192 164.966 121.704 165.327 121.361C165.687 121.017 166.152 120.845 166.721 120.845C167.302 120.845 167.761 121.006 168.099 121.327C168.442 121.648 168.614 122.09 168.614 122.654C168.614 123.121 168.473 123.578 168.192 124.023C167.916 124.462 167.6 124.851 167.245 125.189C166.89 125.522 166.437 125.91 165.884 126.356H168.792V126.998H164.727V126.448ZM170.006 123.947C170.006 122.978 170.164 122.223 170.479 121.682C170.795 121.135 171.347 120.862 172.136 120.862C172.919 120.862 173.468 121.135 173.784 121.682C174.099 122.223 174.257 122.978 174.257 123.947C174.257 124.933 174.099 125.699 173.784 126.246C173.468 126.792 172.919 127.065 172.136 127.065C171.347 127.065 170.795 126.792 170.479 126.246C170.164 125.699 170.006 124.933 170.006 123.947ZM173.496 123.947C173.496 123.457 173.463 123.043 173.395 122.704C173.333 122.361 173.201 122.085 172.998 121.876C172.801 121.668 172.513 121.564 172.136 121.564C171.753 121.564 171.46 121.668 171.257 121.876C171.06 122.085 170.927 122.361 170.86 122.704C170.798 123.043 170.767 123.457 170.767 123.947C170.767 124.454 170.798 124.879 170.86 125.223C170.927 125.567 171.06 125.843 171.257 126.051C171.46 126.26 171.753 126.364 172.136 126.364C172.513 126.364 172.801 126.26 172.998 126.051C173.201 125.843 173.333 125.567 173.395 125.223C173.463 124.879 173.496 124.454 173.496 123.947ZM175.545 126.448C176.26 125.874 176.821 125.403 177.227 125.037C177.632 124.665 177.973 124.279 178.249 123.879C178.531 123.474 178.672 123.076 178.672 122.688C178.672 122.321 178.582 122.034 178.402 121.826C178.227 121.611 177.942 121.504 177.548 121.504C177.165 121.504 176.866 121.626 176.652 121.868C176.444 122.104 176.331 122.423 176.314 122.823H175.57C175.593 122.192 175.784 121.704 176.145 121.361C176.506 121.017 176.97 120.845 177.539 120.845C178.12 120.845 178.579 121.006 178.917 121.327C179.261 121.648 179.433 122.09 179.433 122.654C179.433 123.121 179.292 123.578 179.01 124.023C178.734 124.462 178.418 124.851 178.063 125.189C177.708 125.522 177.255 125.91 176.703 126.356H179.61V126.998H175.545V126.448ZM180.807 122.493C180.847 121.975 181.047 121.569 181.407 121.276C181.768 120.983 182.236 120.837 182.81 120.837C183.193 120.837 183.523 120.907 183.799 121.048C184.081 121.183 184.292 121.369 184.433 121.606C184.579 121.842 184.653 122.11 184.653 122.409C184.653 122.758 184.551 123.059 184.348 123.313C184.151 123.567 183.892 123.73 183.571 123.803V123.845C183.937 123.936 184.227 124.113 184.441 124.378C184.656 124.643 184.763 124.989 184.763 125.417C184.763 125.739 184.689 126.029 184.543 126.288C184.396 126.541 184.177 126.741 183.884 126.888C183.591 127.034 183.238 127.108 182.827 127.108C182.23 127.108 181.74 126.953 181.357 126.643C180.974 126.327 180.759 125.882 180.714 125.308H181.458C181.497 125.646 181.636 125.922 181.872 126.136C182.109 126.35 182.424 126.457 182.819 126.457C183.213 126.457 183.512 126.356 183.715 126.153C183.923 125.944 184.027 125.677 184.027 125.35C184.027 124.927 183.886 124.623 183.605 124.437C183.323 124.251 182.898 124.158 182.329 124.158H182.134V123.516H182.337C182.855 123.51 183.247 123.426 183.512 123.262C183.777 123.093 183.909 122.834 183.909 122.485C183.909 122.186 183.81 121.947 183.613 121.766C183.422 121.586 183.146 121.496 182.785 121.496C182.436 121.496 182.154 121.586 181.94 121.766C181.726 121.947 181.599 122.189 181.559 122.493H180.807Z" fill="#0F0F0F"/>
<circle cx="75.481" cy="255.214" r="2.92551" fill="#CC9966"/>
<path opacity="0.7" d="M84.9181 257.411H86.8216V257.989H84.2082V252.551H84.9181V257.411ZM87.6354 255.835C87.6354 255.399 87.7238 255.016 87.9006 254.689C88.0775 254.356 88.3193 254.098 88.6262 253.916C88.9382 253.734 89.2841 253.643 89.6637 253.643C90.0382 253.643 90.3633 253.724 90.6389 253.885C90.9145 254.046 91.12 254.249 91.2552 254.494V253.713H91.9729V257.989H91.2552V257.193C91.1148 257.443 90.9041 257.651 90.6233 257.817C90.3477 257.978 90.0252 258.059 89.6559 258.059C89.2763 258.059 88.933 257.965 88.6262 257.778C88.3193 257.591 88.0775 257.328 87.9006 256.99C87.7238 256.652 87.6354 256.267 87.6354 255.835ZM91.2552 255.843C91.2552 255.521 91.1902 255.24 91.0602 255.001C90.9302 254.761 90.7533 254.579 90.5297 254.455C90.3112 254.325 90.0694 254.26 89.8042 254.26C89.5389 254.26 89.2971 254.322 89.0786 254.447C88.8602 254.572 88.686 254.754 88.5559 254.993C88.4259 255.232 88.3609 255.513 88.3609 255.835C88.3609 256.163 88.4259 256.449 88.5559 256.694C88.686 256.933 88.8602 257.117 89.0786 257.248C89.2971 257.372 89.5389 257.435 89.8042 257.435C90.0694 257.435 90.3112 257.372 90.5297 257.248C90.7533 257.117 90.9302 256.933 91.0602 256.694C91.1902 256.449 91.2552 256.166 91.2552 255.843ZM95.0112 258.059C94.6835 258.059 94.3896 258.004 94.1296 257.895C93.8696 257.781 93.6641 257.625 93.5133 257.427C93.3625 257.224 93.2793 256.993 93.2636 256.733H93.997C94.0178 256.946 94.1166 257.12 94.2934 257.255C94.4755 257.391 94.7121 257.458 95.0034 257.458C95.2738 257.458 95.487 257.398 95.6431 257.279C95.7991 257.159 95.8771 257.008 95.8771 256.826C95.8771 256.639 95.7939 256.501 95.6275 256.413C95.461 256.319 95.2036 256.228 94.8551 256.14C94.5379 256.057 94.2778 255.973 94.075 255.89C93.8774 255.802 93.7057 255.674 93.5601 255.508C93.4197 255.336 93.3495 255.113 93.3495 254.837C93.3495 254.618 93.4145 254.418 93.5445 254.236C93.6745 254.054 93.8592 253.911 94.0984 253.807C94.3376 253.698 94.6107 253.643 94.9175 253.643C95.3908 253.643 95.7731 253.763 96.0643 254.002C96.3556 254.241 96.5116 254.569 96.5324 254.985H95.8225C95.8069 254.761 95.7159 254.582 95.5494 254.447C95.3882 254.312 95.1698 254.244 94.8941 254.244C94.6393 254.244 94.4365 254.299 94.2856 254.408C94.1348 254.517 94.0594 254.66 94.0594 254.837C94.0594 254.977 94.1036 255.094 94.192 255.188C94.2856 255.276 94.4 255.349 94.5353 255.406C94.6757 255.458 94.8681 255.518 95.1126 255.586C95.4194 255.669 95.6691 255.752 95.8615 255.835C96.0539 255.913 96.2178 256.033 96.353 256.194C96.4934 256.356 96.5662 256.566 96.5714 256.826C96.5714 257.06 96.5064 257.271 96.3764 257.458C96.2464 257.645 96.0617 257.794 95.8225 257.903C95.5885 258.007 95.318 258.059 95.0112 258.059ZM98.7646 254.299V256.818C98.7646 257.026 98.8088 257.175 98.8972 257.263C98.9856 257.346 99.1391 257.388 99.3575 257.388H99.8802V257.989H99.2405C98.8452 257.989 98.5488 257.898 98.3511 257.716C98.1535 257.534 98.0547 257.235 98.0547 256.818V254.299H97.5008V253.713H98.0547V252.637H98.7646V253.713H99.8802V254.299H98.7646ZM106.497 253.69C106.383 253.113 106.027 252.824 105.428 252.824C104.966 252.824 104.62 253.004 104.391 253.362C104.162 253.716 104.05 254.301 104.055 255.118C104.175 254.847 104.373 254.637 104.648 254.486C104.929 254.33 105.241 254.252 105.584 254.252C106.12 254.252 106.547 254.418 106.864 254.751C107.186 255.084 107.348 255.544 107.348 256.132C107.348 256.486 107.277 256.803 107.137 257.084C107.002 257.365 106.794 257.588 106.513 257.755C106.237 257.921 105.902 258.004 105.506 258.004C104.971 258.004 104.552 257.885 104.25 257.645C103.949 257.406 103.738 257.076 103.619 256.655C103.499 256.233 103.439 255.713 103.439 255.094C103.439 253.186 104.105 252.231 105.436 252.231C105.946 252.231 106.346 252.369 106.638 252.645C106.929 252.92 107.101 253.269 107.153 253.69H106.497ZM105.436 254.852C105.213 254.852 105.002 254.899 104.804 254.993C104.607 255.081 104.445 255.219 104.321 255.406C104.201 255.588 104.141 255.812 104.141 256.077C104.141 256.473 104.256 256.795 104.484 257.045C104.713 257.289 105.041 257.411 105.467 257.411C105.832 257.411 106.12 257.3 106.333 257.076C106.552 256.847 106.661 256.54 106.661 256.155C106.661 255.75 106.557 255.432 106.349 255.204C106.141 254.97 105.837 254.852 105.436 254.852ZM110.887 255.835C110.887 255.399 110.975 255.016 111.152 254.689C111.329 254.356 111.571 254.098 111.878 253.916C112.19 253.734 112.538 253.643 112.923 253.643C113.256 253.643 113.566 253.721 113.852 253.877C114.138 254.028 114.356 254.228 114.507 254.478V252.216H115.225V257.989H114.507V257.185C114.366 257.44 114.158 257.651 113.883 257.817C113.607 257.978 113.285 258.059 112.915 258.059C112.536 258.059 112.19 257.965 111.878 257.778C111.571 257.591 111.329 257.328 111.152 256.99C110.975 256.652 110.887 256.267 110.887 255.835ZM114.507 255.843C114.507 255.521 114.442 255.24 114.312 255.001C114.182 254.761 114.005 254.579 113.781 254.455C113.563 254.325 113.321 254.26 113.056 254.26C112.791 254.26 112.549 254.322 112.33 254.447C112.112 254.572 111.938 254.754 111.808 254.993C111.678 255.232 111.613 255.513 111.613 255.835C111.613 256.163 111.678 256.449 111.808 256.694C111.938 256.933 112.112 257.117 112.33 257.248C112.549 257.372 112.791 257.435 113.056 257.435C113.321 257.435 113.563 257.372 113.781 257.248C114.005 257.117 114.182 256.933 114.312 256.694C114.442 256.449 114.507 256.166 114.507 255.843ZM116.484 255.835C116.484 255.399 116.573 255.016 116.749 254.689C116.926 254.356 117.168 254.098 117.475 253.916C117.787 253.734 118.133 253.643 118.512 253.643C118.887 253.643 119.212 253.724 119.488 253.885C119.763 254.046 119.969 254.249 120.104 254.494V253.713H120.822V257.989H120.104V257.193C119.964 257.443 119.753 257.651 119.472 257.817C119.196 257.978 118.874 258.059 118.505 258.059C118.125 258.059 117.782 257.965 117.475 257.778C117.168 257.591 116.926 257.328 116.749 256.99C116.573 256.652 116.484 256.267 116.484 255.835ZM120.104 255.843C120.104 255.521 120.039 255.24 119.909 255.001C119.779 254.761 119.602 254.579 119.378 254.455C119.16 254.325 118.918 254.26 118.653 254.26C118.388 254.26 118.146 254.322 117.927 254.447C117.709 254.572 117.535 254.754 117.405 254.993C117.275 255.232 117.21 255.513 117.21 255.835C117.21 256.163 117.275 256.449 117.405 256.694C117.535 256.933 117.709 257.117 117.927 257.248C118.146 257.372 118.388 257.435 118.653 257.435C118.918 257.435 119.16 257.372 119.378 257.248C119.602 257.117 119.779 256.933 119.909 256.694C120.039 256.449 120.104 256.166 120.104 255.843ZM126.029 253.713L123.454 260.001H122.721L123.563 257.942L121.839 253.713H122.627L123.969 257.177L125.295 253.713H126.029ZM128.581 258.059C128.253 258.059 127.959 258.004 127.699 257.895C127.439 257.781 127.234 257.625 127.083 257.427C126.932 257.224 126.849 256.993 126.833 256.733H127.567C127.587 256.946 127.686 257.12 127.863 257.255C128.045 257.391 128.282 257.458 128.573 257.458C128.843 257.458 129.057 257.398 129.213 257.279C129.369 257.159 129.447 257.008 129.447 256.826C129.447 256.639 129.364 256.501 129.197 256.413C129.031 256.319 128.773 256.228 128.425 256.14C128.108 256.057 127.848 255.973 127.645 255.89C127.447 255.802 127.275 255.674 127.13 255.508C126.989 255.336 126.919 255.113 126.919 254.837C126.919 254.618 126.984 254.418 127.114 254.236C127.244 254.054 127.429 253.911 127.668 253.807C127.907 253.698 128.18 253.643 128.487 253.643C128.961 253.643 129.343 253.763 129.634 254.002C129.925 254.241 130.081 254.569 130.102 254.985H129.392C129.377 254.761 129.286 254.582 129.119 254.447C128.958 254.312 128.739 254.244 128.464 254.244C128.209 254.244 128.006 254.299 127.855 254.408C127.704 254.517 127.629 254.66 127.629 254.837C127.629 254.977 127.673 255.094 127.762 255.188C127.855 255.276 127.97 255.349 128.105 255.406C128.245 255.458 128.438 255.518 128.682 255.586C128.989 255.669 129.239 255.752 129.431 255.835C129.624 255.913 129.787 256.033 129.923 256.194C130.063 256.356 130.136 256.566 130.141 256.826C130.141 257.06 130.076 257.271 129.946 257.458C129.816 257.645 129.631 257.794 129.392 257.903C129.158 258.007 128.888 258.059 128.581 258.059Z" fill="#111204"/>
<circle cx="149.594" cy="255.214" r="2.92551" fill="#D8D9DB"/>
<path opacity="0.7" d="M159.031 257.411H160.935V257.989H158.321V252.551H159.031V257.411ZM161.748 255.835C161.748 255.399 161.837 255.016 162.014 254.689C162.19 254.356 162.432 254.098 162.739 253.916C163.051 253.734 163.397 253.643 163.777 253.643C164.151 253.643 164.476 253.724 164.752 253.885C165.027 254.046 165.233 254.249 165.368 254.494V253.713H166.086V257.989H165.368V257.193C165.228 257.443 165.017 257.651 164.736 257.817C164.461 257.978 164.138 258.059 163.769 258.059C163.389 258.059 163.046 257.965 162.739 257.778C162.432 257.591 162.19 257.328 162.014 256.99C161.837 256.652 161.748 256.267 161.748 255.835ZM165.368 255.843C165.368 255.521 165.303 255.24 165.173 255.001C165.043 254.761 164.866 254.579 164.643 254.455C164.424 254.325 164.182 254.26 163.917 254.26C163.652 254.26 163.41 254.322 163.192 254.447C162.973 254.572 162.799 254.754 162.669 254.993C162.539 255.232 162.474 255.513 162.474 255.835C162.474 256.163 162.539 256.449 162.669 256.694C162.799 256.933 162.973 257.117 163.192 257.248C163.41 257.372 163.652 257.435 163.917 257.435C164.182 257.435 164.424 257.372 164.643 257.248C164.866 257.117 165.043 256.933 165.173 256.694C165.303 256.449 165.368 256.166 165.368 255.843ZM169.124 258.059C168.796 258.059 168.503 258.004 168.243 257.895C167.982 257.781 167.777 257.625 167.626 257.427C167.475 257.224 167.392 256.993 167.377 256.733H168.11C168.131 256.946 168.23 257.12 168.406 257.255C168.588 257.391 168.825 257.458 169.116 257.458C169.387 257.458 169.6 257.398 169.756 257.279C169.912 257.159 169.99 257.008 169.99 256.826C169.99 256.639 169.907 256.501 169.74 256.413C169.574 256.319 169.317 256.228 168.968 256.14C168.651 256.057 168.391 255.973 168.188 255.89C167.99 255.802 167.819 255.674 167.673 255.508C167.533 255.336 167.462 255.113 167.462 254.837C167.462 254.618 167.527 254.418 167.657 254.236C167.787 254.054 167.972 253.911 168.211 253.807C168.451 253.698 168.724 253.643 169.03 253.643C169.504 253.643 169.886 253.763 170.177 254.002C170.469 254.241 170.625 254.569 170.645 254.985H169.935C169.92 254.761 169.829 254.582 169.662 254.447C169.501 254.312 169.283 254.244 169.007 254.244C168.752 254.244 168.549 254.299 168.399 254.408C168.248 254.517 168.172 254.66 168.172 254.837C168.172 254.977 168.217 255.094 168.305 255.188C168.399 255.276 168.513 255.349 168.648 255.406C168.789 255.458 168.981 255.518 169.225 255.586C169.532 255.669 169.782 255.752 169.974 255.835C170.167 255.913 170.331 256.033 170.466 256.194C170.606 256.356 170.679 256.566 170.684 256.826C170.684 257.06 170.619 257.271 170.489 257.458C170.359 257.645 170.175 257.794 169.935 257.903C169.701 258.007 169.431 258.059 169.124 258.059ZM172.878 254.299V256.818C172.878 257.026 172.922 257.175 173.01 257.263C173.099 257.346 173.252 257.388 173.47 257.388H173.993V257.989H173.353C172.958 257.989 172.662 257.898 172.464 257.716C172.266 257.534 172.168 257.235 172.168 256.818V254.299H171.614V253.713H172.168V252.637H172.878V253.713H173.993V254.299H172.878ZM184.417 252.551L182.841 257.989H182.046L180.782 253.612L179.471 257.989L178.683 257.996L177.162 252.551H177.919L179.104 257.162L180.415 252.551H181.211L182.459 257.146L183.653 252.551H184.417ZM189.42 255.687C189.42 255.822 189.412 255.965 189.396 256.116H185.979C186.005 256.538 186.148 256.868 186.409 257.107C186.674 257.341 186.994 257.458 187.368 257.458C187.675 257.458 187.93 257.388 188.133 257.248C188.341 257.102 188.486 256.909 188.57 256.67H189.334C189.22 257.081 188.991 257.417 188.648 257.677C188.304 257.931 187.878 258.059 187.368 258.059C186.962 258.059 186.598 257.968 186.276 257.786C185.959 257.604 185.709 257.346 185.527 257.013C185.345 256.675 185.254 256.285 185.254 255.843C185.254 255.401 185.342 255.014 185.519 254.681C185.696 254.348 185.943 254.093 186.26 253.916C186.583 253.734 186.952 253.643 187.368 253.643C187.774 253.643 188.133 253.732 188.445 253.909C188.757 254.085 188.996 254.33 189.162 254.642C189.334 254.949 189.42 255.297 189.42 255.687ZM188.687 255.539C188.687 255.269 188.627 255.037 188.507 254.845C188.387 254.647 188.224 254.499 188.016 254.4C187.813 254.296 187.587 254.244 187.337 254.244C186.978 254.244 186.671 254.358 186.416 254.587C186.167 254.816 186.024 255.133 185.987 255.539H188.687ZM194.583 255.687C194.583 255.822 194.575 255.965 194.559 256.116H191.142C191.168 256.538 191.311 256.868 191.571 257.107C191.837 257.341 192.156 257.458 192.531 257.458C192.838 257.458 193.093 257.388 193.295 257.248C193.503 257.102 193.649 256.909 193.732 256.67H194.497C194.382 257.081 194.154 257.417 193.81 257.677C193.467 257.931 193.041 258.059 192.531 258.059C192.125 258.059 191.761 257.968 191.439 257.786C191.121 257.604 190.872 257.346 190.69 257.013C190.508 256.675 190.417 256.285 190.417 255.843C190.417 255.401 190.505 255.014 190.682 254.681C190.859 254.348 191.106 254.093 191.423 253.916C191.746 253.734 192.115 253.643 192.531 253.643C192.937 253.643 193.295 253.732 193.608 253.909C193.92 254.085 194.159 254.33 194.325 254.642C194.497 254.949 194.583 255.297 194.583 255.687ZM193.849 255.539C193.849 255.269 193.79 255.037 193.67 254.845C193.55 254.647 193.386 254.499 193.178 254.4C192.976 254.296 192.749 254.244 192.5 254.244C192.141 254.244 191.834 254.358 191.579 254.587C191.33 254.816 191.186 255.133 191.15 255.539H193.849ZM198.232 257.989L196.555 256.101V257.989H195.845V252.216H196.555V255.609L198.201 253.713H199.192L197.179 255.843L199.199 257.989H198.232Z" fill="#111204"/>
<path d="M85.4646 178.042L123.264 155.388L156.42 197.631L192.176 157.295L227.932 174.17L263.688 165.04" stroke="white" stroke-width="1.95034" stroke-linecap="round" stroke-linejoin="round"/>
<path d="M85.4656 196.245L123.265 205.447L156.421 170.326L192.177 175.499L227.933 198.874L263.689 144.236" stroke="#F2383A" stroke-width="1.95034" stroke-linecap="round" stroke-linejoin="round"/>
</g>
<defs>
<filter id="filter0_d_1_578" x="0" y="0" width="358" height="324.844" filterUnits="userSpaceOnUse" color-interpolation-filters="sRGB">
<feFlood flood-opacity="0" result="BackgroundImageFix"/>
<feColorMatrix in="SourceAlpha" type="matrix" values="0 0 0 0 0 0 0 0 0 0 0 0 0 0 0 0 0 0 127 0" result="hardAlpha"/>
<feOffset dx="-7" dy="7"/>
<feGaussianBlur stdDeviation="17.5"/>
<feComposite in2="hardAlpha" operator="out"/>
<feColorMatrix type="matrix" values="0 0 0 0 0 0 0 0 0 0 0 0 0 0 0 0 0 0 0.12 0"/>
<feBlend mode="normal" in2="BackgroundImageFix" result="effect1_dropShadow_1_578"/>
<feBlend mode="normal" in="SourceGraphic" in2="effect1_dropShadow_1_578" result="shape"/>
</filter>
<filter id="filter1_d_1_578" x="236.384" y="49.4537" width="72.1625" height="22.754" filterUnits="userSpaceOnUse" color-interpolation-filters="sRGB">
<feFlood flood-opacity="0" result="BackgroundImageFix"/>
<feColorMatrix in="SourceAlpha" type="matrix" values="0 0 0 0 0 0 0 0 0 0 0 0 0 0 0 0 0 0 127 0" result="hardAlpha"/>
<feOffset dy="1.30023"/>
<feGaussianBlur stdDeviation="0.325056"/>
<feColorMatrix type="matrix" values="0 0 0 0 0.25098 0 0 0 0 0.282353 0 0 0 0 0.321569 0 0 0 0.05 0"/>
<feBlend mode="normal" in2="BackgroundImageFix" result="effect1_dropShadow_1_578"/>
<feBlend mode="normal" in="SourceGraphic" in2="effect1_dropShadow_1_578" result="shape"/>
</filter>
</defs>
</svg>
