<svg width="443" height="392" viewBox="0 0 443 392" fill="none" xmlns="http://www.w3.org/2000/svg">
<rect width="443" height="392" rx="15" fill="white"/>
<path d="M47 218H359" stroke="white" stroke-dasharray="3 6"/>
<path d="M47 178H359" stroke="white" stroke-dasharray="3 6"/>
<path d="M47 258H359" stroke="white" stroke-dasharray="3 6"/>
<path d="M47 298H359" stroke="white"/>
<path opacity="0.5" d="M61.7167 312.941C61.7167 311.68 61.922 310.697 62.3327 309.993C62.7433 309.282 63.462 308.926 64.4887 308.926C65.508 308.926 66.223 309.282 66.6337 309.993C67.0443 310.697 67.2497 311.68 67.2497 312.941C67.2497 314.224 67.0443 315.222 66.6337 315.933C66.223 316.644 65.508 317 64.4887 317C63.462 317 62.7433 316.644 62.3327 315.933C61.922 315.222 61.7167 314.224 61.7167 312.941ZM66.2597 312.941C66.2597 312.303 66.2157 311.764 66.1277 311.324C66.047 310.877 65.8747 310.517 65.6107 310.246C65.354 309.975 64.98 309.839 64.4887 309.839C63.99 309.839 63.6087 309.975 63.3447 310.246C63.088 310.517 62.9157 310.877 62.8277 311.324C62.747 311.764 62.7067 312.303 62.7067 312.941C62.7067 313.601 62.747 314.155 62.8277 314.602C62.9157 315.049 63.088 315.409 63.3447 315.68C63.6087 315.951 63.99 316.087 64.4887 316.087C64.98 316.087 65.354 315.951 65.6107 315.68C65.8747 315.409 66.047 315.049 66.1277 314.602C66.2157 314.155 66.2597 313.601 66.2597 312.941ZM68.8599 309.96V309.047H70.9279V317H69.9159V309.96H68.8599Z" fill="#7B7B7B"/>
<path opacity="0.5" d="M114.815 312.941C114.815 311.68 115.02 310.697 115.431 309.993C115.841 309.282 116.56 308.926 117.587 308.926C118.606 308.926 119.321 309.282 119.732 309.993C120.142 310.697 120.348 311.68 120.348 312.941C120.348 314.224 120.142 315.222 119.732 315.933C119.321 316.644 118.606 317 117.587 317C116.56 317 115.841 316.644 115.431 315.933C115.02 315.222 114.815 314.224 114.815 312.941ZM119.358 312.941C119.358 312.303 119.314 311.764 119.226 311.324C119.145 310.877 118.973 310.517 118.709 310.246C118.452 309.975 118.078 309.839 117.587 309.839C117.088 309.839 116.707 309.975 116.443 310.246C116.186 310.517 116.014 310.877 115.926 311.324C115.845 311.764 115.805 312.303 115.805 312.941C115.805 313.601 115.845 314.155 115.926 314.602C116.014 315.049 116.186 315.409 116.443 315.68C116.707 315.951 117.088 316.087 117.587 316.087C118.078 316.087 118.452 315.951 118.709 315.68C118.973 315.409 119.145 315.049 119.226 314.602C119.314 314.155 119.358 313.601 119.358 312.941ZM122.101 316.197C123.032 315.449 123.762 314.837 124.29 314.36C124.818 313.876 125.262 313.374 125.621 312.853C125.988 312.325 126.171 311.808 126.171 311.302C126.171 310.825 126.054 310.451 125.819 310.18C125.592 309.901 125.221 309.762 124.708 309.762C124.209 309.762 123.821 309.92 123.542 310.235C123.271 310.543 123.124 310.957 123.102 311.478H122.134C122.163 310.657 122.413 310.022 122.882 309.575C123.351 309.128 123.956 308.904 124.697 308.904C125.452 308.904 126.05 309.113 126.49 309.531C126.937 309.949 127.161 310.525 127.161 311.258C127.161 311.867 126.978 312.461 126.611 313.04C126.252 313.612 125.841 314.118 125.379 314.558C124.917 314.991 124.327 315.497 123.608 316.076H127.392V316.912H122.101V316.197Z" fill="#7B7B7B"/>
<path opacity="0.5" d="M169.74 312.941C169.74 311.68 169.945 310.697 170.356 309.993C170.766 309.282 171.485 308.926 172.512 308.926C173.531 308.926 174.246 309.282 174.657 309.993C175.067 310.697 175.273 311.68 175.273 312.941C175.273 314.224 175.067 315.222 174.657 315.933C174.246 316.644 173.531 317 172.512 317C171.485 317 170.766 316.644 170.356 315.933C169.945 315.222 169.74 314.224 169.74 312.941ZM174.283 312.941C174.283 312.303 174.239 311.764 174.151 311.324C174.07 310.877 173.898 310.517 173.634 310.246C173.377 309.975 173.003 309.839 172.512 309.839C172.013 309.839 171.632 309.975 171.368 310.246C171.111 310.517 170.939 310.877 170.851 311.324C170.77 311.764 170.73 312.303 170.73 312.941C170.73 313.601 170.77 314.155 170.851 314.602C170.939 315.049 171.111 315.409 171.368 315.68C171.632 315.951 172.013 316.087 172.512 316.087C173.003 316.087 173.377 315.951 173.634 315.68C173.898 315.409 174.07 315.049 174.151 314.602C174.239 314.155 174.283 313.601 174.283 312.941ZM177.125 311.049C177.176 310.374 177.437 309.846 177.906 309.465C178.375 309.084 178.984 308.893 179.732 308.893C180.231 308.893 180.66 308.985 181.019 309.168C181.386 309.344 181.661 309.586 181.844 309.894C182.035 310.202 182.13 310.55 182.13 310.939C182.13 311.394 181.998 311.786 181.734 312.116C181.477 312.446 181.14 312.659 180.722 312.754V312.809C181.199 312.926 181.576 313.157 181.855 313.502C182.134 313.847 182.273 314.298 182.273 314.855C182.273 315.273 182.178 315.651 181.987 315.988C181.796 316.318 181.51 316.578 181.129 316.769C180.748 316.96 180.289 317.055 179.754 317.055C178.977 317.055 178.339 316.853 177.84 316.45C177.341 316.039 177.063 315.46 177.004 314.712H177.972C178.023 315.152 178.203 315.511 178.511 315.79C178.819 316.069 179.23 316.208 179.743 316.208C180.256 316.208 180.645 316.076 180.909 315.812C181.18 315.541 181.316 315.192 181.316 314.767C181.316 314.217 181.133 313.821 180.766 313.579C180.399 313.337 179.846 313.216 179.105 313.216H178.852V312.38H179.116C179.791 312.373 180.3 312.263 180.645 312.05C180.99 311.83 181.162 311.493 181.162 311.038C181.162 310.649 181.034 310.338 180.777 310.103C180.528 309.868 180.168 309.751 179.699 309.751C179.244 309.751 178.878 309.868 178.599 310.103C178.32 310.338 178.155 310.653 178.104 311.049H177.125Z" fill="#7B7B7B"/>
<path opacity="0.5" d="M225.019 312.941C225.019 311.68 225.225 310.697 225.635 309.993C226.046 309.282 226.765 308.926 227.791 308.926C228.811 308.926 229.526 309.282 229.936 309.993C230.347 310.697 230.552 311.68 230.552 312.941C230.552 314.224 230.347 315.222 229.936 315.933C229.526 316.644 228.811 317 227.791 317C226.765 317 226.046 316.644 225.635 315.933C225.225 315.222 225.019 314.224 225.019 312.941ZM229.562 312.941C229.562 312.303 229.518 311.764 229.43 311.324C229.35 310.877 229.177 310.517 228.913 310.246C228.657 309.975 228.283 309.839 227.791 309.839C227.293 309.839 226.911 309.975 226.647 310.246C226.391 310.517 226.218 310.877 226.13 311.324C226.05 311.764 226.009 312.303 226.009 312.941C226.009 313.601 226.05 314.155 226.13 314.602C226.218 315.049 226.391 315.409 226.647 315.68C226.911 315.951 227.293 316.087 227.791 316.087C228.283 316.087 228.657 315.951 228.913 315.68C229.177 315.409 229.35 315.049 229.43 314.602C229.518 314.155 229.562 313.601 229.562 312.941ZM232.185 315.229V314.47L236.046 309.124H237.245V314.36H238.345V315.229H237.245V317H236.255V315.229H232.185ZM236.299 310.169L233.34 314.36H236.299V310.169Z" fill="#7B7B7B"/>
<path opacity="0.5" d="M280.025 312.941C280.025 311.68 280.23 310.697 280.641 309.993C281.051 309.282 281.77 308.926 282.797 308.926C283.816 308.926 284.531 309.282 284.942 309.993C285.352 310.697 285.558 311.68 285.558 312.941C285.558 314.224 285.352 315.222 284.942 315.933C284.531 316.644 283.816 317 282.797 317C281.77 317 281.051 316.644 280.641 315.933C280.23 315.222 280.025 314.224 280.025 312.941ZM284.568 312.941C284.568 312.303 284.524 311.764 284.436 311.324C284.355 310.877 284.183 310.517 283.919 310.246C283.662 309.975 283.288 309.839 282.797 309.839C282.298 309.839 281.917 309.975 281.653 310.246C281.396 310.517 281.224 310.877 281.136 311.324C281.055 311.764 281.015 312.303 281.015 312.941C281.015 313.601 281.055 314.155 281.136 314.602C281.224 315.049 281.396 315.409 281.653 315.68C281.917 315.951 282.298 316.087 282.797 316.087C283.288 316.087 283.662 315.951 283.919 315.68C284.183 315.409 284.355 315.049 284.436 314.602C284.524 314.155 284.568 313.601 284.568 312.941ZM292.503 309.916H288.642V312.424C288.811 312.189 289.06 311.999 289.39 311.852C289.72 311.698 290.076 311.621 290.457 311.621C291.066 311.621 291.561 311.749 291.942 312.006C292.323 312.255 292.595 312.582 292.756 312.985C292.925 313.381 293.009 313.803 293.009 314.25C293.009 314.778 292.91 315.251 292.712 315.669C292.514 316.087 292.21 316.417 291.799 316.659C291.396 316.901 290.893 317.022 290.292 317.022C289.522 317.022 288.899 316.824 288.422 316.428C287.945 316.032 287.656 315.504 287.553 314.844H288.532C288.627 315.262 288.829 315.588 289.137 315.823C289.445 316.058 289.834 316.175 290.303 316.175C290.882 316.175 291.319 316.003 291.612 315.658C291.905 315.306 292.052 314.844 292.052 314.272C292.052 313.7 291.905 313.26 291.612 312.952C291.319 312.637 290.886 312.479 290.314 312.479C289.925 312.479 289.584 312.574 289.291 312.765C289.005 312.948 288.796 313.201 288.664 313.524H287.718V309.036H292.503V309.916Z" fill="#7B7B7B"/>
<path opacity="0.5" d="M334.987 312.941C334.987 311.68 335.193 310.697 335.603 309.993C336.014 309.282 336.733 308.926 337.759 308.926C338.779 308.926 339.494 309.282 339.904 309.993C340.315 310.697 340.52 311.68 340.52 312.941C340.52 314.224 340.315 315.222 339.904 315.933C339.494 316.644 338.779 317 337.759 317C336.733 317 336.014 316.644 335.603 315.933C335.193 315.222 334.987 314.224 334.987 312.941ZM339.53 312.941C339.53 312.303 339.486 311.764 339.398 311.324C339.318 310.877 339.145 310.517 338.881 310.246C338.625 309.975 338.251 309.839 337.759 309.839C337.261 309.839 336.879 309.975 336.615 310.246C336.359 310.517 336.186 310.877 336.098 311.324C336.018 311.764 335.977 312.303 335.977 312.941C335.977 313.601 336.018 314.155 336.098 314.602C336.186 315.049 336.359 315.409 336.615 315.68C336.879 315.951 337.261 316.087 337.759 316.087C338.251 316.087 338.625 315.951 338.881 315.68C339.145 315.409 339.318 315.049 339.398 314.602C339.486 314.155 339.53 313.601 339.53 312.941ZM346.827 310.939C346.666 310.125 346.164 309.718 345.32 309.718C344.668 309.718 344.18 309.971 343.857 310.477C343.535 310.976 343.377 311.801 343.384 312.952C343.553 312.571 343.832 312.274 344.22 312.061C344.616 311.841 345.056 311.731 345.54 311.731C346.296 311.731 346.897 311.966 347.344 312.435C347.799 312.904 348.026 313.553 348.026 314.382C348.026 314.881 347.927 315.328 347.729 315.724C347.539 316.12 347.245 316.435 346.849 316.67C346.461 316.905 345.988 317.022 345.43 317.022C344.675 317.022 344.085 316.853 343.659 316.516C343.234 316.179 342.937 315.713 342.768 315.119C342.6 314.525 342.515 313.792 342.515 312.919C342.515 310.228 343.454 308.882 345.331 308.882C346.05 308.882 346.615 309.076 347.025 309.465C347.436 309.854 347.678 310.345 347.751 310.939H346.827ZM345.331 312.578C345.016 312.578 344.719 312.644 344.44 312.776C344.162 312.901 343.934 313.095 343.758 313.359C343.59 313.616 343.505 313.931 343.505 314.305C343.505 314.862 343.667 315.317 343.989 315.669C344.312 316.014 344.774 316.186 345.375 316.186C345.889 316.186 346.296 316.028 346.596 315.713C346.904 315.39 347.058 314.958 347.058 314.415C347.058 313.843 346.912 313.396 346.618 313.073C346.325 312.743 345.896 312.578 345.331 312.578Z" fill="#7B7B7B"/>
<g filter="url(#filter0_d_1_545)">
<path d="M300 38C300 35.2386 302.239 33 305 33H404C406.761 33 409 35.2386 409 38V60C409 62.7614 406.761 65 404 65H305C302.239 65 300 62.7614 300 60V38Z" fill="#FBFCFE"/>
<path d="M300.25 38C300.25 35.3766 302.377 33.25 305 33.25H404C406.623 33.25 408.75 35.3766 408.75 38V60C408.75 62.6234 406.623 64.75 404 64.75H305C302.377 64.75 300.25 62.6234 300.25 60V38Z" stroke="#DDE4F0" stroke-width="0.5"/>
</g>
<path d="M324.087 44.66L320.955 53H319.371L316.227 44.66H317.691L320.163 51.596L322.647 44.66H324.087ZM326.427 45.512C326.179 45.512 325.971 45.428 325.803 45.26C325.635 45.092 325.551 44.884 325.551 44.636C325.551 44.388 325.635 44.18 325.803 44.012C325.971 43.844 326.179 43.76 326.427 43.76C326.667 43.76 326.871 43.844 327.039 44.012C327.207 44.18 327.291 44.388 327.291 44.636C327.291 44.884 327.207 45.092 327.039 45.26C326.871 45.428 326.667 45.512 326.427 45.512ZM327.099 46.388V53L325.731 53V46.388H327.099ZM335.455 49.532C335.455 49.78 335.439 50.004 335.407 50.204H330.355C330.395 50.732 330.591 51.156 330.943 51.476C331.295 51.796 331.727 51.956 332.239 51.956C332.975 51.956 333.495 51.648 333.799 51.032H335.275C335.075 51.64 334.711 52.14 334.183 52.532C333.663 52.916 333.015 53.108 332.239 53.108C331.607 53.108 331.039 52.968 330.535 52.688C330.039 52.4 329.647 52 329.359 51.488C329.079 50.968 328.939 50.368 328.939 49.688C328.939 49.008 329.075 48.412 329.347 47.9C329.627 47.38 330.015 46.98 330.511 46.7C331.015 46.42 331.591 46.28 332.239 46.28C332.863 46.28 333.419 46.416 333.907 46.688C334.395 46.96 334.775 47.344 335.047 47.84C335.319 48.328 335.455 48.892 335.455 49.532ZM334.027 49.1C334.019 48.596 333.839 48.192 333.487 47.888C333.135 47.584 332.699 47.432 332.179 47.432C331.707 47.432 331.303 47.584 330.967 47.888C330.631 48.184 330.431 48.588 330.367 49.1H334.027ZM346.181 46.388L344.129 53H342.689L341.357 48.116L340.025 53H338.585L336.521 46.388H337.913L339.293 51.704L340.697 46.388H342.125L343.469 51.68L344.837 46.388H346.181ZM355.653 53L353.733 49.664H352.689V53H351.321V44.66H354.201C354.841 44.66 355.381 44.772 355.821 44.996C356.269 45.22 356.601 45.52 356.817 45.896C357.041 46.272 357.153 46.692 357.153 47.156C357.153 47.7 356.993 48.196 356.673 48.644C356.361 49.084 355.877 49.384 355.221 49.544L357.285 53H355.653ZM352.689 48.572H354.201C354.713 48.572 355.097 48.444 355.353 48.188C355.617 47.932 355.749 47.588 355.749 47.156C355.749 46.724 355.621 46.388 355.365 46.148C355.109 45.9 354.721 45.776 354.201 45.776H352.689V48.572ZM365.463 49.532C365.463 49.78 365.447 50.004 365.415 50.204H360.363C360.403 50.732 360.599 51.156 360.951 51.476C361.303 51.796 361.735 51.956 362.247 51.956C362.983 51.956 363.503 51.648 363.807 51.032H365.283C365.083 51.64 364.719 52.14 364.191 52.532C363.671 52.916 363.023 53.108 362.247 53.108C361.615 53.108 361.047 52.968 360.543 52.688C360.047 52.4 359.655 52 359.367 51.488C359.087 50.968 358.947 50.368 358.947 49.688C358.947 49.008 359.083 48.412 359.355 47.9C359.635 47.38 360.023 46.98 360.519 46.7C361.023 46.42 361.599 46.28 362.247 46.28C362.871 46.28 363.427 46.416 363.915 46.688C364.403 46.96 364.783 47.344 365.055 47.84C365.327 48.328 365.463 48.892 365.463 49.532ZM364.035 49.1C364.027 48.596 363.847 48.192 363.495 47.888C363.143 47.584 362.707 47.432 362.187 47.432C361.715 47.432 361.311 47.584 360.975 47.888C360.639 48.184 360.439 48.588 360.375 49.1H364.035ZM368.677 47.36C368.909 47.056 369.225 46.8 369.625 46.592C370.025 46.384 370.477 46.28 370.981 46.28C371.557 46.28 372.081 46.424 372.553 46.712C373.033 46.992 373.409 47.388 373.681 47.9C373.953 48.412 374.089 49 374.089 49.664C374.089 50.328 373.953 50.924 373.681 51.452C373.409 51.972 373.033 52.38 372.553 52.676C372.081 52.964 371.557 53.108 370.981 53.108C370.477 53.108 370.029 53.008 369.637 52.808C369.245 52.6 368.925 52.344 368.677 52.04V56.144L367.309 56.144V46.388H368.677V47.36ZM372.697 49.664C372.697 49.208 372.601 48.816 372.409 48.488C372.225 48.152 371.977 47.9 371.665 47.732C371.361 47.556 371.033 47.468 370.681 47.468C370.337 47.468 370.009 47.556 369.697 47.732C369.393 47.908 369.145 48.164 368.953 48.5C368.769 48.836 368.677 49.232 368.677 49.688C368.677 50.144 368.769 50.544 368.953 50.888C369.145 51.224 369.393 51.48 369.697 51.656C370.009 51.832 370.337 51.92 370.681 51.92C371.033 51.92 371.361 51.832 371.665 51.656C371.977 51.472 372.225 51.208 372.409 50.864C372.601 50.52 372.697 50.12 372.697 49.664ZM378.81 53.108C378.186 53.108 377.622 52.968 377.118 52.688C376.614 52.4 376.218 52 375.93 51.488C375.642 50.968 375.498 50.368 375.498 49.688C375.498 49.016 375.646 48.42 375.942 47.9C376.238 47.38 376.642 46.98 377.154 46.7C377.666 46.42 378.238 46.28 378.87 46.28C379.502 46.28 380.074 46.42 380.586 46.7C381.098 46.98 381.502 47.38 381.798 47.9C382.094 48.42 382.242 49.016 382.242 49.688C382.242 50.36 382.09 50.956 381.786 51.476C381.482 51.996 381.066 52.4 380.538 52.688C380.018 52.968 379.442 53.108 378.81 53.108ZM378.81 51.92C379.162 51.92 379.49 51.836 379.794 51.668C380.106 51.5 380.358 51.248 380.55 50.912C380.742 50.576 380.838 50.168 380.838 49.688C380.838 49.208 380.746 48.804 380.562 48.476C380.378 48.14 380.134 47.888 379.83 47.72C379.526 47.552 379.198 47.468 378.846 47.468C378.494 47.468 378.166 47.552 377.862 47.72C377.566 47.888 377.33 48.14 377.154 48.476C376.978 48.804 376.89 49.208 376.89 49.688C376.89 50.4 377.07 50.952 377.43 51.344C377.798 51.728 378.258 51.92 378.81 51.92ZM385.462 47.348C385.662 47.012 385.926 46.752 386.254 46.568C386.59 46.376 386.986 46.28 387.442 46.28V47.696H387.094C386.558 47.696 386.15 47.832 385.87 48.104C385.598 48.376 385.462 48.848 385.462 49.52V53H384.094V46.388H385.462V47.348ZM390.796 47.504V51.164C390.796 51.412 390.852 51.592 390.964 51.704C391.084 51.808 391.284 51.86 391.564 51.86H392.404V53H391.324C390.708 53 390.236 52.856 389.908 52.568C389.58 52.28 389.416 51.812 389.416 51.164V47.504H388.636V46.388L389.416 46.388V44.744H390.796V46.388H392.404V47.504H390.796Z" fill="#CC9966"/>
<path d="M52.502 49.098C51.5967 49.098 50.7707 48.888 50.024 48.468C49.2773 48.0387 48.6847 47.446 48.246 46.69C47.8167 45.9247 47.602 45.066 47.602 44.114C47.602 43.162 47.8167 42.308 48.246 41.552C48.6847 40.7867 49.2773 40.194 50.024 39.774C50.7707 39.3447 51.5967 39.13 52.502 39.13C53.4167 39.13 54.2473 39.3447 54.994 39.774C55.7407 40.194 56.3287 40.782 56.758 41.538C57.1873 42.294 57.402 43.1527 57.402 44.114C57.402 45.0753 57.1873 45.934 56.758 46.69C56.3287 47.446 55.7407 48.0387 54.994 48.468C54.2473 48.888 53.4167 49.098 52.502 49.098ZM52.502 47.992C53.1833 47.992 53.7947 47.8333 54.336 47.516C54.8867 47.1987 55.316 46.746 55.624 46.158C55.9413 45.57 56.1 44.8887 56.1 44.114C56.1 43.33 55.9413 42.6487 55.624 42.07C55.316 41.482 54.8913 41.0293 54.35 40.712C53.8087 40.3947 53.1927 40.236 52.502 40.236C51.8113 40.236 51.1953 40.3947 50.654 40.712C50.1127 41.0293 49.6833 41.482 49.366 42.07C49.058 42.6487 48.904 43.33 48.904 44.114C48.904 44.8887 49.058 45.57 49.366 46.158C49.6833 46.746 50.1127 47.1987 50.654 47.516C51.2047 47.8333 51.8207 47.992 52.502 47.992ZM60.8579 42.574C61.0819 42.1353 61.3992 41.7947 61.8099 41.552C62.2299 41.3093 62.7385 41.188 63.3359 41.188V42.504H62.9999C61.5719 42.504 60.8579 43.2787 60.8579 44.828V49H59.5839V41.328H60.8579V42.574ZM64.8305 45.136C64.8305 44.352 64.9892 43.666 65.3065 43.078C65.6238 42.4807 66.0578 42.0187 66.6085 41.692C67.1685 41.3653 67.7938 41.202 68.4845 41.202C69.0818 41.202 69.6372 41.342 70.1505 41.622C70.6638 41.8927 71.0558 42.252 71.3265 42.7V38.64H72.6145V49H71.3265V47.558C71.0745 48.0153 70.7012 48.3933 70.2065 48.692C69.7118 48.9813 69.1332 49.126 68.4705 49.126C67.7892 49.126 67.1685 48.958 66.6085 48.622C66.0578 48.286 65.6238 47.8147 65.3065 47.208C64.9892 46.6013 64.8305 45.9107 64.8305 45.136ZM71.3265 45.15C71.3265 44.5713 71.2098 44.0673 70.9765 43.638C70.7432 43.2087 70.4258 42.882 70.0245 42.658C69.6325 42.4247 69.1985 42.308 68.7225 42.308C68.2465 42.308 67.8125 42.42 67.4205 42.644C67.0285 42.868 66.7158 43.1947 66.4825 43.624C66.2492 44.0533 66.1325 44.5573 66.1325 45.136C66.1325 45.724 66.2492 46.2373 66.4825 46.676C66.7158 47.1053 67.0285 47.4367 67.4205 47.67C67.8125 47.894 68.2465 48.006 68.7225 48.006C69.1985 48.006 69.6325 47.894 70.0245 47.67C70.4258 47.4367 70.7432 47.1053 70.9765 46.676C71.2098 46.2373 71.3265 45.7287 71.3265 45.15ZM82.2675 44.87C82.2675 45.1127 82.2535 45.3693 82.2255 45.64H76.0935C76.1401 46.396 76.3968 46.9887 76.8635 47.418C77.3395 47.838 77.9135 48.048 78.5855 48.048C79.1361 48.048 79.5935 47.922 79.9575 47.67C80.3308 47.4087 80.5921 47.0633 80.7415 46.634H82.1135C81.9081 47.3713 81.4975 47.9733 80.8815 48.44C80.2655 48.8973 79.5001 49.126 78.5855 49.126C77.8575 49.126 77.2041 48.9627 76.6255 48.636C76.0561 48.3093 75.6081 47.8473 75.2815 47.25C74.9548 46.6433 74.7915 45.9433 74.7915 45.15C74.7915 44.3567 74.9501 43.6613 75.2675 43.064C75.5848 42.4667 76.0281 42.0093 76.5975 41.692C77.1761 41.3653 77.8388 41.202 78.5855 41.202C79.3135 41.202 79.9575 41.3607 80.5175 41.678C81.0775 41.9953 81.5068 42.434 81.8055 42.994C82.1135 43.5447 82.2675 44.17 82.2675 44.87ZM80.9515 44.604C80.9515 44.1187 80.8441 43.7033 80.6295 43.358C80.4148 43.0033 80.1208 42.7373 79.7475 42.56C79.3835 42.3733 78.9775 42.28 78.5295 42.28C77.8855 42.28 77.3348 42.4853 76.8775 42.896C76.4295 43.3067 76.1728 43.876 76.1075 44.604H80.9515ZM85.7231 42.574C85.9471 42.1353 86.2644 41.7947 86.6751 41.552C87.0951 41.3093 87.6038 41.188 88.2011 41.188V42.504H87.8651C86.4371 42.504 85.7231 43.2787 85.7231 44.828V49H84.4491V41.328H85.7231V42.574Z" fill="#0F0F0F"/>
<path d="M49.46 80.9C50.74 79.7933 51.7467 78.8867 52.48 78.18C53.2267 77.46 53.8467 76.7133 54.34 75.94C54.8333 75.1667 55.08 74.3933 55.08 73.62C55.08 72.82 54.8867 72.1933 54.5 71.74C54.1267 71.2867 53.5333 71.06 52.72 71.06C51.9333 71.06 51.32 71.3133 50.88 71.82C50.4533 72.3133 50.2267 72.98 50.2 73.82H48C48.04 72.3 48.4933 71.14 49.36 70.34C50.24 69.5267 51.3533 69.12 52.7 69.12C54.1533 69.12 55.2867 69.52 56.1 70.32C56.9267 71.12 57.34 72.1867 57.34 73.52C57.34 74.48 57.0933 75.4067 56.6 76.3C56.12 77.18 55.54 77.9733 54.86 78.68C54.1933 79.3733 53.34 80.18 52.3 81.1L51.4 81.9H57.74V83.8H48.02V82.14L49.46 80.9ZM61.463 84.14C61.0496 84.14 60.703 84 60.423 83.72C60.143 83.44 60.003 83.0933 60.003 82.68C60.003 82.2667 60.143 81.92 60.423 81.64C60.703 81.36 61.0496 81.22 61.463 81.22C61.863 81.22 62.203 81.36 62.483 81.64C62.763 81.92 62.903 82.2667 62.903 82.68C62.903 83.0933 62.763 83.44 62.483 83.72C62.203 84 61.863 84.14 61.463 84.14ZM74.9672 71.38H68.2672V75.36C68.5472 74.9867 68.9605 74.6733 69.5072 74.42C70.0672 74.1667 70.6605 74.04 71.2872 74.04C72.4072 74.04 73.3139 74.28 74.0072 74.76C74.7139 75.24 75.2139 75.8467 75.5072 76.58C75.8139 77.3133 75.9672 78.0867 75.9672 78.9C75.9672 79.8867 75.7739 80.7667 75.3872 81.54C75.0139 82.3 74.4472 82.9 73.6872 83.34C72.9405 83.78 72.0205 84 70.9272 84C69.4739 84 68.3072 83.64 67.4272 82.92C66.5472 82.2 66.0205 81.2467 65.8472 80.06H68.0672C68.2139 80.6867 68.5405 81.1867 69.0472 81.56C69.5539 81.92 70.1872 82.1 70.9472 82.1C71.8939 82.1 72.6005 81.8133 73.0672 81.24C73.5472 80.6667 73.7872 79.9067 73.7872 78.96C73.7872 78 73.5472 77.2667 73.0672 76.76C72.5872 76.24 71.8805 75.98 70.9472 75.98C70.2939 75.98 69.7405 76.1467 69.2872 76.48C68.8472 76.8 68.5272 77.24 68.3272 77.8H66.1672V69.38H74.9672V71.38ZM86.6806 72.8C86.534 72.1867 86.2673 71.7267 85.8806 71.42C85.494 71.1133 84.954 70.96 84.2606 70.96C83.2073 70.96 82.4206 71.3667 81.9006 72.18C81.3806 72.98 81.1073 74.3133 81.0806 76.18C81.4273 75.5933 81.934 75.14 82.6006 74.82C83.2673 74.5 83.9873 74.34 84.7606 74.34C85.6406 74.34 86.414 74.5333 87.0806 74.92C87.7606 75.2933 88.2873 75.84 88.6606 76.56C89.0473 77.28 89.2406 78.14 89.2406 79.14C89.2406 80.0733 89.054 80.9067 88.6806 81.64C88.3206 82.3733 87.7806 82.9533 87.0606 83.38C86.3406 83.7933 85.474 84 84.4606 84C83.0873 84 82.0073 83.7 81.2206 83.1C80.4473 82.4867 79.9006 81.6267 79.5806 80.52C79.274 79.4133 79.1206 78.0333 79.1206 76.38C79.1206 71.5 80.8406 69.06 84.2806 69.06C85.614 69.06 86.6606 69.42 87.4206 70.14C88.194 70.86 88.6473 71.7467 88.7806 72.8H86.6806ZM84.2606 76.26C83.4473 76.26 82.754 76.5067 82.1806 77C81.6206 77.48 81.3406 78.18 81.3406 79.1C81.3406 80.02 81.6006 80.7533 82.1206 81.3C82.654 81.8333 83.394 82.1 84.3406 82.1C85.1806 82.1 85.8406 81.84 86.3206 81.32C86.814 80.8 87.0606 80.1067 87.0606 79.24C87.0606 78.3333 86.8206 77.6133 86.3406 77.08C85.874 76.5333 85.1806 76.26 84.2606 76.26ZM94.6327 76.38C93.246 75.6867 92.5527 74.5933 92.5527 73.1C92.5527 72.38 92.7327 71.72 93.0927 71.12C93.4527 70.52 93.9927 70.0467 94.7127 69.7C95.4327 69.34 96.3127 69.16 97.3527 69.16C98.3793 69.16 99.2527 69.34 99.9727 69.7C100.706 70.0467 101.253 70.52 101.613 71.12C101.973 71.72 102.153 72.38 102.153 73.1C102.153 73.8467 101.959 74.5067 101.573 75.08C101.199 75.64 100.699 76.0733 100.073 76.38C100.833 76.66 101.433 77.12 101.873 77.76C102.313 78.3867 102.533 79.1267 102.533 79.98C102.533 80.8467 102.313 81.6133 101.873 82.28C101.433 82.9467 100.819 83.46 100.033 83.82C99.246 84.18 98.3527 84.36 97.3527 84.36C96.3527 84.36 95.4593 84.18 94.6727 83.82C93.8993 83.46 93.2927 82.9467 92.8527 82.28C92.4127 81.6133 92.1927 80.8467 92.1927 79.98C92.1927 79.1133 92.4127 78.3667 92.8527 77.74C93.2927 77.1133 93.886 76.66 94.6327 76.38ZM99.9727 73.38C99.9727 72.6333 99.7393 72.06 99.2727 71.66C98.806 71.26 98.166 71.06 97.3527 71.06C96.5527 71.06 95.9193 71.26 95.4527 71.66C94.986 72.06 94.7527 72.64 94.7527 73.4C94.7527 74.0667 94.9927 74.6133 95.4727 75.04C95.966 75.4533 96.5927 75.66 97.3527 75.66C98.1127 75.66 98.7393 75.4467 99.2327 75.02C99.726 74.5933 99.9727 74.0467 99.9727 73.38ZM97.3527 77.38C96.4727 77.38 95.7527 77.6 95.1927 78.04C94.646 78.4667 94.3727 79.0867 94.3727 79.9C94.3727 80.66 94.6393 81.28 95.1727 81.76C95.706 82.2267 96.4327 82.46 97.3527 82.46C98.2593 82.46 98.9727 82.22 99.4927 81.74C100.026 81.26 100.293 80.6467 100.293 79.9C100.293 79.1 100.019 78.48 99.4727 78.04C98.9393 77.6 98.2327 77.38 97.3527 77.38Z" fill="#0F0F0F"/>
<path d="M64.164 109.104C64.932 108.464 65.544 107.932 66 107.508C66.456 107.076 66.836 106.628 67.14 106.164C67.444 105.7 67.596 105.244 67.596 104.796C67.596 104.388 67.5 104.068 67.308 103.836C67.116 103.604 66.82 103.488 66.42 103.488C66.02 103.488 65.712 103.624 65.496 103.896C65.28 104.16 65.168 104.524 65.16 104.988H63.528C63.56 104.028 63.844 103.3 64.38 102.804C64.924 102.308 65.612 102.06 66.444 102.06C67.356 102.06 68.056 102.304 68.544 102.792C69.032 103.272 69.276 103.908 69.276 104.7C69.276 105.324 69.108 105.92 68.772 106.488C68.436 107.056 68.052 107.552 67.62 107.976C67.188 108.392 66.624 108.896 65.928 109.488H69.468V110.88H63.54V109.632L64.164 109.104ZM71.9626 111.084C71.6586 111.084 71.4066 110.992 71.2066 110.808C71.0146 110.616 70.9186 110.38 70.9186 110.1C70.9186 109.82 71.0146 109.588 71.2066 109.404C71.4066 109.212 71.6586 109.116 71.9626 109.116C72.2586 109.116 72.5026 109.212 72.6946 109.404C72.8866 109.588 72.9826 109.82 72.9826 110.1C72.9826 110.38 72.8866 110.616 72.6946 110.808C72.5026 110.992 72.2586 111.084 71.9626 111.084ZM74.4398 103.8V102.252H77.3318V111H75.6038V103.8H74.4398ZM79.2995 104.4C79.2995 103.792 79.4755 103.316 79.8275 102.972C80.1875 102.628 80.6475 102.456 81.2075 102.456C81.7675 102.456 82.2235 102.628 82.5755 102.972C82.9355 103.316 83.1155 103.792 83.1155 104.4C83.1155 105.016 82.9355 105.496 82.5755 105.84C82.2235 106.184 81.7675 106.356 81.2075 106.356C80.6475 106.356 80.1875 106.184 79.8275 105.84C79.4755 105.496 79.2995 105.016 79.2995 104.4ZM87.0035 102.6L82.2875 111H80.6555L85.3595 102.6H87.0035ZM81.1955 103.464C80.7555 103.464 80.5355 103.776 80.5355 104.4C80.5355 105.032 80.7555 105.348 81.1955 105.348C81.4115 105.348 81.5795 105.272 81.6995 105.12C81.8195 104.96 81.8795 104.72 81.8795 104.4C81.8795 103.776 81.6515 103.464 81.1955 103.464ZM84.5675 109.188C84.5675 108.572 84.7435 108.096 85.0955 107.76C85.4555 107.416 85.9155 107.244 86.4755 107.244C87.0355 107.244 87.4875 107.416 87.8315 107.76C88.1835 108.096 88.3595 108.572 88.3595 109.188C88.3595 109.804 88.1835 110.284 87.8315 110.628C87.4875 110.972 87.0355 111.144 86.4755 111.144C85.9075 111.144 85.4475 110.972 85.0955 110.628C84.7435 110.284 84.5675 109.804 84.5675 109.188ZM86.4635 108.252C86.0075 108.252 85.7795 108.564 85.7795 109.188C85.7795 109.82 86.0075 110.136 86.4635 110.136C86.9115 110.136 87.1355 109.82 87.1355 109.188C87.1355 108.564 86.9115 108.252 86.4635 108.252Z" fill="#F2383A"/>
<path d="M96.3759 109.992L98.4159 104.424H99.5799L96.9999 111H95.7279L93.1479 104.424H94.3239L96.3759 109.992ZM103.482 111.108C102.978 111.108 102.526 111.024 102.126 110.856C101.726 110.68 101.41 110.44 101.178 110.136C100.946 109.824 100.818 109.468 100.794 109.068H101.922C101.954 109.396 102.106 109.664 102.378 109.872C102.658 110.08 103.022 110.184 103.47 110.184C103.886 110.184 104.214 110.092 104.454 109.908C104.694 109.724 104.814 109.492 104.814 109.212C104.814 108.924 104.686 108.712 104.43 108.576C104.174 108.432 103.778 108.292 103.242 108.156C102.754 108.028 102.354 107.9 102.042 107.772C101.738 107.636 101.474 107.44 101.25 107.184C101.034 106.92 100.926 106.576 100.926 106.152C100.926 105.816 101.026 105.508 101.226 105.228C101.426 104.948 101.71 104.728 102.078 104.568C102.446 104.4 102.866 104.316 103.338 104.316C104.066 104.316 104.654 104.5 105.102 104.868C105.55 105.236 105.79 105.74 105.822 106.38H104.73C104.706 106.036 104.566 105.76 104.31 105.552C104.062 105.344 103.726 105.24 103.302 105.24C102.91 105.24 102.598 105.324 102.366 105.492C102.134 105.66 102.018 105.88 102.018 106.152C102.018 106.368 102.086 106.548 102.222 106.692C102.366 106.828 102.542 106.94 102.75 107.028C102.966 107.108 103.262 107.2 103.638 107.304C104.11 107.432 104.494 107.56 104.79 107.688C105.086 107.808 105.338 107.992 105.546 108.24C105.762 108.488 105.874 108.812 105.882 109.212C105.882 109.572 105.782 109.896 105.582 110.184C105.382 110.472 105.098 110.7 104.73 110.868C104.37 111.028 103.954 111.108 103.482 111.108ZM112.715 102.12V111H111.623V102.12H112.715ZM114.668 107.688C114.668 107.016 114.804 106.428 115.076 105.924C115.348 105.412 115.72 105.016 116.192 104.736C116.672 104.456 117.204 104.316 117.788 104.316C118.364 104.316 118.864 104.44 119.288 104.688C119.712 104.936 120.028 105.248 120.236 105.624V104.424H121.34V111H120.236V109.776C120.02 110.16 119.696 110.48 119.264 110.736C118.84 110.984 118.344 111.108 117.776 111.108C117.192 111.108 116.664 110.964 116.192 110.676C115.72 110.388 115.348 109.984 115.076 109.464C114.804 108.944 114.668 108.352 114.668 107.688ZM120.236 107.7C120.236 107.204 120.136 106.772 119.936 106.404C119.736 106.036 119.464 105.756 119.12 105.564C118.784 105.364 118.412 105.264 118.004 105.264C117.596 105.264 117.224 105.36 116.888 105.552C116.552 105.744 116.284 106.024 116.084 106.392C115.884 106.76 115.784 107.192 115.784 107.688C115.784 108.192 115.884 108.632 116.084 109.008C116.284 109.376 116.552 109.66 116.888 109.86C117.224 110.052 117.596 110.148 118.004 110.148C118.412 110.148 118.784 110.052 119.12 109.86C119.464 109.66 119.736 109.376 119.936 109.008C120.136 108.632 120.236 108.196 120.236 107.7ZM126.014 111.108C125.51 111.108 125.058 111.024 124.658 110.856C124.258 110.68 123.942 110.44 123.71 110.136C123.478 109.824 123.35 109.468 123.326 109.068H124.454C124.486 109.396 124.638 109.664 124.91 109.872C125.19 110.08 125.554 110.184 126.002 110.184C126.418 110.184 126.746 110.092 126.986 109.908C127.226 109.724 127.346 109.492 127.346 109.212C127.346 108.924 127.218 108.712 126.962 108.576C126.706 108.432 126.31 108.292 125.774 108.156C125.286 108.028 124.886 107.9 124.574 107.772C124.27 107.636 124.006 107.44 123.782 107.184C123.566 106.92 123.458 106.576 123.458 106.152C123.458 105.816 123.558 105.508 123.758 105.228C123.958 104.948 124.242 104.728 124.61 104.568C124.978 104.4 125.398 104.316 125.87 104.316C126.598 104.316 127.186 104.5 127.634 104.868C128.082 105.236 128.322 105.74 128.354 106.38H127.262C127.238 106.036 127.098 105.76 126.842 105.552C126.594 105.344 126.258 105.24 125.834 105.24C125.442 105.24 125.13 105.324 124.898 105.492C124.666 105.66 124.55 105.88 124.55 106.152C124.55 106.368 124.618 106.548 124.754 106.692C124.898 106.828 125.074 106.94 125.282 107.028C125.498 107.108 125.794 107.2 126.17 107.304C126.642 107.432 127.026 107.56 127.322 107.688C127.618 107.808 127.87 107.992 128.078 108.24C128.294 108.488 128.406 108.812 128.414 109.212C128.414 109.572 128.314 109.896 128.114 110.184C127.914 110.472 127.63 110.7 127.262 110.868C126.902 111.028 126.486 111.108 126.014 111.108ZM131.787 105.324V109.2C131.787 109.52 131.855 109.748 131.991 109.884C132.127 110.012 132.363 110.076 132.699 110.076H133.503V111H132.519C131.911 111 131.455 110.86 131.151 110.58C130.847 110.3 130.695 109.84 130.695 109.2V105.324H129.843V104.424H130.695V102.768H131.787V104.424H133.503V105.324H131.787ZM147.786 104.424L145.734 111H144.606L143.022 105.78L141.438 111H140.31L138.246 104.424H139.362L140.874 109.944L142.506 104.424H143.622L145.218 109.956L146.706 104.424H147.786ZM155.369 107.46C155.369 107.668 155.357 107.888 155.333 108.12H150.077C150.117 108.768 150.337 109.276 150.737 109.644C151.145 110.004 151.637 110.184 152.213 110.184C152.685 110.184 153.077 110.076 153.389 109.86C153.709 109.636 153.933 109.34 154.061 108.972H155.237C155.061 109.604 154.709 110.12 154.181 110.52C153.653 110.912 152.997 111.108 152.213 111.108C151.589 111.108 151.029 110.968 150.533 110.688C150.045 110.408 149.661 110.012 149.381 109.5C149.101 108.98 148.961 108.38 148.961 107.7C148.961 107.02 149.097 106.424 149.369 105.912C149.641 105.4 150.021 105.008 150.509 104.736C151.005 104.456 151.573 104.316 152.213 104.316C152.837 104.316 153.389 104.452 153.869 104.724C154.349 104.996 154.717 105.372 154.973 105.852C155.237 106.324 155.369 106.86 155.369 107.46ZM154.241 107.232C154.241 106.816 154.149 106.46 153.965 106.164C153.781 105.86 153.529 105.632 153.209 105.48C152.897 105.32 152.549 105.24 152.165 105.24C151.613 105.24 151.141 105.416 150.749 105.768C150.365 106.12 150.145 106.608 150.089 107.232H154.241ZM163.311 107.46C163.311 107.668 163.299 107.888 163.275 108.12H158.019C158.059 108.768 158.279 109.276 158.679 109.644C159.087 110.004 159.579 110.184 160.155 110.184C160.627 110.184 161.019 110.076 161.331 109.86C161.651 109.636 161.875 109.34 162.003 108.972H163.179C163.003 109.604 162.651 110.12 162.123 110.52C161.595 110.912 160.939 111.108 160.155 111.108C159.531 111.108 158.971 110.968 158.475 110.688C157.987 110.408 157.603 110.012 157.323 109.5C157.043 108.98 156.903 108.38 156.903 107.7C156.903 107.02 157.039 106.424 157.311 105.912C157.583 105.4 157.963 105.008 158.451 104.736C158.947 104.456 159.515 104.316 160.155 104.316C160.779 104.316 161.331 104.452 161.811 104.724C162.291 104.996 162.659 105.372 162.915 105.852C163.179 106.324 163.311 106.86 163.311 107.46ZM162.183 107.232C162.183 106.816 162.091 106.46 161.907 106.164C161.723 105.86 161.471 105.632 161.151 105.48C160.839 105.32 160.491 105.24 160.107 105.24C159.555 105.24 159.083 105.416 158.691 105.768C158.307 106.12 158.087 106.608 158.031 107.232H162.183ZM168.924 111L166.344 108.096V111H165.252V102.12H166.344V107.34L168.876 104.424H170.4L167.304 107.7L170.412 111H168.924Z" fill="#7B7B7B"/>
<path d="M50.5066 101L50.5066 110.036" stroke="#F2383A" stroke-width="1.5" stroke-linecap="round" stroke-linejoin="round"/>
<path d="M54.1152 107.442L50.5576 111L47 107.442" stroke="#F2383A" stroke-width="1.5" stroke-linecap="round" stroke-linejoin="round"/>
<path opacity="0.5" d="M50.874 152.091C50.276 152.091 49.7387 151.987 49.262 151.779C48.794 151.562 48.4257 151.268 48.157 150.895C47.8883 150.514 47.7497 150.076 47.741 149.582H49.002C49.0453 150.007 49.2187 150.366 49.522 150.661C49.834 150.947 50.2847 151.09 50.874 151.09C51.4373 151.09 51.8793 150.951 52.2 150.674C52.5293 150.388 52.694 150.024 52.694 149.582C52.694 149.235 52.5987 148.954 52.408 148.737C52.2173 148.52 51.979 148.356 51.693 148.243C51.407 148.13 51.0213 148.009 50.536 147.879C49.938 147.723 49.457 147.567 49.093 147.411C48.7377 147.255 48.43 147.012 48.17 146.683C47.9187 146.345 47.793 145.894 47.793 145.331C47.793 144.837 47.9187 144.399 48.17 144.018C48.4213 143.637 48.7723 143.342 49.223 143.134C49.6823 142.926 50.2067 142.822 50.796 142.822C51.6453 142.822 52.3387 143.034 52.876 143.459C53.422 143.884 53.7297 144.447 53.799 145.149H52.499C52.4557 144.802 52.2737 144.499 51.953 144.239C51.6323 143.97 51.2077 143.836 50.679 143.836C50.185 143.836 49.782 143.966 49.47 144.226C49.158 144.477 49.002 144.833 49.002 145.292C49.002 145.621 49.093 145.89 49.275 146.098C49.4657 146.306 49.6953 146.466 49.964 146.579C50.2413 146.683 50.627 146.804 51.121 146.943C51.719 147.108 52.2 147.272 52.564 147.437C52.928 147.593 53.24 147.84 53.5 148.178C53.76 148.507 53.89 148.958 53.89 149.53C53.89 149.972 53.773 150.388 53.539 150.778C53.305 151.168 52.9583 151.484 52.499 151.727C52.0397 151.97 51.498 152.091 50.874 152.091ZM55.6889 148.412C55.6889 147.684 55.8362 147.047 56.1309 146.501C56.4255 145.946 56.8285 145.517 57.3399 145.214C57.8599 144.911 58.4362 144.759 59.0689 144.759C59.6929 144.759 60.2345 144.893 60.6939 145.162C61.1532 145.431 61.4955 145.769 61.7209 146.176V144.876H62.9169V152H61.7209V150.674C61.4869 151.09 61.1359 151.437 60.6679 151.714C60.2085 151.983 59.6712 152.117 59.0559 152.117C58.4232 152.117 57.8512 151.961 57.3399 151.649C56.8285 151.337 56.4255 150.899 56.1309 150.336C55.8362 149.773 55.6889 149.131 55.6889 148.412ZM61.7209 148.425C61.7209 147.888 61.6125 147.42 61.3959 147.021C61.1792 146.622 60.8845 146.319 60.5119 146.111C60.1479 145.894 59.7449 145.786 59.3029 145.786C58.8609 145.786 58.4579 145.89 58.0939 146.098C57.7299 146.306 57.4395 146.609 57.2229 147.008C57.0062 147.407 56.8979 147.875 56.8979 148.412C56.8979 148.958 57.0062 149.435 57.2229 149.842C57.4395 150.241 57.7299 150.548 58.0939 150.765C58.4579 150.973 58.8609 151.077 59.3029 151.077C59.7449 151.077 60.1479 150.973 60.5119 150.765C60.8845 150.548 61.1792 150.241 61.3959 149.842C61.6125 149.435 61.7209 148.962 61.7209 148.425ZM66.599 142.38V152H65.416V142.38H66.599ZM75.6153 148.165C75.6153 148.39 75.6023 148.629 75.5763 148.88H69.8823C69.9256 149.582 70.1639 150.132 70.5973 150.531C71.0393 150.921 71.5723 151.116 72.1963 151.116C72.7076 151.116 73.1323 150.999 73.4703 150.765C73.8169 150.522 74.0596 150.202 74.1983 149.803H75.4723C75.2816 150.488 74.9003 151.047 74.3283 151.48C73.7563 151.905 73.0456 152.117 72.1963 152.117C71.5203 152.117 70.9136 151.965 70.3763 151.662C69.8476 151.359 69.4316 150.93 69.1283 150.375C68.8249 149.812 68.6733 149.162 68.6733 148.425C68.6733 147.688 68.8206 147.043 69.1153 146.488C69.4099 145.933 69.8216 145.509 70.3503 145.214C70.8876 144.911 71.5029 144.759 72.1963 144.759C72.8723 144.759 73.4703 144.906 73.9903 145.201C74.5103 145.496 74.9089 145.903 75.1863 146.423C75.4723 146.934 75.6153 147.515 75.6153 148.165ZM74.3933 147.918C74.3933 147.467 74.2936 147.082 74.0943 146.761C73.8949 146.432 73.6219 146.185 73.2753 146.02C72.9373 145.847 72.5603 145.76 72.1443 145.76C71.5463 145.76 71.0349 145.951 70.6103 146.332C70.1943 146.713 69.9559 147.242 69.8953 147.918H74.3933ZM80.1988 152.117C79.6528 152.117 79.1631 152.026 78.7298 151.844C78.2964 151.653 77.9541 151.393 77.7028 151.064C77.4514 150.726 77.3128 150.34 77.2868 149.907H78.5088C78.5434 150.262 78.7081 150.553 79.0028 150.778C79.3061 151.003 79.7004 151.116 80.1858 151.116C80.6364 151.116 80.9918 151.016 81.2518 150.817C81.5118 150.618 81.6418 150.366 81.6418 150.063C81.6418 149.751 81.5031 149.521 81.2258 149.374C80.9484 149.218 80.5194 149.066 79.9388 148.919C79.4101 148.78 78.9768 148.642 78.6388 148.503C78.3094 148.356 78.0234 148.143 77.7808 147.866C77.5468 147.58 77.4298 147.207 77.4298 146.748C77.4298 146.384 77.5381 146.05 77.7548 145.747C77.9714 145.444 78.2791 145.205 78.6778 145.032C79.0764 144.85 79.5314 144.759 80.0428 144.759C80.8314 144.759 81.4684 144.958 81.9538 145.357C82.4391 145.756 82.6991 146.302 82.7338 146.995H81.5508C81.5248 146.622 81.3731 146.323 81.0958 146.098C80.8271 145.873 80.4631 145.76 80.0038 145.76C79.5791 145.76 79.2411 145.851 78.9898 146.033C78.7384 146.215 78.6128 146.453 78.6128 146.748C78.6128 146.982 78.6864 147.177 78.8338 147.333C78.9898 147.48 79.1804 147.602 79.4058 147.697C79.6398 147.784 79.9604 147.883 80.3678 147.996C80.8791 148.135 81.2951 148.273 81.6158 148.412C81.9364 148.542 82.2094 148.741 82.4348 149.01C82.6688 149.279 82.7901 149.63 82.7988 150.063C82.7988 150.453 82.6904 150.804 82.4738 151.116C82.2571 151.428 81.9494 151.675 81.5508 151.857C81.1608 152.03 80.7101 152.117 80.1988 152.117ZM91.8336 145.851H90.3386V152H89.1556V145.851H88.2326V144.876H89.1556V144.369C89.1556 143.572 89.3593 142.991 89.7666 142.627C90.1826 142.254 90.8456 142.068 91.7556 142.068V143.056C91.2356 143.056 90.8673 143.16 90.6506 143.368C90.4426 143.567 90.3386 143.901 90.3386 144.369V144.876H91.8336V145.851ZM94.8959 146.033C95.1039 145.626 95.3986 145.309 95.7799 145.084C96.1699 144.859 96.6422 144.746 97.1969 144.746V145.968H96.8849C95.5589 145.968 94.8959 146.687 94.8959 148.126V152H93.7129V144.876H94.8959V146.033ZM102.17 152.117C101.502 152.117 100.896 151.965 100.35 151.662C99.8122 151.359 99.3875 150.93 99.0755 150.375C98.7722 149.812 98.6205 149.162 98.6205 148.425C98.6205 147.697 98.7765 147.056 99.0885 146.501C99.4092 145.938 99.8425 145.509 100.389 145.214C100.935 144.911 101.546 144.759 102.222 144.759C102.898 144.759 103.509 144.911 104.055 145.214C104.601 145.509 105.03 145.933 105.342 146.488C105.662 147.043 105.823 147.688 105.823 148.425C105.823 149.162 105.658 149.812 105.329 150.375C105.008 150.93 104.57 151.359 104.016 151.662C103.461 151.965 102.846 152.117 102.17 152.117ZM102.17 151.077C102.594 151.077 102.993 150.977 103.366 150.778C103.738 150.579 104.037 150.28 104.263 149.881C104.497 149.482 104.614 148.997 104.614 148.425C104.614 147.853 104.501 147.368 104.276 146.969C104.05 146.57 103.756 146.276 103.392 146.085C103.028 145.886 102.633 145.786 102.209 145.786C101.775 145.786 101.377 145.886 101.013 146.085C100.657 146.276 100.371 146.57 100.155 146.969C99.9379 147.368 99.8295 147.853 99.8295 148.425C99.8295 149.006 99.9335 149.495 100.142 149.894C100.358 150.293 100.644 150.592 101 150.791C101.355 150.982 101.745 151.077 102.17 151.077ZM116.445 144.746C117 144.746 117.494 144.863 117.927 145.097C118.36 145.322 118.703 145.665 118.954 146.124C119.205 146.583 119.331 147.142 119.331 147.801V152H118.161V147.97C118.161 147.259 117.983 146.718 117.628 146.345C117.281 145.964 116.809 145.773 116.211 145.773C115.596 145.773 115.106 145.972 114.742 146.371C114.378 146.761 114.196 147.329 114.196 148.074V152H113.026V147.97C113.026 147.259 112.848 146.718 112.493 146.345C112.146 145.964 111.674 145.773 111.076 145.773C110.461 145.773 109.971 145.972 109.607 146.371C109.243 146.761 109.061 147.329 109.061 148.074V152H107.878V144.876H109.061V145.903C109.295 145.53 109.607 145.244 109.997 145.045C110.396 144.846 110.833 144.746 111.31 144.746C111.908 144.746 112.437 144.88 112.896 145.149C113.355 145.418 113.698 145.812 113.923 146.332C114.122 145.829 114.452 145.439 114.911 145.162C115.37 144.885 115.882 144.746 116.445 144.746ZM125.23 143.68V142.601H127.674V152H126.478V143.68H125.23ZM135.341 146.735V147.736H130.154V146.735H135.341ZM143.106 144.837C142.915 143.875 142.321 143.394 141.325 143.394C140.553 143.394 139.977 143.693 139.596 144.291C139.214 144.88 139.028 145.855 139.037 147.216C139.236 146.765 139.565 146.414 140.025 146.163C140.493 145.903 141.013 145.773 141.585 145.773C142.477 145.773 143.188 146.05 143.717 146.605C144.254 147.16 144.523 147.927 144.523 148.906C144.523 149.495 144.406 150.024 144.172 150.492C143.946 150.96 143.6 151.333 143.132 151.61C142.672 151.887 142.113 152.026 141.455 152.026C140.562 152.026 139.864 151.827 139.362 151.428C138.859 151.029 138.508 150.479 138.309 149.777C138.109 149.075 138.01 148.208 138.01 147.177C138.01 143.996 139.119 142.406 141.338 142.406C142.187 142.406 142.854 142.636 143.34 143.095C143.825 143.554 144.111 144.135 144.198 144.837H143.106ZM141.338 146.774C140.965 146.774 140.614 146.852 140.285 147.008C139.955 147.155 139.687 147.385 139.479 147.697C139.279 148 139.18 148.373 139.18 148.815C139.18 149.474 139.37 150.011 139.752 150.427C140.133 150.834 140.679 151.038 141.39 151.038C141.996 151.038 142.477 150.852 142.833 150.479C143.197 150.098 143.379 149.586 143.379 148.945C143.379 148.269 143.205 147.74 142.859 147.359C142.512 146.969 142.005 146.774 141.338 146.774ZM156.135 149.985H152.183L151.455 152H150.207L153.483 142.991H154.848L158.111 152H156.863L156.135 149.985ZM155.797 149.023L154.159 144.447L152.521 149.023H155.797ZM161.222 146.189C161.456 145.782 161.803 145.444 162.262 145.175C162.73 144.898 163.272 144.759 163.887 144.759C164.52 144.759 165.092 144.911 165.603 145.214C166.123 145.517 166.53 145.946 166.825 146.501C167.12 147.047 167.267 147.684 167.267 148.412C167.267 149.131 167.12 149.773 166.825 150.336C166.53 150.899 166.123 151.337 165.603 151.649C165.092 151.961 164.52 152.117 163.887 152.117C163.28 152.117 162.743 151.983 162.275 151.714C161.816 151.437 161.465 151.094 161.222 150.687V155.38H160.039V144.876H161.222V146.189ZM166.058 148.412C166.058 147.875 165.95 147.407 165.733 147.008C165.516 146.609 165.222 146.306 164.849 146.098C164.485 145.89 164.082 145.786 163.64 145.786C163.207 145.786 162.804 145.894 162.431 146.111C162.067 146.319 161.772 146.627 161.547 147.034C161.33 147.433 161.222 147.896 161.222 148.425C161.222 148.962 161.33 149.435 161.547 149.842C161.772 150.241 162.067 150.548 162.431 150.765C162.804 150.973 163.207 151.077 163.64 151.077C164.082 151.077 164.485 150.973 164.849 150.765C165.222 150.548 165.516 150.241 165.733 149.842C165.95 149.435 166.058 148.958 166.058 148.412ZM170.507 146.033C170.715 145.626 171.01 145.309 171.391 145.084C171.781 144.859 172.254 144.746 172.808 144.746V145.968H172.496C171.17 145.968 170.507 146.687 170.507 148.126V152H169.324V144.876H170.507V146.033ZM175.285 143.719C175.06 143.719 174.869 143.641 174.713 143.485C174.557 143.329 174.479 143.138 174.479 142.913C174.479 142.688 174.557 142.497 174.713 142.341C174.869 142.185 175.06 142.107 175.285 142.107C175.502 142.107 175.684 142.185 175.831 142.341C175.987 142.497 176.065 142.688 176.065 142.913C176.065 143.138 175.987 143.329 175.831 143.485C175.684 143.641 175.502 143.719 175.285 143.719ZM175.857 144.876V152H174.674V144.876H175.857ZM179.556 142.38V152H178.373V142.38H179.556ZM183.294 150.362L181.838 153.859H181.045L181.994 150.362H183.294ZM188.777 151.051C189.878 150.167 190.74 149.443 191.364 148.88C191.988 148.308 192.513 147.714 192.937 147.099C193.371 146.475 193.587 145.864 193.587 145.266C193.587 144.703 193.449 144.261 193.171 143.94C192.903 143.611 192.465 143.446 191.858 143.446C191.269 143.446 190.81 143.632 190.48 144.005C190.16 144.369 189.986 144.859 189.96 145.474H188.816C188.851 144.503 189.146 143.754 189.7 143.225C190.255 142.696 190.97 142.432 191.845 142.432C192.738 142.432 193.444 142.679 193.964 143.173C194.493 143.667 194.757 144.347 194.757 145.214C194.757 145.933 194.541 146.635 194.107 147.32C193.683 147.996 193.197 148.594 192.651 149.114C192.105 149.625 191.408 150.223 190.558 150.908H195.03V151.896H188.777V151.051ZM196.898 147.203C196.898 145.712 197.14 144.551 197.626 143.719C198.111 142.878 198.96 142.458 200.174 142.458C201.378 142.458 202.223 142.878 202.709 143.719C203.194 144.551 203.437 145.712 203.437 147.203C203.437 148.72 203.194 149.898 202.709 150.739C202.223 151.58 201.378 152 200.174 152C198.96 152 198.111 151.58 197.626 150.739C197.14 149.898 196.898 148.72 196.898 147.203ZM202.267 147.203C202.267 146.449 202.215 145.812 202.111 145.292C202.015 144.763 201.812 144.339 201.5 144.018C201.196 143.697 200.754 143.537 200.174 143.537C199.584 143.537 199.134 143.697 198.822 144.018C198.518 144.339 198.315 144.763 198.211 145.292C198.115 145.812 198.068 146.449 198.068 147.203C198.068 147.983 198.115 148.637 198.211 149.166C198.315 149.695 198.518 150.119 198.822 150.44C199.134 150.761 199.584 150.921 200.174 150.921C200.754 150.921 201.196 150.761 201.5 150.44C201.812 150.119 202.015 149.695 202.111 149.166C202.215 148.637 202.267 147.983 202.267 147.203ZM205.418 151.051C206.519 150.167 207.381 149.443 208.005 148.88C208.629 148.308 209.153 147.714 209.578 147.099C210.011 146.475 210.228 145.864 210.228 145.266C210.228 144.703 210.089 144.261 209.812 143.94C209.543 143.611 209.106 143.446 208.499 143.446C207.91 143.446 207.45 143.632 207.121 144.005C206.8 144.369 206.627 144.859 206.601 145.474H205.457C205.492 144.503 205.786 143.754 206.341 143.225C206.896 142.696 207.611 142.432 208.486 142.432C209.379 142.432 210.085 142.679 210.605 143.173C211.134 143.667 211.398 144.347 211.398 145.214C211.398 145.933 211.181 146.635 210.748 147.32C210.323 147.996 209.838 148.594 209.292 149.114C208.746 149.625 208.048 150.223 207.199 150.908H211.671V151.896H205.418V151.051ZM213.512 144.967C213.573 144.17 213.881 143.546 214.435 143.095C214.99 142.644 215.709 142.419 216.593 142.419C217.183 142.419 217.69 142.527 218.114 142.744C218.548 142.952 218.873 143.238 219.089 143.602C219.315 143.966 219.427 144.378 219.427 144.837C219.427 145.374 219.271 145.838 218.959 146.228C218.656 146.618 218.257 146.869 217.763 146.982V147.047C218.327 147.186 218.773 147.459 219.102 147.866C219.432 148.273 219.596 148.806 219.596 149.465C219.596 149.959 219.484 150.405 219.258 150.804C219.033 151.194 218.695 151.502 218.244 151.727C217.794 151.952 217.252 152.065 216.619 152.065C215.701 152.065 214.947 151.827 214.357 151.35C213.768 150.865 213.439 150.18 213.369 149.296H214.513C214.574 149.816 214.786 150.241 215.15 150.57C215.514 150.899 216 151.064 216.606 151.064C217.213 151.064 217.672 150.908 217.984 150.596C218.305 150.275 218.465 149.864 218.465 149.361C218.465 148.711 218.249 148.243 217.815 147.957C217.382 147.671 216.728 147.528 215.852 147.528H215.553V146.54H215.865C216.663 146.531 217.265 146.401 217.672 146.15C218.08 145.89 218.283 145.491 218.283 144.954C218.283 144.495 218.132 144.126 217.828 143.849C217.534 143.572 217.109 143.433 216.554 143.433C216.017 143.433 215.584 143.572 215.254 143.849C214.925 144.126 214.73 144.499 214.669 144.967H213.512Z" fill="#0F0F0F"/>
<circle cx="51.5" cy="349.5" r="4.5" fill="#CC9966"/>
<path opacity="0.7" d="M66.016 352.112H68.944V353H64.924V344.636H66.016V352.112ZM70.1957 349.688C70.1957 349.016 70.3317 348.428 70.6037 347.924C70.8757 347.412 71.2477 347.016 71.7197 346.736C72.1997 346.456 72.7317 346.316 73.3157 346.316C73.8917 346.316 74.3917 346.44 74.8157 346.688C75.2397 346.936 75.5557 347.248 75.7637 347.624V346.424H76.8677V353H75.7637V351.776C75.5477 352.16 75.2237 352.48 74.7917 352.736C74.3677 352.984 73.8717 353.108 73.3037 353.108C72.7197 353.108 72.1917 352.964 71.7197 352.676C71.2477 352.388 70.8757 351.984 70.6037 351.464C70.3317 350.944 70.1957 350.352 70.1957 349.688ZM75.7637 349.7C75.7637 349.204 75.6637 348.772 75.4637 348.404C75.2637 348.036 74.9917 347.756 74.6477 347.564C74.3117 347.364 73.9397 347.264 73.5317 347.264C73.1237 347.264 72.7517 347.36 72.4157 347.552C72.0797 347.744 71.8117 348.024 71.6117 348.392C71.4117 348.76 71.3117 349.192 71.3117 349.688C71.3117 350.192 71.4117 350.632 71.6117 351.008C71.8117 351.376 72.0797 351.66 72.4157 351.86C72.7517 352.052 73.1237 352.148 73.5317 352.148C73.9397 352.148 74.3117 352.052 74.6477 351.86C74.9917 351.66 75.2637 351.376 75.4637 351.008C75.6637 350.632 75.7637 350.196 75.7637 349.7ZM81.5411 353.108C81.0371 353.108 80.5851 353.024 80.1851 352.856C79.7851 352.68 79.4691 352.44 79.2371 352.136C79.0051 351.824 78.8771 351.468 78.8531 351.068H79.9811C80.0131 351.396 80.1651 351.664 80.4371 351.872C80.7171 352.08 81.0811 352.184 81.5291 352.184C81.9451 352.184 82.2731 352.092 82.5131 351.908C82.7531 351.724 82.8731 351.492 82.8731 351.212C82.8731 350.924 82.7451 350.712 82.4891 350.576C82.2331 350.432 81.8371 350.292 81.3011 350.156C80.8131 350.028 80.4131 349.9 80.1011 349.772C79.7971 349.636 79.5331 349.44 79.3091 349.184C79.0931 348.92 78.9851 348.576 78.9851 348.152C78.9851 347.816 79.0851 347.508 79.2851 347.228C79.4851 346.948 79.7691 346.728 80.1371 346.568C80.5051 346.4 80.9251 346.316 81.3971 346.316C82.1251 346.316 82.7131 346.5 83.1611 346.868C83.6091 347.236 83.8491 347.74 83.8811 348.38H82.7891C82.7651 348.036 82.6251 347.76 82.3691 347.552C82.1211 347.344 81.7851 347.24 81.3611 347.24C80.9691 347.24 80.6571 347.324 80.4251 347.492C80.1931 347.66 80.0771 347.88 80.0771 348.152C80.0771 348.368 80.1451 348.548 80.2811 348.692C80.4251 348.828 80.6011 348.94 80.8091 349.028C81.0251 349.108 81.3211 349.2 81.6971 349.304C82.1691 349.432 82.5531 349.56 82.8491 349.688C83.1451 349.808 83.3971 349.992 83.6051 350.24C83.8211 350.488 83.9331 350.812 83.9411 351.212C83.9411 351.572 83.8411 351.896 83.6411 352.184C83.4411 352.472 83.1571 352.7 82.7891 352.868C82.4291 353.028 82.0131 353.108 81.5411 353.108ZM87.3146 347.324V351.2C87.3146 351.52 87.3826 351.748 87.5186 351.884C87.6546 352.012 87.8906 352.076 88.2266 352.076H89.0306V353H88.0466C87.4386 353 86.9826 352.86 86.6786 352.58C86.3746 352.3 86.2226 351.84 86.2226 351.2V347.324H85.3706V346.424H86.2226V344.768H87.3146V346.424H89.0306V347.324H87.3146ZM99.2089 346.388C99.0329 345.5 98.4849 345.056 97.5649 345.056C96.8529 345.056 96.3209 345.332 95.9689 345.884C95.6169 346.428 95.4449 347.328 95.4529 348.584C95.6369 348.168 95.9409 347.844 96.3649 347.612C96.7969 347.372 97.2769 347.252 97.8049 347.252C98.6289 347.252 99.2849 347.508 99.7729 348.02C100.269 348.532 100.517 349.24 100.517 350.144C100.517 350.688 100.409 351.176 100.193 351.608C99.9849 352.04 99.6649 352.384 99.2329 352.64C98.8089 352.896 98.2929 353.024 97.6849 353.024C96.8609 353.024 96.2169 352.84 95.7529 352.472C95.2889 352.104 94.9649 351.596 94.7809 350.948C94.5969 350.3 94.5049 349.5 94.5049 348.548C94.5049 345.612 95.5289 344.144 97.5769 344.144C98.3609 344.144 98.9769 344.356 99.4249 344.78C99.8729 345.204 100.137 345.74 100.217 346.388H99.2089ZM97.5769 348.176C97.2329 348.176 96.9089 348.248 96.6049 348.392C96.3009 348.528 96.0529 348.74 95.8609 349.028C95.6769 349.308 95.5849 349.652 95.5849 350.06C95.5849 350.668 95.7609 351.164 96.1129 351.548C96.4649 351.924 96.9689 352.112 97.6249 352.112C98.1849 352.112 98.6289 351.94 98.9569 351.596C99.2929 351.244 99.4609 350.772 99.4609 350.18C99.4609 349.556 99.3009 349.068 98.9809 348.716C98.6609 348.356 98.1929 348.176 97.5769 348.176ZM105.961 349.688C105.961 349.016 106.097 348.428 106.369 347.924C106.641 347.412 107.013 347.016 107.485 346.736C107.965 346.456 108.501 346.316 109.093 346.316C109.605 346.316 110.081 346.436 110.521 346.676C110.961 346.908 111.297 347.216 111.529 347.6V344.12H112.633V353H111.529V351.764C111.313 352.156 110.993 352.48 110.569 352.736C110.145 352.984 109.649 353.108 109.081 353.108C108.497 353.108 107.965 352.964 107.485 352.676C107.013 352.388 106.641 351.984 106.369 351.464C106.097 350.944 105.961 350.352 105.961 349.688ZM111.529 349.7C111.529 349.204 111.429 348.772 111.229 348.404C111.029 348.036 110.757 347.756 110.413 347.564C110.077 347.364 109.705 347.264 109.297 347.264C108.889 347.264 108.517 347.36 108.181 347.552C107.845 347.744 107.577 348.024 107.377 348.392C107.177 348.76 107.077 349.192 107.077 349.688C107.077 350.192 107.177 350.632 107.377 351.008C107.577 351.376 107.845 351.66 108.181 351.86C108.517 352.052 108.889 352.148 109.297 352.148C109.705 352.148 110.077 352.052 110.413 351.86C110.757 351.66 111.029 351.376 111.229 351.008C111.429 350.632 111.529 350.196 111.529 349.7ZM114.571 349.688C114.571 349.016 114.707 348.428 114.979 347.924C115.251 347.412 115.623 347.016 116.095 346.736C116.575 346.456 117.107 346.316 117.691 346.316C118.267 346.316 118.767 346.44 119.191 346.688C119.615 346.936 119.931 347.248 120.139 347.624V346.424H121.243V353H120.139V351.776C119.923 352.16 119.599 352.48 119.167 352.736C118.743 352.984 118.247 353.108 117.679 353.108C117.095 353.108 116.567 352.964 116.095 352.676C115.623 352.388 115.251 351.984 114.979 351.464C114.707 350.944 114.571 350.352 114.571 349.688ZM120.139 349.7C120.139 349.204 120.039 348.772 119.839 348.404C119.639 348.036 119.367 347.756 119.023 347.564C118.687 347.364 118.315 347.264 117.907 347.264C117.499 347.264 117.127 347.36 116.791 347.552C116.455 347.744 116.187 348.024 115.987 348.392C115.787 348.76 115.687 349.192 115.687 349.688C115.687 350.192 115.787 350.632 115.987 351.008C116.187 351.376 116.455 351.66 116.791 351.86C117.127 352.052 117.499 352.148 117.907 352.148C118.315 352.148 118.687 352.052 119.023 351.86C119.367 351.66 119.639 351.376 119.839 351.008C120.039 350.632 120.139 350.196 120.139 349.7ZM129.252 346.424L125.292 356.096H124.164L125.46 352.928L122.808 346.424H124.02L126.084 351.752L128.124 346.424H129.252ZM133.178 353.108C132.674 353.108 132.222 353.024 131.822 352.856C131.422 352.68 131.106 352.44 130.874 352.136C130.642 351.824 130.514 351.468 130.49 351.068H131.618C131.65 351.396 131.802 351.664 132.074 351.872C132.354 352.08 132.718 352.184 133.166 352.184C133.582 352.184 133.91 352.092 134.15 351.908C134.39 351.724 134.51 351.492 134.51 351.212C134.51 350.924 134.382 350.712 134.126 350.576C133.87 350.432 133.474 350.292 132.938 350.156C132.45 350.028 132.05 349.9 131.738 349.772C131.434 349.636 131.17 349.44 130.946 349.184C130.73 348.92 130.622 348.576 130.622 348.152C130.622 347.816 130.722 347.508 130.922 347.228C131.122 346.948 131.406 346.728 131.774 346.568C132.142 346.4 132.562 346.316 133.034 346.316C133.762 346.316 134.35 346.5 134.798 346.868C135.246 347.236 135.486 347.74 135.518 348.38H134.426C134.402 348.036 134.262 347.76 134.006 347.552C133.758 347.344 133.422 347.24 132.998 347.24C132.606 347.24 132.294 347.324 132.062 347.492C131.83 347.66 131.714 347.88 131.714 348.152C131.714 348.368 131.782 348.548 131.918 348.692C132.062 348.828 132.238 348.94 132.446 349.028C132.662 349.108 132.958 349.2 133.334 349.304C133.806 349.432 134.19 349.56 134.486 349.688C134.782 349.808 135.034 349.992 135.242 350.24C135.458 350.488 135.57 350.812 135.578 351.212C135.578 351.572 135.478 351.896 135.278 352.184C135.078 352.472 134.794 352.7 134.426 352.868C134.066 353.028 133.65 353.108 133.178 353.108Z" fill="#111204"/>
<circle cx="165.5" cy="349.5" r="4.5" fill="#D8D9DB"/>
<path opacity="0.7" d="M180.016 352.112H182.944V353H178.924V344.636H180.016V352.112ZM184.196 349.688C184.196 349.016 184.332 348.428 184.604 347.924C184.876 347.412 185.248 347.016 185.72 346.736C186.2 346.456 186.732 346.316 187.316 346.316C187.892 346.316 188.392 346.44 188.816 346.688C189.24 346.936 189.556 347.248 189.764 347.624V346.424H190.868V353H189.764V351.776C189.548 352.16 189.224 352.48 188.792 352.736C188.368 352.984 187.872 353.108 187.304 353.108C186.72 353.108 186.192 352.964 185.72 352.676C185.248 352.388 184.876 351.984 184.604 351.464C184.332 350.944 184.196 350.352 184.196 349.688ZM189.764 349.7C189.764 349.204 189.664 348.772 189.464 348.404C189.264 348.036 188.992 347.756 188.648 347.564C188.312 347.364 187.94 347.264 187.532 347.264C187.124 347.264 186.752 347.36 186.416 347.552C186.08 347.744 185.812 348.024 185.612 348.392C185.412 348.76 185.312 349.192 185.312 349.688C185.312 350.192 185.412 350.632 185.612 351.008C185.812 351.376 186.08 351.66 186.416 351.86C186.752 352.052 187.124 352.148 187.532 352.148C187.94 352.148 188.312 352.052 188.648 351.86C188.992 351.66 189.264 351.376 189.464 351.008C189.664 350.632 189.764 350.196 189.764 349.7ZM195.541 353.108C195.037 353.108 194.585 353.024 194.185 352.856C193.785 352.68 193.469 352.44 193.237 352.136C193.005 351.824 192.877 351.468 192.853 351.068H193.981C194.013 351.396 194.165 351.664 194.437 351.872C194.717 352.08 195.081 352.184 195.529 352.184C195.945 352.184 196.273 352.092 196.513 351.908C196.753 351.724 196.873 351.492 196.873 351.212C196.873 350.924 196.745 350.712 196.489 350.576C196.233 350.432 195.837 350.292 195.301 350.156C194.813 350.028 194.413 349.9 194.101 349.772C193.797 349.636 193.533 349.44 193.309 349.184C193.093 348.92 192.985 348.576 192.985 348.152C192.985 347.816 193.085 347.508 193.285 347.228C193.485 346.948 193.769 346.728 194.137 346.568C194.505 346.4 194.925 346.316 195.397 346.316C196.125 346.316 196.713 346.5 197.161 346.868C197.609 347.236 197.849 347.74 197.881 348.38H196.789C196.765 348.036 196.625 347.76 196.369 347.552C196.121 347.344 195.785 347.24 195.361 347.24C194.969 347.24 194.657 347.324 194.425 347.492C194.193 347.66 194.077 347.88 194.077 348.152C194.077 348.368 194.145 348.548 194.281 348.692C194.425 348.828 194.601 348.94 194.809 349.028C195.025 349.108 195.321 349.2 195.697 349.304C196.169 349.432 196.553 349.56 196.849 349.688C197.145 349.808 197.397 349.992 197.605 350.24C197.821 350.488 197.933 350.812 197.941 351.212C197.941 351.572 197.841 351.896 197.641 352.184C197.441 352.472 197.157 352.7 196.789 352.868C196.429 353.028 196.013 353.108 195.541 353.108ZM201.315 347.324V351.2C201.315 351.52 201.383 351.748 201.519 351.884C201.655 352.012 201.891 352.076 202.227 352.076H203.031V353H202.047C201.439 353 200.983 352.86 200.679 352.58C200.375 352.3 200.223 351.84 200.223 351.2V347.324H199.371V346.424H200.223V344.768H201.315V346.424H203.031V347.324H201.315ZM219.065 344.636L216.641 353H215.417L213.473 346.268L211.457 353L210.245 353.012L207.905 344.636H209.069L210.893 351.728L212.909 344.636H214.133L216.053 351.704L217.889 344.636H219.065ZM226.76 349.46C226.76 349.668 226.748 349.888 226.724 350.12H221.468C221.508 350.768 221.728 351.276 222.128 351.644C222.536 352.004 223.028 352.184 223.604 352.184C224.076 352.184 224.468 352.076 224.78 351.86C225.1 351.636 225.324 351.34 225.452 350.972H226.628C226.452 351.604 226.1 352.12 225.572 352.52C225.044 352.912 224.388 353.108 223.604 353.108C222.98 353.108 222.42 352.968 221.924 352.688C221.436 352.408 221.052 352.012 220.772 351.5C220.492 350.98 220.352 350.38 220.352 349.7C220.352 349.02 220.488 348.424 220.76 347.912C221.032 347.4 221.412 347.008 221.9 346.736C222.396 346.456 222.964 346.316 223.604 346.316C224.228 346.316 224.78 346.452 225.26 346.724C225.74 346.996 226.108 347.372 226.364 347.852C226.628 348.324 226.76 348.86 226.76 349.46ZM225.632 349.232C225.632 348.816 225.54 348.46 225.356 348.164C225.172 347.86 224.92 347.632 224.6 347.48C224.288 347.32 223.94 347.24 223.556 347.24C223.004 347.24 222.532 347.416 222.14 347.768C221.756 348.12 221.536 348.608 221.48 349.232H225.632ZM234.701 349.46C234.701 349.668 234.689 349.888 234.665 350.12H229.409C229.449 350.768 229.669 351.276 230.069 351.644C230.477 352.004 230.969 352.184 231.545 352.184C232.017 352.184 232.409 352.076 232.721 351.86C233.041 351.636 233.265 351.34 233.393 350.972H234.569C234.393 351.604 234.041 352.12 233.513 352.52C232.985 352.912 232.329 353.108 231.545 353.108C230.921 353.108 230.361 352.968 229.865 352.688C229.377 352.408 228.993 352.012 228.713 351.5C228.433 350.98 228.293 350.38 228.293 349.7C228.293 349.02 228.429 348.424 228.701 347.912C228.973 347.4 229.353 347.008 229.841 346.736C230.337 346.456 230.905 346.316 231.545 346.316C232.169 346.316 232.721 346.452 233.201 346.724C233.681 346.996 234.049 347.372 234.305 347.852C234.569 348.324 234.701 348.86 234.701 349.46ZM233.573 349.232C233.573 348.816 233.481 348.46 233.297 348.164C233.113 347.86 232.861 347.632 232.541 347.48C232.229 347.32 231.881 347.24 231.497 347.24C230.945 347.24 230.473 347.416 230.081 347.768C229.697 348.12 229.477 348.608 229.421 349.232H233.573ZM240.315 353L237.735 350.096V353H236.643V344.12H237.735V349.34L240.267 346.424H241.791L238.695 349.7L241.803 353H240.315Z" fill="#111204"/>
<path d="M354.702 229.729L296.56 264.575L245.56 199.597L190.56 261.641L135.56 235.685L80.5597 249.729" stroke="white" stroke-width="3" stroke-linecap="round" stroke-linejoin="round"/>
<path d="M354.701 201.729L296.558 187.575L245.558 241.597L190.558 233.641L135.558 197.685L80.5582 281.729" stroke="#CC9966" stroke-width="3" stroke-linecap="round" stroke-linejoin="round"/>
<defs>
<filter id="filter0_d_1_545" x="299" y="33" width="111" height="35" filterUnits="userSpaceOnUse" color-interpolation-filters="sRGB">
<feFlood flood-opacity="0" result="BackgroundImageFix"/>
<feColorMatrix in="SourceAlpha" type="matrix" values="0 0 0 0 0 0 0 0 0 0 0 0 0 0 0 0 0 0 127 0" result="hardAlpha"/>
<feOffset dy="2"/>
<feGaussianBlur stdDeviation="0.5"/>
<feColorMatrix type="matrix" values="0 0 0 0 0.25098 0 0 0 0 0.282353 0 0 0 0 0.321569 0 0 0 0.05 0"/>
<feBlend mode="normal" in2="BackgroundImageFix" result="effect1_dropShadow_1_545"/>
<feBlend mode="normal" in="SourceGraphic" in2="effect1_dropShadow_1_545" result="shape"/>
</filter>
</defs>
</svg>
