<svg width="354" height="255" viewBox="0 0 354 255" fill="none" xmlns="http://www.w3.org/2000/svg">
<g filter="url(#filter0_d_1_507)">
<path d="M50 48.6111C50 43.8553 53.8553 40 58.6111 40H295.13C299.885 40 303.741 43.8553 303.741 48.6111V186.389C303.741 191.145 299.885 195 295.13 195H58.6111C53.8553 195 50 191.145 50 186.389V48.6111Z" fill="white"/>
<path d="M80.7848 55.0695V64.1112H79.0626V59.088L76.7663 64.1112H75.6181L73.3218 59.088V64.1112H71.5996V55.0695H73.1066L76.1922 61.7431L79.2779 55.0695H80.7848Z" fill="#111204"/>
<path d="M84.1508 64.1112H82.5003V57.5093H84.1508V64.1112ZM83.3614 56.6482C83.1126 56.6482 82.8926 56.5573 82.7012 56.3755C82.5194 56.1842 82.4285 55.9641 82.4285 55.7153C82.4285 55.4666 82.5194 55.2513 82.7012 55.0695C82.8926 54.8781 83.1126 54.7825 83.3614 54.7825C83.6102 54.7825 83.8254 54.8781 84.0072 55.0695C84.1986 55.2513 84.2943 55.4666 84.2943 55.7153C84.2943 55.9641 84.1986 56.1842 84.0072 56.3755C83.8254 56.5573 83.6102 56.6482 83.3614 56.6482Z" fill="#111204"/>
<path d="M89.0965 57.4376C89.4888 57.4376 89.8476 57.5045 90.1729 57.6385C90.4982 57.7629 90.7757 57.9494 91.0053 58.1982C91.2445 58.4374 91.4263 58.7292 91.5507 59.0737C91.6847 59.4181 91.7516 59.8056 91.7516 60.2362V64.1112H90.1012V60.4515C90.1012 60.0209 89.972 59.6765 89.7137 59.4181C89.4649 59.1502 89.1396 59.0163 88.7377 59.0163C88.3359 59.0163 88.0058 59.1502 87.7475 59.4181C87.4987 59.6765 87.3743 60.0209 87.3743 60.4515V64.1112H85.7239V57.5093H86.9438L87.2308 58.1552C87.3934 58.0212 87.5705 57.9016 87.7618 57.7964C87.9245 57.7102 88.1158 57.6289 88.3359 57.5524C88.5655 57.4758 88.8191 57.4376 89.0965 57.4376Z" fill="#111204"/>
<path d="M94.9146 64.1112H93.2642V57.5093H94.9146V64.1112ZM94.1253 56.6482C93.8765 56.6482 93.6565 56.5573 93.4651 56.3755C93.2833 56.1842 93.1924 55.9641 93.1924 55.7153C93.1924 55.4666 93.2833 55.2513 93.4651 55.0695C93.6565 54.8781 93.8765 54.7825 94.1253 54.7825C94.3741 54.7825 94.5893 54.8781 94.7711 55.0695C94.9625 55.2513 95.0582 55.4666 95.0582 55.7153C95.0582 55.9641 94.9625 56.1842 94.7711 56.3755C94.5893 56.5573 94.3741 56.6482 94.1253 56.6482Z" fill="#111204"/>
<path d="M99.8604 57.4376C100.253 57.4376 100.612 57.5045 100.937 57.6385C101.262 57.7629 101.54 57.9494 101.769 58.1982C102.008 58.4374 102.19 58.7292 102.315 59.0737C102.449 59.4181 102.516 59.8056 102.516 60.2362V64.1112H100.865V60.4515C100.865 60.0209 100.736 59.6765 100.478 59.4181C100.229 59.1502 99.9035 59.0163 99.5016 59.0163C99.0998 59.0163 98.7697 59.1502 98.5114 59.4181C98.2626 59.6765 98.1382 60.0209 98.1382 60.4515V64.1112H96.4877V57.5093H97.7076L97.9947 58.1552C98.1573 58.0212 98.3343 57.9016 98.5257 57.7964C98.6884 57.7102 98.8797 57.6289 99.0998 57.5524C99.3294 57.4758 99.583 57.4376 99.8604 57.4376Z" fill="#111204"/>
<path d="M106.683 57.4376C106.97 57.4376 107.229 57.4758 107.458 57.5524C107.688 57.6289 107.884 57.7102 108.047 57.7964C108.228 57.9016 108.396 58.0212 108.549 58.1552L108.836 57.5093H110.056V63.6806C110.056 64.5417 109.778 65.2354 109.223 65.7616C108.678 66.2879 107.903 66.551 106.898 66.551C106.286 66.551 105.789 66.441 105.406 66.2209C105.033 66.0008 104.736 65.7521 104.516 65.4746C104.267 65.1589 104.081 64.8001 103.956 64.3982H105.607C105.674 64.5226 105.765 64.6326 105.879 64.7283C105.985 64.8048 106.119 64.8766 106.281 64.9436C106.444 65.0106 106.65 65.044 106.898 65.044C107.367 65.044 107.736 64.9149 108.004 64.6565C108.271 64.4078 108.405 64.0825 108.405 63.6806V63.1783C108.271 63.3123 108.118 63.4319 107.946 63.5371C107.793 63.6328 107.611 63.7189 107.401 63.7954C107.19 63.8624 106.951 63.8959 106.683 63.8959C106.272 63.8959 105.879 63.8146 105.506 63.6519C105.143 63.4893 104.822 63.2644 104.545 62.9774C104.277 62.6903 104.062 62.3507 103.899 61.9584C103.746 61.5661 103.669 61.1356 103.669 60.6667C103.669 60.1979 103.746 59.7673 103.899 59.3751C104.062 58.9828 104.277 58.6431 104.545 58.3561C104.822 58.069 105.143 57.8442 105.506 57.6815C105.879 57.5189 106.272 57.4376 106.683 57.4376ZM105.32 60.6667C105.32 60.8964 105.358 61.1116 105.435 61.3126C105.521 61.5135 105.635 61.6905 105.779 61.8436C105.923 61.9871 106.09 62.1019 106.281 62.188C106.473 62.2741 106.678 62.3172 106.898 62.3172C107.109 62.3172 107.31 62.2741 107.501 62.188C107.693 62.1019 107.86 61.9871 108.004 61.8436C108.147 61.6905 108.262 61.5135 108.348 61.3126C108.434 61.1116 108.477 60.8964 108.477 60.6667C108.477 60.4371 108.434 60.2218 108.348 60.0209C108.262 59.82 108.147 59.6477 108.004 59.5042C107.86 59.3511 107.693 59.2315 107.501 59.1454C107.31 59.0593 107.109 59.0163 106.898 59.0163C106.678 59.0163 106.473 59.0593 106.281 59.1454C106.09 59.2315 105.923 59.3511 105.779 59.5042C105.635 59.6477 105.521 59.82 105.435 60.0209C105.358 60.2218 105.32 60.4371 105.32 60.6667Z" fill="#111204"/>
<path d="M118.378 55.0695C118.809 55.0695 119.211 55.1508 119.584 55.3135C119.957 55.4666 120.282 55.6819 120.56 55.9593C120.847 56.2272 121.067 56.5477 121.22 56.9209C121.383 57.2845 121.464 57.672 121.464 58.0834C121.464 58.4948 121.383 58.8871 121.22 59.2602C121.067 59.6238 120.847 59.9444 120.56 60.2218C120.282 60.4897 119.957 60.705 119.584 60.8677C119.211 61.0207 118.809 61.0973 118.378 61.0973H116.728V64.1112H115.006V55.0695H118.378ZM118.378 59.4468C118.56 59.4468 118.732 59.4086 118.895 59.332C119.058 59.2555 119.201 59.155 119.325 59.0306C119.45 58.9062 119.55 58.7627 119.627 58.6001C119.703 58.4374 119.742 58.2652 119.742 58.0834C119.742 57.9016 119.703 57.7294 119.627 57.5667C119.55 57.4041 119.45 57.2606 119.325 57.1362C119.201 57.0118 119.058 56.9113 118.895 56.8348C118.732 56.7582 118.56 56.72 118.378 56.72H116.728V59.4468H118.378Z" fill="#111204"/>
<path d="M125.768 57.4376C125.845 57.4376 125.912 57.4423 125.969 57.4519C126.027 57.4615 126.079 57.4711 126.127 57.4806C126.175 57.4902 126.223 57.4998 126.271 57.5093V59.2315C126.223 59.222 126.17 59.2124 126.113 59.2028C126.065 59.1933 126.003 59.1837 125.926 59.1741C125.859 59.1646 125.783 59.1598 125.697 59.1598C125.295 59.1598 124.965 59.2937 124.706 59.5616C124.458 59.82 124.333 60.1644 124.333 60.595V64.1112H122.683V57.5093H123.903L124.19 58.2269C124.304 58.0834 124.443 57.9542 124.606 57.8394C124.74 57.7342 124.902 57.6433 125.094 57.5667C125.295 57.4806 125.52 57.4376 125.768 57.4376Z" fill="#111204"/>
<path d="M128.571 60.8102C128.571 61.3556 128.729 61.791 129.045 62.1163C129.361 62.4416 129.753 62.6042 130.222 62.6042C130.691 62.6042 131.083 62.4416 131.399 62.1163C131.714 61.791 131.872 61.3556 131.872 60.8102C131.872 60.2649 131.714 59.8295 131.399 59.5042C131.083 59.1789 130.691 59.0163 130.222 59.0163C129.753 59.0163 129.361 59.1789 129.045 59.5042C128.729 59.8295 128.571 60.2649 128.571 60.8102ZM133.523 60.8102C133.523 61.2791 133.432 61.7192 133.25 62.1306C133.078 62.5325 132.839 62.8865 132.533 63.1927C132.236 63.4988 131.887 63.7428 131.485 63.9246C131.093 64.0968 130.672 64.1829 130.222 64.1829C129.772 64.1829 129.346 64.0968 128.945 63.9246C128.552 63.7428 128.203 63.4988 127.897 63.1927C127.6 62.8865 127.361 62.5325 127.179 62.1306C127.007 61.7192 126.921 61.2791 126.921 60.8102C126.921 60.3414 127.007 59.9061 127.179 59.5042C127.361 59.0928 127.6 58.734 127.897 58.4278C128.203 58.1217 128.552 57.8825 128.945 57.7102C129.346 57.5285 129.772 57.4376 130.222 57.4376C130.672 57.4376 131.093 57.5285 131.485 57.7102C131.887 57.8825 132.236 58.1217 132.533 58.4278C132.839 58.734 133.078 59.0928 133.25 59.5042C133.432 59.9061 133.523 60.3414 133.523 60.8102Z" fill="#111204"/>
<path d="M137.391 57.4376C137.678 57.4376 137.936 57.4758 138.166 57.5524C138.396 57.6289 138.592 57.7102 138.755 57.7964C138.936 57.9016 139.104 58.0212 139.257 58.1552L139.544 57.5093H140.764V63.6806C140.764 64.5417 140.486 65.2354 139.931 65.7616C139.386 66.2879 138.611 66.551 137.606 66.551C136.994 66.551 136.496 66.441 136.114 66.2209C135.741 66.0008 135.444 65.7521 135.224 65.4746C134.975 65.1589 134.789 64.8001 134.664 64.3982H136.315C136.382 64.5226 136.473 64.6326 136.587 64.7283C136.693 64.8048 136.827 64.8766 136.989 64.9436C137.152 65.0106 137.358 65.044 137.606 65.044C138.075 65.044 138.444 64.9149 138.711 64.6565C138.979 64.4078 139.113 64.0825 139.113 63.6806V63.1783C138.979 63.3123 138.826 63.4319 138.654 63.5371C138.501 63.6328 138.319 63.7189 138.109 63.7954C137.898 63.8624 137.659 63.8959 137.391 63.8959C136.98 63.8959 136.587 63.8146 136.214 63.6519C135.851 63.4893 135.53 63.2644 135.253 62.9774C134.985 62.6903 134.769 62.3507 134.607 61.9584C134.454 61.5661 134.377 61.1356 134.377 60.6667C134.377 60.1979 134.454 59.7673 134.607 59.3751C134.769 58.9828 134.985 58.6431 135.253 58.3561C135.53 58.069 135.851 57.8442 136.214 57.6815C136.587 57.5189 136.98 57.4376 137.391 57.4376ZM136.028 60.6667C136.028 60.8964 136.066 61.1116 136.142 61.3126C136.229 61.5135 136.343 61.6905 136.487 61.8436C136.63 61.9871 136.798 62.1019 136.989 62.188C137.181 62.2741 137.386 62.3172 137.606 62.3172C137.817 62.3172 138.018 62.2741 138.209 62.188C138.4 62.1019 138.568 61.9871 138.711 61.8436C138.855 61.6905 138.97 61.5135 139.056 61.3126C139.142 61.1116 139.185 60.8964 139.185 60.6667C139.185 60.4371 139.142 60.2218 139.056 60.0209C138.97 59.82 138.855 59.6477 138.711 59.5042C138.568 59.3511 138.4 59.2315 138.209 59.1454C138.018 59.0593 137.817 59.0163 137.606 59.0163C137.386 59.0163 137.181 59.0593 136.989 59.1454C136.798 59.2315 136.63 59.3511 136.487 59.5042C136.343 59.6477 136.229 59.82 136.142 60.0209C136.066 60.2218 136.028 60.4371 136.028 60.6667Z" fill="#111204"/>
<path d="M145.432 57.4376C145.509 57.4376 145.576 57.4423 145.633 57.4519C145.69 57.4615 145.743 57.4711 145.791 57.4806C145.839 57.4902 145.887 57.4998 145.934 57.5093V59.2315C145.887 59.222 145.834 59.2124 145.776 59.2028C145.729 59.1933 145.666 59.1837 145.59 59.1741C145.523 59.1646 145.446 59.1598 145.36 59.1598C144.958 59.1598 144.628 59.2937 144.37 59.5616C144.121 59.82 143.997 60.1644 143.997 60.595V64.1112H142.346V57.5093H143.566L143.853 58.2269C143.968 58.0834 144.107 57.9542 144.27 57.8394C144.403 57.7342 144.566 57.6433 144.757 57.5667C144.958 57.4806 145.183 57.4376 145.432 57.4376Z" fill="#111204"/>
<path d="M152.828 62.1019C152.742 62.3507 152.608 62.5994 152.426 62.8482C152.254 63.097 152.038 63.3218 151.78 63.5227C151.531 63.7141 151.244 63.872 150.919 63.9964C150.603 64.1207 150.259 64.1829 149.886 64.1829C149.436 64.1829 149.01 64.0968 148.608 63.9246C148.216 63.7428 147.867 63.4988 147.561 63.1927C147.264 62.8865 147.025 62.5325 146.843 62.1306C146.671 61.7192 146.585 61.2791 146.585 60.8102C146.585 60.3414 146.671 59.9061 146.843 59.5042C147.025 59.0928 147.264 58.734 147.561 58.4278C147.867 58.1217 148.216 57.8825 148.608 57.7102C149.01 57.5285 149.436 57.4376 149.886 57.4376C150.316 57.4376 150.723 57.5189 151.106 57.6815C151.488 57.8442 151.823 58.0738 152.11 58.3704C152.397 58.667 152.622 59.0258 152.785 59.4468C152.957 59.8582 153.043 60.3127 153.043 60.8102C153.043 60.8868 153.038 60.9633 153.029 61.0399C153.019 61.1069 153.01 61.1738 153 61.2408C152.99 61.3173 152.981 61.3891 152.971 61.4561H148.379C148.455 61.7814 148.618 62.0541 148.867 62.2741C149.115 62.4942 149.455 62.6042 149.886 62.6042C150.106 62.6042 150.287 62.5803 150.431 62.5325C150.584 62.4846 150.713 62.4272 150.818 62.3602C150.933 62.2837 151.029 62.1976 151.106 62.1019H152.828ZM149.886 59.0163C149.455 59.0163 149.101 59.1407 148.824 59.3894C148.556 59.6382 148.383 59.9444 148.307 60.3079H151.464C151.388 59.9444 151.211 59.6382 150.933 59.3894C150.665 59.1407 150.316 59.0163 149.886 59.0163Z" fill="#111204"/>
<path d="M155.479 62.0302C155.518 62.2502 155.623 62.4368 155.795 62.5899C155.967 62.743 156.197 62.8195 156.484 62.8195C156.771 62.8195 156.996 62.7477 157.159 62.6042C157.331 62.4511 157.417 62.2837 157.417 62.1019C157.417 61.9488 157.331 61.8292 157.159 61.7431C156.996 61.657 156.79 61.5805 156.541 61.5135C156.293 61.4369 156.02 61.3604 155.723 61.2839C155.436 61.2073 155.168 61.0973 154.92 60.9538C154.671 60.8007 154.46 60.6093 154.288 60.3797C154.126 60.1405 154.044 59.8295 154.044 59.4468C154.044 59.1789 154.097 58.9254 154.202 58.6862C154.317 58.4374 154.48 58.2221 154.69 58.0403C154.901 57.8586 155.149 57.715 155.436 57.6098C155.723 57.495 156.049 57.4376 156.412 57.4376C157.206 57.4376 157.814 57.6289 158.235 58.0116C158.666 58.3944 158.919 58.8727 158.996 59.4468H157.417C157.379 59.3033 157.273 59.1598 157.101 59.0163C156.939 58.8727 156.733 58.801 156.484 58.801C156.235 58.801 156.039 58.8632 155.896 58.9876C155.762 59.1119 155.695 59.265 155.695 59.4468C155.695 59.5999 155.776 59.7195 155.939 59.8056C156.111 59.8917 156.321 59.9731 156.57 60.0496C156.819 60.1166 157.087 60.1931 157.374 60.2792C157.671 60.3558 157.943 60.4706 158.192 60.6237C158.441 60.7768 158.646 60.9777 158.809 61.2265C158.981 61.4657 159.067 61.7814 159.067 62.1737C159.067 62.4416 159.01 62.6999 158.895 62.9487C158.78 63.1879 158.618 63.3984 158.407 63.5802C158.197 63.7619 157.938 63.9102 157.632 64.0251C157.336 64.1303 157.001 64.1829 156.628 64.1829C155.766 64.1829 155.111 63.9868 154.661 63.5945C154.221 63.2022 153.968 62.6808 153.901 62.0302H155.479Z" fill="#111204"/>
<path d="M161.506 62.0302C161.544 62.2502 161.65 62.4368 161.822 62.5899C161.994 62.743 162.224 62.8195 162.511 62.8195C162.798 62.8195 163.023 62.7477 163.185 62.6042C163.358 62.4511 163.444 62.2837 163.444 62.1019C163.444 61.9488 163.358 61.8292 163.185 61.7431C163.023 61.657 162.817 61.5805 162.568 61.5135C162.319 61.4369 162.047 61.3604 161.75 61.2839C161.463 61.2073 161.195 61.0973 160.946 60.9538C160.698 60.8007 160.487 60.6093 160.315 60.3797C160.152 60.1405 160.071 59.8295 160.071 59.4468C160.071 59.1789 160.124 58.9254 160.229 58.6862C160.344 58.4374 160.506 58.2221 160.717 58.0403C160.927 57.8586 161.176 57.715 161.463 57.6098C161.75 57.495 162.075 57.4376 162.439 57.4376C163.233 57.4376 163.841 57.6289 164.262 58.0116C164.692 58.3944 164.946 58.8727 165.022 59.4468H163.444C163.405 59.3033 163.3 59.1598 163.128 59.0163C162.965 58.8727 162.76 58.801 162.511 58.801C162.262 58.801 162.066 58.8632 161.922 58.9876C161.788 59.1119 161.721 59.265 161.721 59.4468C161.721 59.5999 161.803 59.7195 161.965 59.8056C162.138 59.8917 162.348 59.9731 162.597 60.0496C162.846 60.1166 163.114 60.1931 163.401 60.2792C163.697 60.3558 163.97 60.4706 164.219 60.6237C164.467 60.7768 164.673 60.9777 164.836 61.2265C165.008 61.4657 165.094 61.7814 165.094 62.1737C165.094 62.4416 165.037 62.6999 164.922 62.9487C164.807 63.1879 164.644 63.3984 164.434 63.5802C164.223 63.7619 163.965 63.9102 163.659 64.0251C163.362 64.1303 163.027 64.1829 162.654 64.1829C161.793 64.1829 161.138 63.9868 160.688 63.5945C160.248 63.2022 159.994 62.6808 159.927 62.0302H161.506Z" fill="#111204"/>
<path d="M240.859 62.0345V62.9629H236.777V56.4541H237.756V62.0345H240.859Z" fill="#D2A37C"/>
<path d="M243.291 58.2604C243.56 58.2604 243.805 58.3041 244.027 58.3916C244.253 58.4757 244.444 58.5917 244.603 58.7397C244.761 58.8877 244.883 59.0627 244.971 59.2645C245.058 59.4629 245.102 59.6799 245.102 59.9154V62.9629H244.431L244.224 62.4987C244.133 62.5962 244.026 62.682 243.901 62.756C243.79 62.8233 243.651 62.8838 243.482 62.9377C243.314 62.9881 243.112 63.0133 242.877 63.0133C242.359 63.0133 241.962 62.8855 241.686 62.6299C241.414 62.3709 241.278 62.0345 241.278 61.6208C241.278 61.3853 241.321 61.1734 241.409 60.985C241.5 60.7933 241.653 60.6318 241.868 60.5007C242.086 60.3661 242.381 60.2618 242.751 60.1878C243.124 60.1105 243.597 60.0718 244.169 60.0718V59.9154C244.169 59.6799 244.095 59.4915 243.947 59.3503C243.799 59.209 243.58 59.1383 243.291 59.1383C242.981 59.1383 242.756 59.1938 242.615 59.3049C242.473 59.4159 242.389 59.5504 242.362 59.7085H241.434C241.461 59.2948 241.634 58.95 241.954 58.6742C242.273 58.3983 242.719 58.2604 243.291 58.2604ZM242.932 62.1859C243.326 62.1859 243.63 62.085 243.846 61.8831C244.061 61.6813 244.169 61.4358 244.169 61.1465V60.8942C243.755 60.8942 243.42 60.9144 243.165 60.9548C242.912 60.9918 242.714 61.0439 242.569 61.1112C242.425 61.1751 242.327 61.2558 242.277 61.3534C242.229 61.4475 242.206 61.5535 242.206 61.6712C242.206 61.8024 242.268 61.9218 242.393 62.0295C242.517 62.1337 242.697 62.1859 242.932 62.1859Z" fill="#D2A37C"/>
<path d="M246.959 61.4644C246.986 61.6695 247.065 61.8327 247.196 61.9538C247.327 62.0749 247.524 62.1354 247.786 62.1354C248.076 62.1354 248.286 62.0816 248.417 61.974C248.548 61.863 248.614 61.7284 248.614 61.5703C248.614 61.4324 248.552 61.3281 248.427 61.2575C248.303 61.1835 248.148 61.1229 247.963 61.0758C247.781 61.0254 247.583 60.9749 247.368 60.9245C247.156 60.8707 246.959 60.7967 246.777 60.7025C246.596 60.6049 246.442 60.4754 246.318 60.314C246.194 60.1525 246.131 59.9339 246.131 59.658C246.131 59.4663 246.168 59.2863 246.242 59.1182C246.32 58.9466 246.427 58.7969 246.565 58.6691C246.703 58.5413 246.87 58.4421 247.065 58.3714C247.263 58.2974 247.487 58.2604 247.736 58.2604C248.281 58.2604 248.693 58.3916 248.972 58.654C249.255 58.9163 249.411 59.2678 249.441 59.7085H248.508C248.481 59.5504 248.404 59.4159 248.276 59.3049C248.148 59.1938 247.968 59.1383 247.736 59.1383C247.5 59.1383 247.32 59.1922 247.196 59.2998C247.072 59.4074 247.009 59.5269 247.009 59.658C247.009 59.796 247.072 59.9019 247.196 59.9759C247.32 60.0465 247.473 60.1054 247.655 60.1525C247.84 60.1996 248.039 60.2501 248.25 60.3039C248.462 60.3543 248.659 60.4283 248.841 60.5259C249.026 60.6201 249.181 60.7496 249.305 60.9144C249.429 61.0758 249.492 61.2945 249.492 61.5703C249.492 61.984 249.344 62.3288 249.048 62.6047C248.752 62.8771 248.331 63.0133 247.786 63.0133C247.214 63.0133 246.786 62.8788 246.5 62.6097C246.214 62.3406 246.057 61.9588 246.03 61.4644H246.959Z" fill="#D2A37C"/>
<path d="M251.818 61.4139C251.818 61.6191 251.887 61.7906 252.025 61.9285C252.162 62.0665 252.334 62.1354 252.539 62.1354C252.573 62.1354 252.608 62.1337 252.645 62.1304C252.686 62.127 252.723 62.122 252.756 62.1152C252.79 62.1085 252.822 62.0984 252.852 62.085V62.9124C252.812 62.9326 252.763 62.9494 252.706 62.9629C252.601 62.9965 252.479 63.0133 252.337 63.0133C252.132 63.0133 251.94 62.9763 251.762 62.9023C251.587 62.825 251.434 62.7173 251.303 62.5794C251.172 62.4415 251.069 62.275 250.995 62.0799C250.925 61.8848 250.889 61.6628 250.889 61.4139V59.1888H250.062V58.3109H250.425C250.603 58.3109 250.751 58.2537 250.869 58.1393C250.987 58.0216 251.046 57.8736 251.046 57.6953V57.0747H251.818V58.3109H252.852V59.1888H251.818V61.4139Z" fill="#D2A37C"/>
<path d="M260.032 56.4541V57.1252L257.343 62.9629H256.308L258.892 57.3825H255.95V56.4541H260.032Z" fill="#D2A37C"/>
<path d="M265.143 63.0133C264.834 63.0133 264.544 62.9562 264.275 62.8418C264.006 62.7241 263.769 62.5609 263.564 62.3524C263.362 62.1405 263.204 61.8899 263.09 61.6006C262.979 61.3113 262.923 60.9901 262.923 60.6369C262.923 60.2871 262.979 59.9675 263.09 59.6782C263.204 59.3889 263.362 59.14 263.564 58.9315C263.769 58.7196 264.006 58.5547 264.275 58.437C264.544 58.3193 264.834 58.2604 265.143 58.2604C265.365 58.2604 265.555 58.289 265.713 58.3462C265.871 58.4 266.006 58.4572 266.117 58.5177C266.241 58.5951 266.347 58.6826 266.435 58.7801V56.4541H267.363V62.9629H266.692L266.485 62.4987C266.394 62.5962 266.288 62.682 266.167 62.756C266.056 62.8233 265.917 62.8838 265.749 62.9377C265.58 62.9881 265.379 63.0133 265.143 63.0133ZM265.194 59.1383C265.015 59.1383 264.845 59.1753 264.684 59.2493C264.522 59.32 264.38 59.4226 264.255 59.5571C264.131 59.6917 264.031 59.8515 263.957 60.0365C263.887 60.2181 263.851 60.4182 263.851 60.6369C263.851 60.8589 263.887 61.0607 263.957 61.2424C264.031 61.424 264.131 61.5821 264.255 61.7166C264.38 61.8512 264.522 61.9555 264.684 62.0295C264.845 62.1001 265.015 62.1354 265.194 62.1354C265.372 62.1354 265.542 62.1001 265.703 62.0295C265.868 61.9555 266.011 61.8512 266.132 61.7166C266.256 61.5821 266.354 61.424 266.425 61.2424C266.499 61.0607 266.536 60.8589 266.536 60.6369C266.536 60.4149 266.499 60.2131 266.425 60.0314C266.354 59.8498 266.256 59.6917 266.132 59.5571C266.011 59.4226 265.868 59.32 265.703 59.2493C265.542 59.1753 265.372 59.1383 265.194 59.1383Z" fill="#D2A37C"/>
<path d="M270.466 58.2604C270.735 58.2604 270.981 58.3041 271.203 58.3916C271.428 58.4757 271.62 58.5917 271.778 58.7397C271.936 58.8877 272.059 59.0627 272.146 59.2645C272.234 59.4629 272.278 59.6799 272.278 59.9154V62.9629H271.606L271.4 62.4987C271.309 62.5962 271.201 62.682 271.077 62.756C270.966 62.8233 270.826 62.8838 270.658 62.9377C270.49 62.9881 270.288 63.0133 270.052 63.0133C269.534 63.0133 269.137 62.8855 268.862 62.6299C268.589 62.3709 268.453 62.0345 268.453 61.6208C268.453 61.3853 268.497 61.1734 268.584 60.985C268.675 60.7933 268.828 60.6318 269.043 60.5007C269.262 60.3661 269.556 60.2618 269.926 60.1878C270.3 60.1105 270.772 60.0718 271.344 60.0718V59.9154C271.344 59.6799 271.27 59.4915 271.122 59.3503C270.974 59.209 270.755 59.1383 270.466 59.1383C270.157 59.1383 269.931 59.1938 269.79 59.3049C269.649 59.4159 269.565 59.5504 269.538 59.7085H268.609C268.636 59.2948 268.81 58.95 269.129 58.6742C269.449 58.3983 269.894 58.2604 270.466 58.2604ZM270.108 62.1859C270.501 62.1859 270.806 62.085 271.021 61.8831C271.236 61.6813 271.344 61.4358 271.344 61.1465V60.8942C270.93 60.8942 270.596 60.9144 270.34 60.9548C270.088 60.9918 269.889 61.0439 269.745 61.1112C269.6 61.1751 269.502 61.2558 269.452 61.3534C269.405 61.4475 269.381 61.5535 269.381 61.6712C269.381 61.8024 269.444 61.9218 269.568 62.0295C269.692 62.1337 269.872 62.1859 270.108 62.1859Z" fill="#D2A37C"/>
<path d="M272.944 58.3109H273.927L275.219 61.6712L276.511 58.3109H277.495L275.527 63.2707C275.423 63.533 275.32 63.7517 275.219 63.9266C275.122 64.1049 275.014 64.2478 274.896 64.3555C274.782 64.4665 274.654 64.5455 274.513 64.5926C274.371 64.6431 274.212 64.6683 274.033 64.6683C273.993 64.6683 273.954 64.6666 273.917 64.6632C273.884 64.6599 273.85 64.6548 273.816 64.6481C273.783 64.6414 273.751 64.6313 273.721 64.6178V63.8408C273.983 63.8408 274.181 63.7853 274.316 63.6743C274.45 63.5667 274.545 63.4321 274.598 63.2707L274.755 62.8065L272.944 58.3109Z" fill="#D2A37C"/>
<path d="M278.887 61.4644C278.914 61.6695 278.993 61.8327 279.124 61.9538C279.256 62.0749 279.452 62.1354 279.715 62.1354C280.004 62.1354 280.214 62.0816 280.345 61.974C280.477 61.863 280.542 61.7284 280.542 61.5703C280.542 61.4324 280.48 61.3281 280.355 61.2575C280.231 61.1835 280.076 61.1229 279.891 61.0758C279.71 61.0254 279.511 60.9749 279.296 60.9245C279.084 60.8707 278.887 60.7967 278.706 60.7025C278.524 60.6049 278.371 60.4754 278.246 60.314C278.122 60.1525 278.06 59.9339 278.06 59.658C278.06 59.4663 278.097 59.2863 278.171 59.1182C278.248 58.9466 278.356 58.7969 278.494 58.6691C278.632 58.5413 278.798 58.4421 278.993 58.3714C279.192 58.2974 279.415 58.2604 279.664 58.2604C280.209 58.2604 280.621 58.3916 280.9 58.654C281.183 58.9163 281.339 59.2678 281.37 59.7085H280.436C280.409 59.5504 280.332 59.4159 280.204 59.3049C280.076 59.1938 279.896 59.1383 279.664 59.1383C279.429 59.1383 279.249 59.1922 279.124 59.2998C279 59.4074 278.938 59.5269 278.938 59.658C278.938 59.796 279 59.9019 279.124 59.9759C279.249 60.0465 279.402 60.1054 279.583 60.1525C279.769 60.1996 279.967 60.2501 280.179 60.3039C280.391 60.3543 280.588 60.4283 280.769 60.5259C280.954 60.6201 281.109 60.7496 281.233 60.9144C281.358 61.0758 281.42 61.2945 281.42 61.5703C281.42 61.984 281.272 62.3288 280.976 62.6047C280.68 62.8771 280.26 63.0133 279.715 63.0133C279.143 63.0133 278.714 62.8788 278.428 62.6097C278.142 62.3406 277.986 61.9588 277.959 61.4644H278.887Z" fill="#D2A37C"/>
<path d="M70.7969 119.539H74.888V120.313H73.2482V124.963H72.4325V120.313H70.7969V119.539Z" fill="#A7A6A6"/>
<path d="M76.305 124.963H75.5313V121.086H76.305V124.963ZM75.9181 120.485C75.7864 120.485 75.6743 120.44 75.5818 120.351C75.4893 120.258 75.443 120.145 75.443 120.01C75.443 119.878 75.4893 119.768 75.5818 119.678C75.6743 119.585 75.7864 119.539 75.9181 119.539C76.0499 119.539 76.162 119.585 76.2545 119.678C76.347 119.768 76.3933 119.878 76.3933 120.01C76.3933 120.142 76.347 120.254 76.2545 120.346C76.162 120.439 76.0499 120.485 75.9181 120.485Z" fill="#A7A6A6"/>
<path d="M80.6988 123.542C80.654 123.749 80.5825 123.943 80.4844 124.122C80.3863 124.299 80.2615 124.453 80.1102 124.585C79.9616 124.716 79.7906 124.82 79.5972 124.896C79.4066 124.969 79.1992 125.005 78.9749 125.005C78.717 125.005 78.476 124.957 78.2517 124.862C78.0275 124.764 77.8298 124.628 77.6589 124.454C77.4907 124.278 77.3589 124.069 77.2636 123.828C77.1711 123.587 77.1249 123.319 77.1249 123.025C77.1249 122.733 77.1711 122.467 77.2636 122.226C77.3589 121.985 77.4907 121.777 77.6589 121.604C77.8298 121.427 78.0275 121.29 78.2517 121.191C78.476 121.093 78.717 121.044 78.9749 121.044C79.1992 121.044 79.4066 121.082 79.5972 121.158C79.7906 121.231 79.9616 121.334 80.1102 121.469C80.2615 121.601 80.3849 121.756 80.4802 121.936C80.5783 122.112 80.6512 122.303 80.6988 122.508H79.8789C79.8144 122.289 79.7079 122.112 79.5594 121.978C79.4108 121.843 79.216 121.776 78.9749 121.776C78.8376 121.776 78.703 121.807 78.5713 121.868C78.4395 121.927 78.3246 122.013 78.2265 122.125C78.1284 122.237 78.0485 122.37 77.9868 122.524C77.928 122.676 77.8985 122.843 77.8985 123.025C77.8985 123.21 77.928 123.378 77.9868 123.529C78.0485 123.681 78.1284 123.812 78.2265 123.925C78.3246 124.037 78.4395 124.124 78.5713 124.185C78.703 124.244 78.8376 124.273 78.9749 124.273C79.216 124.273 79.4108 124.206 79.5594 124.072C79.7107 123.937 79.8172 123.761 79.8789 123.542H80.6988Z" fill="#A7A6A6"/>
<path d="M83.8018 124.963L82.2924 123.113V124.963H81.5187V119.539H82.2924V122.768L83.6294 121.086H84.5334L83.0282 122.894L84.7479 124.963H83.8018Z" fill="#A7A6A6"/>
<path d="M88.4522 123.845C88.3877 124.004 88.3064 124.154 88.2083 124.295C88.1102 124.435 87.9925 124.558 87.8551 124.665C87.7178 124.771 87.558 124.855 87.3758 124.917C87.1964 124.976 86.9946 125.005 86.7703 125.005C86.5124 125.005 86.2714 124.957 86.0471 124.862C85.8229 124.764 85.6267 124.628 85.4585 124.454C85.2903 124.278 85.1585 124.069 85.0632 123.828C84.9679 123.587 84.9203 123.319 84.9203 123.025C84.9203 122.733 84.9679 122.467 85.0632 122.226C85.1585 121.985 85.2875 121.777 85.4501 121.604C85.6126 121.427 85.8047 121.29 86.0261 121.191C86.2475 121.093 86.4816 121.044 86.7283 121.044C86.9749 121.044 87.209 121.093 87.4304 121.191C87.6519 121.29 87.8439 121.427 88.0065 121.604C88.1691 121.777 88.298 121.985 88.3933 122.226C88.4886 122.467 88.5363 122.733 88.5363 123.025C88.5363 123.07 88.5335 123.114 88.5279 123.159C88.5223 123.201 88.5166 123.238 88.511 123.269C88.5054 123.308 88.4998 123.341 88.4942 123.369H85.736C85.7472 123.49 85.7822 123.605 85.8411 123.714C85.9 123.824 85.9728 123.92 86.0597 124.004C86.1494 124.086 86.2559 124.152 86.3793 124.202C86.5026 124.25 86.633 124.273 86.7703 124.273C87.0058 124.273 87.1922 124.223 87.3295 124.122C87.4697 124.021 87.5706 123.929 87.6323 123.845H88.4522ZM86.7283 121.776C86.4704 121.776 86.2517 121.864 86.0723 122.041C85.8958 122.215 85.7836 122.443 85.736 122.726H87.8047C87.7598 122.446 87.6449 122.217 87.4599 122.041C87.2777 121.864 87.0338 121.776 86.7283 121.776Z" fill="#A7A6A6"/>
<path d="M90.4746 123.672C90.4746 123.843 90.5321 123.986 90.647 124.101C90.7619 124.216 90.9049 124.273 91.0759 124.273C91.1039 124.273 91.1333 124.272 91.1642 124.269C91.1978 124.266 91.2286 124.262 91.2567 124.257C91.2847 124.251 91.3113 124.243 91.3366 124.231V124.921C91.3029 124.938 91.2623 124.952 91.2146 124.963C91.1277 124.991 91.0254 125.005 90.9077 125.005C90.7367 125.005 90.5769 124.974 90.4284 124.913C90.2826 124.848 90.1551 124.758 90.0457 124.644C89.9364 124.529 89.8509 124.39 89.7893 124.227C89.7304 124.065 89.701 123.88 89.701 123.672V121.818H89.0114V121.086H89.3141C89.4627 121.086 89.586 121.039 89.6841 120.943C89.7822 120.845 89.8313 120.722 89.8313 120.573V120.056H90.4746V121.086H91.3366V121.818H90.4746V123.672Z" fill="#A7A6A6"/>
<path d="M92.7157 123.714C92.7381 123.885 92.804 124.021 92.9133 124.122C93.0226 124.223 93.1866 124.273 93.4052 124.273C93.6463 124.273 93.8215 124.229 93.9308 124.139C94.0401 124.046 94.0948 123.934 94.0948 123.803C94.0948 123.688 94.043 123.601 93.9392 123.542C93.8355 123.48 93.7066 123.43 93.5524 123.391C93.401 123.348 93.2357 123.306 93.0563 123.264C92.8797 123.22 92.7157 123.158 92.5643 123.079C92.413 122.998 92.2854 122.89 92.1817 122.756C92.078 122.621 92.0261 122.439 92.0261 122.209C92.0261 122.049 92.057 121.899 92.1186 121.759C92.1831 121.616 92.2728 121.491 92.3877 121.385C92.5026 121.278 92.6414 121.196 92.804 121.137C92.9694 121.075 93.1558 121.044 93.3632 121.044C93.8173 121.044 94.1607 121.154 94.3933 121.372C94.6288 121.591 94.7591 121.884 94.7844 122.251H94.0065C93.9841 122.119 93.9196 122.007 93.8131 121.915C93.7066 121.822 93.5566 121.776 93.3632 121.776C93.167 121.776 93.017 121.821 92.9133 121.91C92.8096 122 92.7577 122.1 92.7577 122.209C92.7577 122.324 92.8096 122.412 92.9133 122.474C93.017 122.533 93.1446 122.582 93.2959 122.621C93.4501 122.66 93.6155 122.702 93.7921 122.747C93.9687 122.789 94.1327 122.851 94.284 122.932C94.4382 123.011 94.5671 123.119 94.6708 123.256C94.7746 123.391 94.8264 123.573 94.8264 123.803C94.8264 124.147 94.7031 124.435 94.4564 124.665C94.2097 124.892 93.8593 125.005 93.4052 125.005C92.9287 125.005 92.5713 124.893 92.3331 124.669C92.0948 124.444 91.9645 124.126 91.942 123.714H92.7157Z" fill="#A7A6A6"/>
<path d="M76.8671 152.921C76.8671 152.532 76.7998 152.174 76.6653 151.845C76.5307 151.512 76.3551 151.226 76.1383 150.987C75.9215 150.744 75.6711 150.557 75.3871 150.426C75.103 150.292 74.8115 150.225 74.5125 150.225C74.2135 150.225 73.922 150.292 73.6379 150.426C73.3576 150.557 73.1072 150.744 72.8867 150.987C72.6699 151.226 72.4943 151.51 72.3597 151.839C72.2252 152.168 72.1579 152.529 72.1579 152.921C72.1579 153.31 72.2252 153.669 72.3597 153.997C72.4943 154.326 72.6699 154.612 72.8867 154.855C73.1072 155.094 73.3576 155.281 73.6379 155.416C73.922 155.55 74.2135 155.618 74.5125 155.618C74.8115 155.618 75.103 155.55 75.3871 155.416C75.6711 155.281 75.9215 155.094 76.1383 154.855C76.3551 154.612 76.5307 154.326 76.6653 153.997C76.7998 153.669 76.8671 153.31 76.8671 152.921ZM77.9547 152.921C77.9547 153.441 77.8613 153.923 77.6744 154.367C77.4875 154.812 77.2371 155.201 76.9232 155.534C76.6092 155.866 76.243 156.126 75.8244 156.313C75.4095 156.5 74.9722 156.593 74.5125 156.593C74.0528 156.593 73.6137 156.5 73.1951 156.313C72.7802 156.126 72.4158 155.866 72.1019 155.534C71.7879 155.201 71.5375 154.812 71.3506 154.367C71.1637 153.923 71.0703 153.441 71.0703 152.921C71.0703 152.409 71.1637 151.929 71.3506 151.48C71.5375 151.032 71.7879 150.641 72.1019 150.309C72.4158 149.976 72.7802 149.716 73.1951 149.529C73.6137 149.342 74.0528 149.249 74.5125 149.249C74.9722 149.249 75.4095 149.342 75.8244 149.529C76.243 149.716 76.6092 149.976 76.9232 150.309C77.2371 150.641 77.4875 151.032 77.6744 151.48C77.8613 151.929 77.9547 152.409 77.9547 152.921Z" fill="#2D2C2C"/>
<path d="M81.5146 151.312C81.8585 151.312 82.1799 151.378 82.4789 151.508C82.7779 151.639 83.0395 151.822 83.2638 152.058C83.4918 152.289 83.6693 152.566 83.7964 152.887C83.9234 153.209 83.987 153.564 83.987 153.953C83.987 154.341 83.9234 154.698 83.7964 155.023C83.6693 155.345 83.4918 155.623 83.2638 155.859C83.0395 156.09 82.7779 156.272 82.4789 156.403C82.1799 156.53 81.8585 156.593 81.5146 156.593C81.268 156.593 81.0568 156.565 80.8811 156.509C80.7055 156.453 80.5579 156.386 80.4383 156.307C80.3 156.221 80.1804 156.126 80.0795 156.021V158.376H79.0479V151.368H79.7935L80.0234 151.89C80.1243 151.781 80.242 151.684 80.3766 151.598C80.4999 151.531 80.655 151.467 80.8419 151.407C81.0288 151.344 81.253 151.312 81.5146 151.312ZM81.4586 155.618C81.6567 155.618 81.8454 155.578 82.0248 155.5C82.2042 155.418 82.3631 155.302 82.5013 155.152C82.6396 155.003 82.748 154.827 82.8265 154.625C82.9087 154.424 82.9498 154.199 82.9498 153.953C82.9498 153.706 82.9087 153.482 82.8265 153.28C82.748 153.078 82.6396 152.902 82.5013 152.753C82.3631 152.603 82.2042 152.489 82.0248 152.411C81.8454 152.329 81.6567 152.288 81.4586 152.288C81.2605 152.288 81.0699 152.329 80.8868 152.411C80.7074 152.489 80.5485 152.603 80.4102 152.753C80.2757 152.902 80.1673 153.08 80.0851 153.285C80.0066 153.487 79.9673 153.71 79.9673 153.953C79.9673 154.199 80.0066 154.424 80.0851 154.625C80.1673 154.827 80.2757 155.003 80.4102 155.152C80.5485 155.302 80.7074 155.418 80.8868 155.5C81.0699 155.578 81.2605 155.618 81.4586 155.618Z" fill="#2D2C2C"/>
<path d="M89.5595 155.046C89.4736 155.259 89.3652 155.459 89.2344 155.646C89.1036 155.833 88.9466 155.997 88.7635 156.139C88.5803 156.281 88.3673 156.393 88.1243 156.475C87.8852 156.554 87.6161 156.593 87.3171 156.593C86.9732 156.593 86.6518 156.53 86.3528 156.403C86.0538 156.272 85.7922 156.09 85.5679 155.859C85.3437 155.623 85.168 155.345 85.0409 155.023C84.9139 154.702 84.8503 154.345 84.8503 153.953C84.8503 153.564 84.9139 153.209 85.0409 152.887C85.168 152.566 85.3399 152.289 85.5567 152.058C85.7735 151.822 86.0295 151.639 86.3248 151.508C86.62 151.378 86.9321 151.312 87.261 151.312C87.5899 151.312 87.902 151.378 88.1972 151.508C88.4925 151.639 88.7485 151.822 88.9653 152.058C89.1821 152.289 89.354 152.566 89.481 152.887C89.6081 153.209 89.6717 153.564 89.6717 153.953C89.6717 154.012 89.6679 154.072 89.6604 154.132C89.653 154.188 89.6455 154.237 89.638 154.278C89.6305 154.33 89.6231 154.375 89.6156 154.412H85.9379C85.9529 154.573 85.9996 154.726 86.0781 154.872C86.1566 155.018 86.2537 155.147 86.3696 155.259C86.4892 155.367 86.6312 155.455 86.7957 155.522C86.9601 155.586 87.1339 155.618 87.3171 155.618C87.631 155.618 87.8795 155.55 88.0627 155.416C88.2496 155.281 88.3841 155.158 88.4663 155.046H89.5595ZM87.261 152.288C86.9171 152.288 86.6256 152.405 86.3864 152.641C86.151 152.872 86.0015 153.177 85.9379 153.555H88.6962C88.6364 153.181 88.4831 152.876 88.2365 152.641C87.9935 152.405 87.6684 152.288 87.261 152.288Z" fill="#2D2C2C"/>
<path d="M93.2316 151.312C93.5156 151.312 93.7829 151.368 94.0333 151.48C94.2874 151.592 94.5079 151.746 94.6948 151.94C94.8817 152.134 95.0293 152.37 95.1377 152.646C95.2461 152.919 95.3003 153.222 95.3003 153.555V156.537H94.2687V153.555C94.2687 153.386 94.2351 153.226 94.1678 153.072C94.1043 152.919 94.0165 152.785 93.9043 152.669C93.7922 152.553 93.6633 152.461 93.5175 152.394C93.3717 152.323 93.2185 152.288 93.0578 152.288C92.8821 152.288 92.7177 152.323 92.5645 152.394C92.4112 152.461 92.2767 152.553 92.1608 152.669C92.0487 152.785 91.959 152.919 91.8917 153.072C91.8282 153.222 91.7964 153.383 91.7964 153.555V156.537H90.7649V151.368H91.5105L91.7403 151.89C91.8413 151.781 91.959 151.684 92.0935 151.598C92.2169 151.531 92.372 151.467 92.5588 151.407C92.7457 151.344 92.97 151.312 93.2316 151.312Z" fill="#2D2C2C"/>
<path d="M97.5371 152.002C97.5371 152.177 97.4755 152.327 97.3521 152.45C97.2288 152.573 97.0793 152.635 96.9036 152.635C96.728 152.635 96.5785 152.573 96.4552 152.45C96.3318 152.327 96.2701 152.177 96.2701 152.002C96.2701 151.826 96.3318 151.677 96.4552 151.553C96.5785 151.43 96.728 151.368 96.9036 151.368C97.0793 151.368 97.2288 151.43 97.3521 151.553C97.4755 151.677 97.5371 151.826 97.5371 152.002ZM97.5371 155.965C97.5371 156.141 97.4755 156.29 97.3521 156.414C97.2288 156.533 97.0793 156.593 96.9036 156.593C96.728 156.593 96.5785 156.533 96.4552 156.414C96.3318 156.29 96.2701 156.141 96.2701 155.965C96.2701 155.79 96.3318 155.64 96.4552 155.517C96.5785 155.393 96.728 155.332 96.9036 155.332C97.0793 155.332 97.2288 155.393 97.3521 155.517C97.4755 155.64 97.5371 155.79 97.5371 155.965Z" fill="#2D2C2C"/>
<path d="M103.216 149.305V156.537H102.123V150.796L101.148 151.43L100.632 150.566L102.471 149.305H103.216Z" fill="#2D2C2C"/>
<path d="M106.894 149.305V156.537H105.801V150.796L104.825 151.43L104.309 150.566L106.148 149.305H106.894Z" fill="#2D2C2C"/>
<path d="M112.864 155.506V156.537H108.217V155.735L111.087 152.635C111.218 152.497 111.332 152.355 111.429 152.209C111.515 152.078 111.594 151.936 111.665 151.783C111.739 151.63 111.777 151.473 111.777 151.312C111.777 150.991 111.667 150.729 111.446 150.527C111.229 150.325 110.919 150.225 110.515 150.225C110.142 150.225 109.837 150.342 109.602 150.578C109.366 150.809 109.248 151.112 109.248 151.486H108.161C108.161 151.157 108.215 150.854 108.323 150.578C108.436 150.301 108.593 150.066 108.794 149.871C109 149.677 109.247 149.526 109.534 149.417C109.826 149.305 110.153 149.249 110.515 149.249C110.874 149.249 111.198 149.303 111.485 149.412C111.777 149.516 112.024 149.664 112.225 149.854C112.431 150.045 112.588 150.271 112.696 150.533C112.808 150.794 112.864 151.073 112.864 151.368C112.864 151.596 112.81 151.826 112.702 152.058C112.597 152.289 112.48 152.493 112.349 152.669C112.195 152.874 112.024 153.072 111.833 153.263L109.775 155.506H112.864Z" fill="#2D2C2C"/>
<path d="M73.8788 170.889H72.6174V173.759H71.5298V166.527H74.4002C74.6992 166.527 74.9813 166.585 75.2467 166.701C75.5158 166.813 75.7475 166.968 75.9419 167.166C76.1362 167.361 76.2913 167.593 76.4072 167.862C76.523 168.127 76.581 168.409 76.581 168.708C76.581 169.13 76.4969 169.474 76.3287 169.74C76.1605 170.001 75.9755 170.209 75.7737 170.362C75.5382 170.545 75.271 170.683 74.972 170.777L76.7492 173.759H75.5438L73.8788 170.889ZM72.6174 169.857H74.4002C74.5459 169.857 74.6823 169.828 74.8094 169.768C74.9402 169.704 75.0542 169.622 75.1514 169.521C75.2523 169.416 75.3327 169.295 75.3925 169.157C75.456 169.018 75.4878 168.869 75.4878 168.708C75.4878 168.547 75.456 168.398 75.3925 168.26C75.3327 168.121 75.2523 168.002 75.1514 167.901C75.0542 167.796 74.9402 167.714 74.8094 167.654C74.6823 167.591 74.5459 167.559 74.4002 167.559H72.6174V169.857Z" fill="#2D2C2C"/>
<path d="M82.26 172.268C82.1741 172.481 82.0657 172.681 81.9349 172.868C81.8041 173.055 81.6471 173.219 81.464 173.361C81.2808 173.503 81.0678 173.615 80.8249 173.698C80.5857 173.776 80.3166 173.815 80.0176 173.815C79.6737 173.815 79.3523 173.752 79.0533 173.625C78.7543 173.494 78.4927 173.313 78.2684 173.081C78.0442 172.846 77.8685 172.567 77.7414 172.246C77.6144 171.924 77.5508 171.567 77.5508 171.175C77.5508 170.786 77.6144 170.431 77.7414 170.11C77.8685 169.788 78.0404 169.512 78.2572 169.28C78.474 169.045 78.73 168.861 79.0253 168.731C79.3205 168.6 79.6326 168.534 79.9615 168.534C80.2904 168.534 80.6025 168.6 80.8977 168.731C81.193 168.861 81.449 169.045 81.6658 169.28C81.8826 169.512 82.0545 169.788 82.1816 170.11C82.3086 170.431 82.3722 170.786 82.3722 171.175C82.3722 171.235 82.3684 171.294 82.3609 171.354C82.3535 171.41 82.346 171.459 82.3385 171.5C82.331 171.552 82.3236 171.597 82.3161 171.635H78.6384C78.6534 171.795 78.7001 171.949 78.7786 172.094C78.8571 172.24 78.9543 172.369 79.0701 172.481C79.1897 172.59 79.3317 172.677 79.4962 172.745C79.6606 172.808 79.8344 172.84 80.0176 172.84C80.3315 172.84 80.58 172.773 80.7632 172.638C80.9501 172.504 81.0846 172.38 81.1668 172.268H82.26ZM79.9615 169.51C79.6177 169.51 79.3261 169.628 79.0869 169.863C78.8515 170.095 78.702 170.399 78.6384 170.777H81.3967C81.3369 170.403 81.1836 170.098 80.937 169.863C80.694 169.628 80.3689 169.51 79.9615 169.51Z" fill="#2D2C2C"/>
<path d="M84.211 172.094C84.2409 172.322 84.3287 172.504 84.4745 172.638C84.6202 172.773 84.8389 172.84 85.1304 172.84C85.4518 172.84 85.6854 172.78 85.8312 172.661C85.9769 172.537 86.0498 172.388 86.0498 172.212C86.0498 172.059 85.9807 171.943 85.8424 171.864C85.7041 171.782 85.5322 171.715 85.3266 171.663C85.1248 171.607 84.9043 171.55 84.6651 171.494C84.4296 171.435 84.211 171.352 84.0092 171.248C83.8073 171.139 83.6373 170.995 83.499 170.816C83.3607 170.637 83.2916 170.394 83.2916 170.087C83.2916 169.874 83.3327 169.674 83.4149 169.487C83.5009 169.297 83.6205 169.13 83.7737 168.988C83.9269 168.846 84.1119 168.736 84.3287 168.658C84.5492 168.575 84.7978 168.534 85.0743 168.534C85.6798 168.534 86.1377 168.68 86.4479 168.972C86.7618 169.263 86.9356 169.654 86.9692 170.143H85.9321C85.9022 169.968 85.8162 169.818 85.6742 169.695C85.5322 169.572 85.3322 169.51 85.0743 169.51C84.8127 169.51 84.6128 169.57 84.4745 169.689C84.3362 169.809 84.2671 169.942 84.2671 170.087C84.2671 170.241 84.3362 170.358 84.4745 170.44C84.6128 170.519 84.7828 170.584 84.9846 170.637C85.1902 170.689 85.4107 170.745 85.6462 170.805C85.8816 170.861 86.1003 170.943 86.3021 171.052C86.5077 171.156 86.6796 171.3 86.8179 171.483C86.9562 171.663 87.0253 171.906 87.0253 172.212C87.0253 172.672 86.8609 173.055 86.532 173.361C86.2031 173.664 85.7359 173.815 85.1304 173.815C84.495 173.815 84.0185 173.666 83.7008 173.367C83.3831 173.068 83.2094 172.644 83.1795 172.094H84.211Z" fill="#2D2C2C"/>
<path d="M90.5852 168.534C90.9291 168.534 91.2505 168.6 91.5495 168.731C91.8485 168.861 92.1101 169.045 92.3344 169.28C92.5623 169.512 92.7399 169.788 92.867 170.11C92.994 170.431 93.0576 170.786 93.0576 171.175C93.0576 171.564 92.994 171.921 92.867 172.246C92.7399 172.567 92.5623 172.846 92.3344 173.081C92.1101 173.313 91.8485 173.494 91.5495 173.625C91.2505 173.752 90.9291 173.815 90.5852 173.815C90.3386 173.815 90.1274 173.787 89.9517 173.731C89.7761 173.675 89.6284 173.608 89.5088 173.529C89.3706 173.444 89.251 173.348 89.15 173.244V175.598H88.1185V168.59H88.8641L89.094 169.112C89.1949 169.003 89.3126 168.906 89.4472 168.82C89.5705 168.753 89.7256 168.689 89.9125 168.63C90.0994 168.566 90.3236 168.534 90.5852 168.534ZM90.5292 172.84C90.7273 172.84 90.916 172.801 91.0954 172.722C91.2748 172.64 91.4336 172.524 91.5719 172.375C91.7102 172.225 91.8186 172.049 91.8971 171.848C91.9793 171.646 92.0204 171.422 92.0204 171.175C92.0204 170.928 91.9793 170.704 91.8971 170.502C91.8186 170.3 91.7102 170.125 91.5719 169.975C91.4336 169.826 91.2748 169.712 91.0954 169.633C90.916 169.551 90.7273 169.51 90.5292 169.51C90.3311 169.51 90.1405 169.551 89.9573 169.633C89.7779 169.712 89.6191 169.826 89.4808 169.975C89.3463 170.125 89.2379 170.302 89.1557 170.508C89.0772 170.71 89.0379 170.932 89.0379 171.175C89.0379 171.422 89.0772 171.646 89.1557 171.848C89.2379 172.049 89.3463 172.225 89.4808 172.375C89.6191 172.524 89.7779 172.64 89.9573 172.722C90.1405 172.801 90.3311 172.84 90.5292 172.84Z" fill="#2D2C2C"/>
<path d="M97.7668 171.175C97.7668 170.928 97.7257 170.704 97.6434 170.502C97.5649 170.3 97.4603 170.125 97.3295 169.975C97.1987 169.826 97.0454 169.712 96.8698 169.633C96.6941 169.551 96.5147 169.51 96.3316 169.51C96.1484 169.51 95.969 169.551 95.7934 169.633C95.6177 169.712 95.4645 169.826 95.3337 169.975C95.2029 170.125 95.0963 170.302 95.0141 170.508C94.9356 170.71 94.8964 170.932 94.8964 171.175C94.8964 171.422 94.9356 171.646 95.0141 171.848C95.0963 172.049 95.2029 172.225 95.3337 172.375C95.4645 172.524 95.6177 172.64 95.7934 172.722C95.969 172.801 96.1484 172.84 96.3316 172.84C96.5147 172.84 96.6941 172.801 96.8698 172.722C97.0454 172.64 97.1987 172.524 97.3295 172.375C97.4603 172.225 97.5649 172.049 97.6434 171.848C97.7257 171.646 97.7668 171.422 97.7668 171.175ZM98.7983 171.175C98.7983 171.564 98.7348 171.921 98.6077 172.246C98.4844 172.567 98.3087 172.846 98.0807 173.081C97.8565 173.313 97.5948 173.494 97.2958 173.625C96.9968 173.752 96.6754 173.815 96.3316 173.815C95.9877 173.815 95.6663 173.752 95.3673 173.625C95.0683 173.494 94.8048 173.313 94.5768 173.081C94.3526 172.846 94.1769 172.567 94.0499 172.246C93.9265 171.924 93.8649 171.567 93.8649 171.175C93.8649 170.786 93.9265 170.431 94.0499 170.11C94.1769 169.788 94.3526 169.512 94.5768 169.28C94.8048 169.045 95.0683 168.861 95.3673 168.731C95.6663 168.6 95.9877 168.534 96.3316 168.534C96.6754 168.534 96.9968 168.6 97.2958 168.731C97.5948 168.861 97.8565 169.045 98.0807 169.28C98.3087 169.512 98.4844 169.788 98.6077 170.11C98.7348 170.431 98.7983 170.786 98.7983 171.175Z" fill="#2D2C2C"/>
<path d="M102.358 168.534C102.642 168.534 102.91 168.59 103.16 168.703C103.414 168.815 103.635 168.968 103.821 169.162C104.008 169.357 104.156 169.592 104.264 169.869C104.373 170.141 104.427 170.444 104.427 170.777V173.759H103.395V170.777C103.395 170.609 103.362 170.448 103.294 170.295C103.231 170.141 103.143 170.007 103.031 169.891C102.919 169.775 102.79 169.684 102.644 169.616C102.498 169.545 102.345 169.51 102.184 169.51C102.009 169.51 101.844 169.545 101.691 169.616C101.538 169.684 101.403 169.775 101.287 169.891C101.175 170.007 101.086 170.141 101.018 170.295C100.955 170.444 100.923 170.605 100.923 170.777V173.759H99.8915V168.59H100.637L100.867 169.112C100.968 169.003 101.086 168.906 101.22 168.82C101.344 168.753 101.499 168.689 101.685 168.63C101.872 168.566 102.097 168.534 102.358 168.534Z" fill="#2D2C2C"/>
<path d="M106.49 172.094C106.52 172.322 106.608 172.504 106.753 172.638C106.899 172.773 107.118 172.84 107.409 172.84C107.731 172.84 107.964 172.78 108.11 172.661C108.256 172.537 108.329 172.388 108.329 172.212C108.329 172.059 108.26 171.943 108.121 171.864C107.983 171.782 107.811 171.715 107.606 171.663C107.404 171.607 107.183 171.55 106.944 171.494C106.709 171.435 106.49 171.352 106.288 171.248C106.086 171.139 105.916 170.995 105.778 170.816C105.64 170.637 105.571 170.394 105.571 170.087C105.571 169.874 105.612 169.674 105.694 169.487C105.78 169.297 105.899 169.13 106.053 168.988C106.206 168.846 106.391 168.736 106.608 168.658C106.828 168.575 107.077 168.534 107.353 168.534C107.959 168.534 108.417 168.68 108.727 168.972C109.041 169.263 109.215 169.654 109.248 170.143H108.211C108.181 169.968 108.095 169.818 107.953 169.695C107.811 169.572 107.611 169.51 107.353 169.51C107.092 169.51 106.892 169.57 106.753 169.689C106.615 169.809 106.546 169.942 106.546 170.087C106.546 170.241 106.615 170.358 106.753 170.44C106.892 170.519 107.062 170.584 107.264 170.637C107.469 170.689 107.69 170.745 107.925 170.805C108.161 170.861 108.379 170.943 108.581 171.052C108.787 171.156 108.959 171.3 109.097 171.483C109.235 171.663 109.304 171.906 109.304 172.212C109.304 172.672 109.14 173.055 108.811 173.361C108.482 173.664 108.015 173.815 107.409 173.815C106.774 173.815 106.298 173.666 105.98 173.367C105.662 173.068 105.488 172.644 105.458 172.094H106.49Z" fill="#2D2C2C"/>
<path d="M114.877 172.268C114.791 172.481 114.683 172.681 114.552 172.868C114.421 173.055 114.264 173.219 114.081 173.361C113.898 173.503 113.685 173.615 113.442 173.698C113.202 173.776 112.933 173.815 112.634 173.815C112.291 173.815 111.969 173.752 111.67 173.625C111.371 173.494 111.11 173.313 110.885 173.081C110.661 172.846 110.485 172.567 110.358 172.246C110.231 171.924 110.168 171.567 110.168 171.175C110.168 170.786 110.231 170.431 110.358 170.11C110.485 169.788 110.657 169.512 110.874 169.28C111.091 169.045 111.347 168.861 111.642 168.731C111.937 168.6 112.249 168.534 112.578 168.534C112.907 168.534 113.219 168.6 113.515 168.731C113.81 168.861 114.066 169.045 114.283 169.28C114.499 169.512 114.671 169.788 114.798 170.11C114.925 170.431 114.989 170.786 114.989 171.175C114.989 171.235 114.985 171.294 114.978 171.354C114.97 171.41 114.963 171.459 114.955 171.5C114.948 171.552 114.94 171.597 114.933 171.635H111.255C111.27 171.795 111.317 171.949 111.395 172.094C111.474 172.24 111.571 172.369 111.687 172.481C111.807 172.59 111.949 172.677 112.113 172.745C112.277 172.808 112.451 172.84 112.634 172.84C112.948 172.84 113.197 172.773 113.38 172.638C113.567 172.504 113.701 172.38 113.784 172.268H114.877ZM112.578 169.51C112.234 169.51 111.943 169.628 111.704 169.863C111.468 170.095 111.319 170.399 111.255 170.777H114.014C113.954 170.403 113.8 170.098 113.554 169.863C113.311 169.628 112.986 169.51 112.578 169.51Z" fill="#2D2C2C"/>
<path d="M117.002 169.224C117.002 169.4 116.94 169.549 116.817 169.672C116.693 169.796 116.544 169.857 116.368 169.857C116.192 169.857 116.043 169.796 115.92 169.672C115.796 169.549 115.735 169.4 115.735 169.224C115.735 169.048 115.796 168.899 115.92 168.775C116.043 168.652 116.192 168.59 116.368 168.59C116.544 168.59 116.693 168.652 116.817 168.775C116.94 168.899 117.002 169.048 117.002 169.224ZM117.002 173.188C117.002 173.363 116.94 173.513 116.817 173.636C116.693 173.756 116.544 173.815 116.368 173.815C116.192 173.815 116.043 173.756 115.92 173.636C115.796 173.513 115.735 173.363 115.735 173.188C115.735 173.012 115.796 172.862 115.92 172.739C116.043 172.616 116.192 172.554 116.368 172.554C116.544 172.554 116.693 172.616 116.817 172.739C116.94 172.862 117.002 173.012 117.002 173.188Z" fill="#2D2C2C"/>
<path d="M122.681 166.527V173.759H121.587V168.019L120.612 168.652L120.096 167.789L121.935 166.527H122.681Z" fill="#2D2C2C"/>
<path d="M126.414 173.815C126.071 173.815 125.749 173.752 125.45 173.625C125.151 173.494 124.888 173.313 124.66 173.081C124.435 172.846 124.26 172.567 124.133 172.246C124.009 171.924 123.948 171.567 123.948 171.175C123.948 170.786 124.009 170.431 124.133 170.11C124.26 169.788 124.435 169.512 124.66 169.28C124.888 169.045 125.151 168.861 125.45 168.731C125.749 168.6 126.071 168.534 126.414 168.534C126.661 168.534 126.872 168.566 127.048 168.63C127.224 168.689 127.373 168.753 127.496 168.82C127.635 168.906 127.752 169.003 127.85 169.112V166.527H128.881V173.759H128.136L127.906 173.244C127.805 173.352 127.687 173.447 127.552 173.529C127.429 173.604 127.274 173.672 127.087 173.731C126.9 173.787 126.676 173.815 126.414 173.815ZM126.47 169.51C126.272 169.51 126.084 169.551 125.904 169.633C125.725 169.712 125.566 169.826 125.428 169.975C125.289 170.125 125.179 170.302 125.097 170.508C125.018 170.71 124.979 170.932 124.979 171.175C124.979 171.422 125.018 171.646 125.097 171.848C125.179 172.049 125.289 172.225 125.428 172.375C125.566 172.524 125.725 172.64 125.904 172.722C126.084 172.801 126.272 172.84 126.47 172.84C126.669 172.84 126.857 172.801 127.037 172.722C127.22 172.64 127.379 172.524 127.513 172.375C127.652 172.225 127.76 172.049 127.838 171.848C127.921 171.646 127.962 171.422 127.962 171.175C127.962 170.928 127.921 170.704 127.838 170.502C127.76 170.3 127.652 170.125 127.513 169.975C127.379 169.826 127.22 169.712 127.037 169.633C126.857 169.551 126.669 169.51 126.47 169.51Z" fill="#2D2C2C"/>
<path d="M71.6714 99.8473C71.7096 99.1584 71.8818 98.5078 72.188 97.8955C72.4942 97.264 72.9152 96.7186 73.451 96.2594C74.0059 95.781 74.647 95.3983 75.3741 95.1112C76.1204 94.8242 76.9433 94.6807 77.8426 94.6807C78.742 94.6807 79.5553 94.8242 80.2825 95.1112C81.0288 95.3791 81.6698 95.7523 82.2056 96.2307C82.7414 96.6899 83.1528 97.2257 83.4399 97.8381C83.7269 98.4313 83.8704 99.0532 83.8704 99.7038C83.8704 100.354 83.746 100.919 83.4973 101.397C83.2676 101.857 83.0093 102.239 82.7223 102.545C82.3778 102.89 81.9951 103.187 81.5741 103.435C82.0717 103.684 82.5214 104.009 82.9232 104.411C83.2676 104.756 83.5834 105.215 83.8704 105.789C84.1575 106.363 84.301 107.062 84.301 107.884C84.301 108.535 84.1479 109.166 83.8417 109.779C83.5355 110.391 83.105 110.946 82.5501 111.444C81.9951 111.922 81.3254 112.314 80.5408 112.62C79.7754 112.908 78.9238 113.051 77.9862 113.051C76.972 113.051 76.0726 112.917 75.288 112.649C74.5034 112.381 73.8337 112.008 73.2788 111.53C72.743 111.051 72.322 110.487 72.0158 109.836C71.7288 109.186 71.5661 108.487 71.5278 107.741H74.9723C75.0105 107.99 75.1062 108.248 75.2593 108.516C75.4124 108.765 75.6133 108.994 75.8621 109.205C76.1109 109.396 76.3979 109.559 76.7232 109.693C77.0676 109.827 77.4408 109.894 77.8426 109.894C78.7038 109.894 79.3926 109.654 79.9093 109.176C80.4451 108.679 80.713 108.104 80.713 107.454C80.713 106.803 80.4643 106.258 79.9667 105.818C79.4883 105.378 78.7803 105.158 77.8426 105.158H76.2639V102.287H77.6991C78.6368 102.287 79.3257 102.096 79.7658 101.713C80.2059 101.311 80.426 100.785 80.426 100.134C80.426 99.4838 80.1964 98.9384 79.7371 98.4983C79.2778 98.0581 78.6464 97.8381 77.8426 97.8381C77.0389 97.8381 76.3979 98.0486 75.9195 98.4696C75.4602 98.8905 75.1923 99.3498 75.1158 99.8473H71.6714Z" fill="#111204"/>
<path d="M93.1924 100.565C94.0918 100.565 94.9146 100.718 95.6609 101.024C96.4264 101.33 97.077 101.761 97.6128 102.316C98.1677 102.852 98.5983 103.502 98.9044 104.268C99.2106 105.014 99.3637 105.837 99.3637 106.736C99.3637 107.636 99.201 108.468 98.8757 109.233C98.5504 109.999 98.0912 110.669 97.498 111.243C96.9239 111.798 96.235 112.238 95.4313 112.563C94.6276 112.888 93.7378 113.051 92.7618 113.051C91.8625 113.051 91.0396 112.908 90.2933 112.62C89.547 112.333 88.8964 111.96 88.3415 111.501C87.8057 111.023 87.3751 110.477 87.0498 109.865C86.7245 109.233 86.5236 108.573 86.447 107.884H89.8915C89.9297 108.095 90.0254 108.324 90.1785 108.573C90.3316 108.803 90.5325 109.023 90.7813 109.233C91.0301 109.425 91.3171 109.587 91.6424 109.721C91.9868 109.836 92.36 109.894 92.7618 109.894C93.6995 109.894 94.4554 109.607 95.0294 109.033C95.6226 108.439 95.9193 107.674 95.9193 106.736C95.9193 105.799 95.6226 105.043 95.0294 104.469C94.4554 103.875 93.6995 103.579 92.7618 103.579C92.2452 103.579 91.8051 103.684 91.4415 103.895C91.0779 104.086 90.7813 104.296 90.5517 104.526C90.2838 104.794 90.0637 105.1 89.8915 105.445H86.8776L88.0257 94.8242H98.072V98.1251H90.8961L90.4655 101.426C90.7143 101.273 90.9918 101.129 91.298 100.995C91.5467 100.9 91.8338 100.804 92.1591 100.708C92.4844 100.613 92.8288 100.565 93.1924 100.565Z" fill="#111204"/>
<path d="M107.674 113.051C106.698 113.051 105.809 112.888 105.005 112.563C104.201 112.238 103.503 111.798 102.91 111.243C102.335 110.669 101.886 109.999 101.56 109.233C101.235 108.468 101.072 107.636 101.072 106.736C101.072 106.124 101.159 105.54 101.331 104.985C101.522 104.43 101.723 103.942 101.934 103.521C102.182 103.024 102.469 102.565 102.795 102.144C103.197 101.531 103.675 100.814 104.23 99.9909C104.804 99.1489 105.359 98.3452 105.895 97.5797C106.526 96.6804 107.167 95.7618 107.818 94.8242H111.406L107.531 100.565C108.468 100.45 109.339 100.546 110.143 100.852C110.966 101.139 111.683 101.57 112.296 102.144C112.908 102.718 113.386 103.407 113.731 104.21C114.094 104.995 114.276 105.837 114.276 106.736C114.276 107.636 114.114 108.468 113.788 109.233C113.463 109.999 113.004 110.669 112.41 111.243C111.836 111.798 111.147 112.238 110.344 112.563C109.54 112.888 108.65 113.051 107.674 113.051ZM104.517 106.736C104.517 107.195 104.593 107.626 104.747 108.028C104.919 108.43 105.148 108.784 105.435 109.09C105.722 109.377 106.057 109.607 106.44 109.779C106.823 109.951 107.234 110.037 107.674 110.037C108.095 110.037 108.497 109.951 108.88 109.779C109.263 109.607 109.597 109.377 109.885 109.09C110.172 108.784 110.401 108.43 110.573 108.028C110.746 107.626 110.832 107.195 110.832 106.736C110.832 106.277 110.746 105.846 110.573 105.445C110.401 105.043 110.172 104.698 109.885 104.411C109.597 104.105 109.263 103.866 108.88 103.694C108.497 103.521 108.095 103.435 107.674 103.435C107.234 103.435 106.823 103.521 106.44 103.694C106.057 103.866 105.722 104.105 105.435 104.411C105.148 104.698 104.919 105.043 104.747 105.445C104.593 105.846 104.517 106.277 104.517 106.736Z" fill="#111204"/>
<path d="M222.925 118.045V119.854L217.902 130.704H215.391L220.213 120.356H214.788V118.045H222.925Z" fill="#D2A37C"/>
<path d="M228.852 118.045V130.704H226.441V121.16L224.934 122.164L223.728 120.356L227.044 118.045H228.852Z" fill="#D2A37C"/>
<path d="M231.765 130.704L239.5 118.045H241.409L233.673 130.704H231.765ZM232.367 120.758C232.367 121.106 232.475 121.394 232.689 121.622C232.903 121.85 233.164 121.963 233.472 121.963C233.781 121.963 234.042 121.85 234.256 121.622C234.47 121.394 234.578 121.106 234.578 120.758C234.578 120.41 234.47 120.122 234.256 119.894C234.042 119.666 233.781 119.552 233.472 119.552C233.164 119.552 232.903 119.666 232.689 119.894C232.475 120.122 232.367 120.41 232.367 120.758ZM236.185 120.758C236.185 121.133 236.111 121.488 235.964 121.823C235.83 122.144 235.636 122.432 235.381 122.687C235.14 122.928 234.852 123.122 234.517 123.269C234.196 123.403 233.848 123.47 233.472 123.47C233.097 123.47 232.742 123.403 232.408 123.269C232.086 123.122 231.798 122.928 231.544 122.687C231.302 122.432 231.108 122.144 230.961 121.823C230.827 121.488 230.76 121.133 230.76 120.758C230.76 120.383 230.827 120.035 230.961 119.713C231.108 119.378 231.302 119.09 231.544 118.849C231.798 118.595 232.086 118.4 232.408 118.266C232.742 118.119 233.097 118.045 233.472 118.045C233.848 118.045 234.196 118.119 234.517 118.266C234.852 118.4 235.14 118.595 235.381 118.849C235.636 119.09 235.83 119.378 235.964 119.713C236.111 120.035 236.185 120.383 236.185 120.758ZM238.596 127.991C238.596 128.34 238.703 128.628 238.918 128.855C239.132 129.083 239.393 129.197 239.701 129.197C240.009 129.197 240.27 129.083 240.485 128.855C240.699 128.628 240.806 128.34 240.806 127.991C240.806 127.643 240.699 127.355 240.485 127.127C240.27 126.9 240.009 126.786 239.701 126.786C239.393 126.786 239.132 126.9 238.918 127.127C238.703 127.355 238.596 127.643 238.596 127.991ZM242.414 127.991C242.414 128.366 242.34 128.721 242.193 129.056C242.059 129.378 241.864 129.666 241.61 129.92C241.369 130.161 241.081 130.355 240.746 130.503C240.424 130.637 240.076 130.704 239.701 130.704C239.326 130.704 238.971 130.637 238.636 130.503C238.315 130.355 238.027 130.161 237.772 129.92C237.531 129.666 237.337 129.378 237.19 129.056C237.056 128.721 236.989 128.366 236.989 127.991C236.989 127.616 237.056 127.268 237.19 126.946C237.337 126.612 237.531 126.324 237.772 126.082C238.027 125.828 238.315 125.634 238.636 125.5C238.971 125.352 239.326 125.279 239.701 125.279C240.076 125.279 240.424 125.352 240.746 125.5C241.081 125.634 241.369 125.828 241.61 126.082C241.864 126.324 242.059 126.612 242.193 126.946C242.34 127.268 242.414 127.616 242.414 127.991Z" fill="#D2A37C"/>
<path d="M230.239 141.769C230.239 142.061 230.29 142.33 230.391 142.577C230.492 142.823 230.623 143.038 230.786 143.22C230.951 143.399 231.139 143.54 231.349 143.64C231.562 143.741 231.781 143.792 232.005 143.792C232.213 143.792 232.399 143.762 232.565 143.704C232.733 143.642 232.88 143.558 233.006 143.451C233.132 143.345 233.236 143.221 233.317 143.081C233.401 142.941 233.466 142.791 233.511 142.631H234.373C234.308 142.889 234.207 143.133 234.07 143.363C233.932 143.593 233.761 143.795 233.557 143.968C233.355 144.139 233.124 144.275 232.863 144.376C232.602 144.474 232.316 144.523 232.005 144.523C231.661 144.523 231.331 144.453 231.017 144.313C230.706 144.173 230.433 143.978 230.197 143.729C229.962 143.479 229.774 143.188 229.634 142.854C229.494 142.521 229.424 142.159 229.424 141.769C229.424 141.385 229.494 141.025 229.634 140.689C229.774 140.352 229.962 140.06 230.197 139.81C230.433 139.561 230.706 139.366 231.017 139.226C231.331 139.085 231.661 139.015 232.005 139.015C232.302 139.015 232.58 139.066 232.838 139.167C233.099 139.265 233.327 139.401 233.523 139.575C233.722 139.746 233.89 139.946 234.028 140.176C234.168 140.406 234.269 140.65 234.33 140.907H233.469C233.424 140.748 233.359 140.598 233.275 140.458C233.191 140.315 233.087 140.191 232.964 140.088C232.841 139.981 232.699 139.898 232.539 139.839C232.38 139.778 232.202 139.747 232.005 139.747C231.781 139.747 231.562 139.797 231.349 139.898C231.139 139.996 230.951 140.137 230.786 140.319C230.623 140.498 230.492 140.713 230.391 140.962C230.29 141.209 230.239 141.478 230.239 141.769Z" fill="#A39C9C"/>
<path d="M237.774 142.543C237.774 142.358 237.743 142.19 237.682 142.039C237.623 141.887 237.544 141.755 237.446 141.643C237.348 141.531 237.233 141.446 237.101 141.387C236.97 141.325 236.835 141.294 236.698 141.294C236.56 141.294 236.426 141.325 236.294 141.387C236.162 141.446 236.047 141.531 235.949 141.643C235.851 141.755 235.771 141.889 235.71 142.043C235.651 142.194 235.621 142.361 235.621 142.543C235.621 142.728 235.651 142.896 235.71 143.048C235.771 143.199 235.851 143.331 235.949 143.443C236.047 143.555 236.162 143.642 236.294 143.704C236.426 143.762 236.56 143.792 236.698 143.792C236.835 143.792 236.97 143.762 237.101 143.704C237.233 143.642 237.348 143.555 237.446 143.443C237.544 143.331 237.623 143.199 237.682 143.048C237.743 142.896 237.774 142.728 237.774 142.543ZM238.548 142.543C238.548 142.835 238.5 143.102 238.405 143.346C238.312 143.587 238.181 143.796 238.01 143.973C237.841 144.146 237.645 144.282 237.421 144.381C237.197 144.476 236.956 144.523 236.698 144.523C236.44 144.523 236.199 144.476 235.974 144.381C235.75 144.282 235.553 144.146 235.382 143.973C235.213 143.796 235.082 143.587 234.986 143.346C234.894 143.105 234.848 142.837 234.848 142.543C234.848 142.252 234.894 141.985 234.986 141.744C235.082 141.503 235.213 141.296 235.382 141.122C235.553 140.945 235.75 140.808 235.974 140.71C236.199 140.612 236.44 140.563 236.698 140.563C236.956 140.563 237.197 140.612 237.421 140.71C237.645 140.808 237.841 140.945 238.01 141.122C238.181 141.296 238.312 141.503 238.405 141.744C238.5 141.985 238.548 142.252 238.548 142.543Z" fill="#A39C9C"/>
<path d="M243.286 140.563C243.471 140.563 243.644 140.599 243.804 140.672C243.963 140.742 244.103 140.847 244.224 140.987C244.345 141.125 244.44 141.293 244.51 141.492C244.583 141.688 244.619 141.91 244.619 142.156V144.481H243.846V142.156C243.846 141.898 243.771 141.691 243.623 141.534C243.477 141.374 243.307 141.294 243.114 141.294C242.918 141.294 242.747 141.374 242.601 141.534C242.455 141.691 242.382 141.898 242.382 142.156V144.481H241.604V142.156C241.604 141.898 241.532 141.691 241.386 141.534C241.24 141.374 241.069 141.294 240.873 141.294C240.677 141.294 240.506 141.374 240.36 141.534C240.214 141.691 240.141 141.898 240.141 142.156V144.481H239.368V140.605H239.927L240.099 140.996C240.169 140.914 240.252 140.842 240.347 140.777C240.429 140.727 240.528 140.679 240.646 140.634C240.764 140.587 240.897 140.563 241.045 140.563C241.23 140.563 241.389 140.595 241.52 140.659C241.652 140.721 241.764 140.79 241.857 140.865C241.96 140.958 242.049 141.059 242.122 141.168C242.122 141.168 242.147 141.137 242.197 141.076C242.245 141.017 242.318 140.948 242.416 140.87C242.514 140.791 242.635 140.721 242.778 140.659C242.921 140.595 243.09 140.563 243.286 140.563Z" fill="#A39C9C"/>
<path d="M247.508 140.563C247.766 140.563 248.007 140.612 248.231 140.71C248.455 140.808 248.651 140.945 248.82 141.122C248.991 141.296 249.124 141.503 249.219 141.744C249.314 141.985 249.362 142.252 249.362 142.543C249.362 142.835 249.314 143.102 249.219 143.346C249.124 143.587 248.991 143.796 248.82 143.973C248.651 144.146 248.455 144.282 248.231 144.381C248.007 144.476 247.766 144.523 247.508 144.523C247.323 144.523 247.164 144.502 247.033 144.46C246.901 144.418 246.79 144.368 246.701 144.309C246.597 144.245 246.507 144.173 246.431 144.095V145.861H245.658V140.605H246.217L246.389 140.996C246.465 140.914 246.553 140.842 246.654 140.777C246.747 140.727 246.863 140.679 247.003 140.634C247.143 140.587 247.312 140.563 247.508 140.563ZM247.466 143.792C247.614 143.792 247.756 143.762 247.89 143.704C248.025 143.642 248.144 143.555 248.248 143.443C248.352 143.331 248.433 143.199 248.492 143.048C248.553 142.896 248.584 142.728 248.584 142.543C248.584 142.358 248.553 142.19 248.492 142.039C248.433 141.887 248.352 141.755 248.248 141.643C248.144 141.531 248.025 141.446 247.89 141.387C247.756 141.325 247.614 141.294 247.466 141.294C247.317 141.294 247.174 141.325 247.037 141.387C246.902 141.446 246.783 141.531 246.68 141.643C246.579 141.755 246.497 141.889 246.436 142.043C246.377 142.194 246.347 142.361 246.347 142.543C246.347 142.728 246.377 142.896 246.436 143.048C246.497 143.199 246.579 143.331 246.68 143.443C246.783 143.555 246.902 143.642 247.037 143.704C247.174 143.762 247.317 143.792 247.466 143.792Z" fill="#A39C9C"/>
<path d="M250.998 144.481H250.224V139.057H250.998V144.481Z" fill="#A39C9C"/>
<path d="M255.434 143.363C255.369 143.523 255.288 143.673 255.19 143.813C255.092 143.953 254.974 144.076 254.837 144.183C254.699 144.289 254.539 144.373 254.357 144.435C254.178 144.494 253.976 144.523 253.752 144.523C253.494 144.523 253.253 144.476 253.029 144.381C252.804 144.282 252.608 144.146 252.44 143.973C252.272 143.796 252.14 143.587 252.045 143.346C251.949 143.105 251.902 142.837 251.902 142.543C251.902 142.252 251.949 141.985 252.045 141.744C252.14 141.503 252.269 141.296 252.431 141.122C252.594 140.945 252.786 140.808 253.007 140.71C253.229 140.612 253.463 140.563 253.71 140.563C253.956 140.563 254.19 140.612 254.412 140.71C254.633 140.808 254.825 140.945 254.988 141.122C255.15 141.296 255.279 141.503 255.375 141.744C255.47 141.985 255.518 142.252 255.518 142.543C255.518 142.588 255.515 142.633 255.509 142.678C255.504 142.72 255.498 142.756 255.492 142.787C255.487 142.826 255.481 142.86 255.476 142.888H252.717C252.729 143.008 252.764 143.123 252.822 143.233C252.881 143.342 252.954 143.439 253.041 143.523C253.131 143.604 253.237 143.67 253.361 143.72C253.484 143.768 253.614 143.792 253.752 143.792C253.987 143.792 254.174 143.741 254.311 143.64C254.451 143.54 254.552 143.447 254.614 143.363H255.434ZM253.71 141.294C253.452 141.294 253.233 141.383 253.054 141.559C252.877 141.733 252.765 141.961 252.717 142.245H254.786C254.741 141.964 254.626 141.736 254.441 141.559C254.259 141.383 254.015 141.294 253.71 141.294Z" fill="#A39C9C"/>
<path d="M257.456 143.191C257.456 143.362 257.513 143.505 257.628 143.619C257.743 143.734 257.886 143.792 258.057 143.792C258.085 143.792 258.115 143.79 258.146 143.788C258.179 143.785 258.21 143.781 258.238 143.775C258.266 143.769 258.293 143.761 258.318 143.75V144.439C258.284 144.456 258.244 144.47 258.196 144.481C258.109 144.509 258.007 144.523 257.889 144.523C257.718 144.523 257.558 144.493 257.41 144.431C257.264 144.366 257.136 144.277 257.027 144.162C256.918 144.047 256.832 143.908 256.771 143.746C256.712 143.583 256.682 143.398 256.682 143.191V141.336H255.993V140.605H256.296C256.444 140.605 256.567 140.557 256.666 140.462C256.764 140.364 256.813 140.24 256.813 140.092V139.575H257.456V140.605H258.318V141.336H257.456V143.191Z" fill="#A39C9C"/>
<path d="M262.497 143.363C262.433 143.523 262.352 143.673 262.254 143.813C262.155 143.953 262.038 144.076 261.9 144.183C261.763 144.289 261.603 144.373 261.421 144.435C261.242 144.494 261.04 144.523 260.816 144.523C260.558 144.523 260.317 144.476 260.092 144.381C259.868 144.282 259.672 144.146 259.504 143.973C259.335 143.796 259.204 143.587 259.108 143.346C259.013 143.105 258.965 142.837 258.965 142.543C258.965 142.252 259.013 141.985 259.108 141.744C259.204 141.503 259.333 141.296 259.495 141.122C259.658 140.945 259.85 140.808 260.071 140.71C260.293 140.612 260.527 140.563 260.773 140.563C261.02 140.563 261.254 140.612 261.476 140.71C261.697 140.808 261.889 140.945 262.052 141.122C262.214 141.296 262.343 141.503 262.439 141.744C262.534 141.985 262.581 142.252 262.581 142.543C262.581 142.588 262.579 142.633 262.573 142.678C262.567 142.72 262.562 142.756 262.556 142.787C262.551 142.826 262.545 142.86 262.539 142.888H259.781C259.792 143.008 259.827 143.123 259.886 143.233C259.945 143.342 260.018 143.439 260.105 143.523C260.195 143.604 260.301 143.67 260.424 143.72C260.548 143.768 260.678 143.792 260.816 143.792C261.051 143.792 261.237 143.741 261.375 143.64C261.515 143.54 261.616 143.447 261.677 143.363H262.497ZM260.773 141.294C260.516 141.294 260.297 141.383 260.118 141.559C259.941 141.733 259.829 141.961 259.781 142.245H261.85C261.805 141.964 261.69 141.736 261.505 141.559C261.323 141.383 261.079 141.294 260.773 141.294Z" fill="#A39C9C"/>
<path d="M236.138 152.95C236.138 153.121 236.196 153.264 236.311 153.379C236.426 153.494 236.569 153.551 236.74 153.551C236.768 153.551 236.797 153.55 236.828 153.547C236.862 153.544 236.892 153.54 236.921 153.534C236.949 153.529 236.975 153.52 237 153.509V154.199C236.967 154.215 236.926 154.229 236.878 154.241C236.792 154.269 236.689 154.283 236.572 154.283C236.401 154.283 236.241 154.252 236.092 154.19C235.946 154.126 235.819 154.036 235.71 153.921C235.6 153.806 235.515 153.667 235.453 153.505C235.394 153.342 235.365 153.157 235.365 152.95V151.096H234.675V150.364H234.978C235.127 150.364 235.25 150.316 235.348 150.221C235.446 150.123 235.495 150 235.495 149.851V149.334H236.138V150.364H237V151.096H236.138V152.95Z" fill="#A39C9C"/>
<path d="M238.678 154.241H237.904V150.364H238.678V154.241ZM238.291 149.763C238.159 149.763 238.047 149.718 237.955 149.628C237.862 149.536 237.816 149.422 237.816 149.288C237.816 149.156 237.862 149.045 237.955 148.955C238.047 148.863 238.159 148.817 238.291 148.817C238.423 148.817 238.535 148.863 238.628 148.955C238.72 149.045 238.766 149.156 238.766 149.288C238.766 149.419 238.72 149.531 238.628 149.624C238.535 149.716 238.423 149.763 238.291 149.763Z" fill="#A39C9C"/>
<path d="M243.072 152.82C243.027 153.027 242.956 153.22 242.857 153.4C242.759 153.576 242.635 153.731 242.483 153.862C242.335 153.994 242.164 154.098 241.97 154.173C241.78 154.246 241.572 154.283 241.348 154.283C241.09 154.283 240.849 154.235 240.625 154.14C240.401 154.042 240.203 153.906 240.032 153.732C239.864 153.555 239.732 153.346 239.637 153.105C239.544 152.864 239.498 152.597 239.498 152.302C239.498 152.011 239.544 151.745 239.637 151.503C239.732 151.262 239.864 151.055 240.032 150.881C240.203 150.705 240.401 150.567 240.625 150.469C240.849 150.371 241.09 150.322 241.348 150.322C241.572 150.322 241.78 150.36 241.97 150.435C242.164 150.508 242.335 150.612 242.483 150.747C242.635 150.878 242.758 151.034 242.853 151.213C242.951 151.39 243.024 151.581 243.072 151.785H242.252C242.188 151.567 242.081 151.39 241.932 151.255C241.784 151.121 241.589 151.054 241.348 151.054C241.211 151.054 241.076 151.084 240.944 151.146C240.813 151.205 240.698 151.29 240.6 151.403C240.501 151.515 240.422 151.648 240.36 151.802C240.301 151.953 240.272 152.12 240.272 152.302C240.272 152.487 240.301 152.656 240.36 152.807C240.422 152.958 240.501 153.09 240.6 153.202C240.698 153.314 240.813 153.401 240.944 153.463C241.076 153.522 241.211 153.551 241.348 153.551C241.589 153.551 241.784 153.484 241.932 153.349C242.084 153.215 242.19 153.038 242.252 152.82H243.072Z" fill="#A39C9C"/>
<path d="M246.175 154.241L244.665 152.391V154.241H243.892V148.817H244.665V152.046L246.003 150.364H246.907L245.401 152.172L247.121 154.241H246.175Z" fill="#A39C9C"/>
<path d="M250.825 153.122C250.761 153.282 250.68 153.432 250.581 153.572C250.483 153.712 250.366 153.836 250.228 153.942C250.091 154.049 249.931 154.133 249.749 154.194C249.569 154.253 249.368 154.283 249.143 154.283C248.886 154.283 248.644 154.235 248.42 154.14C248.196 154.042 248 153.906 247.832 153.732C247.663 153.555 247.532 153.346 247.436 153.105C247.341 152.864 247.293 152.597 247.293 152.302C247.293 152.011 247.341 151.745 247.436 151.503C247.532 151.262 247.661 151.055 247.823 150.881C247.986 150.705 248.178 150.567 248.399 150.469C248.621 150.371 248.855 150.322 249.101 150.322C249.348 150.322 249.582 150.371 249.804 150.469C250.025 150.567 250.217 150.705 250.38 150.881C250.542 151.055 250.671 151.262 250.766 151.503C250.862 151.745 250.909 152.011 250.909 152.302C250.909 152.347 250.907 152.392 250.901 152.437C250.895 152.479 250.89 152.515 250.884 152.546C250.879 152.585 250.873 152.619 250.867 152.647H248.109C248.12 152.768 248.155 152.883 248.214 152.992C248.273 153.101 248.346 153.198 248.433 153.282C248.523 153.363 248.629 153.429 248.752 153.48C248.876 153.527 249.006 153.551 249.143 153.551C249.379 153.551 249.565 153.501 249.703 153.4C249.843 153.299 249.944 153.206 250.005 153.122H250.825ZM249.101 151.054C248.843 151.054 248.625 151.142 248.445 151.318C248.269 151.492 248.157 151.721 248.109 152.004H250.178C250.133 151.723 250.018 151.495 249.833 151.318C249.651 151.142 249.407 151.054 249.101 151.054Z" fill="#A39C9C"/>
<path d="M252.848 152.95C252.848 153.121 252.905 153.264 253.02 153.379C253.135 153.494 253.278 153.551 253.449 153.551C253.477 153.551 253.506 153.55 253.537 153.547C253.571 153.544 253.602 153.54 253.63 153.534C253.658 153.529 253.684 153.52 253.71 153.509V154.199C253.676 154.215 253.635 154.229 253.588 154.241C253.501 154.269 253.399 154.283 253.281 154.283C253.11 154.283 252.95 154.252 252.801 154.19C252.656 154.126 252.528 154.036 252.419 153.921C252.31 153.806 252.224 153.667 252.162 153.505C252.103 153.342 252.074 153.157 252.074 152.95V151.096H251.384V150.364H251.687C251.836 150.364 251.959 150.316 252.057 150.221C252.155 150.123 252.204 150 252.204 149.851V149.334H252.848V150.364H253.71V151.096H252.848V152.95Z" fill="#A39C9C"/>
<path d="M255.089 152.992C255.111 153.163 255.177 153.299 255.286 153.4C255.396 153.501 255.56 153.551 255.778 153.551C256.019 153.551 256.195 153.506 256.304 153.417C256.413 153.324 256.468 153.212 256.468 153.08C256.468 152.965 256.416 152.878 256.312 152.82C256.209 152.758 256.08 152.707 255.926 152.668C255.774 152.626 255.609 152.584 255.429 152.542C255.253 152.497 255.089 152.435 254.937 152.357C254.786 152.276 254.659 152.168 254.555 152.033C254.451 151.899 254.399 151.716 254.399 151.487C254.399 151.327 254.43 151.177 254.492 151.037C254.556 150.894 254.646 150.769 254.761 150.663C254.876 150.556 255.015 150.473 255.177 150.414C255.342 150.353 255.529 150.322 255.736 150.322C256.19 150.322 256.534 150.431 256.766 150.65C257.002 150.869 257.132 151.161 257.157 151.529H256.38C256.357 151.397 256.293 151.285 256.186 151.192C256.08 151.1 255.93 151.054 255.736 151.054C255.54 151.054 255.39 151.098 255.286 151.188C255.183 151.278 255.131 151.377 255.131 151.487C255.131 151.602 255.183 151.69 255.286 151.752C255.39 151.81 255.518 151.859 255.669 151.899C255.823 151.938 255.989 151.98 256.165 152.025C256.342 152.067 256.506 152.129 256.657 152.21C256.811 152.288 256.94 152.396 257.044 152.534C257.148 152.668 257.2 152.85 257.2 153.08C257.2 153.425 257.076 153.712 256.83 153.942C256.583 154.169 256.232 154.283 255.778 154.283C255.302 154.283 254.944 154.171 254.706 153.946C254.468 153.722 254.338 153.404 254.315 152.992H255.089Z" fill="#A39C9C"/>
<path fill-rule="evenodd" clip-rule="evenodd" d="M230.833 97.4075C209.274 97.4075 191.796 114.885 191.796 136.445C191.796 158.004 209.274 175.482 230.833 175.482C252.393 175.482 269.87 158.004 269.87 136.445C269.87 114.885 252.393 97.4075 230.833 97.4075ZM180.315 136.445C180.315 108.544 202.933 85.926 230.833 85.926C258.734 85.926 281.352 108.544 281.352 136.445C281.352 164.345 258.734 186.963 230.833 186.963C202.933 186.963 180.315 164.345 180.315 136.445Z" fill="#C4C4C4"/>
<path fill-rule="evenodd" clip-rule="evenodd" d="M207.185 91.8031C214.883 87.7249 223.505 85.7068 232.214 85.9449C240.923 86.1829 249.422 88.669 256.886 93.1617C264.35 97.6543 270.525 104.001 274.812 111.585C279.099 119.169 281.352 127.733 281.352 136.445C281.352 139.615 278.782 142.185 275.611 142.185C272.441 142.185 269.871 139.615 269.871 136.445C269.871 129.713 268.13 123.095 264.817 117.235C261.504 111.374 256.732 106.47 250.965 102.999C245.197 99.5271 238.63 97.606 231.9 97.4221C225.171 97.2381 218.508 98.7975 212.56 101.949C206.611 105.1 201.578 109.736 197.95 115.407C194.322 121.078 192.222 127.59 191.855 134.312C191.487 141.034 192.864 147.736 195.851 153.769C198.839 159.802 203.336 164.959 208.905 168.741C211.528 170.522 212.211 174.092 210.43 176.715C208.649 179.338 205.079 180.021 202.456 178.24C195.248 173.346 189.429 166.671 185.562 158.865C181.696 151.058 179.914 142.384 180.39 133.685C180.866 124.986 183.584 116.558 188.279 109.219C192.974 101.881 199.486 95.8812 207.185 91.8031Z" fill="#D2A37C"/>
</g>
<defs>
<filter id="filter0_d_1_507" x="0" y="0" width="353.741" height="255" filterUnits="userSpaceOnUse" color-interpolation-filters="sRGB">
<feFlood flood-opacity="0" result="BackgroundImageFix"/>
<feColorMatrix in="SourceAlpha" type="matrix" values="0 0 0 0 0 0 0 0 0 0 0 0 0 0 0 0 0 0 127 0" result="hardAlpha"/>
<feOffset dy="10"/>
<feGaussianBlur stdDeviation="25"/>
<feComposite in2="hardAlpha" operator="out"/>
<feColorMatrix type="matrix" values="0 0 0 0 0 0 0 0 0 0 0 0 0 0 0 0 0 0 0.15 0"/>
<feBlend mode="normal" in2="BackgroundImageFix" result="effect1_dropShadow_1_507"/>
<feBlend mode="normal" in="SourceGraphic" in2="effect1_dropShadow_1_507" result="shape"/>
</filter>
</defs>
</svg>
