<svg width="332" height="259" viewBox="0 0 332 259" fill="none" xmlns="http://www.w3.org/2000/svg">
<g filter="url(#filter0_d_1_522)">
<path d="M46 52.3839C46 48.3059 49.301 45 53.3729 45H270.627C274.699 45 278 48.3059 278 52.3839V196.616C278 200.694 274.699 204 270.627 204H53.3729C49.3009 204 46 200.694 46 196.616V52.3839Z" fill="white"/>
</g>
<path d="M67.7772 73.4706V72.437H70.1089C70.4297 72.437 70.7134 72.3697 70.9602 72.2353C71.2151 72.1008 71.4125 71.9118 71.5524 71.6681C71.7004 71.4244 71.7744 71.1345 71.7744 70.7983C71.7744 70.4622 71.7004 70.1723 71.5524 69.9286C71.4125 69.6849 71.2151 69.4958 70.9602 69.3613C70.7134 69.2269 70.4297 69.1597 70.1089 69.1597H67.7772V68.1261H70.1829C70.7093 68.1261 71.1781 68.2353 71.5894 68.4538C72.0088 68.6723 72.3378 68.9832 72.5763 69.3866C72.8231 69.7815 72.9464 70.2521 72.9464 70.7983C72.9464 71.3361 72.8231 71.8067 72.5763 72.2101C72.3378 72.605 72.0088 72.916 71.5894 73.1429C71.1781 73.3613 70.7093 73.4706 70.1829 73.4706H67.7772ZM67 76.8739V68.1261H68.1597V76.8739H67Z" fill="#506081"/>
<path d="M75.1626 73.0672V72.0714H77.4819C77.9836 72.0714 78.3702 71.9412 78.6416 71.6807C78.913 71.4202 79.0487 71.0672 79.0487 70.6218C79.0487 70.2017 78.913 69.8529 78.6416 69.5756C78.3784 69.2983 77.996 69.1597 77.4943 69.1597H75.1626V68.1261H77.5313C78.0741 68.1261 78.547 68.2353 78.95 68.4538C79.353 68.6639 79.6615 68.9538 79.8753 69.3235C80.0974 69.6933 80.2084 70.1176 80.2084 70.5966C80.2084 71.0924 80.0974 71.5252 79.8753 71.895C79.6615 72.2647 79.353 72.5546 78.95 72.7647C78.547 72.9664 78.0741 73.0672 77.5313 73.0672H75.1626ZM74.3853 76.8739V68.1261H75.545V76.8739H74.3853ZM79.3201 76.8739L76.2112 72.9538L77.3092 72.563L80.7882 76.8739H79.3201Z" fill="#506081"/>
<path d="M81.9875 76.8739V68.1261H83.1472V76.8739H81.9875Z" fill="#506081"/>
<path d="M89.0543 77C88.4375 77 87.8659 76.8866 87.3395 76.6597C86.8131 76.4244 86.3525 76.1008 85.9577 75.6891C85.5712 75.2773 85.271 74.7983 85.0571 74.2521C84.8433 73.7059 84.7364 73.1218 84.7364 72.5C84.7364 71.8697 84.8433 71.2815 85.0571 70.7353C85.271 70.1891 85.5712 69.7143 85.9577 69.3109C86.3525 68.8992 86.809 68.5798 87.3272 68.3529C87.8535 68.1176 88.4251 68 89.042 68C89.7164 68 90.3086 68.1176 90.8185 68.3529C91.3285 68.5882 91.7808 68.9076 92.1756 69.3109L91.3737 70.1303C91.1023 69.8193 90.7692 69.5756 90.3744 69.3992C89.9878 69.2227 89.5437 69.1345 89.042 69.1345C88.5896 69.1345 88.1743 69.2185 87.796 69.3866C87.4176 69.5462 87.0886 69.7773 86.809 70.0798C86.5294 70.3824 86.3114 70.7395 86.1551 71.1513C86.0071 71.563 85.9331 72.0126 85.9331 72.5C85.9331 72.9874 86.0071 73.437 86.1551 73.8487C86.3114 74.2605 86.5294 74.6176 86.809 74.9202C87.0886 75.2227 87.4176 75.458 87.796 75.626C88.1743 75.7857 88.5896 75.8655 89.042 75.8655C89.5766 75.8655 90.0413 75.7773 90.4361 75.6008C90.8309 75.416 91.164 75.1681 91.4354 74.8571L92.2373 75.6639C91.8425 76.084 91.3778 76.4118 90.8432 76.6471C90.3168 76.8824 89.7205 77 89.0543 77Z" fill="#506081"/>
<path d="M93.6619 76.8739V68.1261H94.8216V76.8739H93.6619ZM94.4515 76.8739V75.7899H99.3616V76.8739H94.4515ZM94.4515 72.916V71.8824H98.9545V72.916H94.4515ZM94.4515 69.2101V68.1261H99.2999V69.2101H94.4515Z" fill="#506081"/>
<path d="M104.282 73.4706V72.437H106.614C106.935 72.437 107.218 72.3697 107.465 72.2353C107.72 72.1008 107.918 71.9118 108.057 71.6681C108.205 71.4244 108.279 71.1345 108.279 70.7983C108.279 70.4622 108.205 70.1723 108.057 69.9286C107.918 69.6849 107.72 69.4958 107.465 69.3613C107.218 69.2269 106.935 69.1597 106.614 69.1597H104.282V68.1261H106.688C107.214 68.1261 107.683 68.2353 108.094 68.4538C108.514 68.6723 108.843 68.9832 109.081 69.3866C109.328 69.7815 109.451 70.2521 109.451 70.7983C109.451 71.3361 109.328 71.8067 109.081 72.2101C108.843 72.605 108.514 72.916 108.094 73.1429C107.683 73.3613 107.214 73.4706 106.688 73.4706H104.282ZM103.505 76.8739V68.1261H104.665V76.8739H103.505Z" fill="#506081"/>
<path d="M110.89 76.8739V68.1261H112.05V76.8739H110.89ZM111.68 76.8739V75.7899H116.59V76.8739H111.68ZM111.68 72.916V71.8824H116.183V72.916H111.68ZM111.68 69.2101V68.1261H116.528V69.2101H111.68Z" fill="#506081"/>
<path d="M118.945 73.0672V72.0714H121.264C121.766 72.0714 122.152 71.9412 122.424 71.6807C122.695 71.4202 122.831 71.0672 122.831 70.6218C122.831 70.2017 122.695 69.8529 122.424 69.5756C122.16 69.2983 121.778 69.1597 121.276 69.1597H118.945V68.1261H121.313C121.856 68.1261 122.329 68.2353 122.732 68.4538C123.135 68.6639 123.443 68.9538 123.657 69.3235C123.879 69.6933 123.99 70.1176 123.99 70.5966C123.99 71.0924 123.879 71.5252 123.657 71.895C123.443 72.2647 123.135 72.5546 122.732 72.7647C122.329 72.9664 121.856 73.0672 121.313 73.0672H118.945ZM118.167 76.8739V68.1261H119.327V76.8739H118.167ZM123.102 76.8739L119.993 72.9538L121.091 72.563L124.57 76.8739H123.102Z" fill="#506081"/>
<path d="M128.504 76.8739V68.1261H129.664V76.8739H128.504Z" fill="#506081"/>
<path d="M133.955 76.8739V68.3782H135.115V76.8739H133.955ZM131.043 69.2101V68.1261H138.014V69.2101H131.043Z" fill="#506081"/>
<path d="M139.396 76.8739V68.1261H140.555V76.8739H139.396ZM140.185 76.8739V75.7899H145.095V76.8739H140.185ZM140.185 72.916V71.8824H144.688V72.916H140.185ZM140.185 69.2101V68.1261H145.034V69.2101H140.185Z" fill="#506081"/>
<path d="M146.673 76.8739V68.1261H147.487L151.114 74.2143H150.559L154.186 68.1261H155V76.8739H153.84V70.2059L154.112 70.2815L151.25 75.084H150.435L147.573 70.2815L147.832 70.2059V76.8739H146.673Z" fill="#506081"/>
<path d="M72.6244 118.746C71.4139 118.746 70.3584 118.543 69.4579 118.138C68.5574 117.719 67.7381 117.09 67 116.251L69.1922 114.06C69.6793 114.638 70.2182 115.094 70.8086 115.427C71.3991 115.745 72.0782 115.904 72.8458 115.904C73.5692 115.904 74.1301 115.774 74.5287 115.513C74.9273 115.239 75.1266 114.855 75.1266 114.364C75.1266 113.944 74.9937 113.604 74.728 113.344C74.477 113.084 74.1375 112.86 73.7094 112.671C73.2813 112.483 72.8089 112.303 72.2922 112.129C71.7756 111.956 71.2589 111.76 70.7422 111.543C70.2403 111.312 69.7753 111.03 69.3472 110.697C68.9191 110.35 68.5722 109.924 68.3065 109.417C68.0407 108.897 67.9079 108.246 67.9079 107.465C67.9079 106.525 68.1367 105.715 68.5943 105.035C69.0667 104.355 69.7089 103.842 70.5208 103.495C71.3327 103.133 72.2627 102.952 73.3108 102.952C74.3294 102.952 75.2816 103.14 76.1673 103.517C77.053 103.893 77.7764 104.406 78.3373 105.057L76.1452 107.248C75.6875 106.771 75.2225 106.409 74.7501 106.163C74.2925 105.903 73.7906 105.773 73.2444 105.773C72.6096 105.773 72.1151 105.888 71.7608 106.12C71.4065 106.351 71.2294 106.691 71.2294 107.139C71.2294 107.53 71.3622 107.848 71.6279 108.094C71.8937 108.325 72.2406 108.528 72.6687 108.701C73.1115 108.875 73.5839 109.049 74.0858 109.222C74.6025 109.396 75.1192 109.598 75.6359 109.83C76.1525 110.061 76.6249 110.357 77.053 110.719C77.4959 111.066 77.8502 111.514 78.1159 112.064C78.3816 112.599 78.5145 113.264 78.5145 114.06C78.5145 115.521 77.9904 116.67 76.9423 117.509C75.909 118.334 74.4697 118.746 72.6244 118.746ZM71.8937 117.054H74.3294V120.698H71.8937V117.054ZM74.3294 104.514H71.8937V101H74.3294V104.514Z" fill="#506081"/>
<path d="M85.1472 118.746C84.0696 118.746 83.0805 118.565 82.1801 118.204C81.2796 117.827 80.5193 117.292 79.8993 116.598L82.1358 114.407C82.4162 114.812 82.8222 115.145 83.3536 115.405C83.8998 115.651 84.4756 115.774 85.0808 115.774C85.627 115.774 86.0994 115.68 86.498 115.492C86.8966 115.304 87.2066 115.036 87.428 114.689C87.6642 114.342 87.7823 113.93 87.7823 113.452C87.7823 112.975 87.6642 112.57 87.428 112.238C87.2066 111.89 86.8744 111.623 86.4316 111.435C86.0035 111.247 85.4868 111.153 84.8815 111.153C84.601 111.153 84.3058 111.175 83.9958 111.218C83.7006 111.247 83.4496 111.298 83.2429 111.37L84.7708 109.482C85.1842 109.367 85.5754 109.273 85.9444 109.2C86.3282 109.114 86.6825 109.07 87.0073 109.07C87.8044 109.07 88.5204 109.258 89.1552 109.634C89.7899 109.996 90.2919 110.517 90.6609 111.196C91.0447 111.862 91.2366 112.657 91.2366 113.583C91.2366 114.595 90.9783 115.492 90.4616 116.273C89.9597 117.054 89.2511 117.661 88.3359 118.095C87.4354 118.529 86.3725 118.746 85.1472 118.746ZM83.2429 111.37V109.482L87.0516 105.1L90.9488 105.079L86.9851 109.504L83.2429 111.37ZM80.8736 106.076V103.191H90.9488V105.079L88.2252 106.076H80.8736Z" fill="#506081"/>
<path d="M97.5385 118.746C96.4608 118.746 95.4496 118.565 94.5048 118.204C93.5748 117.827 92.7998 117.292 92.1798 116.598L94.4384 114.407C94.7189 114.812 95.1249 115.145 95.6563 115.405C96.2025 115.651 96.793 115.774 97.4278 115.774C97.9887 115.774 98.4759 115.68 98.8892 115.492C99.3025 115.289 99.6273 115.007 99.8635 114.646C100.1 114.27 100.218 113.836 100.218 113.344C100.218 112.838 100.1 112.404 99.8635 112.042C99.6273 111.681 99.2952 111.406 98.8671 111.218C98.4537 111.015 97.9813 110.914 97.4499 110.914C96.9185 110.914 96.4313 110.987 95.9884 111.131C95.5456 111.261 95.1396 111.464 94.7706 111.739L95.0584 109.569C95.398 109.309 95.7227 109.099 96.0327 108.94C96.3427 108.767 96.6823 108.636 97.0513 108.55C97.4204 108.463 97.8559 108.419 98.3578 108.419C99.5092 108.419 100.476 108.651 101.259 109.114C102.056 109.576 102.654 110.191 103.052 110.958C103.465 111.724 103.672 112.57 103.672 113.496C103.672 114.508 103.414 115.412 102.897 116.208C102.395 117.003 101.687 117.625 100.771 118.073C99.8561 118.522 98.7785 118.746 97.5385 118.746ZM94.7706 111.739L93.2648 110.372L94.0177 103.191H97.162L96.3427 110.307L94.7706 111.739ZM94.4827 106.076L94.0177 103.191H102.809V106.076H94.4827Z" fill="#506081"/>
<path d="M105.111 121.111L106.728 118.16L107.724 117.878C107.621 118.095 107.495 118.276 107.348 118.42C107.2 118.551 107.03 118.616 106.838 118.616C106.41 118.616 106.019 118.442 105.665 118.095C105.311 117.748 105.133 117.314 105.133 116.793C105.133 116.229 105.325 115.745 105.709 115.34C106.108 114.935 106.595 114.732 107.171 114.732C107.717 114.732 108.189 114.935 108.588 115.34C109.001 115.73 109.208 116.215 109.208 116.793C109.208 117.025 109.163 117.292 109.075 117.596C108.986 117.9 108.809 118.298 108.543 118.789L106.75 122L105.111 121.111Z" fill="#506081"/>
<path d="M111.67 118.507L116.586 111.804L117.87 111.717C117.679 112.05 117.464 112.346 117.228 112.606C117.007 112.852 116.719 113.048 116.365 113.192C116.025 113.322 115.568 113.387 114.992 113.387C114.047 113.387 113.176 113.17 112.379 112.737C111.597 112.288 110.969 111.688 110.497 110.936C110.039 110.169 109.81 109.302 109.81 108.333C109.81 107.32 110.069 106.409 110.585 105.599C111.102 104.789 111.796 104.146 112.667 103.668C113.538 103.191 114.519 102.952 115.612 102.952C116.704 102.952 117.686 103.191 118.557 103.668C119.428 104.131 120.114 104.768 120.616 105.577C121.133 106.373 121.391 107.277 121.391 108.289C121.391 109.591 120.934 110.9 120.018 112.216L115.612 118.507H111.67ZM115.612 110.849C116.069 110.849 116.483 110.741 116.852 110.524C117.221 110.307 117.509 110.018 117.715 109.656C117.922 109.28 118.025 108.861 118.025 108.398C118.025 107.92 117.922 107.494 117.715 107.118C117.509 106.742 117.221 106.452 116.852 106.25C116.483 106.033 116.069 105.925 115.612 105.925C115.139 105.925 114.719 106.033 114.35 106.25C113.995 106.452 113.708 106.742 113.486 107.118C113.279 107.494 113.176 107.92 113.176 108.398C113.176 108.861 113.279 109.28 113.486 109.656C113.708 110.018 114.003 110.307 114.372 110.524C114.741 110.741 115.154 110.849 115.612 110.849Z" fill="#506081"/>
<path d="M127.999 118.746C126.878 118.746 125.896 118.551 125.054 118.16C124.228 117.77 123.578 117.235 123.106 116.555C122.648 115.875 122.419 115.101 122.419 114.233C122.419 113.51 122.56 112.86 122.84 112.281C123.135 111.702 123.541 111.218 124.058 110.827C124.589 110.437 125.202 110.169 125.896 110.025L125.829 110.719C125.239 110.589 124.737 110.35 124.324 110.003C123.91 109.642 123.593 109.208 123.371 108.701C123.15 108.195 123.039 107.667 123.039 107.118C123.039 106.308 123.246 105.592 123.659 104.97C124.087 104.334 124.678 103.835 125.431 103.473C126.184 103.112 127.04 102.931 127.999 102.931C128.974 102.931 129.83 103.112 130.568 103.473C131.321 103.835 131.904 104.334 132.317 104.97C132.745 105.592 132.96 106.308 132.96 107.118C132.96 107.667 132.849 108.195 132.627 108.701C132.421 109.208 132.111 109.642 131.697 110.003C131.284 110.35 130.782 110.589 130.192 110.719L130.103 110.025C130.812 110.169 131.424 110.437 131.941 110.827C132.472 111.218 132.878 111.702 133.159 112.281C133.439 112.86 133.58 113.51 133.58 114.233C133.58 115.101 133.351 115.875 132.893 116.555C132.435 117.235 131.786 117.77 130.944 118.16C130.118 118.551 129.136 118.746 127.999 118.746ZM127.999 115.839C128.442 115.839 128.833 115.752 129.173 115.579C129.513 115.39 129.778 115.137 129.97 114.819C130.177 114.501 130.28 114.147 130.28 113.756C130.28 113.351 130.177 112.997 129.97 112.693C129.778 112.375 129.513 112.129 129.173 111.956C128.833 111.768 128.442 111.674 127.999 111.674C127.557 111.674 127.165 111.768 126.826 111.956C126.486 112.129 126.221 112.375 126.029 112.693C125.837 112.997 125.741 113.351 125.741 113.756C125.741 114.147 125.837 114.501 126.029 114.819C126.221 115.137 126.486 115.39 126.826 115.579C127.165 115.752 127.557 115.839 127.999 115.839ZM127.999 109.2C128.516 109.2 128.937 109.041 129.262 108.723C129.601 108.39 129.771 107.978 129.771 107.487C129.771 106.98 129.601 106.568 129.262 106.25C128.937 105.917 128.516 105.751 127.999 105.751C127.498 105.751 127.077 105.91 126.737 106.228C126.398 106.546 126.228 106.959 126.228 107.465C126.228 107.957 126.398 108.369 126.737 108.701C127.077 109.034 127.498 109.2 127.999 109.2Z" fill="#506081"/>
<path d="M139.836 118.746C138.758 118.746 137.747 118.565 136.802 118.204C135.872 117.827 135.097 117.292 134.477 116.598L136.735 114.407C137.016 114.812 137.422 115.145 137.953 115.405C138.5 115.651 139.09 115.774 139.725 115.774C140.286 115.774 140.773 115.68 141.186 115.492C141.6 115.289 141.924 115.007 142.161 114.646C142.397 114.27 142.515 113.836 142.515 113.344C142.515 112.838 142.397 112.404 142.161 112.042C141.924 111.681 141.592 111.406 141.164 111.218C140.751 111.015 140.278 110.914 139.747 110.914C139.215 110.914 138.728 110.987 138.285 111.131C137.843 111.261 137.437 111.464 137.068 111.739L137.355 109.569C137.695 109.309 138.02 109.099 138.33 108.94C138.64 108.767 138.979 108.636 139.348 108.55C139.717 108.463 140.153 108.419 140.655 108.419C141.806 108.419 142.773 108.651 143.556 109.114C144.353 109.576 144.951 110.191 145.349 110.958C145.763 111.724 145.969 112.57 145.969 113.496C145.969 114.508 145.711 115.412 145.194 116.208C144.692 117.003 143.984 117.625 143.068 118.073C142.153 118.522 141.076 118.746 139.836 118.746ZM137.068 111.739L135.562 110.372L136.315 103.191H139.459L138.64 110.307L137.068 111.739ZM136.78 106.076L136.315 103.191H145.106V106.076H136.78Z" fill="#506081"/>
<path d="M149.534 118.746C148.958 118.746 148.479 118.551 148.095 118.16C147.711 117.77 147.519 117.3 147.519 116.75C147.519 116.171 147.711 115.694 148.095 115.318C148.479 114.928 148.958 114.732 149.534 114.732C150.125 114.732 150.604 114.928 150.973 115.318C151.357 115.694 151.549 116.171 151.549 116.75C151.549 117.3 151.357 117.77 150.973 118.16C150.604 118.551 150.125 118.746 149.534 118.746Z" fill="#506081"/>
<path d="M158.476 118.746C157.398 118.746 156.387 118.565 155.442 118.204C154.512 117.827 153.737 117.292 153.117 116.598L155.376 114.407C155.656 114.812 156.062 115.145 156.593 115.405C157.14 115.651 157.73 115.774 158.365 115.774C158.926 115.774 159.413 115.68 159.826 115.492C160.24 115.289 160.564 115.007 160.801 114.646C161.037 114.27 161.155 113.836 161.155 113.344C161.155 112.838 161.037 112.404 160.801 112.042C160.564 111.681 160.232 111.406 159.804 111.218C159.391 111.015 158.918 110.914 158.387 110.914C157.856 110.914 157.368 110.987 156.926 111.131C156.483 111.261 156.077 111.464 155.708 111.739L155.996 109.569C156.335 109.309 156.66 109.099 156.97 108.94C157.28 108.767 157.619 108.636 157.988 108.55C158.358 108.463 158.793 108.419 159.295 108.419C160.446 108.419 161.413 108.651 162.196 109.114C162.993 109.576 163.591 110.191 163.989 110.958C164.403 111.724 164.609 112.57 164.609 113.496C164.609 114.508 164.351 115.412 163.834 116.208C163.332 117.003 162.624 117.625 161.709 118.073C160.793 118.522 159.716 118.746 158.476 118.746ZM155.708 111.739L154.202 110.372L154.955 103.191H158.099L157.28 110.307L155.708 111.739ZM155.42 106.076L154.955 103.191H163.746V106.076H155.42Z" fill="#506081"/>
<path d="M170.866 118.746C169.789 118.746 168.777 118.565 167.833 118.204C166.903 117.827 166.128 117.292 165.508 116.598L167.766 114.407C168.047 114.812 168.453 115.145 168.984 115.405C169.53 115.651 170.121 115.774 170.756 115.774C171.317 115.774 171.804 115.68 172.217 115.492C172.63 115.289 172.955 115.007 173.191 114.646C173.428 114.27 173.546 113.836 173.546 113.344C173.546 112.838 173.428 112.404 173.191 112.042C172.955 111.681 172.623 111.406 172.195 111.218C171.782 111.015 171.309 110.914 170.778 110.914C170.246 110.914 169.759 110.987 169.316 111.131C168.873 111.261 168.467 111.464 168.098 111.739L168.386 109.569C168.726 109.309 169.051 109.099 169.361 108.94C169.671 108.767 170.01 108.636 170.379 108.55C170.748 108.463 171.184 108.419 171.686 108.419C172.837 108.419 173.804 108.651 174.586 109.114C175.384 109.576 175.981 110.191 176.38 110.958C176.793 111.724 177 112.57 177 113.496C177 114.508 176.742 115.412 176.225 116.208C175.723 117.003 175.014 117.625 174.099 118.073C173.184 118.522 172.106 118.746 170.866 118.746ZM168.098 111.739L166.593 110.372L167.346 103.191H170.49L169.671 110.307L168.098 111.739ZM167.811 106.076L167.346 103.191H176.136V106.076H167.811Z" fill="#506081"/>
<path d="M218.05 106.969C218.064 106.706 218.124 106.458 218.231 106.225C218.345 105.984 218.5 105.777 218.694 105.602C218.889 105.419 219.12 105.273 219.388 105.164C219.663 105.055 219.972 105 220.314 105C220.656 105 220.961 105.055 221.23 105.164C221.505 105.266 221.736 105.408 221.924 105.591C222.118 105.766 222.266 105.97 222.367 106.203C222.474 106.429 222.528 106.666 222.528 106.914C222.528 107.162 222.481 107.377 222.387 107.559C222.3 107.734 222.202 107.88 222.095 107.997C221.974 108.128 221.833 108.241 221.672 108.336C221.86 108.431 222.028 108.555 222.175 108.708C222.303 108.839 222.417 109.014 222.517 109.233C222.625 109.452 222.678 109.718 222.678 110.031C222.678 110.294 222.625 110.545 222.517 110.786C222.417 111.019 222.266 111.227 222.065 111.409C221.87 111.584 221.629 111.727 221.34 111.836C221.052 111.945 220.727 112 220.364 112C220.002 112 219.677 111.945 219.388 111.836C219.1 111.727 218.855 111.581 218.654 111.398C218.453 111.216 218.295 111.005 218.181 110.764C218.074 110.516 218.013 110.254 218 109.977L219.459 109.867C219.486 110.057 219.57 110.224 219.71 110.37C219.858 110.509 220.059 110.578 220.314 110.578C220.596 110.578 220.807 110.505 220.948 110.359C221.096 110.214 221.169 110.031 221.169 109.812C221.169 109.623 221.092 109.459 220.938 109.32C220.79 109.174 220.566 109.102 220.264 109.102H219.66V107.789H220.264C220.545 107.789 220.75 107.727 220.878 107.603C221.005 107.479 221.069 107.322 221.069 107.133C221.069 106.943 220.998 106.779 220.857 106.641C220.717 106.495 220.519 106.422 220.264 106.422C220.036 106.422 219.858 106.484 219.731 106.608C219.61 106.732 219.536 106.889 219.509 107.078L218.05 106.969Z" fill="#FF4D4D"/>
<path d="M223.279 111.18C223.279 110.961 223.352 110.771 223.5 110.611C223.654 110.443 223.832 110.359 224.033 110.359C224.234 110.359 224.409 110.443 224.556 110.611C224.711 110.771 224.788 110.961 224.788 111.18C224.788 111.398 224.711 111.592 224.556 111.759C224.409 111.92 224.234 112 224.033 112C223.832 112 223.654 111.92 223.5 111.759C223.352 111.592 223.279 111.398 223.279 111.18Z" fill="#FF4D4D"/>
<path d="M227.957 107.242C228.259 107.242 228.54 107.304 228.802 107.428C229.063 107.545 229.291 107.713 229.486 107.931C229.687 108.143 229.842 108.391 229.949 108.675C230.063 108.959 230.12 109.266 230.12 109.594C230.12 109.936 230.063 110.254 229.949 110.545C229.835 110.837 229.674 111.092 229.466 111.311C229.258 111.522 229.006 111.69 228.711 111.814C228.423 111.938 228.104 112 227.755 112C227.427 112 227.128 111.945 226.86 111.836C226.592 111.727 226.357 111.584 226.156 111.409C225.961 111.227 225.804 111.019 225.683 110.786C225.562 110.545 225.482 110.294 225.441 110.031L226.9 109.922C226.934 110.046 226.987 110.155 227.061 110.25C227.122 110.33 227.209 110.407 227.323 110.48C227.437 110.545 227.581 110.578 227.755 110.578C228.01 110.578 228.225 110.483 228.399 110.294C228.574 110.104 228.661 109.871 228.661 109.594C228.661 109.317 228.574 109.083 228.399 108.894C228.225 108.704 228.01 108.609 227.755 108.609C227.588 108.609 227.45 108.639 227.343 108.697C227.236 108.755 227.148 108.817 227.081 108.883C227.008 108.963 226.947 109.054 226.9 109.156H225.592L225.995 105.055H229.667V106.586H227.212L227.101 107.516C227.175 107.465 227.256 107.421 227.343 107.384C227.417 107.348 227.504 107.315 227.605 107.286C227.712 107.257 227.829 107.242 227.957 107.242Z" fill="#FF4D4D"/>
<path d="M232.992 105C233.341 105 233.66 105.062 233.948 105.186C234.243 105.31 234.495 105.481 234.703 105.7C234.911 105.911 235.072 106.163 235.186 106.455C235.3 106.746 235.357 107.064 235.357 107.406C235.357 107.654 235.323 107.891 235.256 108.117C235.196 108.343 235.129 108.54 235.055 108.708C234.968 108.905 234.867 109.091 234.753 109.266L233.093 111.945H231.584L232.942 109.758C232.64 109.787 232.349 109.747 232.067 109.637C231.792 109.528 231.547 109.368 231.332 109.156C231.118 108.945 230.947 108.69 230.819 108.391C230.692 108.092 230.628 107.764 230.628 107.406C230.628 107.064 230.685 106.746 230.799 106.455C230.913 106.163 231.074 105.911 231.282 105.7C231.49 105.481 231.738 105.31 232.027 105.186C232.315 105.062 232.637 105 232.992 105ZM233.898 107.406C233.898 107.1 233.811 106.852 233.636 106.663C233.462 106.466 233.247 106.367 232.992 106.367C232.738 106.367 232.523 106.466 232.349 106.663C232.174 106.852 232.087 107.1 232.087 107.406C232.087 107.713 232.174 107.964 232.349 108.161C232.523 108.351 232.738 108.445 232.992 108.445C233.247 108.445 233.462 108.351 233.636 108.161C233.811 107.964 233.898 107.713 233.898 107.406Z" fill="#FF4D4D"/>
<path d="M240.038 110.469C240.038 110.636 240.092 110.779 240.199 110.895C240.306 111.012 240.437 111.07 240.591 111.07C240.746 111.07 240.876 111.012 240.984 110.895C241.091 110.779 241.145 110.636 241.145 110.469C241.145 110.301 241.091 110.159 240.984 110.042C240.876 109.926 240.746 109.867 240.591 109.867C240.437 109.867 240.306 109.926 240.199 110.042C240.092 110.159 240.038 110.301 240.038 110.469ZM242 110.469C242 110.688 241.963 110.892 241.889 111.081C241.822 111.264 241.725 111.424 241.598 111.562C241.47 111.701 241.319 111.81 241.145 111.891C240.977 111.964 240.793 112 240.591 112C240.39 112 240.202 111.964 240.028 111.891C239.86 111.81 239.713 111.701 239.585 111.562C239.458 111.424 239.357 111.264 239.283 111.081C239.216 110.892 239.183 110.688 239.183 110.469C239.183 110.25 239.216 110.049 239.283 109.867C239.357 109.678 239.458 109.514 239.585 109.375C239.713 109.236 239.86 109.131 240.028 109.058C240.202 108.978 240.39 108.938 240.591 108.938C240.793 108.938 240.977 108.978 241.145 109.058C241.319 109.131 241.47 109.236 241.598 109.375C241.725 109.514 241.822 109.678 241.889 109.867C241.963 110.049 242 110.25 242 110.469ZM237.925 106.531C237.925 106.364 237.872 106.221 237.764 106.105C237.657 105.988 237.526 105.93 237.372 105.93C237.218 105.93 237.087 105.988 236.979 106.105C236.872 106.221 236.818 106.364 236.818 106.531C236.818 106.699 236.872 106.841 236.979 106.958C237.087 107.074 237.218 107.133 237.372 107.133C237.526 107.133 237.657 107.074 237.764 106.958C237.872 106.841 237.925 106.699 237.925 106.531ZM235.963 106.531C235.963 106.313 235.997 106.112 236.064 105.93C236.138 105.74 236.238 105.576 236.366 105.438C236.493 105.299 236.641 105.193 236.808 105.12C236.983 105.04 237.171 105 237.372 105C237.573 105 237.758 105.04 237.925 105.12C238.1 105.193 238.251 105.299 238.378 105.438C238.505 105.576 238.603 105.74 238.67 105.93C238.744 106.112 238.78 106.313 238.78 106.531C238.78 106.75 238.744 106.954 238.67 107.144C238.603 107.326 238.505 107.486 238.378 107.625C238.251 107.764 238.1 107.873 237.925 107.953C237.758 108.026 237.573 108.062 237.372 108.062C237.171 108.062 236.983 108.026 236.808 107.953C236.641 107.873 236.493 107.764 236.366 107.625C236.238 107.486 236.138 107.326 236.064 107.144C235.997 106.954 235.963 106.75 235.963 106.531ZM237.623 111.945H236.466L240.34 105.055H241.497L237.623 111.945Z" fill="#FF4D4D"/>
<path d="M71.0533 141.875V142.953H67V137.047H68.172V141.875H71.0533Z" fill="#506081"/>
<path d="M73.5938 138.594C73.8478 138.594 74.0822 138.638 74.297 138.725C74.5119 138.806 74.6975 138.922 74.8538 139.072C75.01 139.222 75.1305 139.4 75.2151 139.606C75.3063 139.813 75.3519 140.037 75.3519 140.281V142.953H74.5217L74.3263 142.531C74.2222 142.619 74.1082 142.697 73.9845 142.766C73.8738 142.828 73.7403 142.884 73.5841 142.934C73.4278 142.978 73.252 143 73.0566 143C72.5683 143 72.1939 142.887 71.9334 142.662C71.673 142.431 71.5428 142.137 71.5428 141.781C71.5428 141.569 71.5851 141.375 71.6697 141.2C71.7609 141.019 71.9107 140.866 72.119 140.741C72.3274 140.609 72.6008 140.509 72.9394 140.441C73.2845 140.366 73.7143 140.328 74.2287 140.328C74.2287 140.091 74.1603 139.906 74.0236 139.775C73.8933 139.644 73.7175 139.578 73.4962 139.578C73.3464 139.578 73.2259 139.603 73.1348 139.653C73.0501 139.703 72.9818 139.756 72.9297 139.813C72.8711 139.881 72.832 139.959 72.8125 140.047H71.6893C71.7153 139.847 71.7739 139.659 71.8651 139.484C71.9627 139.309 72.093 139.156 72.2558 139.025C72.4185 138.894 72.6106 138.791 72.832 138.716C73.0599 138.634 73.3138 138.594 73.5938 138.594ZM73.252 142.156C73.545 142.156 73.7794 142.075 73.9552 141.912C74.1375 141.744 74.2287 141.528 74.2287 141.266V141.078C73.8966 141.078 73.6296 141.094 73.4278 141.125C73.2259 141.15 73.0664 141.191 72.9492 141.247C72.8385 141.297 72.7636 141.359 72.7246 141.434C72.6855 141.509 72.666 141.594 72.666 141.688C72.666 141.806 72.7213 141.916 72.832 142.016C72.9427 142.109 73.0827 142.156 73.252 142.156Z" fill="#506081"/>
<path d="M77.2038 141.594C77.2298 141.737 77.3014 141.859 77.4186 141.959C77.5358 142.059 77.6921 142.109 77.8875 142.109C78.0828 142.109 78.2358 142.062 78.3465 141.969C78.4637 141.869 78.5223 141.759 78.5223 141.641C78.5223 141.541 78.4637 141.463 78.3465 141.406C78.2358 141.35 78.0958 141.3 77.9265 141.256C77.7572 141.206 77.5717 141.156 77.3698 141.106C77.1745 141.056 76.9922 140.984 76.8229 140.891C76.6536 140.791 76.5103 140.666 76.3931 140.516C76.2824 140.359 76.2271 140.156 76.2271 139.906C76.2271 139.731 76.2629 139.566 76.3345 139.409C76.4126 139.247 76.5233 139.106 76.6666 138.988C76.8098 138.869 76.9791 138.775 77.1745 138.706C77.3698 138.631 77.5912 138.594 77.8386 138.594C78.3791 138.594 78.7925 138.719 79.079 138.969C79.372 139.219 79.5446 139.531 79.5967 139.906H78.5223C78.4963 139.813 78.4246 139.719 78.3074 139.625C78.1967 139.531 78.0567 139.484 77.8875 139.484C77.7182 139.484 77.5847 139.525 77.487 139.606C77.3959 139.688 77.3503 139.788 77.3503 139.906C77.3503 140.006 77.4056 140.084 77.5163 140.141C77.6335 140.197 77.7768 140.25 77.9461 140.3C78.1153 140.344 78.2977 140.394 78.493 140.45C78.6949 140.5 78.8804 140.575 79.0497 140.675C79.219 140.775 79.359 140.906 79.4697 141.069C79.5869 141.225 79.6455 141.431 79.6455 141.688C79.6455 141.863 79.6064 142.031 79.5283 142.194C79.4502 142.35 79.3395 142.488 79.1962 142.606C79.053 142.725 78.8772 142.822 78.6688 142.897C78.467 142.966 78.2391 143 77.9851 143C77.3991 143 76.9531 142.872 76.6471 142.616C76.3475 142.359 76.175 142.019 76.1294 141.594H77.2038Z" fill="#506081"/>
<path d="M80.9633 137.609H81.94V138.641H82.9167V139.625H81.94V141.406C81.94 141.594 81.9953 141.744 82.106 141.856C82.2232 141.963 82.3795 142.016 82.5748 142.016C82.6269 142.016 82.6692 142.016 82.7018 142.016C82.7343 142.009 82.7636 142.003 82.7897 141.997C82.8157 141.991 82.8418 141.981 82.8678 141.969V142.906C82.8222 142.925 82.7702 142.941 82.7116 142.953C82.6009 142.984 82.4739 143 82.3306 143C82.1093 143 81.9042 142.966 81.7153 142.897C81.533 142.822 81.3735 142.716 81.2367 142.578C81.1065 142.441 81.0023 142.278 80.9242 142.091C80.8526 141.903 80.8168 141.691 80.8168 141.453V139.625H80.1331V138.734H80.4261C80.7842 138.734 80.9633 138.563 80.9633 138.219V137.609Z" fill="#506081"/>
<path d="M89.9912 141.875V142.953H85.8891V142.156L88.1355 139.906C88.2592 139.788 88.3731 139.666 88.4773 139.541C88.562 139.434 88.6401 139.316 88.7117 139.184C88.7833 139.047 88.8192 138.913 88.8192 138.781C88.8192 138.544 88.7443 138.359 88.5945 138.228C88.4513 138.097 88.2331 138.031 87.9401 138.031C87.6471 138.031 87.4192 138.106 87.2565 138.256C87.0937 138.406 87.0123 138.612 87.0123 138.875H85.8402C85.8402 138.606 85.8891 138.359 85.9868 138.134C86.0909 137.903 86.2342 137.703 86.4165 137.534C86.5988 137.366 86.8169 137.234 87.0709 137.141C87.3313 137.047 87.6211 137 87.9401 137C88.2722 137 88.5652 137.044 88.8192 137.131C89.0796 137.219 89.301 137.341 89.4833 137.497C89.6656 137.653 89.8024 137.838 89.8935 138.05C89.9912 138.263 90.04 138.491 90.04 138.734C90.04 138.959 89.9814 139.181 89.8642 139.4C89.747 139.613 89.6168 139.806 89.4735 139.981C89.3043 140.188 89.1187 140.381 88.9168 140.562L87.5983 141.875H89.9912Z" fill="#506081"/>
<path d="M95.1665 141.875H94.5317V142.953H93.3596V141.875H90.6249V140.891L93.1643 137.047H94.5317V140.797H95.1665V141.875ZM93.3596 140.797V138.594L91.8946 140.797H93.3596Z" fill="#506081"/>
<path d="M98.2908 138.594C98.5317 138.594 98.7563 138.638 98.9647 138.725C99.1796 138.806 99.3619 138.928 99.5117 139.091C99.6614 139.247 99.7786 139.438 99.8633 139.662C99.9544 139.887 100 140.141 100 140.422V142.953H98.8768V140.562C98.8768 140.281 98.7889 140.056 98.6131 139.887C98.4438 139.712 98.2224 139.625 97.9489 139.625C97.6755 139.625 97.4508 139.712 97.275 139.887C97.1057 140.056 97.0211 140.281 97.0211 140.562V142.953H95.8979V137.047H97.0211V139.063C97.1057 138.975 97.2067 138.897 97.3239 138.828C97.428 138.772 97.5583 138.719 97.7145 138.669C97.8773 138.619 98.0694 138.594 98.2908 138.594Z" fill="#506081"/>
<path d="M111.579 142.954H110.935L109 137H109.943L111.284 141.112L112.571 137H113.166L114.453 141.112L115.788 137H116.732L114.801 142.954H114.153L112.866 138.985L111.579 142.954Z" fill="#9A9BA2"/>
<path d="M121.289 141.726C121.215 141.902 121.122 142.066 121.009 142.22C120.896 142.374 120.76 142.509 120.602 142.626C120.444 142.743 120.26 142.835 120.051 142.903C119.844 142.968 119.612 143 119.354 143C119.057 143 118.78 142.948 118.522 142.843C118.264 142.735 118.038 142.586 117.845 142.395C117.651 142.202 117.499 141.972 117.39 141.708C117.28 141.443 117.225 141.149 117.225 140.826C117.225 140.506 117.28 140.214 117.39 139.949C117.499 139.685 117.648 139.457 117.835 139.266C118.022 139.072 118.243 138.922 118.498 138.814C118.753 138.706 119.022 138.652 119.306 138.652C119.59 138.652 119.859 138.706 120.114 138.814C120.369 138.922 120.589 139.072 120.777 139.266C120.964 139.457 121.112 139.685 121.222 139.949C121.331 140.214 121.386 140.506 121.386 140.826C121.386 140.875 121.383 140.925 121.377 140.974C121.37 141.02 121.364 141.06 121.357 141.094C121.351 141.137 121.344 141.174 121.338 141.205H118.164C118.177 141.337 118.217 141.463 118.285 141.583C118.353 141.703 118.436 141.809 118.536 141.902C118.64 141.991 118.762 142.063 118.904 142.118C119.046 142.171 119.196 142.197 119.354 142.197C119.625 142.197 119.84 142.142 119.998 142.031C120.159 141.92 120.275 141.818 120.346 141.726H121.289ZM119.306 139.455C119.009 139.455 118.757 139.552 118.551 139.746C118.348 139.937 118.219 140.188 118.164 140.498H120.544C120.493 140.191 120.36 139.94 120.148 139.746C119.938 139.552 119.657 139.455 119.306 139.455Z" fill="#9A9BA2"/>
<path d="M126.196 141.726C126.121 141.902 126.028 142.066 125.915 142.22C125.802 142.374 125.667 142.509 125.508 142.626C125.35 142.743 125.167 142.835 124.957 142.903C124.75 142.968 124.518 143 124.26 143C123.963 143 123.686 142.948 123.428 142.843C123.17 142.735 122.944 142.586 122.751 142.395C122.557 142.202 122.405 141.972 122.296 141.708C122.186 141.443 122.131 141.149 122.131 140.826C122.131 140.506 122.186 140.214 122.296 139.949C122.405 139.685 122.554 139.457 122.741 139.266C122.928 139.072 123.149 138.922 123.404 138.814C123.659 138.706 123.928 138.652 124.212 138.652C124.496 138.652 124.765 138.706 125.02 138.814C125.275 138.922 125.496 139.072 125.683 139.266C125.87 139.457 126.018 139.685 126.128 139.949C126.237 140.214 126.292 140.506 126.292 140.826C126.292 140.875 126.289 140.925 126.283 140.974C126.276 141.02 126.27 141.06 126.263 141.094C126.257 141.137 126.25 141.174 126.244 141.205H123.07C123.083 141.337 123.123 141.463 123.191 141.583C123.259 141.703 123.342 141.809 123.442 141.902C123.546 141.991 123.668 142.063 123.81 142.118C123.952 142.171 124.102 142.197 124.26 142.197C124.531 142.197 124.746 142.142 124.904 142.031C125.065 141.92 125.181 141.818 125.252 141.726H126.196ZM124.212 139.455C123.915 139.455 123.663 139.552 123.457 139.746C123.254 139.937 123.125 140.188 123.07 140.498H125.45C125.399 140.191 125.267 139.94 125.054 139.746C124.844 139.552 124.563 139.455 124.212 139.455Z" fill="#9A9BA2"/>
<path d="M129.911 142.954L128.174 140.923V142.954H127.284V137H128.174V140.545L129.713 138.698H130.753L129.021 140.683L131 142.954H129.911Z" fill="#9A9BA2"/>
<path d="M155.125 137V142.954H154.169V139.266L152.364 142.954H151.761L149.951 139.266V142.954H149V137H149.799L152.06 141.583L154.321 137H155.125Z" fill="#9A9BA2"/>
<path d="M159.641 140.826C159.641 140.623 159.605 140.438 159.534 140.272C159.465 140.106 159.373 139.962 159.259 139.838C159.145 139.715 159.01 139.622 158.857 139.557C158.703 139.489 158.546 139.455 158.386 139.455C158.226 139.455 158.069 139.489 157.915 139.557C157.762 139.622 157.628 139.715 157.513 139.838C157.399 139.962 157.306 140.108 157.234 140.277C157.165 140.443 157.131 140.626 157.131 140.826C157.131 141.029 157.165 141.214 157.234 141.38C157.306 141.546 157.399 141.691 157.513 141.814C157.628 141.937 157.762 142.032 157.915 142.1C158.069 142.165 158.226 142.197 158.386 142.197C158.546 142.197 158.703 142.165 158.857 142.1C159.01 142.032 159.145 141.937 159.259 141.814C159.373 141.691 159.465 141.546 159.534 141.38C159.605 141.214 159.641 141.029 159.641 140.826ZM160.544 140.826C160.544 141.146 160.488 141.44 160.377 141.708C160.269 141.972 160.115 142.202 159.916 142.395C159.72 142.586 159.491 142.735 159.23 142.843C158.968 142.948 158.687 143 158.386 143C158.085 143 157.804 142.948 157.543 142.843C157.281 142.735 157.051 142.586 156.851 142.395C156.655 142.202 156.501 141.972 156.39 141.708C156.282 141.443 156.228 141.149 156.228 140.826C156.228 140.506 156.282 140.214 156.39 139.949C156.501 139.685 156.655 139.457 156.851 139.266C157.051 139.072 157.281 138.922 157.543 138.814C157.804 138.706 158.085 138.652 158.386 138.652C158.687 138.652 158.968 138.706 159.23 138.814C159.491 138.922 159.72 139.072 159.916 139.266C160.115 139.457 160.269 139.685 160.377 139.949C160.488 140.214 160.544 140.506 160.544 140.826Z" fill="#9A9BA2"/>
<path d="M163.658 138.652C163.906 138.652 164.14 138.698 164.359 138.791C164.581 138.883 164.774 139.009 164.938 139.169C165.101 139.329 165.23 139.523 165.325 139.751C165.42 139.975 165.467 140.225 165.467 140.498V142.954H164.565V140.498C164.565 140.36 164.536 140.228 164.477 140.102C164.421 139.975 164.344 139.865 164.246 139.769C164.148 139.674 164.035 139.598 163.908 139.543C163.78 139.485 163.646 139.455 163.506 139.455C163.352 139.455 163.208 139.485 163.074 139.543C162.94 139.598 162.822 139.674 162.721 139.769C162.623 139.865 162.545 139.975 162.486 140.102C162.43 140.225 162.402 140.357 162.402 140.498V142.954H161.5V138.698H162.152L162.353 139.128C162.442 139.038 162.545 138.958 162.662 138.888C162.77 138.832 162.906 138.78 163.069 138.731C163.233 138.678 163.429 138.652 163.658 138.652Z" fill="#9A9BA2"/>
<path d="M167.924 141.537C167.924 141.725 167.991 141.882 168.125 142.008C168.259 142.134 168.426 142.197 168.625 142.197C168.658 142.197 168.692 142.195 168.728 142.192C168.768 142.189 168.804 142.185 168.836 142.178C168.869 142.172 168.9 142.163 168.929 142.151V142.908C168.89 142.926 168.843 142.942 168.787 142.954C168.686 142.985 168.566 143 168.429 143C168.23 143 168.043 142.966 167.87 142.898C167.7 142.828 167.551 142.729 167.424 142.603C167.296 142.477 167.197 142.325 167.125 142.146C167.056 141.968 167.022 141.765 167.022 141.537V139.502H166.218V138.698H166.571C166.744 138.698 166.888 138.646 167.002 138.542C167.117 138.434 167.174 138.298 167.174 138.135V137.568H167.924V138.698H168.929V139.502H167.924V141.537Z" fill="#9A9BA2"/>
<path d="M172.19 138.652C172.439 138.652 172.673 138.698 172.892 138.791C173.114 138.883 173.307 139.009 173.47 139.169C173.637 139.329 173.766 139.523 173.858 139.751C173.953 139.975 174 140.225 174 140.498V142.954H173.098V140.498C173.098 140.36 173.068 140.228 173.009 140.102C172.954 139.975 172.877 139.865 172.779 139.769C172.684 139.674 172.573 139.598 172.445 139.543C172.318 139.485 172.184 139.455 172.043 139.455C171.89 139.455 171.746 139.485 171.612 139.543C171.478 139.598 171.36 139.674 171.259 139.769C171.157 139.865 171.077 139.975 171.018 140.102C170.963 140.225 170.935 140.357 170.935 140.498V142.954H170.033V137H170.935V139.128C171.03 139.038 171.138 138.958 171.259 138.888C171.367 138.832 171.499 138.78 171.656 138.731C171.813 138.678 171.991 138.652 172.19 138.652Z" fill="#9A9BA2"/>
<path d="M226.478 139.691L227.916 137H228.908L226.929 140.637V142.954H225.985V140.637L224 137H224.992L226.43 139.691H226.478Z" fill="#9A9BA2"/>
<path d="M233.071 141.726C232.997 141.902 232.903 142.066 232.79 142.22C232.677 142.374 232.542 142.509 232.384 142.626C232.226 142.743 232.042 142.835 231.832 142.903C231.625 142.968 231.393 143 231.135 143C230.838 143 230.561 142.948 230.302 142.843C230.044 142.735 229.818 142.586 229.625 142.395C229.431 142.202 229.279 141.972 229.17 141.708C229.06 141.443 229.005 141.149 229.005 140.826C229.005 140.506 229.06 140.214 229.17 139.949C229.279 139.685 229.428 139.457 229.615 139.266C229.802 139.072 230.023 138.922 230.278 138.814C230.533 138.706 230.803 138.652 231.087 138.652C231.371 138.652 231.64 138.706 231.895 138.814C232.15 138.922 232.371 139.072 232.558 139.266C232.745 139.457 232.894 139.685 233.003 139.949C233.113 140.214 233.168 140.506 233.168 140.826C233.168 140.875 233.165 140.925 233.158 140.974C233.152 141.02 233.145 141.06 233.139 141.094C233.132 141.137 233.126 141.174 233.12 141.205H229.944C229.957 141.337 229.997 141.463 230.065 141.583C230.133 141.703 230.217 141.809 230.317 141.902C230.42 141.991 230.543 142.063 230.685 142.118C230.827 142.171 230.977 142.197 231.135 142.197C231.406 142.197 231.621 142.142 231.779 142.031C231.94 141.92 232.056 141.818 232.127 141.726H233.071ZM231.087 139.455C230.79 139.455 230.538 139.552 230.331 139.746C230.128 139.937 229.999 140.188 229.944 140.498H232.326C232.274 140.191 232.142 139.94 231.929 139.746C231.719 139.552 231.438 139.455 231.087 139.455Z" fill="#9A9BA2"/>
<path d="M235.845 138.652C236.103 138.652 236.339 138.692 236.552 138.772C236.768 138.849 236.952 138.955 237.103 139.091C237.255 139.226 237.373 139.386 237.457 139.571C237.541 139.752 237.583 139.951 237.583 140.166V142.954H236.939L236.74 142.529C236.653 142.618 236.55 142.697 236.431 142.765C236.324 142.826 236.19 142.882 236.029 142.931C235.867 142.977 235.674 143 235.448 143C234.951 143 234.57 142.883 234.306 142.649C234.044 142.412 233.913 142.105 233.913 141.726C233.913 141.511 233.955 141.317 234.039 141.145C234.126 140.969 234.273 140.822 234.48 140.702C234.69 140.578 234.972 140.483 235.327 140.415C235.685 140.345 236.138 140.309 236.687 140.309V140.166C236.687 139.951 236.616 139.778 236.474 139.649C236.332 139.52 236.122 139.455 235.845 139.455C235.548 139.455 235.332 139.506 235.196 139.608C235.061 139.709 234.98 139.832 234.954 139.977H234.063C234.089 139.598 234.256 139.283 234.562 139.031C234.869 138.778 235.296 138.652 235.845 138.652ZM235.501 142.243C235.879 142.243 236.171 142.151 236.377 141.966C236.584 141.782 236.687 141.557 236.687 141.292V141.062C236.29 141.062 235.969 141.08 235.724 141.117C235.482 141.151 235.291 141.198 235.153 141.26C235.014 141.318 234.92 141.392 234.872 141.482C234.827 141.568 234.804 141.665 234.804 141.772C234.804 141.892 234.864 142.002 234.983 142.1C235.103 142.195 235.275 142.243 235.501 142.243Z" fill="#9A9BA2"/>
<path d="M240.7 138.652C240.752 138.652 240.793 138.655 240.826 138.662C240.861 138.668 240.894 138.674 240.923 138.68C240.948 138.686 240.974 138.692 241 138.698V139.552C240.974 139.546 240.944 139.54 240.908 139.534C240.876 139.528 240.842 139.522 240.806 139.515C240.771 139.506 240.735 139.502 240.7 139.502C240.548 139.502 240.406 139.531 240.274 139.589C240.142 139.645 240.025 139.72 239.925 139.815C239.829 139.911 239.751 140.022 239.693 140.148C239.638 140.274 239.611 140.406 239.611 140.545V142.954H238.72V138.698H239.364L239.562 139.128C239.643 139.038 239.738 138.958 239.848 138.888C239.942 138.832 240.059 138.78 240.201 138.731C240.343 138.678 240.509 138.652 240.7 138.652Z" fill="#9A9BA2"/>
<path d="M185.165 143C184.858 143 184.573 142.949 184.311 142.848C184.048 142.743 183.819 142.598 183.624 142.414C183.432 142.226 183.28 142.009 183.168 141.763C183.056 141.517 183 141.252 183 140.969C183 140.794 183.03 140.618 183.091 140.443C183.155 140.265 183.224 140.106 183.298 139.968C183.384 139.805 183.482 139.649 183.591 139.502L185.314 137H186.346L184.968 138.985C185.001 138.978 185.041 138.972 185.089 138.966C185.121 138.96 185.161 138.954 185.209 138.948C185.26 138.942 185.311 138.938 185.362 138.938C185.618 138.938 185.865 138.991 186.102 139.095C186.342 139.197 186.551 139.342 186.731 139.529C186.913 139.714 187.059 139.929 187.167 140.175C187.276 140.422 187.331 140.686 187.331 140.969C187.331 141.252 187.275 141.517 187.163 141.763C187.051 142.009 186.897 142.226 186.702 142.414C186.51 142.598 186.282 142.743 186.02 142.848C185.757 142.949 185.473 143 185.165 143ZM183.936 140.969C183.936 141.145 183.967 141.309 184.027 141.463C184.091 141.614 184.179 141.743 184.292 141.851C184.404 141.955 184.535 142.04 184.685 142.105C184.836 142.166 184.996 142.197 185.165 142.197C185.335 142.197 185.495 142.166 185.645 142.105C185.796 142.04 185.927 141.955 186.039 141.851C186.151 141.743 186.238 141.614 186.298 141.463C186.362 141.309 186.394 141.145 186.394 140.969C186.394 140.794 186.362 140.631 186.298 140.48C186.238 140.326 186.151 140.197 186.039 140.092C185.927 139.985 185.796 139.9 185.645 139.838C185.495 139.774 185.335 139.742 185.165 139.742C184.996 139.742 184.836 139.774 184.685 139.838C184.535 139.9 184.404 139.985 184.292 140.092C184.179 140.197 184.091 140.326 184.027 140.48C183.967 140.631 183.936 140.794 183.936 140.969Z" fill="#9A9BA2"/>
<path d="M196.52 137V142.954H195.584V139.266L193.817 142.954H193.227L191.455 139.266V142.954H190.523V137H191.306L193.519 141.583L195.733 137H196.52Z" fill="#9A9BA2"/>
<path d="M200.942 140.826C200.942 140.623 200.907 140.438 200.836 140.272C200.769 140.106 200.68 139.962 200.568 139.838C200.456 139.715 200.324 139.622 200.174 139.557C200.023 139.489 199.87 139.455 199.713 139.455C199.556 139.455 199.403 139.489 199.252 139.557C199.102 139.622 198.97 139.715 198.858 139.838C198.746 139.962 198.655 140.108 198.585 140.277C198.517 140.443 198.484 140.626 198.484 140.826C198.484 141.029 198.517 141.214 198.585 141.38C198.655 141.546 198.746 141.691 198.858 141.814C198.97 141.937 199.102 142.032 199.252 142.1C199.403 142.165 199.556 142.197 199.713 142.197C199.87 142.197 200.023 142.165 200.174 142.1C200.324 142.032 200.456 141.937 200.568 141.814C200.68 141.691 200.769 141.546 200.836 141.38C200.907 141.214 200.942 141.029 200.942 140.826ZM201.826 140.826C201.826 141.146 201.771 141.44 201.662 141.708C201.557 141.972 201.406 142.202 201.211 142.395C201.019 142.586 200.795 142.735 200.539 142.843C200.283 142.948 200.007 143 199.713 143C199.419 143 199.143 142.948 198.887 142.843C198.631 142.735 198.405 142.586 198.21 142.395C198.018 142.202 197.868 141.972 197.759 141.708C197.653 141.443 197.6 141.149 197.6 140.826C197.6 140.506 197.653 140.214 197.759 139.949C197.868 139.685 198.018 139.457 198.21 139.266C198.405 139.072 198.631 138.922 198.887 138.814C199.143 138.706 199.419 138.652 199.713 138.652C200.007 138.652 200.283 138.706 200.539 138.814C200.795 138.922 201.019 139.072 201.211 139.266C201.406 139.457 201.557 139.685 201.662 139.949C201.771 140.214 201.826 140.506 201.826 140.826Z" fill="#9A9BA2"/>
<path d="M204.874 138.652C205.118 138.652 205.346 138.698 205.561 138.791C205.778 138.883 205.967 139.009 206.127 139.169C206.287 139.329 206.414 139.523 206.507 139.751C206.6 139.975 206.646 140.225 206.646 140.498V142.954H205.762V140.498C205.762 140.36 205.734 140.228 205.676 140.102C205.622 139.975 205.546 139.865 205.45 139.769C205.354 139.674 205.244 139.598 205.119 139.543C204.994 139.485 204.863 139.455 204.725 139.455C204.575 139.455 204.434 139.485 204.303 139.543C204.172 139.598 204.056 139.674 203.957 139.769C203.861 139.865 203.784 139.975 203.727 140.102C203.672 140.225 203.645 140.357 203.645 140.498V142.954H202.762V138.698H203.4L203.597 139.128C203.684 139.038 203.784 138.958 203.9 138.888C204.005 138.832 204.138 138.78 204.298 138.731C204.458 138.678 204.65 138.652 204.874 138.652Z" fill="#9A9BA2"/>
<path d="M209.051 141.537C209.051 141.725 209.117 141.882 209.248 142.008C209.379 142.134 209.543 142.197 209.738 142.197C209.77 142.197 209.804 142.195 209.839 142.192C209.877 142.189 209.912 142.185 209.944 142.178C209.976 142.172 210.007 142.163 210.036 142.151V142.908C209.997 142.926 209.951 142.942 209.896 142.954C209.797 142.985 209.68 143 209.546 143C209.351 143 209.168 142.966 208.999 142.898C208.832 142.828 208.686 142.729 208.562 142.603C208.437 142.477 208.339 142.325 208.269 142.146C208.202 141.968 208.168 141.765 208.168 141.537V139.502H207.38V138.698H207.726C207.896 138.698 208.037 138.646 208.149 138.542C208.261 138.434 208.317 138.298 208.317 138.135V137.568H209.051V138.698H210.036V139.502H209.051V141.537Z" fill="#9A9BA2"/>
<path d="M213.228 138.652C213.472 138.652 213.7 138.698 213.915 138.791C214.133 138.883 214.321 139.009 214.481 139.169C214.645 139.329 214.771 139.523 214.861 139.751C214.954 139.975 215 140.225 215 140.498V142.954H214.117V140.498C214.117 140.36 214.088 140.228 214.03 140.102C213.976 139.975 213.901 139.865 213.805 139.769C213.712 139.674 213.603 139.598 213.478 139.543C213.353 139.485 213.222 139.455 213.084 139.455C212.934 139.455 212.793 139.485 212.662 139.543C212.531 139.598 212.415 139.674 212.316 139.769C212.217 139.865 212.138 139.975 212.081 140.102C212.026 140.225 211.999 140.357 211.999 140.498V142.954H211.116V137H211.999V139.128C212.092 139.038 212.198 138.958 212.316 138.888C212.422 138.832 212.551 138.78 212.705 138.731C212.859 138.678 213.033 138.652 213.228 138.652Z" fill="#9A9BA2"/>
<path d="M67 183C67 181.895 67.8793 181 68.964 181H256.036C257.121 181 258 181.895 258 183C258 184.105 257.121 185 256.036 185H68.964C67.8793 185 67 184.105 67 183Z" fill="#DBDDE6"/>
<path d="M67 183C67 181.895 67.8799 181 68.9653 181H150.035C151.12 181 152 181.895 152 183C152 184.105 151.12 185 150.035 185H68.9653C67.8799 185 67 184.105 67 183Z" fill="#D2A37C"/>
<path d="M71.4971 171.626V172.896H67V165.939H68.3004V171.626H71.4971Z" fill="#506081" fill-opacity="0.62"/>
<path d="M73.1264 170.356C73.1264 170.775 73.2456 171.11 73.484 171.361C73.7224 171.611 74.0186 171.736 74.3726 171.736C74.7266 171.736 75.0228 171.611 75.2612 171.361C75.4996 171.11 75.6188 170.775 75.6188 170.356C75.6188 169.936 75.4996 169.601 75.2612 169.351C75.0228 169.101 74.7266 168.975 74.3726 168.975C74.0186 168.975 73.7224 169.101 73.484 169.351C73.2456 169.601 73.1264 169.936 73.1264 170.356ZM76.865 170.356C76.865 170.717 76.7964 171.055 76.6591 171.372C76.5291 171.681 76.3485 171.953 76.1173 172.189C75.8933 172.425 75.6296 172.612 75.3262 172.752C75.03 172.885 74.7121 172.951 74.3726 172.951C74.0331 172.951 73.7116 172.885 73.4082 172.752C73.112 172.612 72.8483 172.425 72.6171 172.189C72.3931 171.953 72.2125 171.681 72.0753 171.372C71.9452 171.055 71.8802 170.717 71.8802 170.356C71.8802 169.995 71.9452 169.66 72.0753 169.351C72.2125 169.034 72.3931 168.758 72.6171 168.523C72.8483 168.287 73.112 168.103 73.4082 167.971C73.7116 167.831 74.0331 167.761 74.3726 167.761C74.7121 167.761 75.03 167.831 75.3262 167.971C75.6296 168.103 75.8933 168.287 76.1173 168.523C76.3485 168.758 76.5291 169.034 76.6591 169.351C76.7964 169.66 76.865 169.995 76.865 170.356Z" fill="#506081" fill-opacity="0.62"/>
<path d="M80.8694 169.859L79.9483 172.896H78.8647L77.2392 167.816H78.4854L79.4607 171.074L80.4901 167.816H81.2487L82.2781 171.074L83.2534 167.816H84.4996L82.8741 172.896H81.7905L80.8694 169.859Z" fill="#506081" fill-opacity="0.62"/>
<path d="M86.3384 172.233C86.3384 172.425 86.2662 172.594 86.1217 172.741C85.9844 172.881 85.8219 172.951 85.6341 172.951C85.4462 172.951 85.2801 172.881 85.1356 172.741C84.9983 172.594 84.9297 172.425 84.9297 172.233C84.9297 172.042 84.9983 171.876 85.1356 171.736C85.2801 171.589 85.4462 171.515 85.6341 171.515C85.8219 171.515 85.9844 171.589 86.1217 171.736C86.2662 171.876 86.3384 172.042 86.3384 172.233ZM86.3384 168.534C86.3384 168.725 86.2662 168.894 86.1217 169.042C85.9844 169.182 85.8219 169.252 85.6341 169.252C85.4462 169.252 85.2801 169.182 85.1356 169.042C84.9983 168.894 84.9297 168.725 84.9297 168.534C84.9297 168.342 84.9983 168.177 85.1356 168.037C85.2801 167.89 85.4462 167.816 85.6341 167.816C85.8219 167.816 85.9844 167.89 86.1217 168.037C86.2662 168.177 86.3384 168.342 86.3384 168.534Z" fill="#506081" fill-opacity="0.62"/>
<path d="M91.4295 172.896C91.1549 172.852 90.9021 172.771 90.6709 172.653C90.4397 172.528 90.2411 172.373 90.0749 172.189C89.9087 171.998 89.7751 171.777 89.6739 171.526C89.58 171.269 89.5331 170.989 89.5331 170.687H90.8334C90.8334 170.996 90.9346 171.25 91.1369 171.449C91.3391 171.64 91.6173 171.736 91.9713 171.736C92.3542 171.736 92.6395 171.655 92.8274 171.493C93.0152 171.324 93.1091 171.129 93.1091 170.908C93.1091 170.694 93.0224 170.529 92.849 170.411C92.6756 170.293 92.4589 170.19 92.1988 170.102C91.9388 170.006 91.6534 169.914 91.3428 169.826C91.0393 169.737 90.7576 169.616 90.4975 169.461C90.2374 169.307 90.0207 169.108 89.8473 168.865C89.6739 168.615 89.5873 168.287 89.5873 167.882C89.5873 167.632 89.6306 167.4 89.7173 167.187C89.8112 166.966 89.9376 166.771 90.0966 166.601C90.2627 166.425 90.4578 166.281 90.6817 166.171C90.9057 166.06 91.1549 165.983 91.4295 165.939V165H92.6215V165.939C92.8526 166.005 93.0658 166.101 93.2608 166.226C93.4631 166.351 93.6365 166.506 93.781 166.69C93.9254 166.866 94.0374 167.072 94.1169 167.308C94.2036 167.544 94.2469 167.805 94.2469 168.092H93.0007C93.0007 167.783 92.9104 167.54 92.7298 167.363C92.5492 167.187 92.2964 167.098 91.9713 167.098C91.6462 167.098 91.3933 167.179 91.2127 167.341C91.0321 167.503 90.9418 167.68 90.9418 167.871C90.9418 168.077 91.0285 168.236 91.2019 168.346C91.3753 168.456 91.592 168.556 91.8521 168.644C92.1121 168.733 92.3939 168.825 92.6973 168.92C93.008 169.016 93.2933 169.145 93.5534 169.307C93.8135 169.469 94.0302 169.682 94.2036 169.947C94.377 170.205 94.4637 170.544 94.4637 170.963C94.4637 171.184 94.4167 171.401 94.3228 171.615C94.2289 171.821 94.0988 172.012 93.9327 172.189C93.7665 172.358 93.5715 172.506 93.3475 172.631C93.1236 172.756 92.8815 172.844 92.6215 172.896V173.834H91.4295V172.896Z" fill="#506081" fill-opacity="0.62"/>
<path d="M95.163 167.871C95.1774 167.606 95.2424 167.356 95.358 167.12C95.4736 166.877 95.6325 166.667 95.8348 166.491C96.0443 166.307 96.2863 166.16 96.5609 166.049C96.8426 165.939 97.1532 165.883 97.4928 165.883C97.8323 165.883 98.1394 165.939 98.4139 166.049C98.6956 166.152 98.9377 166.296 99.1399 166.48C99.3422 166.656 99.4975 166.863 99.6059 167.098C99.7143 167.326 99.7684 167.566 99.7684 167.816C99.7684 168.066 99.7215 168.283 99.6276 168.467C99.5409 168.644 99.4434 168.791 99.335 168.909C99.205 169.042 99.0605 169.156 98.9015 169.252C99.0894 169.347 99.2591 169.472 99.4108 169.627C99.5409 169.76 99.6601 169.936 99.7684 170.157C99.8768 170.378 99.931 170.647 99.931 170.963C99.931 171.213 99.8732 171.456 99.7576 171.692C99.642 171.928 99.4795 172.141 99.27 172.333C99.0605 172.517 98.8076 172.667 98.5114 172.785C98.2224 172.896 97.901 172.951 97.547 172.951C97.1641 172.951 96.8245 172.899 96.5283 172.796C96.2321 172.693 95.9793 172.55 95.7698 172.366C95.5675 172.182 95.4086 171.964 95.293 171.714C95.1846 171.464 95.1232 171.195 95.1088 170.908H96.4091C96.4236 171.004 96.4597 171.103 96.5175 171.206C96.5753 171.302 96.6512 171.39 96.7451 171.471C96.839 171.545 96.9474 171.607 97.0702 171.659C97.2002 171.71 97.3411 171.736 97.4928 171.736C97.8179 171.736 98.078 171.644 98.273 171.46C98.4753 171.269 98.5764 171.048 98.5764 170.798C98.5764 170.547 98.4825 170.337 98.2947 170.168C98.1141 169.999 97.8468 169.914 97.4928 169.914H96.8968V168.81H97.4386C97.7926 168.81 98.0527 168.736 98.2188 168.589C98.385 168.434 98.4681 168.232 98.4681 167.982C98.4681 167.731 98.3814 167.521 98.208 167.352C98.0346 167.183 97.7962 167.098 97.4928 167.098C97.1894 167.098 96.9474 167.179 96.7667 167.341C96.5934 167.503 96.4922 167.68 96.4633 167.871H95.163Z" fill="#506081" fill-opacity="0.62"/>
<path d="M103.288 168.147C103.627 168.147 103.938 168.206 104.22 168.324C104.509 168.442 104.754 168.607 104.957 168.821C105.166 169.027 105.329 169.277 105.444 169.572C105.56 169.859 105.618 170.175 105.618 170.521C105.618 170.867 105.556 171.188 105.433 171.482C105.311 171.777 105.137 172.034 104.913 172.255C104.696 172.469 104.436 172.638 104.133 172.763C103.83 172.888 103.494 172.951 103.125 172.951C102.786 172.951 102.475 172.896 102.193 172.785C101.912 172.675 101.666 172.531 101.456 172.355C101.254 172.171 101.092 171.961 100.969 171.725C100.846 171.482 100.77 171.228 100.741 170.963H102.042C102.056 171.044 102.092 171.133 102.15 171.228C102.208 171.317 102.284 171.401 102.377 171.482C102.471 171.556 102.58 171.618 102.703 171.67C102.833 171.714 102.974 171.736 103.125 171.736C103.479 171.736 103.765 171.626 103.981 171.405C104.205 171.177 104.317 170.882 104.317 170.521C104.317 170.161 104.205 169.87 103.981 169.649C103.765 169.421 103.479 169.307 103.125 169.307C102.93 169.307 102.764 169.347 102.627 169.428C102.489 169.502 102.377 169.583 102.291 169.671C102.19 169.774 102.107 169.892 102.042 170.025H100.904L101.337 165.939H105.13V167.209H102.421L102.258 168.479C102.352 168.42 102.457 168.364 102.573 168.313C102.666 168.276 102.775 168.239 102.898 168.202C103.02 168.166 103.15 168.147 103.288 168.147Z" fill="#506081" fill-opacity="0.62"/>
<path d="M107.021 171.515C107.209 171.515 107.372 171.589 107.509 171.736C107.653 171.883 107.726 172.067 107.726 172.288C107.726 172.612 107.675 172.881 107.574 173.094C107.473 173.315 107.361 173.492 107.238 173.625C107.094 173.779 106.931 173.904 106.75 174L106.534 173.724C106.613 173.672 106.689 173.606 106.761 173.525C106.819 173.459 106.873 173.378 106.924 173.282C106.974 173.187 107.007 173.076 107.021 172.951C106.833 172.951 106.667 172.881 106.523 172.741C106.386 172.594 106.317 172.425 106.317 172.233C106.317 172.042 106.386 171.876 106.523 171.736C106.667 171.589 106.833 171.515 107.021 171.515Z" fill="#506081" fill-opacity="0.62"/>
<path d="M110.925 165.883C111.293 165.883 111.629 165.946 111.932 166.071C112.236 166.196 112.496 166.369 112.713 166.59C112.936 166.804 113.11 167.058 113.233 167.352C113.355 167.647 113.417 167.967 113.417 168.313C113.417 168.548 113.381 168.773 113.309 168.987C113.244 169.2 113.171 169.388 113.092 169.55C112.998 169.741 112.89 169.918 112.767 170.08C112.687 170.198 112.601 170.33 112.507 170.477C112.413 170.617 112.315 170.764 112.214 170.919C112.113 171.074 112.008 171.228 111.9 171.383C111.791 171.537 111.687 171.688 111.586 171.836C111.347 172.182 111.109 172.535 110.87 172.896H109.516L110.979 170.687C110.625 170.731 110.292 170.698 109.982 170.588C109.678 170.47 109.411 170.301 109.18 170.08C108.949 169.859 108.764 169.598 108.627 169.296C108.497 168.987 108.432 168.659 108.432 168.313C108.432 167.967 108.494 167.647 108.616 167.352C108.739 167.058 108.909 166.804 109.126 166.59C109.35 166.369 109.613 166.196 109.917 166.071C110.22 165.946 110.556 165.883 110.925 165.883ZM112.117 168.313C112.117 168.136 112.084 167.971 112.019 167.816C111.954 167.661 111.867 167.529 111.759 167.418C111.651 167.301 111.524 167.209 111.38 167.142C111.235 167.076 111.083 167.043 110.925 167.043C110.758 167.043 110.603 167.076 110.459 167.142C110.314 167.209 110.188 167.301 110.079 167.418C109.971 167.529 109.884 167.661 109.819 167.816C109.761 167.971 109.732 168.136 109.732 168.313C109.732 168.49 109.761 168.655 109.819 168.81C109.884 168.964 109.971 169.101 110.079 169.218C110.188 169.329 110.314 169.417 110.459 169.483C110.603 169.55 110.758 169.583 110.925 169.583C111.083 169.583 111.235 169.55 111.38 169.483C111.524 169.417 111.651 169.329 111.759 169.218C111.867 169.101 111.954 168.964 112.019 168.81C112.084 168.655 112.117 168.49 112.117 168.313Z" fill="#506081" fill-opacity="0.62"/>
<path d="M116.5 172.951C116.132 172.951 115.796 172.896 115.492 172.785C115.196 172.667 114.94 172.513 114.723 172.321C114.514 172.123 114.351 171.898 114.235 171.648C114.12 171.398 114.062 171.133 114.062 170.853C114.062 170.536 114.116 170.267 114.225 170.047C114.34 169.826 114.467 169.649 114.604 169.517C114.763 169.362 114.943 169.237 115.146 169.141C114.994 169.045 114.857 168.931 114.734 168.799C114.633 168.681 114.539 168.537 114.452 168.368C114.373 168.199 114.333 167.996 114.333 167.761C114.333 167.51 114.383 167.275 114.485 167.054C114.593 166.826 114.741 166.627 114.929 166.458C115.117 166.281 115.344 166.141 115.612 166.038C115.879 165.935 116.175 165.883 116.5 165.883C116.825 165.883 117.121 165.935 117.389 166.038C117.656 166.141 117.884 166.281 118.071 166.458C118.259 166.627 118.404 166.826 118.505 167.054C118.613 167.275 118.667 167.51 118.667 167.761C118.667 167.996 118.624 168.199 118.537 168.368C118.451 168.537 118.357 168.681 118.256 168.799C118.133 168.931 117.999 169.045 117.855 169.141C118.057 169.237 118.238 169.362 118.397 169.517C118.534 169.649 118.657 169.826 118.765 170.047C118.881 170.267 118.938 170.536 118.938 170.853C118.938 171.133 118.881 171.398 118.765 171.648C118.649 171.898 118.483 172.123 118.267 172.321C118.057 172.513 117.801 172.667 117.497 172.785C117.201 172.896 116.869 172.951 116.5 172.951ZM116.5 169.804C116.146 169.804 115.868 169.899 115.666 170.091C115.464 170.282 115.362 170.518 115.362 170.798C115.362 171.077 115.464 171.313 115.666 171.504C115.868 171.696 116.146 171.791 116.5 171.791C116.854 171.791 117.132 171.696 117.335 171.504C117.537 171.313 117.638 171.077 117.638 170.798C117.638 170.518 117.537 170.282 117.335 170.091C117.132 169.899 116.854 169.804 116.5 169.804ZM116.5 168.699C116.775 168.699 116.995 168.618 117.161 168.456C117.335 168.287 117.421 168.092 117.421 167.871C117.421 167.65 117.335 167.459 117.161 167.297C116.995 167.128 116.775 167.043 116.5 167.043C116.226 167.043 116.002 167.128 115.828 167.297C115.662 167.459 115.579 167.65 115.579 167.871C115.579 168.092 115.662 168.287 115.828 168.456C116.002 168.618 116.226 168.699 116.5 168.699Z" fill="#506081" fill-opacity="0.62"/>
<path d="M122.241 168.147C122.581 168.147 122.891 168.206 123.173 168.324C123.462 168.442 123.708 168.607 123.91 168.821C124.119 169.027 124.282 169.277 124.397 169.572C124.513 169.859 124.571 170.175 124.571 170.521C124.571 170.867 124.509 171.188 124.387 171.482C124.264 171.777 124.09 172.034 123.866 172.255C123.65 172.469 123.39 172.638 123.086 172.763C122.783 172.888 122.447 172.951 122.078 172.951C121.739 172.951 121.428 172.896 121.147 172.785C120.865 172.675 120.619 172.531 120.41 172.355C120.207 172.171 120.045 171.961 119.922 171.725C119.799 171.482 119.723 171.228 119.694 170.963H120.995C121.009 171.044 121.045 171.133 121.103 171.228C121.161 171.317 121.237 171.401 121.331 171.482C121.425 171.556 121.533 171.618 121.656 171.67C121.786 171.714 121.927 171.736 122.078 171.736C122.432 171.736 122.718 171.626 122.935 171.405C123.158 171.177 123.27 170.882 123.27 170.521C123.27 170.161 123.158 169.87 122.935 169.649C122.718 169.421 122.432 169.307 122.078 169.307C121.883 169.307 121.717 169.347 121.58 169.428C121.443 169.502 121.331 169.583 121.244 169.671C121.143 169.774 121.06 169.892 120.995 170.025H119.857L120.29 165.939H124.083V167.209H121.374L121.212 168.479C121.305 168.42 121.41 168.364 121.526 168.313C121.62 168.276 121.728 168.239 121.851 168.202C121.974 168.166 122.104 168.147 122.241 168.147Z" fill="#506081" fill-opacity="0.62"/>
<path d="M125.27 172.233C125.27 172.042 125.339 171.876 125.476 171.736C125.62 171.589 125.787 171.515 125.974 171.515C126.162 171.515 126.325 171.589 126.462 171.736C126.607 171.876 126.679 172.042 126.679 172.233C126.679 172.425 126.607 172.594 126.462 172.741C126.325 172.881 126.162 172.951 125.974 172.951C125.787 172.951 125.62 172.881 125.476 172.741C125.339 172.594 125.27 172.425 125.27 172.233Z" fill="#506081" fill-opacity="0.62"/>
<path d="M130.04 168.147C130.38 168.147 130.69 168.206 130.972 168.324C131.261 168.442 131.507 168.607 131.709 168.821C131.919 169.027 132.081 169.277 132.197 169.572C132.312 169.859 132.37 170.175 132.37 170.521C132.37 170.867 132.309 171.188 132.186 171.482C132.063 171.777 131.89 172.034 131.666 172.255C131.449 172.469 131.189 172.638 130.886 172.763C130.582 172.888 130.246 172.951 129.878 172.951C129.538 172.951 129.228 172.896 128.946 172.785C128.664 172.675 128.418 172.531 128.209 172.355C128.007 172.171 127.844 171.961 127.721 171.725C127.598 171.482 127.523 171.228 127.494 170.963H128.794C128.809 171.044 128.845 171.133 128.902 171.228C128.96 171.317 129.036 171.401 129.13 171.482C129.224 171.556 129.332 171.618 129.455 171.67C129.585 171.714 129.726 171.736 129.878 171.736C130.232 171.736 130.517 171.626 130.734 171.405C130.958 171.177 131.07 170.882 131.07 170.521C131.07 170.161 130.958 169.87 130.734 169.649C130.517 169.421 130.232 169.307 129.878 169.307C129.683 169.307 129.517 169.347 129.379 169.428C129.242 169.502 129.13 169.583 129.043 169.671C128.942 169.774 128.859 169.892 128.794 170.025H127.656L128.09 165.939H131.882V167.209H129.173L129.011 168.479C129.105 168.42 129.209 168.364 129.325 168.313C129.419 168.276 129.527 168.239 129.65 168.202C129.773 168.166 129.903 168.147 130.04 168.147Z" fill="#506081" fill-opacity="0.62"/>
<path d="M135.67 168.147C136.01 168.147 136.32 168.206 136.602 168.324C136.891 168.442 137.137 168.607 137.339 168.821C137.548 169.027 137.711 169.277 137.827 169.572C137.942 169.859 138 170.175 138 170.521C138 170.867 137.939 171.188 137.816 171.482C137.693 171.777 137.52 172.034 137.296 172.255C137.079 172.469 136.819 172.638 136.515 172.763C136.212 172.888 135.876 172.951 135.508 172.951C135.168 172.951 134.857 172.896 134.576 172.785C134.294 172.675 134.048 172.531 133.839 172.355C133.637 172.171 133.474 171.961 133.351 171.725C133.228 171.482 133.152 171.228 133.124 170.963H134.424C134.438 171.044 134.475 171.133 134.532 171.228C134.59 171.317 134.666 171.401 134.76 171.482C134.854 171.556 134.962 171.618 135.085 171.67C135.215 171.714 135.356 171.736 135.508 171.736C135.862 171.736 136.147 171.626 136.364 171.405C136.588 171.177 136.7 170.882 136.7 170.521C136.7 170.161 136.588 169.87 136.364 169.649C136.147 169.421 135.862 169.307 135.508 169.307C135.313 169.307 135.146 169.347 135.009 169.428C134.872 169.502 134.76 169.583 134.673 169.671C134.572 169.774 134.489 169.892 134.424 170.025H133.286L133.72 165.939H137.512V167.209H134.803L134.641 168.479C134.735 168.42 134.839 168.364 134.955 168.313C135.049 168.276 135.157 168.239 135.28 168.202C135.403 168.166 135.533 168.147 135.67 168.147Z" fill="#506081" fill-opacity="0.62"/>
<path d="M189.435 165.864V172.271H188.144V169.576H185.292V172.271H184V165.864H185.292V168.407H188.144V165.864H189.435Z" fill="#506081" fill-opacity="0.62"/>
<path d="M191.962 172.271H190.724V167.593H191.962V172.271ZM191.37 166.983C191.184 166.983 191.019 166.919 190.875 166.79C190.739 166.654 190.671 166.498 190.671 166.322C190.671 166.146 190.739 165.993 190.875 165.864C191.019 165.729 191.184 165.661 191.37 165.661C191.557 165.661 191.718 165.729 191.855 165.864C191.998 165.993 192.07 166.146 192.07 166.322C192.07 166.498 191.998 166.654 191.855 166.79C191.718 166.919 191.557 166.983 191.37 166.983Z" fill="#506081" fill-opacity="0.62"/>
<path d="M195.133 167.542C195.348 167.542 195.542 167.569 195.714 167.624C195.887 167.678 196.034 167.736 196.156 167.797C196.292 167.871 196.417 167.956 196.532 168.051L196.748 167.593H197.662V171.966C197.662 172.576 197.454 173.068 197.038 173.441C196.629 173.814 196.048 174 195.295 174C194.835 174 194.462 173.922 194.175 173.766C193.895 173.61 193.673 173.434 193.508 173.237C193.321 173.014 193.181 172.759 193.088 172.475H194.326C194.376 172.563 194.444 172.641 194.53 172.708C194.609 172.763 194.71 172.814 194.832 172.861C194.954 172.908 195.108 172.932 195.295 172.932C195.646 172.932 195.922 172.841 196.123 172.658C196.324 172.481 196.425 172.251 196.425 171.966V171.61C196.324 171.705 196.209 171.79 196.08 171.864C195.965 171.932 195.829 171.993 195.671 172.047C195.513 172.095 195.334 172.119 195.133 172.119C194.825 172.119 194.53 172.061 194.251 171.946C193.978 171.831 193.737 171.671 193.529 171.468C193.328 171.264 193.167 171.024 193.045 170.746C192.93 170.468 192.873 170.163 192.873 169.831C192.873 169.498 192.93 169.193 193.045 168.915C193.167 168.637 193.328 168.397 193.529 168.193C193.737 167.99 193.978 167.831 194.251 167.715C194.53 167.6 194.825 167.542 195.133 167.542ZM194.111 169.831C194.111 169.993 194.139 170.146 194.197 170.288C194.261 170.431 194.347 170.556 194.455 170.664C194.563 170.766 194.688 170.847 194.832 170.908C194.975 170.969 195.13 171 195.295 171C195.452 171 195.603 170.969 195.747 170.908C195.89 170.847 196.016 170.766 196.123 170.664C196.231 170.556 196.317 170.431 196.382 170.288C196.446 170.146 196.478 169.993 196.478 169.831C196.478 169.668 196.446 169.515 196.382 169.373C196.317 169.231 196.231 169.108 196.123 169.007C196.016 168.898 195.89 168.814 195.747 168.753C195.603 168.692 195.452 168.661 195.295 168.661C195.13 168.661 194.975 168.692 194.832 168.753C194.688 168.814 194.563 168.898 194.455 169.007C194.347 169.108 194.261 169.231 194.197 169.373C194.139 169.515 194.111 169.668 194.111 169.831Z" fill="#506081" fill-opacity="0.62"/>
<path d="M201.486 167.542C201.752 167.542 201.999 167.59 202.229 167.685C202.466 167.773 202.667 167.905 202.832 168.081C202.997 168.251 203.126 168.458 203.219 168.702C203.32 168.946 203.37 169.22 203.37 169.525V172.271H202.132V169.678C202.132 169.373 202.035 169.129 201.841 168.946C201.655 168.756 201.411 168.661 201.11 168.661C200.808 168.661 200.561 168.756 200.367 168.946C200.18 169.129 200.087 169.373 200.087 169.678V172.271H198.849V165.864H200.087V168.051C200.18 167.956 200.292 167.871 200.421 167.797C200.536 167.736 200.679 167.678 200.851 167.624C201.031 167.569 201.242 167.542 201.486 167.542Z" fill="#506081" fill-opacity="0.62"/>
<path d="M205.688 171.661C205.688 171.837 205.616 171.993 205.473 172.129C205.337 172.258 205.175 172.322 204.988 172.322C204.802 172.322 204.637 172.258 204.493 172.129C204.357 171.993 204.289 171.837 204.289 171.661C204.289 171.485 204.357 171.332 204.493 171.203C204.637 171.068 204.802 171 204.988 171C205.175 171 205.337 171.068 205.473 171.203C205.616 171.332 205.688 171.485 205.688 171.661ZM205.688 168.254C205.688 168.431 205.616 168.586 205.473 168.722C205.337 168.851 205.175 168.915 204.988 168.915C204.802 168.915 204.637 168.851 204.493 168.722C204.357 168.586 204.289 168.431 204.289 168.254C204.289 168.078 204.357 167.925 204.493 167.797C204.637 167.661 204.802 167.593 204.988 167.593C205.175 167.593 205.337 167.661 205.473 167.797C205.616 167.925 205.688 168.078 205.688 168.254Z" fill="#506081" fill-opacity="0.62"/>
<path d="M210.745 172.271C210.472 172.231 210.221 172.156 209.991 172.047C209.762 171.932 209.564 171.79 209.399 171.62C209.234 171.444 209.101 171.241 209.001 171.01C208.908 170.773 208.861 170.515 208.861 170.237H210.153C210.153 170.522 210.253 170.756 210.454 170.939C210.655 171.115 210.931 171.203 211.283 171.203C211.663 171.203 211.947 171.129 212.133 170.98C212.32 170.824 212.413 170.644 212.413 170.441C212.413 170.244 212.327 170.092 212.155 169.983C211.982 169.875 211.767 169.78 211.509 169.698C211.251 169.61 210.967 169.525 210.659 169.444C210.357 169.363 210.077 169.251 209.819 169.108C209.561 168.966 209.345 168.783 209.173 168.559C209.001 168.329 208.915 168.027 208.915 167.654C208.915 167.424 208.958 167.21 209.044 167.014C209.137 166.81 209.263 166.631 209.421 166.475C209.586 166.312 209.78 166.18 210.002 166.078C210.224 165.976 210.472 165.905 210.745 165.864V165H211.929V165.864C212.158 165.925 212.37 166.014 212.564 166.129C212.765 166.244 212.937 166.386 213.08 166.556C213.224 166.719 213.335 166.908 213.414 167.125C213.5 167.342 213.543 167.583 213.543 167.847H212.305C212.305 167.563 212.216 167.339 212.036 167.176C211.857 167.014 211.606 166.932 211.283 166.932C210.96 166.932 210.709 167.007 210.529 167.156C210.35 167.305 210.26 167.468 210.26 167.644C210.26 167.834 210.346 167.98 210.519 168.081C210.691 168.183 210.906 168.275 211.164 168.356C211.423 168.437 211.703 168.522 212.004 168.61C212.312 168.698 212.596 168.817 212.854 168.966C213.113 169.115 213.328 169.312 213.5 169.556C213.672 169.793 213.758 170.105 213.758 170.492C213.758 170.695 213.712 170.895 213.618 171.092C213.525 171.281 213.396 171.458 213.231 171.62C213.066 171.776 212.872 171.912 212.65 172.027C212.427 172.142 212.187 172.224 211.929 172.271V173.136H210.745V172.271Z" fill="#506081" fill-opacity="0.62"/>
<path d="M214.453 167.644C214.467 167.4 214.532 167.169 214.647 166.953C214.761 166.729 214.919 166.536 215.12 166.373C215.328 166.203 215.569 166.068 215.841 165.966C216.121 165.864 216.43 165.814 216.767 165.814C217.104 165.814 217.409 165.864 217.682 165.966C217.962 166.061 218.202 166.193 218.403 166.363C218.604 166.525 218.758 166.715 218.866 166.932C218.973 167.142 219.027 167.363 219.027 167.593C219.027 167.824 218.981 168.024 218.887 168.193C218.801 168.356 218.704 168.492 218.597 168.6C218.468 168.722 218.324 168.827 218.166 168.915C218.353 169.003 218.521 169.119 218.672 169.261C218.801 169.383 218.92 169.546 219.027 169.749C219.135 169.953 219.189 170.2 219.189 170.492C219.189 170.722 219.131 170.946 219.016 171.163C218.902 171.38 218.74 171.576 218.532 171.753C218.324 171.922 218.073 172.061 217.779 172.169C217.492 172.271 217.172 172.322 216.821 172.322C216.44 172.322 216.103 172.275 215.809 172.18C215.515 172.085 215.264 171.953 215.056 171.783C214.855 171.614 214.697 171.414 214.582 171.183C214.474 170.953 214.413 170.705 214.399 170.441H215.691C215.705 170.529 215.741 170.62 215.798 170.715C215.856 170.803 215.931 170.885 216.024 170.959C216.118 171.027 216.225 171.085 216.347 171.132C216.476 171.18 216.616 171.203 216.767 171.203C217.09 171.203 217.348 171.119 217.542 170.949C217.743 170.773 217.843 170.569 217.843 170.339C217.843 170.108 217.75 169.915 217.563 169.759C217.384 169.603 217.119 169.525 216.767 169.525H216.175V168.508H216.713C217.065 168.508 217.323 168.441 217.488 168.305C217.653 168.163 217.736 167.976 217.736 167.746C217.736 167.515 217.65 167.322 217.477 167.166C217.305 167.01 217.068 166.932 216.767 166.932C216.466 166.932 216.225 167.007 216.046 167.156C215.874 167.305 215.773 167.468 215.744 167.644H214.453Z" fill="#506081" fill-opacity="0.62"/>
<path d="M222.523 167.898C222.86 167.898 223.168 167.953 223.448 168.061C223.735 168.169 223.979 168.322 224.18 168.519C224.388 168.708 224.55 168.939 224.665 169.21C224.779 169.475 224.837 169.766 224.837 170.085C224.837 170.403 224.776 170.698 224.654 170.969C224.532 171.241 224.36 171.478 224.137 171.681C223.922 171.878 223.664 172.034 223.362 172.149C223.061 172.264 222.727 172.322 222.361 172.322C222.024 172.322 221.715 172.271 221.436 172.169C221.156 172.068 220.912 171.936 220.704 171.773C220.503 171.603 220.341 171.41 220.219 171.193C220.097 170.969 220.022 170.736 219.993 170.492H221.285C221.299 170.566 221.335 170.647 221.393 170.736C221.45 170.817 221.525 170.895 221.619 170.969C221.712 171.037 221.82 171.095 221.941 171.142C222.071 171.183 222.211 171.203 222.361 171.203C222.713 171.203 222.996 171.102 223.212 170.898C223.434 170.688 223.545 170.417 223.545 170.085C223.545 169.753 223.434 169.485 223.212 169.281C222.996 169.071 222.713 168.966 222.361 168.966C222.168 168.966 222.002 169.003 221.866 169.078C221.73 169.146 221.619 169.22 221.533 169.302C221.432 169.397 221.35 169.505 221.285 169.627H220.155L220.585 165.864H224.352V167.034H221.662L221.5 168.203C221.593 168.149 221.698 168.098 221.812 168.051C221.906 168.017 222.013 167.983 222.135 167.949C222.257 167.915 222.386 167.898 222.523 167.898Z" fill="#506081" fill-opacity="0.62"/>
<path d="M226.231 171C226.417 171 226.579 171.068 226.715 171.203C226.859 171.339 226.931 171.508 226.931 171.712C226.931 172.01 226.88 172.258 226.78 172.454C226.679 172.658 226.568 172.82 226.446 172.942C226.303 173.085 226.141 173.2 225.962 173.288L225.747 173.034C225.826 172.986 225.901 172.925 225.973 172.851C226.03 172.79 226.084 172.715 226.134 172.627C226.184 172.539 226.217 172.437 226.231 172.322C226.044 172.322 225.879 172.258 225.736 172.129C225.6 171.993 225.531 171.837 225.531 171.661C225.531 171.485 225.6 171.332 225.736 171.203C225.879 171.068 226.044 171 226.231 171Z" fill="#506081" fill-opacity="0.62"/>
<path d="M230.108 165.814C230.474 165.814 230.807 165.871 231.109 165.986C231.41 166.102 231.668 166.261 231.884 166.464C232.106 166.661 232.278 166.895 232.4 167.166C232.522 167.437 232.583 167.732 232.583 168.051C232.583 168.268 232.547 168.475 232.476 168.671C232.411 168.868 232.339 169.041 232.26 169.19C232.167 169.366 232.059 169.529 231.937 169.678C231.859 169.786 231.772 169.908 231.679 170.044C231.586 170.173 231.489 170.308 231.389 170.451C231.288 170.593 231.184 170.736 231.076 170.878C230.969 171.02 230.865 171.159 230.764 171.295C230.528 171.614 230.291 171.939 230.054 172.271H228.709L230.162 170.237C229.81 170.278 229.48 170.247 229.171 170.146C228.87 170.037 228.605 169.881 228.375 169.678C228.145 169.475 227.962 169.234 227.826 168.956C227.697 168.671 227.632 168.369 227.632 168.051C227.632 167.732 227.693 167.437 227.815 167.166C227.937 166.895 228.106 166.661 228.321 166.464C228.544 166.261 228.805 166.102 229.107 165.986C229.408 165.871 229.742 165.814 230.108 165.814ZM231.292 168.051C231.292 167.888 231.259 167.736 231.195 167.593C231.13 167.451 231.044 167.329 230.937 167.227C230.829 167.119 230.703 167.034 230.56 166.973C230.416 166.912 230.266 166.881 230.108 166.881C229.943 166.881 229.788 166.912 229.645 166.973C229.501 167.034 229.376 167.119 229.268 167.227C229.161 167.329 229.075 167.451 229.01 167.593C228.953 167.736 228.924 167.888 228.924 168.051C228.924 168.214 228.953 168.366 229.01 168.508C229.075 168.651 229.161 168.776 229.268 168.885C229.376 168.986 229.501 169.068 229.645 169.129C229.788 169.19 229.943 169.22 230.108 169.22C230.266 169.22 230.416 169.19 230.56 169.129C230.703 169.068 230.829 168.986 230.937 168.885C231.044 168.776 231.13 168.651 231.195 168.508C231.259 168.366 231.292 168.214 231.292 168.051Z" fill="#506081" fill-opacity="0.62"/>
<path d="M235.646 172.322C235.28 172.322 234.946 172.271 234.645 172.169C234.351 172.061 234.096 171.919 233.881 171.742C233.672 171.559 233.511 171.353 233.396 171.122C233.281 170.892 233.224 170.647 233.224 170.39C233.224 170.098 233.278 169.851 233.385 169.647C233.5 169.444 233.626 169.281 233.762 169.159C233.92 169.017 234.099 168.902 234.3 168.814C234.15 168.725 234.013 168.62 233.891 168.498C233.791 168.39 233.698 168.258 233.611 168.102C233.533 167.946 233.493 167.759 233.493 167.542C233.493 167.312 233.543 167.095 233.644 166.892C233.751 166.681 233.899 166.498 234.085 166.342C234.272 166.18 234.498 166.051 234.763 165.956C235.029 165.861 235.323 165.814 235.646 165.814C235.969 165.814 236.263 165.861 236.528 165.956C236.794 166.051 237.02 166.18 237.206 166.342C237.393 166.498 237.536 166.681 237.637 166.892C237.745 167.095 237.798 167.312 237.798 167.542C237.798 167.759 237.755 167.946 237.669 168.102C237.583 168.258 237.49 168.39 237.389 168.498C237.267 168.62 237.135 168.725 236.991 168.814C237.192 168.902 237.371 169.017 237.529 169.159C237.666 169.281 237.788 169.444 237.895 169.647C238.01 169.851 238.067 170.098 238.067 170.39C238.067 170.647 238.01 170.892 237.895 171.122C237.78 171.353 237.615 171.559 237.4 171.742C237.192 171.919 236.937 172.061 236.636 172.169C236.342 172.271 236.012 172.322 235.646 172.322ZM235.646 169.424C235.294 169.424 235.018 169.512 234.817 169.688C234.616 169.864 234.516 170.081 234.516 170.339C234.516 170.597 234.616 170.814 234.817 170.99C235.018 171.166 235.294 171.254 235.646 171.254C235.997 171.254 236.274 171.166 236.474 170.99C236.675 170.814 236.776 170.597 236.776 170.339C236.776 170.081 236.675 169.864 236.474 169.688C236.274 169.512 235.997 169.424 235.646 169.424ZM235.646 168.407C235.918 168.407 236.137 168.332 236.302 168.183C236.474 168.027 236.561 167.847 236.561 167.644C236.561 167.441 236.474 167.264 236.302 167.115C236.137 166.959 235.918 166.881 235.646 166.881C235.373 166.881 235.151 166.959 234.978 167.115C234.813 167.264 234.731 167.441 234.731 167.644C234.731 167.847 234.813 168.027 234.978 168.183C235.151 168.332 235.373 168.407 235.646 168.407Z" fill="#506081" fill-opacity="0.62"/>
<path d="M241.348 167.898C241.685 167.898 241.993 167.953 242.273 168.061C242.56 168.169 242.804 168.322 243.005 168.519C243.213 168.708 243.375 168.939 243.49 169.21C243.604 169.475 243.662 169.766 243.662 170.085C243.662 170.403 243.601 170.698 243.479 170.969C243.357 171.241 243.185 171.478 242.962 171.681C242.747 171.878 242.489 172.034 242.187 172.149C241.886 172.264 241.552 172.322 241.186 172.322C240.849 172.322 240.54 172.271 240.261 172.169C239.981 172.068 239.737 171.936 239.529 171.773C239.328 171.603 239.166 171.41 239.044 171.193C238.922 170.969 238.847 170.736 238.818 170.492H240.11C240.124 170.566 240.16 170.647 240.218 170.736C240.275 170.817 240.35 170.895 240.444 170.969C240.537 171.037 240.644 171.095 240.766 171.142C240.896 171.183 241.036 171.203 241.186 171.203C241.538 171.203 241.821 171.102 242.036 170.898C242.259 170.688 242.37 170.417 242.37 170.085C242.37 169.753 242.259 169.485 242.036 169.281C241.821 169.071 241.538 168.966 241.186 168.966C240.992 168.966 240.827 169.003 240.691 169.078C240.555 169.146 240.444 169.22 240.357 169.302C240.257 169.397 240.174 169.505 240.11 169.627H238.98L239.41 165.864H243.177V167.034H240.487L240.325 168.203C240.418 168.149 240.522 168.098 240.637 168.051C240.731 168.017 240.838 167.983 240.96 167.949C241.082 167.915 241.211 167.898 241.348 167.898Z" fill="#506081" fill-opacity="0.62"/>
<path d="M244.356 171.661C244.356 171.485 244.424 171.332 244.561 171.203C244.704 171.068 244.869 171 245.056 171C245.242 171 245.404 171.068 245.54 171.203C245.684 171.332 245.755 171.485 245.755 171.661C245.755 171.837 245.684 171.993 245.54 172.129C245.404 172.258 245.242 172.322 245.056 172.322C244.869 172.322 244.704 172.258 244.561 172.129C244.424 171.993 244.356 171.837 244.356 171.661Z" fill="#506081" fill-opacity="0.62"/>
<path d="M249.094 167.898C249.431 167.898 249.74 167.953 250.02 168.061C250.307 168.169 250.551 168.322 250.752 168.519C250.96 168.708 251.121 168.939 251.236 169.21C251.351 169.475 251.408 169.766 251.408 170.085C251.408 170.403 251.347 170.698 251.225 170.969C251.103 171.241 250.931 171.478 250.709 171.681C250.493 171.878 250.235 172.034 249.934 172.149C249.632 172.264 249.299 172.322 248.933 172.322C248.595 172.322 248.287 172.271 248.007 172.169C247.727 172.068 247.483 171.936 247.275 171.773C247.074 171.603 246.913 171.41 246.791 171.193C246.669 170.969 246.594 170.736 246.565 170.492H247.856C247.871 170.566 247.907 170.647 247.964 170.736C248.021 170.817 248.097 170.895 248.19 170.969C248.283 171.037 248.391 171.095 248.513 171.142C248.642 171.183 248.782 171.203 248.933 171.203C249.284 171.203 249.568 171.102 249.783 170.898C250.005 170.688 250.117 170.417 250.117 170.085C250.117 169.753 250.005 169.485 249.783 169.281C249.568 169.071 249.284 168.966 248.933 168.966C248.739 168.966 248.574 169.003 248.438 169.078C248.301 169.146 248.19 169.22 248.104 169.302C248.003 169.397 247.921 169.505 247.856 169.627H246.726L247.157 165.864H250.924V167.034H248.233L248.072 168.203C248.165 168.149 248.269 168.098 248.384 168.051C248.477 168.017 248.585 167.983 248.707 167.949C248.829 167.915 248.958 167.898 249.094 167.898Z" fill="#506081" fill-opacity="0.62"/>
<path d="M254.686 167.898C255.023 167.898 255.332 167.953 255.612 168.061C255.899 168.169 256.143 168.322 256.343 168.519C256.552 168.708 256.713 168.939 256.828 169.21C256.943 169.475 257 169.766 257 170.085C257 170.403 256.939 170.698 256.817 170.969C256.695 171.241 256.523 171.478 256.3 171.681C256.085 171.878 255.827 172.034 255.525 172.149C255.224 172.264 254.89 172.322 254.524 172.322C254.187 172.322 253.879 172.271 253.599 172.169C253.319 172.068 253.075 171.936 252.867 171.773C252.666 171.603 252.505 171.41 252.383 171.193C252.261 170.969 252.185 170.736 252.157 170.492H253.448C253.463 170.566 253.498 170.647 253.556 170.736C253.613 170.817 253.689 170.895 253.782 170.969C253.875 171.037 253.983 171.095 254.105 171.142C254.234 171.183 254.374 171.203 254.524 171.203C254.876 171.203 255.16 171.102 255.375 170.898C255.597 170.688 255.708 170.417 255.708 170.085C255.708 169.753 255.597 169.485 255.375 169.281C255.16 169.071 254.876 168.966 254.524 168.966C254.331 168.966 254.166 169.003 254.029 169.078C253.893 169.146 253.782 169.22 253.696 169.302C253.595 169.397 253.513 169.505 253.448 169.627H252.318L252.749 165.864H256.516V167.034H253.825L253.663 168.203C253.757 168.149 253.861 168.098 253.976 168.051C254.069 168.017 254.176 167.983 254.298 167.949C254.42 167.915 254.55 167.898 254.686 167.898Z" fill="#506081" fill-opacity="0.62"/>
<path d="M246 71.5C246 72.3284 245.328 73 244.5 73C243.672 73 243 72.3284 243 71.5C243 70.6716 243.672 70 244.5 70C245.328 70 246 70.6716 246 71.5Z" fill="#C4C4C4"/>
<path d="M252 71.5C252 72.3284 251.328 73 250.5 73C249.672 73 249 72.3284 249 71.5C249 70.6716 249.672 70 250.5 70C251.328 70 252 70.6716 252 71.5Z" fill="#C4C4C4"/>
<path d="M257 71.5C257 72.3284 256.328 73 255.5 73C254.672 73 254 72.3284 254 71.5C254 70.6716 254.672 70 255.5 70C256.328 70 257 70.6716 257 71.5Z" fill="#C4C4C4"/>
<path d="M209.5 111C209.375 111 209.249 110.964 209.153 110.892L206.144 108.629C205.952 108.485 205.952 108.252 206.144 108.108C206.335 107.964 206.645 107.964 206.837 108.108L209.5 110.11L212.163 108.108C212.355 107.964 212.665 107.964 212.856 108.108C213.048 108.252 213.048 108.485 212.856 108.629L209.847 110.892C209.751 110.964 209.625 111 209.5 111Z" fill="#FF4C4C"/>
<defs>
<filter id="filter0_d_1_522" x="0" y="0" width="332" height="259" filterUnits="userSpaceOnUse" color-interpolation-filters="sRGB">
<feFlood flood-opacity="0" result="BackgroundImageFix"/>
<feColorMatrix in="SourceAlpha" type="matrix" values="0 0 0 0 0 0 0 0 0 0 0 0 0 0 0 0 0 0 127 0" result="hardAlpha"/>
<feOffset dx="4" dy="5"/>
<feGaussianBlur stdDeviation="25"/>
<feComposite in2="hardAlpha" operator="out"/>
<feColorMatrix type="matrix" values="0 0 0 0 0 0 0 0 0 0 0 0 0 0 0 0 0 0 0.08 0"/>
<feBlend mode="normal" in2="BackgroundImageFix" result="effect1_dropShadow_1_522"/>
<feBlend mode="normal" in="SourceGraphic" in2="effect1_dropShadow_1_522" result="shape"/>
</filter>
</defs>
</svg>
