<svg width="172" height="80" viewBox="0 0 172 80" fill="none" xmlns="http://www.w3.org/2000/svg">
<g id="natchpay" clip-path="url(#clip0_1_150)">
<path id="Vector" opacity="0.3" d="M43.3269 36.5675C43.3269 36.3188 43.3269 36.07 43.3269 35.5725C43.3269 35.075 43.3269 34.5775 43.0768 34.0799C42.8267 31.5924 42.0764 28.856 41.3261 26.6172C40.3257 23.6321 38.325 21.642 35.3239 20.3982C32.0727 19.1544 28.8215 18.4082 25.3202 18.1594C24.0697 18.1594 22.8193 17.9106 21.3187 17.9106C17.5673 18.1594 13.5658 18.6569 9.81444 19.9007C6.06305 21.1445 3.56212 23.3833 2.31165 27.3635C1.81147 28.856 1.56138 30.3486 1.06119 31.8411C0.561006 34.5775 0.310913 37.0651 0.310913 39.8014C0.310913 42.5377 0.561006 45.2741 1.06119 47.7617C1.31128 49.2542 1.81147 50.7468 2.31165 52.2393C3.56212 55.9707 6.06305 58.4583 9.81444 59.7021C13.5658 60.9459 17.5673 61.4434 21.5688 61.4434C22.8193 61.4434 24.0697 61.4434 25.5703 61.1946C29.0716 60.9459 32.3228 60.4483 35.574 58.9558C38.5751 57.712 40.3257 55.7219 41.5762 52.7368C42.5766 50.2493 43.0768 47.7617 43.3269 45.2741C43.3269 44.7766 43.3269 44.279 43.577 43.7815C43.577 43.5328 43.577 43.284 43.577 42.7865C43.577 42.289 43.577 41.7915 43.827 41.0452V38.0601C43.577 37.5626 43.3269 37.0651 43.3269 36.5675ZM34.3235 40.5477C33.8233 41.5427 33.3232 42.289 32.5729 43.0353C31.8226 43.7815 31.0723 44.279 30.0719 44.7766C29.0716 45.2741 28.0712 45.2741 27.0708 45.2741C26.5706 45.2741 25.8204 45.2741 25.3202 45.0253C24.82 44.7766 24.3198 44.5278 23.8196 44.279V47.7617C23.8196 48.0104 23.8196 48.2592 23.5695 48.5079C23.5695 48.7567 23.3194 49.0055 23.0693 49.2542C22.8193 49.503 22.5692 49.503 22.3191 49.7517C22.069 49.7517 21.8189 50.0005 21.5688 50.0005C21.3187 50.0005 21.0686 50.0005 20.8185 49.7517C20.5684 49.7517 20.3183 49.503 20.0682 49.2542C19.8181 49.0055 19.8181 48.7567 19.5681 48.5079C19.5681 48.2592 19.318 48.0104 19.318 47.7617V37.3138C19.318 36.8163 19.318 36.3188 19.318 35.8213C19.318 35.3237 19.0679 34.8262 18.5677 34.3287C18.0675 33.5824 17.0671 33.0849 16.0668 33.3337C15.5666 33.3337 15.0664 33.3337 14.5662 33.5824C14.066 33.8312 13.8159 34.0799 13.5658 34.3287C13.0656 35.075 12.8155 36.07 12.8155 37.5626V47.7617C12.8155 48.2592 12.5655 48.7567 12.3154 49.2542C12.3154 49.503 12.0653 49.7517 11.8152 49.7517C11.5651 49.7517 11.315 50.0005 11.0649 50.0005C10.8148 50.0005 10.5647 50.0005 10.3146 49.7517C10.0645 49.7517 9.81444 49.503 9.56434 49.2542C9.31425 49.0055 9.31425 48.7567 9.06416 48.5079C9.06416 48.2592 8.81407 48.0104 8.81407 47.7617V37.3138C8.81407 36.3188 9.06416 35.075 9.31425 34.0799C9.56434 33.0849 10.0645 32.3386 10.8148 31.5924C11.5651 30.8461 12.3154 30.3486 13.0656 29.8511C14.066 29.3535 15.0664 29.1048 16.3168 29.3535C16.817 29.3535 17.3172 29.3535 18.0675 29.6023C18.5677 29.6023 19.0679 29.8511 19.5681 30.0998C20.5684 30.3486 21.3187 31.0948 22.069 31.8411C22.5692 31.3436 23.3194 30.8461 24.0697 30.5973C25.0701 30.0998 26.0705 30.0998 27.0708 30.0998C28.0712 30.0998 29.0716 30.3486 30.0719 30.5973C30.5721 30.8461 30.8222 31.0948 31.3224 31.3436C31.3224 31.3436 31.3224 31.3436 31.5725 31.3436C31.8226 31.5924 32.3228 31.8411 32.5729 32.0899C32.5729 32.0899 32.5729 32.0899 32.823 32.3386C33.0731 32.5874 33.5732 33.0849 33.8233 33.3337C34.0734 33.8312 34.3235 34.0799 34.5736 34.5775C34.5736 34.5775 34.5736 34.5775 34.5736 34.8262C34.8237 35.3237 34.8237 35.5725 34.8237 36.07V36.3188C34.8237 36.8163 35.0738 37.3138 35.0738 37.8113C34.8237 38.5576 34.5736 39.5526 34.3235 40.5477Z" fill="#4A2C2A"/>
<path id="Vector_2" opacity="0.3" d="M50.0796 38.3088V49.503H46.8284V31.5923H47.8287L58.5827 43.0352V31.8411H61.8339V49.7517H60.8336L50.0796 38.3088ZM84.0922 37.065H87.3434V39.5526H84.0922V49.503H81.0911V39.5526H78.34L83.3419 33.3337H84.0922V37.065ZM94.346 47.0154C95.8465 47.0154 97.097 46.5179 98.0974 45.2741L99.5979 47.7616C98.5976 48.7567 96.8469 49.7517 94.346 49.7517C90.3445 49.7517 87.8436 47.0154 87.8436 43.284C87.8436 39.5526 90.3445 36.8163 94.346 36.8163C97.097 36.8163 98.8477 37.8113 99.5979 38.8063L98.0974 41.2939C97.097 40.2989 95.8465 39.5526 94.346 39.5526C92.3452 39.5526 90.8447 41.0452 90.8447 43.284C91.0948 45.5228 92.3452 47.0154 94.346 47.0154ZM104.85 30.8461V38.3088C105.35 37.5625 106.601 36.8163 108.601 36.8163C111.852 36.8163 113.603 39.0551 113.603 42.289V49.503H110.602V42.5377C110.602 40.5477 109.602 39.5526 107.851 39.5526C106.1 39.5526 105.1 40.5477 105.1 42.5377V49.503H102.099V30.8461H104.85Z" fill="#4A2C2A"/>
<path id="Vector_3" opacity="0.3" d="M128.859 32.0898C132.36 32.0898 135.111 34.3287 135.111 38.06C135.111 41.7914 132.61 44.0303 128.859 44.0303H125.357V49.7517H122.106V32.3386H128.859V32.0898ZM131.86 37.8113C131.86 36.07 130.609 34.8262 128.608 34.8262H125.607V40.7964H128.608C130.609 40.7964 131.86 39.5526 131.86 37.8113ZM142.113 49.7517C138.862 49.7517 136.111 47.2641 136.111 43.284C136.111 39.3038 138.862 36.8163 142.113 36.8163C143.614 36.8163 144.865 37.3138 145.865 38.3088V37.065H148.866V49.5029H145.865V48.2591C145.115 49.2542 143.614 49.7517 142.113 49.7517ZM139.362 43.284C139.362 45.7716 140.863 47.0154 142.864 47.0154C144.614 47.0154 146.115 45.5228 146.115 43.284C146.115 41.0451 144.614 39.5526 142.864 39.5526C140.863 39.5526 139.362 40.7964 139.362 43.284ZM163.621 37.065L157.369 54.7269H154.368L156.119 49.5029L150.617 37.065H153.868L157.369 45.7716L160.37 37.065H163.621Z" fill="#4A2C2A"/>
<path id="Vector_4" opacity="0.3" d="M69.8368 49.5029C66.5856 49.5029 63.8345 47.0154 63.8345 43.0352C63.8345 39.0551 66.5856 36.5675 69.8368 36.5675C71.3373 36.5675 72.5878 37.065 73.5881 38.0601V36.8163H76.5893V49.2542H73.5881V48.0104C72.5878 49.0054 71.3373 49.5029 69.8368 49.5029ZM66.8356 43.0352C66.8356 45.5228 68.3362 46.7666 70.3369 46.7666C72.0876 46.7666 73.5881 45.2741 73.5881 43.0352C73.5881 40.5476 72.0876 39.3038 70.3369 39.3038C68.5863 39.3038 66.8356 40.5476 66.8356 43.0352Z" fill="#4A2C2A"/>
</g>
<defs>
<clipPath id="clip0_1_150">
<rect width="171.286" height="79.6027" fill="white" transform="translate(0.21875)"/>
</clipPath>
</defs>
</svg>
