<svg width="117" height="36" viewBox="0 0 117 36" fill="none" xmlns="http://www.w3.org/2000/svg">
<g id="phasekit" clip-path="url(#clip0_1_131)">
<g id="Group" opacity="0.3">
<path id="Vector" d="M50.8022 8.48413V23.9397H52.7859V15.6091C53.7777 15.2802 54.6593 15.061 55.6511 15.061C57.194 15.061 57.745 15.6091 57.745 17.1437V23.9397H59.7286V17.1437C59.7286 14.6225 58.296 13.1975 55.6511 13.1975C54.6593 13.1975 53.7777 13.4168 52.7859 13.8552V8.48413H50.8022Z" fill="#4A2C2A"/>
<path id="Vector_2" d="M65.0184 17.1437C62.8143 17.1437 61.2715 18.3495 61.2715 20.2129V20.5418C61.2715 22.7341 63.2551 24.0494 65.4592 24.0494C66.451 24.0494 67.4428 23.8302 68.3244 23.2821V23.9398H70.3081V16.5957C70.3081 14.4034 68.8754 13.1976 66.2306 13.1976C64.798 13.1976 63.2551 13.4169 62.3735 13.8553V15.7188C63.5857 15.2803 65.0184 14.9515 66.3408 14.9515C67.9938 14.9515 68.4346 15.4995 68.4346 16.4861V17.0341C68.3244 17.1437 65.0184 17.1437 65.0184 17.1437ZM68.3244 21.6379C67.3326 22.0764 66.3408 22.2956 65.349 22.2956C63.8061 22.2956 63.1449 21.6379 63.1449 20.6514V20.3226C63.1449 19.6649 63.6959 19.1168 65.0184 19.1168H68.3244V21.6379Z" fill="#4A2C2A"/>
<path id="Vector_3" d="M16.0886 15.061V13.8552C16.0886 12.211 15.5376 11.663 13.0029 11.663H8.15405V17.8014H12.5621C15.0968 17.6917 16.0886 17.0341 16.0886 15.061Z" fill="#4A2C2A"/>
<path id="Vector_4" d="M31.4067 31.7224C33.0597 31.7224 34.3822 30.407 34.272 28.8724V6.83995C34.272 5.19574 32.9495 3.88037 31.2965 3.88037H2.31335C0.660316 3.88037 -0.662109 5.19574 -0.662109 6.83995V28.7628C-0.662109 30.407 0.660316 31.7224 2.31335 31.7224H31.4067ZM26.3374 9.25146H30.4149L23.4721 17.6918L30.9659 26.2417H26.8884L19.6151 17.6918L26.3374 9.25146ZM5.50921 9.25146H13.0029C16.7498 9.25146 18.6233 10.7861 18.6233 13.7456V14.9514C18.6233 18.4591 16.1988 19.884 12.5621 19.884H8.15406V26.2417H5.50921V9.25146Z" fill="#4A2C2A"/>
<path id="Vector_5" d="M75.9284 14.9515C77.2508 14.9515 78.2426 15.0611 79.7855 15.7188V13.8553C78.7936 13.4169 77.4712 13.1976 75.9284 13.1976C73.8346 13.1976 72.1815 14.1842 72.1815 16.1572V16.4861C72.1815 20.5418 78.5732 18.8976 78.5732 20.761V21.0899C78.5732 21.5283 78.463 22.186 76.3692 22.186C75.0468 22.186 73.6141 21.9668 72.2917 21.5283V23.3917C73.5039 23.7206 74.7162 23.9398 76.3692 23.9398C79.2345 23.9398 80.5569 22.6244 80.5569 20.9802V20.5418C80.5569 16.7053 74.1652 18.5687 74.1652 16.3764V15.938C74.1652 15.3899 74.4958 14.9515 75.9284 14.9515Z" fill="#4A2C2A"/>
<path id="Vector_6" d="M39.5616 13.3072V29.2013H41.5453V23.611C42.3167 23.9398 43.0881 24.159 44.0799 24.159C46.7248 24.159 48.488 22.7341 48.488 19.8841V17.1437C48.488 14.6226 46.6146 13.1976 44.4105 13.1976C43.3085 13.1976 42.4269 13.4169 41.5453 13.8553V13.3072H39.5616ZM44.4105 15.0611C45.6228 15.0611 46.5044 15.6091 46.5044 17.1437V19.8841C46.5044 21.7475 45.6228 22.2956 43.9697 22.2956C43.1983 22.2956 42.2065 21.9668 41.5453 21.7475V15.6091C42.5371 15.2803 43.3085 15.0611 44.4105 15.0611Z" fill="#4A2C2A"/>
<path id="Vector_7" d="M105.904 13.3071H103.92V23.9397H105.904V13.3071Z" fill="#4A2C2A"/>
<path id="Vector_8" d="M105.904 10.3477H103.92V12.1015H105.904V10.3477Z" fill="#4A2C2A"/>
<path id="Vector_9" d="M109.76 10.1284V13.3072H108.218V15.0611H109.76V20.9802C109.76 22.9533 110.973 24.0494 113.066 24.0494C114.058 24.0494 114.83 23.9398 115.601 23.8302V21.9667C114.719 22.186 114.058 22.2956 113.066 22.2956C112.075 22.2956 111.744 21.9667 111.744 20.9802V15.1707H114.499V13.4168H111.744V10.1284H109.76Z" fill="#4A2C2A"/>
<path id="Vector_10" d="M90.9159 19.336V16.2668C90.9159 14.513 89.4832 13.1976 87.6098 13.1976H86.067C83.4221 13.1976 81.9895 14.513 81.9895 16.9245V20.1033C81.9895 22.6245 83.8629 23.9398 86.3976 23.9398C87.8302 23.9398 89.0424 23.7206 90.0343 23.2821V21.4187C88.6016 21.9668 87.8302 22.186 86.3976 22.186C84.7446 22.186 83.9731 21.5283 83.9731 20.2129V19.336H90.9159ZM83.9731 17.0341C83.9731 15.6091 84.4139 15.1707 86.067 15.1707H87.6098C88.4914 15.1707 88.9322 15.6091 88.9322 16.3764V17.6918H83.9731V17.0341Z" fill="#4A2C2A"/>
<path id="Vector_11" d="M93.1199 8.48413V23.9397H95.1035V19.0071L95.7647 18.459L99.6218 23.9397H102.156L97.3076 17.2533L102.156 13.3072H99.0708L95.1035 16.7052V8.48413H93.1199Z" fill="#4A2C2A"/>
</g>
</g>
<defs>
<clipPath id="clip0_1_131">
<rect width="116.585" height="35.0765" fill="white" transform="translate(0.254883 0.263062)"/>
</clipPath>
</defs>
</svg>
