<svg width="31" height="30" viewBox="0 0 31 30" fill="none" xmlns="http://www.w3.org/2000/svg">
<path id="Vector" d="M29.0467 13.9286H27.9298C27.8045 12.4007 27.4043 10.908 26.7485 9.52232L27.7168 8.96384C27.963 8.82176 28.1426 8.58771 28.2162 8.31319C28.2898 8.03867 28.2513 7.74615 28.1092 7.5C27.9672 7.25385 27.7331 7.07421 27.4586 7.00062C27.1841 6.92703 26.8916 6.96551 26.6454 7.10759L25.6744 7.66875C24.798 6.41198 23.7062 5.32016 22.4494 4.44375L23.0106 3.47277C23.1527 3.22661 23.1911 2.9341 23.1175 2.65958C23.0439 2.38505 22.8643 2.15101 22.6182 2.00893C22.372 1.86685 22.0795 1.82837 21.805 1.90196C21.5304 1.97555 21.2964 2.15519 21.1543 2.40134L20.5958 3.36964C19.2102 2.71385 17.7175 2.31367 16.1896 2.18839V1.07143C16.1896 0.787268 16.0767 0.514746 15.8758 0.313814C15.6748 0.112882 15.4023 0 15.1182 0C14.834 0 14.5615 0.112882 14.3605 0.313814C14.1596 0.514746 14.0467 0.787268 14.0467 1.07143V2.18839C12.5189 2.31367 11.0261 2.71385 9.64048 3.36964L9.082 2.40134C8.93992 2.15519 8.70588 1.97555 8.43135 1.90196C8.15683 1.82837 7.86432 1.86685 7.61816 2.00893C7.37201 2.15101 7.19238 2.38505 7.11879 2.65958C7.0452 2.9341 7.08367 3.22661 7.22575 3.47277L7.78691 4.44375C6.53015 5.32016 5.43832 6.41198 4.56191 7.66875L3.59093 7.10759C3.46905 7.03724 3.3345 6.99158 3.19497 6.97323C3.05545 6.95488 2.91367 6.96418 2.77774 7.00062C2.50322 7.07421 2.26917 7.25385 2.12709 7.5C1.98501 7.74615 1.94654 8.03867 2.02013 8.31319C2.09372 8.58771 2.27335 8.82176 2.5195 8.96384L3.48781 9.52232C2.83201 10.908 2.43184 12.4007 2.30656 13.9286H1.18959C0.905432 13.9286 0.63291 14.0415 0.431978 14.2424C0.231046 14.4433 0.118164 14.7158 0.118164 15C0.118164 15.2842 0.231046 15.5567 0.431978 15.7576C0.63291 15.9585 0.905432 16.0714 1.18959 16.0714H2.30656C2.43184 17.5993 2.83201 19.092 3.48781 20.4777L2.5195 21.0362C2.31512 21.154 2.15537 21.3361 2.06503 21.554C1.97469 21.772 1.95881 22.0137 2.01987 22.2416C2.08093 22.4695 2.2155 22.6708 2.40271 22.8144C2.58991 22.958 2.81928 23.0358 3.05522 23.0357C3.24334 23.0363 3.42823 22.9868 3.59093 22.8924L4.56191 22.3312C5.43832 23.588 6.53015 24.6798 7.78691 25.5562L7.22575 26.5272C7.08367 26.7734 7.0452 27.0659 7.11879 27.3404C7.19238 27.6149 7.37201 27.849 7.61816 27.9911C7.86432 28.1332 8.15683 28.1716 8.43135 28.098C8.70588 28.0244 8.93992 27.8448 9.082 27.5987L9.64048 26.6304C11.0261 27.2862 12.5189 27.6863 14.0467 27.8116V28.9286C14.0467 29.2127 14.1596 29.4853 14.3605 29.6862C14.5615 29.8871 14.834 30 15.1182 30C15.4023 30 15.6748 29.8871 15.8758 29.6862C16.0767 29.4853 16.1896 29.2127 16.1896 28.9286V27.8116C17.7175 27.6863 19.2102 27.2862 20.5958 26.6304L21.1543 27.5987C21.2964 27.8448 21.5304 28.0244 21.805 28.098C22.0795 28.1716 22.372 28.1332 22.6182 27.9911C22.8643 27.849 23.0439 27.6149 23.1175 27.3404C23.1911 27.0659 23.1527 26.7734 23.0106 26.5272L22.4494 25.5562C23.7062 24.6798 24.798 23.588 25.6744 22.3312L26.6454 22.8924C26.7673 22.9628 26.9018 23.0085 27.0414 23.0268C27.1809 23.0452 27.3227 23.0359 27.4586 22.9995C27.5945 22.963 27.722 22.9002 27.8336 22.8145C27.9452 22.7288 28.0389 22.6219 28.1092 22.5C28.2515 22.254 28.2902 21.9616 28.2169 21.6871C28.1435 21.4126 27.9641 21.1784 27.7182 21.0362L26.7499 20.4777C27.4057 19.092 27.8058 17.5993 27.9311 16.0714H29.0467C29.3309 16.0714 29.6034 15.9585 29.8043 15.7576C30.0053 15.5567 30.1182 15.2842 30.1182 15C30.1182 14.7158 30.0053 14.4433 29.8043 14.2424C29.6034 14.0415 29.3309 13.9286 29.0467 13.9286ZM7.61816 15C7.61761 13.865 7.8751 12.7447 8.37116 11.7238C8.86722 10.7029 9.58887 9.80814 10.4816 9.10714L13.8807 15L10.4816 20.8929C9.58887 20.1919 8.86722 19.2971 8.37116 18.2762C7.8751 17.2553 7.61761 16.135 7.61816 15ZM15.1182 22.5C14.1648 22.501 13.22 22.3192 12.3351 21.9643L15.7369 16.0714H22.5405C22.2805 17.8552 21.3877 19.4861 20.0251 20.6663C18.6624 21.8465 16.9208 22.4973 15.1182 22.5ZM15.7369 13.9286L12.3351 8.03571C13.3887 7.61484 14.5239 7.43846 15.6555 7.51984C16.7871 7.60122 17.8854 7.93825 18.8679 8.50554C19.8503 9.07284 20.6913 9.85563 21.3274 10.795C21.9636 11.7343 22.3783 12.8057 22.5405 13.9286H15.7369Z" fill="#CC9966"/>
</svg>
