<svg width="32" height="32" viewBox="0 0 32 32" fill="none" xmlns="http://www.w3.org/2000/svg">
<g id="vuesax/outline/sms">
<g id="sms">
<path id="Vector" d="M22.037 27.659H9.07406C4.34258 27.659 1.62036 24.9368 1.62036 20.2053V11.1312C1.62036 6.39971 4.34258 3.67749 9.07406 3.67749H22.037C26.7685 3.67749 29.4907 6.39971 29.4907 11.1312V20.2053C29.4907 24.9368 26.7685 27.659 22.037 27.659ZM9.07406 5.62193C5.36666 5.62193 3.56481 7.42379 3.56481 11.1312V20.2053C3.56481 23.9127 5.36666 25.7145 9.07406 25.7145H22.037C25.7444 25.7145 27.5463 23.9127 27.5463 20.2053V11.1312C27.5463 7.42379 25.7444 5.62193 22.037 5.62193H9.07406Z" fill="white"/>
<path id="Vector_2" d="M15.5552 16.796C14.4663 16.796 13.3645 16.459 12.5219 15.7719L8.46449 12.5312C8.04968 12.1942 7.97191 11.5849 8.30894 11.1701C8.64598 10.7553 9.25524 10.6775 9.67006 11.0145L13.7275 14.2553C14.7126 15.046 16.3849 15.046 17.37 14.2553L21.4275 11.0145C21.8423 10.6775 22.4645 10.7423 22.7886 11.1701C23.1256 11.5849 23.0608 12.2071 22.633 12.5312L18.5756 15.7719C17.746 16.459 16.6441 16.796 15.5552 16.796Z" fill="white"/>
</g>
</g>
</svg>
