<svg width="77" height="36" viewBox="0 0 77 36" fill="none" xmlns="http://www.w3.org/2000/svg">
<g id="tribe">
<g id="Group" opacity="0.3">
<path id="Vector" d="M32.1187 6.83997L27.6004 7.82649V11.4438L32.1187 10.4572V6.83997Z" fill="#4A2C2A"/>
<path id="Vector_2" d="M23.0821 28.6532V17.8014C23.0821 17.8014 24.7352 15.938 26.3882 17.0341V12.7592C26.3882 12.7592 25.5066 12.3207 23.8535 12.8688C23.8535 12.8688 22.8617 13.4169 22.6413 14.0746L22.4209 12.7592H18.5638V12.8688V28.6532H23.0821Z" fill="#4A2C2A"/>
<path id="Vector_3" d="M9.30688 10.0188C9.30688 10.0188 9.08648 22.2955 9.30688 24.5974C9.52728 26.8993 11.2905 28.2147 11.2905 28.2147C15.1476 29.5301 17.1312 28.2147 17.1312 28.2147V24.7071C13.715 25.6936 13.715 23.2821 13.715 23.2821V16.7052H17.1312V12.8687H13.8252V9.03223L9.30688 10.0188Z" fill="#4A2C2A"/>
<path id="Vector_4" d="M32.1187 12.8688H27.6004V28.6532H32.1187V12.8688Z" fill="#4A2C2A"/>
<path id="Vector_5" d="M37.739 6.83997L33.6616 7.82649V28.7628H33.7718H38.29V27.6667C40.0533 28.8724 42.0369 28.7628 42.0369 28.7628C45.1226 28.1051 45.894 26.5705 45.894 26.5705C45.894 26.5705 46.996 25.584 47.547 21.9667C48.098 18.3495 46.3348 15.4995 46.3348 15.4995C46.3348 15.4995 45.1226 13.088 42.2573 12.5399C39.3921 11.9918 37.9594 13.8553 37.9594 13.8553L37.739 13.9649V9.14186V6.83997ZM38.29 17.3629C38.29 17.3629 38.8411 16.3764 40.6043 16.486C42.3675 16.5956 43.1389 19.4456 43.1389 19.4456C43.1389 19.4456 43.5797 23.3917 41.5961 24.4878C39.6125 25.4744 38.29 24.0494 38.29 24.0494V17.3629Z" fill="#4A2C2A"/>
<path id="Vector_6" d="M57.5754 12.8687C57.5754 12.8687 53.2775 11.4438 50.4123 14.6226C47.547 17.8014 48.5388 22.6244 48.5388 22.6244C48.5388 22.6244 48.9796 26.6801 52.7265 28.2147C56.5836 29.7493 60.7713 27.557 60.7713 27.557V24.0494C58.2366 25.0359 57.1346 25.0359 55.0407 24.8167C52.9469 24.5975 52.9469 22.2956 52.9469 22.2956H61.6529C61.9835 19.6648 61.4325 18.2398 61.4325 18.2398C60.8815 14.2937 57.5754 12.8687 57.5754 12.8687ZM52.8367 19.0071C52.8367 18.8975 52.7265 16.3764 55.0407 16.1572C57.355 15.9379 57.4652 19.0071 57.4652 19.0071H52.8367Z" fill="#4A2C2A"/>
</g>
</g>
</svg>
