<svg width="31" height="26" viewBox="0 0 31 26" fill="none" xmlns="http://www.w3.org/2000/svg">
<path id="Vector" d="M28.3696 0H2.98494C2.3729 0 1.78593 0.243131 1.35315 0.675907C0.920377 1.10868 0.677246 1.69565 0.677246 2.30769V23.0769C0.677246 23.689 0.920377 24.2759 1.35315 24.7087C1.78593 25.1415 2.3729 25.3846 2.98494 25.3846H28.3696C28.9816 25.3846 29.5686 25.1415 30.0013 24.7087C30.4341 24.2759 30.6772 23.689 30.6772 23.0769V2.30769C30.6772 1.69565 30.4341 1.10868 30.0013 0.675907C29.5686 0.243131 28.9816 0 28.3696 0ZM26.6792 16.7712C25.6015 17.8489 24.1411 18.4565 22.6169 18.4611C21.0928 18.4657 19.6287 17.8669 18.5446 16.7957L11.2479 10.2894L11.2061 10.2404C10.7215 9.75748 10.1047 9.429 9.43356 9.29641C8.76242 9.16381 8.06703 9.23307 7.43522 9.49541C6.80341 9.75776 6.2635 10.2014 5.88367 10.7704C5.50384 11.3394 5.30113 12.0082 5.30113 12.6923C5.30113 13.3764 5.50384 14.0452 5.88367 14.6142C6.2635 15.1832 6.80341 15.6269 7.43522 15.8892C8.06703 16.1516 8.76242 16.2208 9.43356 16.0882C10.1047 15.9556 10.7215 15.6271 11.2061 15.1442C11.258 15.0923 11.3085 15.0389 11.3503 14.9856C11.4507 14.8719 11.5725 14.7792 11.7087 14.7126C11.845 14.646 11.993 14.6069 12.1443 14.5976C12.2957 14.5882 12.4474 14.6087 12.5908 14.658C12.7342 14.7072 12.8665 14.7842 12.9801 14.8846C13.0938 14.985 13.1865 15.1068 13.2531 15.243C13.3197 15.3793 13.3588 15.5273 13.3682 15.6786C13.3775 15.83 13.357 15.9817 13.3078 16.1251C13.2585 16.2685 13.1815 16.4008 13.0811 16.5144C13.0018 16.6038 12.9181 16.6918 12.8345 16.7755C12.0287 17.5814 11.0023 18.1307 9.88478 18.354C8.76723 18.5773 7.60858 18.4646 6.55501 18.0301C5.50144 17.5956 4.60014 16.8588 3.96483 15.9127C3.32952 14.9666 2.98866 13.8535 2.98524 12.7139C2.98183 11.5742 3.31602 10.4591 3.94564 9.50918C4.57527 8.55926 5.47213 7.8171 6.52308 7.37632C7.57403 6.93554 8.73198 6.81589 9.85085 7.03247C10.9697 7.24905 11.9994 7.79216 12.8099 8.59327L20.1051 15.0995L20.1527 15.1442C20.6377 15.6267 21.2548 15.9546 21.9261 16.0866C22.5974 16.2186 23.2927 16.1488 23.9243 15.8859C24.5558 15.623 25.0954 15.1788 25.4747 14.6095C25.854 14.0402 26.0561 13.3712 26.0555 12.6871C26.0549 12.003 25.8516 11.3344 25.4713 10.7657C25.091 10.1971 24.5507 9.75388 23.9186 9.49209C23.2866 9.2303 22.5911 9.16166 21.9201 9.29484C21.2491 9.42803 20.6326 9.75706 20.1484 10.2404C20.0965 10.2923 20.0474 10.3442 20.0042 10.399C19.8016 10.6286 19.5162 10.7682 19.2107 10.7873C18.9052 10.8063 18.6046 10.7033 18.3751 10.5007C18.1456 10.2982 18.0059 10.0128 17.9868 9.70724C17.9678 9.40172 18.0709 9.10115 18.2734 8.87163C18.3513 8.78221 18.4349 8.69279 18.52 8.60913C19.6059 7.54709 21.0668 6.95613 22.5857 6.96449C24.1046 6.97286 25.5589 7.57988 26.6331 8.65381C27.7072 9.72775 28.3145 11.182 28.3231 12.7008C28.3317 14.2197 27.741 15.6807 26.6792 16.7668V16.7712Z" fill="#CC9966"/>
</svg>
