<svg width="43" height="37" viewBox="0 0 43 37" fill="none" xmlns="http://www.w3.org/2000/svg">
<path id="s" d="M2.96133 13.8891C2.8918 13.6109 2.83385 13.3096 2.7875 12.9852L2.64844 12.0117C2.55573 11.3164 2.50938 10.5052 2.50938 9.57812C2.50938 8.62786 2.71797 7.53854 3.13516 6.31016C3.57552 5.08177 4.28242 4.01563 5.25586 3.11172C7.3418 1.16485 10.5634 0.191406 14.9207 0.191406L40.7516 22.8934C40.9833 23.7277 41.0992 24.8402 41.0992 26.2309C41.0992 27.5983 40.8674 28.9078 40.4039 30.1594C39.9404 31.3878 39.1987 32.4539 38.1789 33.3578C36.0003 35.351 32.825 36.3477 28.6531 36.3477L3.20469 13.8891H2.96133ZM41.3426 0.539062C42.0379 1.60521 42.3855 3.06537 42.3855 4.91953C42.3855 8.34974 41.0992 10.9108 38.5266 12.6027L24.5855 0.539062H41.3426ZM1.95312 36C1.25781 34.9339 0.910156 33.4737 0.910156 31.6195C0.910156 28.2125 2.1849 25.663 4.73438 23.9711L18.7102 36H1.95312Z" fill="#CC9966"/>
</svg>
